<svg xmlns="http://www.w3.org/2000/svg" xmlns:xlink="http://www.w3.org/1999/xlink" width="47.758" height="48.93" viewBox="0 0 47.758 48.93"><defs><clipPath id="a"><rect width="47.758" height="48.93" fill="#b581fb"/></clipPath></defs><g clip-path="url(#a)"><path d="M34.179,47.854c-.017-1.319-.006-2.639-.006-4.01.2-.012.372-.03.539-.03,1.179,0,2.357,0,3.536,0,.8,0,1.032-.237,1.032-1.018,0-1.5,0-2.992,0-4.568H39.8c1.21,0,2.421.008,3.631,0a4.214,4.214,0,0,0,3.707-6.432q-3.714-6.48-7.478-12.931a2.655,2.655,0,0,1-.387-1.425c.017-3.694,0-7.389.016-11.083A1.364,1.364,0,0,0,38.853,5.3Q36.406,2.88,33.988.433A1.372,1.372,0,0,0,32.931,0Q19.553.014,6.174.007c-.812,0-1.035.229-1.037,1.058q0,1.744,0,3.487v.572H3.472c-.812,0-1.624,0-2.437,0-.784,0-1.028.247-1.028,1.03q0,7.644,0,15.287Q.007,34.6,0,47.766A1.3,1.3,0,0,0,.475,48.93H33.638a1.072,1.072,0,0,0,.541-1.077m3.533-5.607H34.218v-4h3.494ZM34.034,2.793,36.5,5.263H34.034ZM6.687,1.564H32.477v.492q0,1.863,0,3.726c0,.8.224,1.029,1.013,1.032,1.226,0,2.453,0,3.679,0h.568v10.2a4.437,4.437,0,0,0-3.54.018c-.01-.219-.023-.385-.023-.551,0-1.672-.009-3.344,0-5.016a1.368,1.368,0,0,0-.441-1.057q-2.43-2.4-4.83-4.832a1.47,1.47,0,0,0-1.142-.462q-10.225.014-20.451.006H6.687ZM31.34,10.388H28.9V7.944l2.438,2.444M32.6,47.369H1.576V6.685h25.77v.51q0,1.768,0,3.535c0,1.006.2,1.214,1.192,1.214h4.107v.56c0,1.608-.018,3.217.009,4.825a2.921,2.921,0,0,1-.431,1.608q-2.961,5.041-5.849,10.125a.916.916,0,0,1-.929.537q-8.768-.026-17.537-.01a3.468,3.468,0,0,0-.619.031.745.745,0,0,0-.024,1.457,2.822,2.822,0,0,0,.617.039q8.314,0,16.629,0H25.2a4.641,4.641,0,0,0-.842,4.154H7.862a3.991,3.991,0,0,0-.477.01A.759.759,0,0,0,7.443,36.8c.143.009.287,0,.43,0q8.434,0,16.867-.007a1.052,1.052,0,0,1,.8.313,4.149,4.149,0,0,0,2.96,1.119h4.1ZM32.3,36.7q-1.827,0-3.654,0a2.705,2.705,0,0,1-2.47-4.263q3.656-6.345,7.324-12.683a2.7,2.7,0,0,1,4.922.009q3.69,6.381,7.369,12.768a2.669,2.669,0,0,1-1.4,4.01,3.8,3.8,0,0,1-1.125.154q-1.827.01-3.654.008l-3.654,0H32.3" transform="translate(0 0)" fill="#b581fb"/><path d="M260.4,287.51l-3.654,0h0l3.654,0" transform="translate(-220.793 -250.812)" fill="#b581fb"/><path d="M72.529,187.2a2.808,2.808,0,0,0-.476-.011H53.482a2.278,2.278,0,0,0-.476.017.759.759,0,0,0,.01,1.5,2.051,2.051,0,0,0,.428.015H72.111a2.281,2.281,0,0,0,.429-.012.758.758,0,0,0-.01-1.5" transform="translate(-45.693 -163.292)" fill="#b581fb"/><path d="M72.519,321.036a3.577,3.577,0,0,0-.477-.013H55.8c-.892,0-1.784-.008-2.676.006a.729.729,0,0,0-.769.689.754.754,0,0,0,.7.818,2.893,2.893,0,0,0,.429.016q9.294,0,18.587,0a2.12,2.12,0,0,0,.566-.058.689.689,0,0,0,.539-.749.7.7,0,0,0-.651-.706" transform="translate(-45.668 -280.047)" fill="#b581fb"/><path d="M53.05,142.639a.728.728,0,0,0-.685.773.709.709,0,0,0,.685.723,4.327,4.327,0,0,0,.525.016H72.018c.807,0,1.191-.259,1.173-.787-.017-.508-.385-.742-1.173-.742H53.527a3.618,3.618,0,0,0-.477.016" transform="translate(-45.681 -124.419)" fill="#b581fb"/><path d="M53.086,99.6a3.127,3.127,0,0,0,.334.006H66.638a2.616,2.616,0,0,0,.428-.015.759.759,0,0,0,.65-.9.8.8,0,0,0-.89-.62c-2.259.008-4.517,0-6.776,0H55.278c-.716,0-1.432-.009-2.147,0a.734.734,0,0,0-.776.732.756.756,0,0,0,.731.786" transform="translate(-45.672 -85.555)" fill="#b581fb"/><path d="M268.82,179.186a1.677,1.677,0,0,0,1.664-1.736c.024-1.049.005-2.1.005-3.149h.1c.023-.493.05-.986.068-1.479.019-.509.037-1.018.043-1.527a1.891,1.891,0,0,0-3.78.07q.113,3.03.225,6.06a1.684,1.684,0,0,0,1.678,1.762m.363-8.063c-.081,2.159-.162,4.332-.243,6.5l-.193.013a2.1,2.1,0,0,1-.076-.359q-.114-2.933-.218-5.866c-.015-.421.114-.476.73-.293" transform="translate(-232.847 -147.862)" fill="#b581fb"/><path d="M270.488,251.562a1.921,1.921,0,0,0-1.9-1.935,1.927,1.927,0,1,0,1.9,1.935m-2.284.009a.567.567,0,0,1,.368-.38c.129-.019.291.184.563.378-.282.178-.44.357-.586.347s-.365-.249-.345-.345" transform="translate(-232.61 -217.765)" fill="#b581fb"/></g></svg>