<svg xmlns="http://www.w3.org/2000/svg" xmlns:xlink="http://www.w3.org/1999/xlink" width="48.799" height="48.931" viewBox="0 0 48.799 48.931"><defs><clipPath id="a"><rect width="48.799" height="48.931" fill="#6d05f7"/></clipPath></defs><g clip-path="url(#a)"><path d="M331.962,9.878a8.54,8.54,0,0,0,16.816-.446,8.336,8.336,0,0,0-5.51-8.9A20.445,20.445,0,0,0,341.148,0h-1.72c-.291.064-.581.134-.874.192a8.362,8.362,0,0,0-6.591,9.687m4.051,3.931a5.548,5.548,0,0,1,8.962-.267,7.032,7.032,0,0,1-8.962.267m9.223-10.441A6.709,6.709,0,0,1,346,12.431a7.121,7.121,0,0,0-11.066.333,6.668,6.668,0,0,1,.04-8.932,7.182,7.182,0,0,1,10.262-.464" transform="translate(-300.046)" fill="#6d05f7"/><path d="M.355,10a8.473,8.473,0,0,0,9.476,6.648,8.431,8.431,0,0,0,7.333-7.332A8.327,8.327,0,0,0,11.746.577,21.622,21.622,0,0,0,9.542,0H7.822C7.514.065,7.207.134,6.9.2A8.358,8.358,0,0,0,.355,10M4.4,13.834a5.5,5.5,0,0,1,8.951-.284,7.1,7.1,0,0,1-8.951.284M13.519,3.29a6.749,6.749,0,0,1,.848,9.178A6.916,6.916,0,0,0,8.735,9.963,6.842,6.842,0,0,0,3.3,12.8a6.736,6.736,0,0,1,.184-9.126A7.176,7.176,0,0,1,13.519,3.29" transform="translate(-0.173)" fill="#6d05f7"/><path d="M155.361,157.786a1.732,1.732,0,0,0,1.879-.936,10.738,10.738,0,0,0,1.265-4.172,1.81,1.81,0,0,0-1.329-2.053c-.114-.042-.271-.153-.285-.25a10.164,10.164,0,0,0-1.524-4.01,1.978,1.978,0,0,0-.357-2.973,11.472,11.472,0,0,0-3.078-2.152,1.844,1.844,0,0,0-2.508.655.478.478,0,0,1-.358.2,10.633,10.633,0,0,0-4.128.032.458.458,0,0,1-.356-.186,1.845,1.845,0,0,0-2.535-.686,11.4,11.4,0,0,0-3.069,2.164c-1.074,1.057-1.14,1.848-.235,3.08a10.139,10.139,0,0,0-1.471,4.178c-.01.087-.144.193-.243.231a1.861,1.861,0,0,0-1.354,2.217,11.11,11.11,0,0,0,1.343,4,1.8,1.8,0,0,0,2.026.907.486.486,0,0,1,.569.18,10.124,10.124,0,0,0,3.357,2.556.765.765,0,0,1,.34.478,1.867,1.867,0,0,0,1.516,1.527,10.992,10.992,0,0,0,4.411-.01,1.81,1.81,0,0,0,1.447-1.42.858.858,0,0,1,.4-.5,10.082,10.082,0,0,0,3.674-2.83.569.569,0,0,1,.6-.227m-1.231-1.3a8.621,8.621,0,0,1-4.319,3.315c-.513.182-.664.418-.555.948.093.458-.124.623-.512.668-.584.068-1.17.119-1.754.177-.594-.061-1.181-.109-1.764-.186-.378-.05-.556-.251-.452-.667a.712.712,0,0,0-.53-1,8.684,8.684,0,0,1-4.044-3.075.72.72,0,0,0-1.148-.2c-.471.3-.63.258-.895-.236a9.811,9.811,0,0,1-1.052-3.2c-.09-.6.034-.734.65-.757.657-.024.855-.188.9-.848a8.671,8.671,0,0,1,1.619-4.62.734.734,0,0,0-.195-1.154c-.693-.541-.74-.673-.065-1.222a29.946,29.946,0,0,1,2.6-1.843c.447-.29.644-.176.822.311.336.925.493,1,1.448.74a8.291,8.291,0,0,1,4.387-.02c.8.211,1.02.09,1.285-.678.194-.563.339-.625.877-.362a9.917,9.917,0,0,1,2.767,2.013c.364.374.345.569-.062.892-.591.468-.631.727-.175,1.36a8.473,8.473,0,0,1,1.586,4.337c.048.58.274.792.845.8.659.014.762.114.685.762a10.1,10.1,0,0,1-.994,3.27.489.489,0,0,1-.807.234.717.717,0,0,0-1.138.237" transform="translate(-122.658 -127.496)" fill="#6d05f7"/><path d="M340.16,336.369a8.361,8.361,0,1,0,8.53,8.357,8.458,8.458,0,0,0-8.53-8.357m-4.3,13.813c1.736-3.094,7.056-3.257,8.945-.275a7.029,7.029,0,0,1-8.945.275m9.99-1.365a7.118,7.118,0,0,0-11.086.312,6.7,6.7,0,0,1,.1-8.983,7.181,7.181,0,0,1,10.054-.57,6.766,6.766,0,0,1,.935,9.241" transform="translate(-299.891 -304.157)" fill="#6d05f7"/><path d="M9.161,336.337a8.47,8.47,0,0,0-4.4.845.7.7,0,0,0-.393.984.722.722,0,0,0,.983.31c.089-.034.172-.083.259-.122a7.06,7.06,0,0,1,9.971,6.917,6.272,6.272,0,0,1-1.36,3.507,7.113,7.113,0,0,0-11.11.331,6.753,6.753,0,0,1-.267-8.57c.345-.48.331-.912-.038-1.173-.354-.25-.763-.144-1.1.308a7.99,7.99,0,0,0-1.448,6.954A8.476,8.476,0,0,0,9.8,352.942a8.387,8.387,0,0,0,7.055-9.981,8.477,8.477,0,0,0-7.694-6.624M4.2,350.135a5.531,5.531,0,0,1,8.956-.305,7.009,7.009,0,0,1-8.956.305" transform="translate(0.001 -304.107)" fill="#6d05f7"/><path d="M68.133,371.592a3.114,3.114,0,0,0,.947-2.281,3.247,3.247,0,0,0-.9-2.385,2.22,2.22,0,0,0-3.139-.131,3.4,3.4,0,0,0-.019,4.865,2.22,2.22,0,0,0,3.106-.067m-2.3-3.566a.829.829,0,0,1,1.433.029,6.655,6.655,0,0,1,.493,1.193,6.686,6.686,0,0,1-.509,1.189.83.83,0,0,1-1.407.022,2.033,2.033,0,0,1-.01-2.432" transform="translate(-57.881 -331.138)" fill="#6d05f7"/><path d="M227.349,462.067a.7.7,0,0,0-.728.7.719.719,0,0,0,.685.709.731.731,0,0,0,.733-.715.707.707,0,0,0-.69-.7" transform="translate(-204.919 -417.816)" fill="#6d05f7"/><path d="M456.9,309.723a.715.715,0,0,0-.735.717.692.692,0,0,0,.7.693.706.706,0,0,0,.716-.682.733.733,0,0,0-.682-.729" transform="translate(-412.483 -280.062)" fill="#6d05f7"/><path d="M39.892,184.136a.709.709,0,0,0,.036-1.418.709.709,0,1,0-.036,1.418" transform="translate(-35.443 -165.22)" fill="#6d05f7"/><path d="M312.258,451.165a.719.719,0,0,0-.72.674.726.726,0,0,0,.7.745.718.718,0,0,0,.716-.726.709.709,0,0,0-.7-.693" transform="translate(-281.703 -407.959)" fill="#6d05f7"/><path d="M42.884,310.9a.7.7,0,0,0,.7.746.738.738,0,0,0,.713-.7.709.709,0,0,0-.689-.71.682.682,0,0,0-.724.663" transform="translate(-38.777 -280.524)" fill="#6d05f7"/><path d="M462.227,225.148a.709.709,0,0,0,1.418-.01.694.694,0,0,0-.688-.706.7.7,0,0,0-.729.716" transform="translate(-417.962 -202.939)" fill="#6d05f7"/><path d="M184.522,42.717a.694.694,0,0,0,.682-.712.72.72,0,0,0-.707-.7.733.733,0,0,0-.711.7.7.7,0,0,0,.736.709" transform="translate(-166.186 -37.351)" fill="#6d05f7"/><path d="M270.357,460.918a.7.7,0,0,0-.755.689.709.709,0,0,0,1.417.041.7.7,0,0,0-.663-.73" transform="translate(-243.784 -416.777)" fill="#6d05f7"/><path d="M464.8,268.168a.686.686,0,0,0-.664-.724.708.708,0,0,0-.748.7.743.743,0,0,0,.7.715.712.712,0,0,0,.712-.689" transform="translate(-419.015 -241.832)" fill="#6d05f7"/><path d="M312.052,39.3a.737.737,0,0,0,.689-.723.709.709,0,0,0-.756-.691.687.687,0,0,0-.653.734.708.708,0,0,0,.72.68" transform="translate(-281.516 -34.257)" fill="#6d05f7"/><path d="M226.435,33.217a.718.718,0,0,0,.71-.742.693.693,0,0,0-.723-.669.7.7,0,0,0-.693.705.736.736,0,0,0,.706.706" transform="translate(-204.111 -28.76)" fill="#6d05f7"/><path d="M34.511,268.987a.691.691,0,0,0-.745-.693.708.708,0,0,0-.672.725.727.727,0,0,0,.728.68.708.708,0,0,0,.689-.712" transform="translate(-29.924 -242.6)" fill="#6d05f7"/><path d="M453.3,183.9a.7.7,0,0,0,.7-.7.674.674,0,0,0-.676-.707.7.7,0,0,0-.729.664.721.721,0,0,0,.71.744" transform="translate(-409.247 -165.02)" fill="#6d05f7"/><path d="M184.924,454.763a.7.7,0,0,0-.728.714.693.693,0,0,0,.707.685.7.7,0,0,0,.021-1.4" transform="translate(-166.556 -411.212)" fill="#6d05f7"/><path d="M269.5,31.976a.7.7,0,0,0-.045-1.4.7.7,0,1,0,.045,1.4" transform="translate(-243.018 -27.647)" fill="#6d05f7"/><path d="M32.706,226.633a.7.7,0,0,0,.011-1.4.7.7,0,1,0-.011,1.4" transform="translate(-28.93 -203.662)" fill="#6d05f7"/><path d="M399.8,35.224a3.26,3.26,0,0,0,.868-2.28,3.21,3.21,0,0,0-.816-2.215,2.233,2.233,0,0,0-3.408-.038,3.422,3.422,0,0,0,.011,4.531,2.239,2.239,0,0,0,3.345,0m-2.339-3.535a.8.8,0,0,1,1.341.02,7.136,7.136,0,0,1,.564,1.251,7.188,7.188,0,0,1-.61,1.27.788.788,0,0,1-1.276,0,2.017,2.017,0,0,1-.018-2.539" transform="translate(-357.712 -27.054)" fill="#6d05f7"/><path d="M68.165,35.27a3.435,3.435,0,0,0,.063-4.531,2.237,2.237,0,0,0-3.344-.083,3.416,3.416,0,0,0,0,4.635,2.232,2.232,0,0,0,3.279-.021m-2.276-3.6a.77.77,0,0,1,1.24.007,7.554,7.554,0,0,1,.636,1.329,7.611,7.611,0,0,1-.631,1.261.79.79,0,0,1-1.247.012,2.008,2.008,0,0,1,0-2.609" transform="translate(-57.852 -27.078)" fill="#6d05f7"/><path d="M199.6,190.22a5.785,5.785,0,0,0-4.639.127,1.01,1.01,0,0,0-.461.682.711.711,0,0,0,.362.584,1.26,1.26,0,0,0,.813-.049,4.68,4.68,0,1,1-2.931,4.606,4.884,4.884,0,0,1,.773-2.855.706.706,0,0,0-.377-1.139.789.789,0,0,0-.89.483,5.9,5.9,0,0,0-.174,6.178,5.822,5.822,0,0,0,4.938,3.174,6.235,6.235,0,0,0,6.41-5.042,6.111,6.111,0,0,0-3.824-6.749" transform="translate(-172.967 -171.621)" fill="#6d05f7"/><path d="M396.426,366.97a3.417,3.417,0,0,0,.038,4.53,2.231,2.231,0,0,0,3.277.043,3.2,3.2,0,0,0,.921-2.3,3.263,3.263,0,0,0-.829-2.26,2.232,2.232,0,0,0-3.408-.009m2.3,3.55a.773.773,0,0,1-1.21.017,2,2,0,0,1-.005-2.641.772.772,0,0,1,1.241.036,7.651,7.651,0,0,1,.618,1.33,7.671,7.671,0,0,1-.643,1.259" transform="translate(-357.702 -331.117)" fill="#6d05f7"/></g></svg>