<svg xmlns="http://www.w3.org/2000/svg" xmlns:xlink="http://www.w3.org/1999/xlink" width="48.926" height="48.931" viewBox="0 0 48.926 48.931"><defs><clipPath id="a"><rect width="48.926" height="48.931" fill="#b581fb"/></clipPath></defs><g clip-path="url(#a)"><path d="M41.09,2.382a5.1,5.1,0,0,1-3.3-.879A10.748,10.748,0,0,0,36.308.748a1.727,1.727,0,0,0-2.461,1.441,6.309,6.309,0,0,0,.624,3.381,31.953,31.953,0,0,0,3.455,6.14c.1.151.2.306.335.511a2.853,2.853,0,0,0-3.1,1.916,2.807,2.807,0,0,0,1.224,3.42c-.145.162-.274.3-.395.443-.745.891-1.494,1.779-2.23,2.677a.767.767,0,0,0-.025,1.012.734.734,0,0,0,.894.267,1.393,1.393,0,0,0,.507-.409q1.4-1.6,2.775-3.215a1.06,1.06,0,0,1,.9-.394q7.88.02,15.76.007a5.376,5.376,0,0,0,.855-.06,2.835,2.835,0,0,0,.174-5.564c-.329-.073-.671-.09-1.051-.138.257-.38.49-.718.717-1.061a30.66,30.66,0,0,0,3.071-5.592A7.462,7.462,0,0,0,59,2.618,1.826,1.826,0,0,0,56.267.829c-.436.189-.835.46-1.265.663a14.118,14.118,0,0,1-1.745.75,3,3,0,0,1-3.1-.507A6.5,6.5,0,0,0,47.048,0H45.806A6.368,6.368,0,0,0,42.67,1.7a3.112,3.112,0,0,1-1.58.687M54.818,13.861a1.223,1.223,0,0,1,1.314,1.546,1.144,1.144,0,0,1-.969.872,3.618,3.618,0,0,1-.617.035q-8.139,0-16.278,0a3.635,3.635,0,0,1-.618-.034A1.185,1.185,0,0,1,36.628,15a1.2,1.2,0,0,1,1.149-1.128c.444-.027.891-.009,1.336-.009h7.3c2.8,0,5.6,0,8.4,0M48.728,2.669a4.82,4.82,0,0,0,5.129,1.1,18.086,18.086,0,0,0,2.119-.961c.287-.135.555-.313.847-.432.488-.2.688-.084.609.434a8.508,8.508,0,0,1-.492,1.881,37.564,37.564,0,0,1-3.865,6.785,1.4,1.4,0,0,1-1.5.765,7.493,7.493,0,0,0-1.088-.009c0-1.287,0-2.5,0-3.706a3.435,3.435,0,0,0-.01-.429.806.806,0,0,0-.839-.745.766.766,0,0,0-.773.8c-.015,1.146-.006,2.293-.007,3.439,0,.189,0,.378,0,.6h-4.87c-.008-.162-.022-.33-.023-.5,0-1.115,0-2.229,0-3.344,0-.653-.308-1.008-.83-1-.506.005-.786.347-.8.977,0,.111,0,.223,0,.334q0,1.5,0,3.009v.56c-.653,0-1.255.011-1.855-.01a.512.512,0,0,1-.331-.211,34.823,34.823,0,0,1-4.285-7.362,8.1,8.1,0,0,1-.462-1.885c-.069-.508.107-.6.583-.389.375.168.729.386,1.09.586a6.551,6.551,0,0,0,4.789.96A4.646,4.646,0,0,0,44.03,2.693a3.125,3.125,0,0,1,4.7-.024" transform="translate(-29.275 0.001)" fill="#b581fb"/><path d="M8,214.913a21.572,21.572,0,0,0,7.3,1.525,28.142,28.142,0,0,0,8.483-.7c.647-.162.949-.7.661-1.2a.864.864,0,0,0-1.071-.375,26.4,26.4,0,0,1-13.039-.168,10.8,10.8,0,0,1-8.207-8.484,18.687,18.687,0,0,1,1.1-12c.3-.664.18-1.138-.308-1.346s-.933,0-1.184.7c-.451,1.254-.9,2.514-1.239,3.8-.251.946-.332,1.937-.489,2.908v2.962c.127.9.218,1.8.388,2.686A12.363,12.363,0,0,0,8,214.913" transform="translate(0 -167.564)" fill="#b581fb"/><path d="M224.466,159.622q-8.67,0-17.34,0a2.492,2.492,0,0,0-2.75,2.751q0,5.756,0,11.512,0,5.78,0,11.56a2.478,2.478,0,0,0,2.723,2.724h17.387a2.474,2.474,0,0,0,2.724-2.72q0-11.536,0-23.072a2.487,2.487,0,0,0-2.745-2.755m1.117,25.787c0,.876-.259,1.132-1.142,1.132H207.151c-.886,0-1.146-.256-1.146-1.129q0-11.511,0-23.022c0-.878.257-1.135,1.143-1.135q8.645,0,17.291,0c.888,0,1.144.255,1.144,1.132q0,5.756,0,11.511t0,11.511" transform="translate(-178.286 -139.244)" fill="#b581fb"/><path d="M204.377,181.181q0,5.756,0,11.512,0,5.78,0,11.56,0-5.78,0-11.56,0-5.756,0-11.512" transform="translate(-178.286 -158.052)" fill="#b581fb"/><path d="M94.074,178.217a6.618,6.618,0,0,0-3.216-1.357c-.4-.054-.483-.2-.481-.571.016-2.1.008-4.2.008-6.306v-.465a4.127,4.127,0,0,1,4.055,3.437c.063.6.4.954.88.921a.8.8,0,0,0,.734-1.023,6.167,6.167,0,0,0-.521-1.862,6.022,6.022,0,0,0-4.3-3.035c-.791-.178-.792-.17-.855-.963a1.286,1.286,0,0,0-.037-.235.8.8,0,0,0-.851-.614.779.779,0,0,0-.73.747,2.827,2.827,0,0,0-.006.525c.028.3-.079.415-.388.455a6.883,6.883,0,0,0-3.159,1.254,4.594,4.594,0,0,0-1.527,6.212,6.3,6.3,0,0,0,4.655,2.917c.365.061.423.2.421.518-.013,1.736-.006,3.471-.006,5.207v1.72a13.3,13.3,0,0,1-1.6-.486,3.636,3.636,0,0,1-2.5-3.243.77.77,0,0,0-.837-.738.778.778,0,0,0-.772.852,4.821,4.821,0,0,0,2.137,3.862,7.453,7.453,0,0,0,3.571,1.354c0,.267-.007.519,0,.77a.824.824,0,0,0,.792.9.838.838,0,0,0,.832-.867c.015-.265,0-.531,0-.8a7.517,7.517,0,0,0,3.466-1.275,4.66,4.66,0,0,0,.225-7.8m-5.348-1.54a4.822,4.822,0,0,1-3.66-2.192,2.66,2.66,0,0,1,.054-2.935,4.82,4.82,0,0,1,3.606-2.092Zm5.706,5.573a3.11,3.11,0,0,1-1.236,2.229,5.361,5.361,0,0,1-2.787,1.159V178.5c2.029-.128,4.145,1.854,4.023,3.752" transform="translate(-72.438 -144.932)" fill="#b581fb"/><path d="M243.657,198.13c1.878,0,3.757,0,5.635,0a1.6,1.6,0,0,0,1.744-1.71q.017-1.552,0-3.1a1.6,1.6,0,0,0-1.714-1.7q-5.611-.007-11.223,0a1.6,1.6,0,0,0-1.719,1.692c-.011,1-.006,2.006,0,3.009a1.627,1.627,0,0,0,1.834,1.812q2.722,0,5.444,0m-5.63-4.858h11.345v3.2H238.027Z" transform="translate(-206.198 -167.152)" fill="#b581fb"/><path d="M256.223,242.648q-2.722,0-5.444,0,2.722,0,5.444,0c1.878,0,3.757,0,5.635,0-1.878.007-3.757,0-5.635,0" transform="translate(-218.765 -211.67)" fill="#b581fb"/><path d="M239.721,287.4c-.827-.022-1.655-.021-2.482,0a.807.807,0,0,0,0,1.614c.4.018.8,0,1.193,0,.43,0,.86.017,1.289,0a.806.806,0,0,0,0-1.61" transform="translate(-206.26 -250.698)" fill="#b581fb"/><path d="M243.87,300.131c-.4,0-.8.015-1.193,0,.4.018.8,0,1.193,0,.43,0,.86.016,1.289-.005-.429.022-.859,0-1.289,0" transform="translate(-211.697 -261.812)" fill="#b581fb"/><path d="M281.984,263.537c.78.014,1.56.015,2.34,0a.805.805,0,0,0,.851-.834.794.794,0,0,0-.843-.786c-.4-.012-.8,0-1.194,0h-1.146a.814.814,0,1,0-.007,1.623" transform="translate(-245.228 -228.475)" fill="#b581fb"/><path d="M329.1,312.921c-.859-.033-1.72-.031-2.579,0a.8.8,0,0,0-.76.83.808.808,0,0,0,.81.778c.4.016.8,0,1.194,0,.43,0,.861.015,1.29,0a.8.8,0,0,0,.045-1.6" transform="translate(-284.171 -272.953)" fill="#b581fb"/><path d="M333.3,325.644c-.4,0-.8.014-1.194,0,.4.016.8,0,1.194,0,.43,0,.861.014,1.29,0-.429.019-.86,0-1.29,0" transform="translate(-289.708 -284.069)" fill="#b581fb"/><path d="M329.068,338.45c-.843-.031-1.688-.03-2.531,0a.806.806,0,1,0,.055,1.61c.4.015.8,0,1.194,0v0c.414,0,.829.015,1.242,0a.8.8,0,0,0,.04-1.605" transform="translate(-284.169 -295.224)" fill="#b581fb"/><path d="M326.543,263.534q1.241.033,2.484,0a.807.807,0,1,0-.018-1.613c-.4-.015-.8,0-1.194,0-.414,0-.828-.012-1.242,0a.807.807,0,1,0-.03,1.613" transform="translate(-284.163 -228.477)" fill="#b581fb"/><path d="M239.716,263.532a.807.807,0,0,0-.037-1.613q-.149-.005-.3-.007c-.3,0-.6,0-.9,0-.414,0-.828-.013-1.241,0a.807.807,0,0,0-.011,1.613c.827.022,1.655.023,2.482,0" transform="translate(-206.26 -228.476)" fill="#b581fb"/><path d="M243.956,261.917c.3,0,.6-.007.9,0-.3,0-.6,0-.9,0-.414,0-.828-.013-1.241,0,.413-.016.827,0,1.241,0" transform="translate(-211.73 -228.476)" fill="#b581fb"/><path d="M284.335,287.4q-1.194-.021-2.388,0a.8.8,0,0,0-.832.8.807.807,0,0,0,.864.818c.382.011.764,0,1.146,0,.4,0,.8.01,1.194,0a.811.811,0,1,0,.016-1.62" transform="translate(-245.228 -250.704)" fill="#b581fb"/><path d="M329.018,287.4q-1.236-.027-2.472,0a.808.808,0,0,0-.795.791.818.818,0,0,0,.812.822c.4.017.792,0,1.189,0,.412,0,.825.012,1.236,0a.821.821,0,0,0,.842-.794.813.813,0,0,0-.812-.822" transform="translate(-284.165 -250.701)" fill="#b581fb"/><path d="M284.412,312.91c-.843-.025-1.688-.027-2.53,0a.777.777,0,0,0-.755.826.786.786,0,0,0,.8.783c.4.017.8,0,1.194,0,.414,0,.828.012,1.242,0a.807.807,0,0,0,.053-1.612" transform="translate(-245.238 -272.947)" fill="#b581fb"/><path d="M284.416,338.447c-.842-.029-1.687-.03-2.529,0a.776.776,0,0,0-.76.821.792.792,0,0,0,.84.788c.1,0,.191.005.286.006.286,0,.573,0,.859,0,.31,0,.621.007.931,0,.1,0,.207,0,.31-.007a.805.805,0,0,0,.062-1.609" transform="translate(-245.238 -295.222)" fill="#b581fb"/><path d="M290.812,351.229c-.286,0-.573.006-.859,0,.286,0,.573,0,.859,0,.31,0,.621.007.931,0-.31,0-.621,0-.931,0" transform="translate(-252.938 -306.391)" fill="#b581fb"/><path d="M239.59,314.521c.032,0,.064,0,.1,0a.808.808,0,0,0,.028-1.615q-1.24-.038-2.482,0a.782.782,0,0,0-.784.843.773.773,0,0,0,.8.769c.4.016.8,0,1.193,0v0h1.146" transform="translate(-206.262 -272.942)" fill="#b581fb"/><path d="M239.725,338.447c-.842-.029-1.686-.029-2.528,0a.8.8,0,0,0,.044,1.6c.4.018.8,0,1.193,0v0h1.145c.032,0,.064,0,.1,0a.785.785,0,0,0,.819-.756.775.775,0,0,0-.769-.856" transform="translate(-206.262 -295.223)" fill="#b581fb"/></g></svg>