<svg xmlns="http://www.w3.org/2000/svg" xmlns:xlink="http://www.w3.org/1999/xlink" width="54.151" height="48.931" viewBox="0 0 54.151 48.931">
  <defs>
    <clipPath id="clip-path">
      <rect id="Rectángulo_68513" data-name="Rectángulo 68513" width="54.152" height="48.931" fill="#6d05f7"/>
    </clipPath>
  </defs>
  <g id="Grupo_213447" data-name="Grupo 213447" transform="translate(-136.36)" opacity="0.5">
    <g id="Grupo_213434" data-name="Grupo 213434" transform="translate(136.36)" clip-path="url(#clip-path)">
      <path id="Trazado_225773" data-name="Trazado 225773" d="M.355,35.544a5.641,5.641,0,0,0,5.719,4.135q6.159,0,12.318,0c.194,0,.388,0,.581,0,.643.024.745.135.618.779q-.7,3.58-1.432,7.154c-.126.613-.272.731-.9.738-1.463.015-2.925,0-4.388.007-.8,0-1.209.3-1.192.87.016.54.4.812,1.195.812q14.221,0,28.442,0a2.251,2.251,0,0,0,.474-.03.826.826,0,0,0,.007-1.62,2.969,2.969,0,0,0-.632-.033c-1.41,0-2.82.006-4.229,0-.691-.005-.826-.113-.964-.79q-.713-3.5-1.4-7c-.154-.781-.064-.885.763-.886,4.3-.005,8.6.016,12.9-.009a5.514,5.514,0,0,0,5.282-3.392,4.981,4.981,0,0,0,.464-2.154q.005-13.535,0-27.07a5.518,5.518,0,0,0-5.6-5.548q-21.305,0-42.61,0A5.524,5.524,0,0,0,.437,5.332C.342,5.606.387,5.986,0,6.1V35.083c.28.029.292.273.355.462M33.594,48.182c-2.183-.018-4.366-.009-6.549-.009-2.165,0-4.331-.01-6.5.009-.406,0-.546-.061-.454-.509.514-2.477,1-4.959,1.493-7.441.053-.27.134-.405.467-.4q5.017.025,10.034,0c.334,0,.413.136.466.4.491,2.481.979,4.963,1.493,7.44.093.449-.049.512-.454.508m18.467-16.09a12.629,12.629,0,0,1-.217,3.2A3.619,3.619,0,0,1,48.7,37.724c-.211.013-.423.017-.634.017q-20.99,0-41.98.008a3.729,3.729,0,0,1-3.6-2.022,2.864,2.864,0,0,1-.365-1.309c-.014-.863-.011-1.727-.03-2.59-.005-.244.054-.368.321-.333a2.89,2.89,0,0,0,.37,0H27.1q12.187,0,24.374-.013c.5,0,.624.139.588.608M2.085,27.75c-.026-.325.074-.414.4-.411,1.868.017,3.735.013,5.6.006.805,0,1.3-.443,1.266-1.094-.032-.619-.494-1-1.254-1-1.832-.005-3.665-.012-5.5.007-.391,0-.528-.067-.527-.5.017-5.815.009-11.63.013-17.446a3.622,3.622,0,0,1,2.725-3.79,4.81,4.81,0,0,1,1.307-.142H48.043a3.7,3.7,0,0,1,3.918,2.852,4.442,4.442,0,0,1,.091,1.1q0,10.785.014,21.569c0,.475-.16.524-.567.524q-12.211-.017-24.422-.009t-24.422.011c-.458,0-.63-.1-.573-.57a5.624,5.624,0,0,0,0-1.109" transform="translate(0 -1.307)" fill="#6d05f7"/>
      <path id="Trazado_225774" data-name="Trazado 225774" d="M.12,33.981a5.783,5.783,0,0,0,6.042,4.55H19.55c-.534,2.686-1.062,5.324-1.576,7.965-.06.311-.2.38-.5.377-1.516-.016-3.032-.008-4.547-.007-.975,0-1.478.358-1.469,1.044s.5,1.022,1.49,1.022H41.184a4.891,4.891,0,0,0,.58-.024,1,1,0,0,0,.911-.933c.057-.632-.426-1.1-1.18-1.1-1.6-.01-3.208-.013-4.812,0-.329,0-.458-.093-.518-.417-.221-1.193-.474-2.38-.71-3.571-.286-1.439-.567-2.879-.857-4.354h.63q6.424,0,12.849,0a5.749,5.749,0,0,0,6.068-6.061q0-10.814,0-21.628c0-1.727.019-3.455-.007-5.182a5.572,5.572,0,0,0-2.08-4.326A5.892,5.892,0,0,0,48.05,0Q27.085.015,6.12.006,5.8.006,5.485.02A5.713,5.713,0,0,0,.275,3.975C.184,4.249.21,4.563,0,4.8c.387-.119.342-.5.437-.772A5.524,5.524,0,0,1,5.771.2q21.3,0,42.61,0a5.518,5.518,0,0,1,5.6,5.548q.023,13.535,0,27.07a4.979,4.979,0,0,1-.464,2.154,5.514,5.514,0,0,1-5.282,3.392c-4.3.026-8.6,0-12.9.009-.827,0-.917.105-.763.886q.69,3.5,1.4,7c.138.676.273.785.964.79,1.41.01,2.819,0,4.229,0a2.967,2.967,0,0,1,.632.033.826.826,0,0,1-.007,1.62,2.251,2.251,0,0,1-.474.03q-14.221,0-28.442,0c-.79,0-1.178-.272-1.194-.813-.017-.565.39-.866,1.192-.87,1.462-.006,2.925.008,4.388-.007.627-.006.773-.125.9-.738q.734-3.573,1.432-7.154c.127-.644.025-.755-.618-.779-.194-.007-.388,0-.581,0q-6.159,0-12.318,0A5.641,5.641,0,0,1,.355,34.237C.292,34.048.28,33.8,0,33.775c.115.025.1.126.12.206" transform="translate(0 0)" fill="#6d05f7"/>
      <path id="Trazado_225775" data-name="Trazado 225775" d="M182.511,100.664a1.052,1.052,0,0,0,1.907.512c.492-.479.983-.961,1.454-1.46.191-.2.306-.207.5,0q.9.932,1.83,1.832a1.08,1.08,0,0,0,1.744-.008q.964-.942,1.906-1.905a1.11,1.11,0,0,0-.024-1.82c-.582-.589-1.162-1.18-1.761-1.751-.208-.2-.242-.315-.013-.528.5-.467.975-.968,1.463-1.451a1.1,1.1,0,0,0,.393-1.133,1.131,1.131,0,0,0-.957-.795c-.978-.213-1.952-.448-2.928-.673-2.123-.489-4.244-.984-6.369-1.464a1.035,1.035,0,0,0-1.345,1.036,1.815,1.815,0,0,0,.028.27c.72,3.115,1.434,6.232,2.171,9.344m6.238-6.885.135.157c-.369.314-.759.607-1.1.947a1.1,1.1,0,0,0,0,1.817c.555.565,1.1,1.143,1.686,1.673.322.291.294.474-.013.729a1.947,1.947,0,0,0-.3.456c-.743-.747-1.375-1.385-2.009-2.02-.762-.763-1.257-.769-2-.016-.308.311-.6.638-.976,1.04l-1.428-6.167,6.02,1.385" transform="translate(-156.419 -78.056)" fill="#6d05f7"/>
      <path id="Trazado_225776" data-name="Trazado 225776" d="M207.433,63.215a8.161,8.161,0,0,0,1.227-1.221.807.807,0,0,0,.212-.533,1,1,0,0,0-.54-.992.929.929,0,0,0-1.082.082,7.026,7.026,0,0,0-1.257,1.263,1.013,1.013,0,0,0,1.441,1.4" transform="translate(-178.512 -52.338)" fill="#6d05f7"/>
      <path id="Trazado_225777" data-name="Trazado 225777" d="M182.915,50.9a.953.953,0,0,0,1.015-.8,7.123,7.123,0,0,0,.075-.928,7.643,7.643,0,0,0-.07-.953,1,1,0,0,0-1-.834.985.985,0,0,0-.99.842,5.254,5.254,0,0,0,.007,1.879.936.936,0,0,0,.965.8" transform="translate(-157.764 -41.1)" fill="#6d05f7"/>
      <path id="Trazado_225778" data-name="Trazado 225778" d="M152.241,63.232a1.007,1.007,0,0,0,1.5-.916A.733.733,0,0,0,153.69,62a4.488,4.488,0,0,0-1.7-1.664.878.878,0,0,0-1.086.292.894.894,0,0,0-.135,1.12,4.868,4.868,0,0,0,1.471,1.48" transform="translate(-130.67 -52.267)" fill="#6d05f7"/>
      <path id="Trazado_225779" data-name="Trazado 225779" d="M152.3,115.556a5.152,5.152,0,0,0-1.411,1.4.973.973,0,0,0,.144,1.252,1,1,0,0,0,1.251.135,6.54,6.54,0,0,0,1.408-1.4.869.869,0,0,0,.129-.5,1,1,0,0,0-1.521-.88" transform="translate(-130.749 -100.11)" fill="#6d05f7"/>
      <path id="Trazado_225780" data-name="Trazado 225780" d="M138.756,93.864c.262.023.528,0,.792,0v-.005c.282,0,.566.023.844,0a1.008,1.008,0,0,0,.928-1.031.979.979,0,0,0-.917-.982,12.214,12.214,0,0,0-1.687,0,.971.971,0,0,0-.923,1.023,1,1,0,0,0,.963,1" transform="translate(-119.534 -79.649)" fill="#6d05f7"/>
      <path id="Trazado_225781" data-name="Trazado 225781" d="M79.674,182.895a1.05,1.05,0,0,0,1.039-1.037,1.032,1.032,0,0,0-2.063-.016,1.056,1.056,0,0,0,1.024,1.053" transform="translate(-68.228 -156.86)" fill="#6d05f7"/>
      <path id="Trazado_225782" data-name="Trazado 225782" d="M190.688,235.756a2.111,2.111,0,0,0-2.115,2.063,2.085,2.085,0,0,0,4.17.007,2.112,2.112,0,0,0-2.055-2.07" transform="translate(-163.586 -204.516)" fill="#6d05f7"/>
    </g>
  </g>
</svg>
