<svg xmlns="http://www.w3.org/2000/svg" xmlns:xlink="http://www.w3.org/1999/xlink" width="620" height="332.323" viewBox="0 0 620 332.323">
  <defs>
    <linearGradient id="linear-gradient" x1="0.5" x2="0.5" y2="1" gradientUnits="objectBoundingBox">
      <stop offset="0" stop-color="#210557"/>
      <stop offset="1" stop-color="#51186d"/>
    </linearGradient>
    <clipPath id="clip-path">
      <path id="Trazado_224568" data-name="Trazado 224568" d="M403.546,0C391.631,0,390.3,14.278,360.2,14.278H295.514A11.838,11.838,0,0,0,283.8,26.166h0a11.836,11.836,0,0,0,11.715,11.887h11.252a17.226,17.226,0,0,1,0,34.449H289.833c-45.721,0-52.179,12.125-60.187,36.239S162.11,134.8,162.11,134.8H74.043a25.96,25.96,0,0,0,0,51.914h2.928a24.969,24.969,0,0,1,0,49.933H46.941C21.122,236.648,0,258.082,0,284.28s21.122,47.631,46.941,47.631h436.82c41.807,0,76.011-34.708,76.011-77.13s-34.2-77.129-76.011-77.129c-17.675,0-33.663-14.676-33.663-32.613s14.462-32.611,32.137-32.611h18.178c18.378,0,33.414-15.258,33.414-33.907s-15.036-33.906-33.414-33.906H448.618a13.2,13.2,0,0,1,0-26.4h8.621a9.071,9.071,0,0,0,8.979-9.109h0A9.072,9.072,0,0,0,457.239,0Zm69.909,9.111a8.979,8.979,0,1,0,17.957,0,8.979,8.979,0,1,0-17.957,0" transform="translate(0 0.004)" fill="none"/>
    </clipPath>
    <linearGradient id="linear-gradient-2" y1="1.001" x2="0.001" y2="1.001" gradientUnits="objectBoundingBox">
      <stop offset="0" stop-color="#1e9df8"/>
      <stop offset="0.217" stop-color="#55b5f9"/>
      <stop offset="0.491" stop-color="#95d1fc"/>
      <stop offset="0.722" stop-color="#c4e5fd"/>
      <stop offset="0.899" stop-color="#e1f2fe"/>
      <stop offset="1" stop-color="#ecf7ff"/>
    </linearGradient>
    <clipPath id="clip-path-2">
      <rect id="Rectángulo_68165" data-name="Rectángulo 68165" width="572.117" height="332.124" fill="none"/>
    </clipPath>
    <clipPath id="clip-path-3">
      <path id="Trazado_224581" data-name="Trazado 224581" d="M306.229,608.2c-1.18,0-2.407.995-2.144,2.144l23.059,100.517c.263,1.15.965,2.145,2.144,2.145H498.376c1.179,0,2.467-1.011,2.145-2.145L471.971,610.342c-.323-1.134-.965-2.144-2.145-2.144Z" transform="translate(-304.049 -608.198)" fill="none"/>
    </clipPath>
    <linearGradient id="linear-gradient-3" x1="-1.373" y1="0.904" x2="-1.369" y2="0.904" gradientUnits="objectBoundingBox">
      <stop offset="0" stop-color="#1e9df8"/>
      <stop offset="1" stop-color="#b9e4ff"/>
    </linearGradient>
    <clipPath id="clip-path-5">
      <path id="Trazado_224589" data-name="Trazado 224589" d="M468.813,217.972c-25.325,14.281-46.508,22.982-75.334,27.519l-16.43,2.586-1.336,16.579c-5.653,70.217,32.473,146.257,91.713,184.133h23.518c59.241-37.875,97.366-113.916,91.714-184.133l-1.323-16.424-16.253-2.71c-28.941-4.825-50.062-13.191-75.525-27.55l-10.372-5.85Z" transform="translate(-375.159 -212.122)" fill="none"/>
    </clipPath>
    <linearGradient id="linear-gradient-4" x1="-0.541" y1="1.109" x2="-0.54" y2="1.109" gradientUnits="objectBoundingBox">
      <stop offset="0" stop-color="#0094ff"/>
      <stop offset="0.178" stop-color="#008af0"/>
      <stop offset="0.517" stop-color="#0073ca"/>
      <stop offset="0.98" stop-color="#004c8d"/>
      <stop offset="1" stop-color="#004b8b"/>
    </linearGradient>
    <clipPath id="clip-path-6">
      <path id="Trazado_224590" data-name="Trazado 224590" d="M439.9,315.888c-5.172,64.239,30.991,132.236,82.423,164.9,51.433-32.662,87.6-100.66,82.425-164.9-32.036-5.341-54.167-14.05-82.424-29.986-28.257,15.935-50.976,25.037-82.423,29.986" transform="translate(-439.407 -285.902)" fill="none"/>
    </clipPath>
    <linearGradient id="linear-gradient-5" x1="-0.797" y1="1.222" x2="-0.796" y2="1.222" gradientUnits="objectBoundingBox">
      <stop offset="0" stop-color="#0094ff"/>
      <stop offset="0.142" stop-color="#008bf1"/>
      <stop offset="0.408" stop-color="#0176cd"/>
      <stop offset="0.767" stop-color="#025393"/>
      <stop offset="1" stop-color="#033b6b"/>
    </linearGradient>
    <clipPath id="clip-path-7">
      <path id="Trazado_224591" data-name="Trazado 224591" d="M493.447,323.831a220.907,220.907,0,0,1-37.078,9.683c-1.243,24.376,3.574,48.988,12.645,71.576,12.933,32.207,35.513,62.553,64.567,82.021,29.055-19.468,51.635-49.813,64.569-82.02,9.075-22.6,13.894-47.225,12.643-71.613a232.369,232.369,0,0,1-39.043-10.433,274.127,274.127,0,0,1-38.168-17.924,274.48,274.48,0,0,1-40.135,18.709" transform="translate(-456.176 -305.122)" fill="none"/>
    </clipPath>
    <linearGradient id="linear-gradient-6" x1="-0.949" y1="1.274" x2="-0.946" y2="1.274" gradientUnits="objectBoundingBox">
      <stop offset="0" stop-color="#1e9df8"/>
      <stop offset="0.132" stop-color="#44adf9"/>
      <stop offset="0.36" stop-color="#81c8fb"/>
      <stop offset="0.569" stop-color="#b1ddfc"/>
      <stop offset="0.752" stop-color="#d4ecfe"/>
      <stop offset="0.902" stop-color="#e9f5fe"/>
      <stop offset="1" stop-color="#f1f9ff"/>
    </linearGradient>
    <clipPath id="clip-path-9">
      <path id="Trazado_224610" data-name="Trazado 224610" d="M607.543,460.023a12.214,12.214,0,1,1,11.378,0v20.184H607.543Zm-12.838-45.07v-.842a18.266,18.266,0,0,1,36.443,0h0v.03c.012.269.019.54.019.813s-.008.543-.019.812v8.217H594.706Zm-10.457-1.338-.012.247v10.28a12.194,12.194,0,0,0-10.182,11.987v43.733A12.183,12.183,0,0,0,586.2,492.01h54.058a12.183,12.183,0,0,0,12.148-12.147V436.13a12.191,12.191,0,0,0-10.791-12.071v-8.079c.012-.342.02-.685.02-1.027,0-.432-.011-.863-.031-1.294l0-.044a28.732,28.732,0,0,0-57.357,0" transform="translate(-574.054 -386.642)" fill="none"/>
    </clipPath>
    <linearGradient id="linear-gradient-7" x1="-2.407" y1="1.946" x2="-2.403" y2="1.946" xlink:href="#linear-gradient-5"/>
    <clipPath id="clip-path-10">
      <path id="Trazado_224611" data-name="Trazado 224611" d="M607.543,447.87a12.214,12.214,0,1,1,11.378,0v20.184H607.543ZM594.706,402.8v-.842a18.266,18.266,0,0,1,36.443,0h0v.03c.012.269.019.539.019.812s-.008.543-.019.812v8.217H594.706Zm-10.457-1.338-.012.248v10.28a12.193,12.193,0,0,0-10.182,11.987V467.71A12.184,12.184,0,0,0,586.2,479.858h54.058a12.184,12.184,0,0,0,12.148-12.148V423.978a12.19,12.19,0,0,0-10.791-12.071v-8.078c.012-.343.02-.685.02-1.028,0-.432-.011-.863-.031-1.294l0-.044a28.732,28.732,0,0,0-57.357,0" transform="translate(-574.054 -374.489)" fill="none"/>
    </clipPath>
    <linearGradient id="linear-gradient-8" x1="-2.407" y1="1.984" x2="-2.403" y2="1.984" xlink:href="#linear-gradient-4"/>
  </defs>
  <g id="Grupo_216711" data-name="Grupo 216711" transform="translate(-800.215 -402.664)">
    <rect id="Image_Place_Holder" data-name="Image Place Holder" width="620" height="331.673" transform="translate(800.215 402.664)" fill="url(#linear-gradient)"/>
    <g id="Grupo_212415" data-name="Grupo 212415" transform="translate(824.215 402.868)">
      <g id="Grupo_212394" data-name="Grupo 212394" transform="translate(0 -0.005)">
        <g id="Grupo_212393" data-name="Grupo 212393" transform="translate(0 0)" clip-path="url(#clip-path)">
          <rect id="Rectángulo_68149" data-name="Rectángulo 68149" width="559.772" height="331.915" transform="translate(0 0)" fill="url(#linear-gradient-2)"/>
        </g>
      </g>
      <g id="Grupo_212396" data-name="Grupo 212396" transform="translate(0 -0.005)">
        <g id="Grupo_212395" data-name="Grupo 212395" transform="translate(0 0)" clip-path="url(#clip-path-2)">
          <path id="Trazado_224569" data-name="Trazado 224569" d="M1481.507,810.471s-13.408-6.1-11.417-15.544,12.889-8.453,11.417-15.909-8.632-19.07-1.672-27.522,18.536-3.386,19.987-16.492c1.171-10.561,6.051-18.042,15.507-15.849,8.752,2.031,15.279,8.808,15.441,24.926.177,17.164,12.262,12.341,12.412,24.985.151,12.734-9.992,12.734-13.953,21.277-1.872,4.035,3.008,18.216-11.414,20.128Z" transform="translate(-986.922 -482.601)" fill="#34b463"/>
          <path id="Trazado_224570" data-name="Trazado 224570" d="M1565.025,739.172s.034.289.084.851c.153,1.689.46,5.807.46,11.544.005,16.786-2.643,47.449-19.353,71.922a.733.733,0,0,0,1.21.829c16.978-24.9,19.6-55.816,19.606-72.75a122.272,122.272,0,0,0-.553-12.562.732.732,0,0,0-1.454.167" transform="translate(-1038.083 -495.75)" fill="#24914a"/>
          <path id="Trazado_224571" data-name="Trazado 224571" d="M1553.763,876.333s-2.109-11.657,5.8-16.4,15.99-8.439,15.113-16.086,1.28-16.672,13.957-16.841c7.835-.1,4.893-8.365,12.855-10.011,4.839-1,8.03,4.051,8.648,9.01.706,5.65-2.493,11.2,1.175,15.8,4.761,5.962,6.694,17.079-3.537,20.243s-1.113,12.85-15.046,14.283Z" transform="translate(-1043.065 -548.462)" fill="#a2c769" fill-rule="evenodd"/>
          <path id="Trazado_224572" data-name="Trazado 224572" d="M1631.163,832.667c-.267,7.425-3.561,18-9.2,28.078s-13.6,19.711-23.115,25.379a.731.731,0,1,0,.749,1.257c9.829-5.862,17.919-15.669,23.644-25.921s9.09-20.955,9.383-28.738a.732.732,0,0,0-1.464-.055" transform="translate(-1073.27 -558.6)" fill="#00a551"/>
          <path id="Trazado_224573" data-name="Trazado 224573" d="M1330.686,398.088l2.115,4a4.216,4.216,0,0,1-.819,5.037,43.562,43.562,0,0,0-6.888,8.322,4.221,4.221,0,0,1-4.8,1.741l-4.328-1.326a4.252,4.252,0,0,0-5.32,2.8l-2.553,8.287a4.254,4.254,0,0,0,2.814,5.316l4.326,1.335a4.219,4.219,0,0,1,2.986,4.145,43.462,43.462,0,0,0,1.007,10.756,4.2,4.2,0,0,1-2.166,4.618l-4,2.119a4.252,4.252,0,0,0-1.772,5.745l4.053,7.665a4.25,4.25,0,0,0,5.744,1.773l4-2.115a4.219,4.219,0,0,1,5.039.814,43.618,43.618,0,0,0,8.314,6.889,4.213,4.213,0,0,1,1.747,4.8l-1.334,4.327a4.242,4.242,0,0,0,2.811,5.31l8.284,2.559a4.253,4.253,0,0,0,5.316-2.813l1.335-4.326a4.207,4.207,0,0,1,4.146-2.98,44.094,44.094,0,0,0,10.756-1.009,4.207,4.207,0,0,1,4.622,2.159l2.114,4a4.25,4.25,0,0,0,5.745,1.772l7.665-4.052a4.255,4.255,0,0,0,1.772-5.747l-2.114-4a4.223,4.223,0,0,1,.817-5.042,43.357,43.357,0,0,0,6.886-8.311,4.222,4.222,0,0,1,4.8-1.752l4.327,1.339a4.25,4.25,0,0,0,5.315-2.811l2.557-8.279a4.259,4.259,0,0,0-2.814-5.321l-4.324-1.328a4.216,4.216,0,0,1-2.983-4.152,43.6,43.6,0,0,0-1.009-10.749,4.214,4.214,0,0,1,2.162-4.628l4-2.114a4.246,4.246,0,0,0,1.773-5.744l-4.049-7.668a4.264,4.264,0,0,0-5.75-1.771l-4,2.118a4.224,4.224,0,0,1-5.042-.82,43.626,43.626,0,0,0-8.311-6.885,4.218,4.218,0,0,1-1.747-4.8l1.336-4.325a4.258,4.258,0,0,0-2.81-5.322l-8.287-2.551a4.247,4.247,0,0,0-5.315,2.811l-1.335,4.328a4.22,4.22,0,0,1-4.145,2.985,43.009,43.009,0,0,0-10.754,1.006,4.2,4.2,0,0,1-4.619-2.161l-2.121-4a4.246,4.246,0,0,0-5.744-1.772l-7.665,4.053a4.244,4.244,0,0,0-1.768,5.743m24.043,18.59a23.542,23.542,0,1,1-11.327,36.741,23.513,23.513,0,0,1,11.327-36.741" transform="translate(-878.16 -258.436)" fill="#5ebeff" fill-rule="evenodd"/>
          <path id="Trazado_224574" data-name="Trazado 224574" d="M952.515,421.644h77.514a9.843,9.843,0,0,1,9.815,9.814v163.8a9.843,9.843,0,0,1-9.815,9.814H952.515a9.843,9.843,0,0,1-9.814-9.814v-163.8a9.843,9.843,0,0,1,9.814-9.814" transform="translate(-632.954 -283.101)" fill="#102b6e" fill-rule="evenodd"/>
          <rect id="Rectángulo_68150" data-name="Rectángulo 68150" width="84.124" height="138.328" transform="translate(316.896 151.786)" fill="#fff"/>
          <path id="Trazado_224575" data-name="Trazado 224575" d="M960.968,473.828V458.459h86.418V599.08H960.968V473.828Zm22.919,7.518h39.636a3.449,3.449,0,0,1,3.126,2.012h18.444V460.751H963.261v22.606h17.5a3.448,3.448,0,0,1,3.126-2.012m0,30.326h39.636a3.45,3.45,0,0,1,3.284,2.425h18.286V485.65H1026.85a3.452,3.452,0,0,1-3.327,2.571H983.887a3.451,3.451,0,0,1-3.326-2.571h-17.3V514.1H980.6a3.45,3.45,0,0,1,3.285-2.425m0,31.243h39.636a3.45,3.45,0,0,1,3.083,1.922h18.487V516.39h-18.381a3.45,3.45,0,0,1-3.189,2.158H983.887a3.451,3.451,0,0,1-3.19-2.158H963.261v28.447H980.8a3.448,3.448,0,0,1,3.083-1.922m0,30.785h39.636a3.447,3.447,0,0,1,3.061,1.877h18.51V547.13h-18.222a3.452,3.452,0,0,1-3.348,2.661H983.887a3.452,3.452,0,0,1-3.349-2.661H963.261v28.447h17.565a3.446,3.446,0,0,1,3.061-1.877m-20.626,23.087h81.832V577.87h-18.212a3.451,3.451,0,0,1-3.359,2.706H983.887a3.45,3.45,0,0,1-3.358-2.706H963.261v18.917Z" transform="translate(-645.219 -307.82)" fill="#102b6e"/>
          <rect id="Rectángulo_68151" data-name="Rectángulo 68151" width="10.709" height="10.71" transform="translate(318.702 297.622)" fill="#4596d1"/>
          <rect id="Rectángulo_68152" data-name="Rectángulo 68152" width="5.393" height="5.393" transform="translate(336.961 300.28)" fill="#00adee"/>
          <rect id="Rectángulo_68153" data-name="Rectángulo 68153" width="5.393" height="5.393" transform="translate(346.227 300.28)" fill="#00adee"/>
          <rect id="Rectángulo_68154" data-name="Rectángulo 68154" width="5.393" height="5.393" transform="translate(355.494 300.28)" fill="#00a551"/>
          <rect id="Rectángulo_68155" data-name="Rectángulo 68155" width="5.393" height="5.393" transform="translate(364.76 300.28)" fill="#00adee"/>
          <rect id="Rectángulo_68156" data-name="Rectángulo 68156" width="5.393" height="5.393" transform="translate(374.027 300.28)" fill="#00a551"/>
          <path id="Trazado_224576" data-name="Trazado 224576" d="M1194.737,896.086a3.741,3.741,0,1,1-3.741,3.742,3.741,3.741,0,0,1,3.741-3.742" transform="translate(-799.666 -601.654)" fill="#ec1c24" fill-rule="evenodd"/>
          <path id="Trazado_224577" data-name="Trazado 224577" d="M1197.734,929.32a2.274,2.274,0,1,1-2.275,2.274,2.274,2.274,0,0,1,2.275-2.274" transform="translate(-802.662 -623.968)" fill="#00a551" fill-rule="evenodd"/>
          <rect id="Rectángulo_68157" data-name="Rectángulo 68157" width="77.045" height="5.217" transform="translate(319.561 321.975)" fill="#102b6e"/>
          <path id="Trazado_224578" data-name="Trazado 224578" d="M1216.1,860.18h97.413a3.548,3.548,0,0,1,3.538,3.538v33.468a3.548,3.548,0,0,1-3.538,3.538H1216.1a3.548,3.548,0,0,1-3.538-3.538V863.718a3.548,3.548,0,0,1,3.538-3.538" transform="translate(-814.148 -577.545)" fill="#1a47b6" fill-rule="evenodd"/>
          <rect id="Rectángulo_68158" data-name="Rectángulo 68158" width="34.285" height="17.006" transform="translate(402.091 287.124)" fill="#fff"/>
          <rect id="Rectángulo_68159" data-name="Rectángulo 68159" width="59.863" height="17.006" transform="translate(439.505 287.124)" fill="#fff"/>
          <rect id="Rectángulo_68160" data-name="Rectángulo 68160" width="4.081" height="4.082" transform="translate(474.57 293.45)" fill="#ec1c24"/>
          <rect id="Rectángulo_68161" data-name="Rectángulo 68161" width="4.082" height="4.082" transform="translate(481.032 293.45)" fill="#00a551"/>
          <rect id="Rectángulo_68162" data-name="Rectángulo 68162" width="4.081" height="4.082" transform="translate(487.495 293.45)" fill="#ec1c24"/>
          <rect id="Rectángulo_68163" data-name="Rectángulo 68163" width="14.716" height="4.015" transform="translate(406.473 323.177)" fill="#092978"/>
          <rect id="Rectángulo_68164" data-name="Rectángulo 68164" width="14.715" height="4.015" transform="translate(479.396 323.177)" fill="#092978"/>
          <path id="Trazado_224579" data-name="Trazado 224579" d="M274.438,589.955h166.93c4.094,0,6.36,3.5,7.443,7.443l31.258,113.874c1.084,3.947-3.35,7.444-7.444,7.444H300.036c-4.094,0-6.546-3.45-7.444-7.444L266.994,597.4c-.9-3.995,3.35-7.443,7.444-7.443" transform="translate(-179.185 -396.11)" fill="#3dabf9" fill-rule="evenodd"/>
          <path id="Trazado_224580" data-name="Trazado 224580" d="M289.415,589.955h166.93c4.094,0,6.36,3.5,7.444,7.443l31.257,113.874c1.084,3.947-3.35,7.444-7.444,7.444H315.013c-4.094,0-6.546-3.45-7.444-7.444L281.971,597.4c-.9-3.995,3.349-7.443,7.444-7.443" transform="translate(-189.241 -396.11)" fill="#102b6e" fill-rule="evenodd"/>
        </g>
      </g>
      <g id="Grupo_212398" data-name="Grupo 212398" transform="translate(99.903 199.835)">
        <g id="Grupo_212397" data-name="Grupo 212397" clip-path="url(#clip-path-3)">
          <rect id="Rectángulo_68166" data-name="Rectángulo 68166" width="105.839" height="197.569" transform="matrix(0.005, -1, 1, 0.005, -0.778, 104.803)" fill="url(#linear-gradient-3)"/>
        </g>
      </g>
      <g id="Grupo_212400" data-name="Grupo 212400" transform="translate(0 -0.005)">
        <g id="Grupo_212399" data-name="Grupo 212399" transform="translate(0 0)" clip-path="url(#clip-path-2)">
          <path id="Trazado_224582" data-name="Trazado 224582" d="M359.2,954.464H583.48v5.929a5.947,5.947,0,0,1-5.929,5.929H365.133a5.947,5.947,0,0,1-5.929-5.929Z" transform="translate(-241.179 -640.85)" fill="#3dabf9" fill-rule="evenodd"/>
          <path id="Trazado_224583" data-name="Trazado 224583" d="M743.684,954.464H910.1v5.929a5.947,5.947,0,0,1-5.93,5.929H749.613a5.947,5.947,0,0,1-5.929-5.929Z" transform="translate(-499.329 -640.85)" fill="#a5dbfd" fill-rule="evenodd"/>
          <path id="Trazado_224584" data-name="Trazado 224584" d="M945.467,968.541h51.02a1.129,1.129,0,0,1,0,2.258h-51.02a1.129,1.129,0,1,1,0-2.258" transform="translate(-634.053 -650.302)" fill="#102b6e" fill-rule="evenodd"/>
          <path id="Trazado_224585" data-name="Trazado 224585" d="M370.586,961.225c1.346,0,2.438,1.366,2.438,3.05s-1.091,3.05-2.438,3.05-2.438-1.365-2.438-3.05,1.091-3.05,2.438-3.05" transform="translate(-247.184 -645.39)" fill="#102b6e" fill-rule="evenodd"/>
          <rect id="Rectángulo_68167" data-name="Rectángulo 68167" width="30.614" height="3.327" transform="translate(167.83 317.896)" fill="#102b6e"/>
          <rect id="Rectángulo_68168" data-name="Rectángulo 68168" width="7.819" height="3.327" transform="translate(201.44 317.896)" fill="#102b6e"/>
          <rect id="Rectángulo_68169" data-name="Rectángulo 68169" width="7.819" height="3.327" transform="translate(212.004 317.896)" fill="#102b6e"/>
          <path id="Trazado_224586" data-name="Trazado 224586" d="M474.625,850.581H418.4a3.44,3.44,0,0,0-2.439,1.015h0a3.439,3.439,0,0,0,0,4.878h0a3.442,3.442,0,0,0,2.439,1.014h56.222a3.442,3.442,0,0,0,2.44-1.014h0a3.44,3.44,0,0,0,0-4.878h0a3.44,3.44,0,0,0-2.44-1.015M418.4,850.1h56.222a3.92,3.92,0,0,1,2.776,1.155h0a3.913,3.913,0,0,1,0,5.551h0a3.919,3.919,0,0,1-2.776,1.154H418.4a3.916,3.916,0,0,1-2.775-1.154h0a3.913,3.913,0,0,1,0-5.551h0A3.918,3.918,0,0,1,418.4,850.1" transform="translate(-278.287 -570.781)" fill="#e4f5fb"/>
          <path id="Trazado_224587" data-name="Trazado 224587" d="M460.448,800.377H404.225a3.443,3.443,0,0,0-2.439,1.014h0a3.441,3.441,0,0,0,0,4.878h0a3.445,3.445,0,0,0,2.439,1.014h56.223a3.444,3.444,0,0,0,2.44-1.014h0a3.441,3.441,0,0,0,0-4.878h0a3.442,3.442,0,0,0-2.44-1.014m-56.223-.476h56.223a3.922,3.922,0,0,1,2.776,1.154h0a3.914,3.914,0,0,1,0,5.551h0a3.923,3.923,0,0,1-2.776,1.154H404.225a3.919,3.919,0,0,1-2.775-1.154h0a3.913,3.913,0,0,1,0-5.551h0a3.919,3.919,0,0,1,2.775-1.154" transform="translate(-268.768 -537.073)" fill="#e4f5fb"/>
          <path id="Trazado_224588" data-name="Trazado 224588" d="M447.722,750.171H391.5a3.444,3.444,0,0,0-2.439,1.014h0a3.44,3.44,0,0,0,0,4.878h0a3.444,3.444,0,0,0,2.439,1.014h56.223a3.443,3.443,0,0,0,2.439-1.014h0a3.441,3.441,0,0,0,0-4.878h0a3.443,3.443,0,0,0-2.439-1.014m-56.223-.476h56.223a3.92,3.92,0,0,1,2.775,1.155h0a3.912,3.912,0,0,1,0,5.551h0a3.919,3.919,0,0,1-2.775,1.155H391.5a3.919,3.919,0,0,1-2.775-1.155h0a3.912,3.912,0,0,1,0-5.551h0a3.92,3.92,0,0,1,2.775-1.155" transform="translate(-260.223 -503.363)" fill="#e4f5fb"/>
        </g>
      </g>
      <g id="Grupo_212402" data-name="Grupo 212402" transform="translate(123.267 69.694)">
        <g id="Grupo_212401" data-name="Grupo 212401" clip-path="url(#clip-path-5)">
          <rect id="Rectángulo_68171" data-name="Rectángulo 68171" width="218.259" height="236.674" transform="translate(-5.104 -0.004)" fill="url(#linear-gradient-4)"/>
        </g>
      </g>
      <g id="Grupo_212404" data-name="Grupo 212404" transform="translate(144.378 93.937)">
        <g id="Grupo_212403" data-name="Grupo 212403" clip-path="url(#clip-path-6)">
          <rect id="Rectángulo_68172" data-name="Rectángulo 68172" width="175.191" height="194.884" transform="translate(-4.68 0)" fill="url(#linear-gradient-5)"/>
        </g>
      </g>
      <g id="Grupo_212406" data-name="Grupo 212406" transform="translate(149.887 100.252)">
        <g id="Grupo_212405" data-name="Grupo 212405" clip-path="url(#clip-path-7)">
          <rect id="Rectángulo_68173" data-name="Rectángulo 68173" width="156.917" height="181.989" transform="translate(-1.05 0)" fill="url(#linear-gradient-6)"/>
        </g>
      </g>
      <g id="Grupo_212408" data-name="Grupo 212408" transform="translate(0 -0.005)">
        <g id="Grupo_212407" data-name="Grupo 212407" transform="translate(0 0)" clip-path="url(#clip-path-2)">
          <path id="Trazado_224592" data-name="Trazado 224592" d="M1216.1,724.57h97.413a3.548,3.548,0,0,1,3.538,3.538v33.468a3.548,3.548,0,0,1-3.538,3.537H1216.1a3.548,3.548,0,0,1-3.538-3.537V728.108a3.548,3.548,0,0,1,3.538-3.538" transform="translate(-814.148 -486.493)" fill="#1a47b6" fill-rule="evenodd"/>
          <rect id="Rectángulo_68174" data-name="Rectángulo 68174" width="34.285" height="17.006" transform="translate(402.091 242.566)" fill="#fff"/>
          <rect id="Rectángulo_68175" data-name="Rectángulo 68175" width="59.863" height="17.006" transform="translate(439.505 242.566)" fill="#fff"/>
          <rect id="Rectángulo_68176" data-name="Rectángulo 68176" width="4.081" height="4.082" transform="translate(474.57 248.892)" fill="#ec1c24"/>
          <rect id="Rectángulo_68177" data-name="Rectángulo 68177" width="4.082" height="4.082" transform="translate(481.032 248.892)" fill="#ec1c24"/>
          <rect id="Rectángulo_68178" data-name="Rectángulo 68178" width="4.081" height="4.082" transform="translate(487.495 248.892)" fill="#00a551"/>
          <rect id="Rectángulo_68179" data-name="Rectángulo 68179" width="14.716" height="4.015" transform="translate(406.473 278.62)" fill="#092978"/>
          <rect id="Rectángulo_68180" data-name="Rectángulo 68180" width="14.715" height="4.015" transform="translate(479.396 278.62)" fill="#092978"/>
          <path id="Trazado_224593" data-name="Trazado 224593" d="M1216.1,588.959h97.413a3.548,3.548,0,0,1,3.538,3.538v33.468a3.548,3.548,0,0,1-3.538,3.537H1216.1a3.548,3.548,0,0,1-3.538-3.537V592.5a3.548,3.548,0,0,1,3.538-3.538" transform="translate(-814.148 -395.441)" fill="#1a47b6" fill-rule="evenodd"/>
          <rect id="Rectángulo_68181" data-name="Rectángulo 68181" width="34.285" height="17.006" transform="translate(402.091 198.008)" fill="#fff"/>
          <rect id="Rectángulo_68182" data-name="Rectángulo 68182" width="59.863" height="17.006" transform="translate(439.505 198.008)" fill="#fff"/>
          <rect id="Rectángulo_68183" data-name="Rectángulo 68183" width="4.081" height="4.082" transform="translate(474.57 204.334)" fill="#ec1c24"/>
          <rect id="Rectángulo_68184" data-name="Rectángulo 68184" width="4.082" height="4.082" transform="translate(481.032 204.334)" fill="#ec1c24"/>
          <rect id="Rectángulo_68185" data-name="Rectángulo 68185" width="4.081" height="4.082" transform="translate(487.495 204.334)" fill="#ec1c24"/>
          <rect id="Rectángulo_68186" data-name="Rectángulo 68186" width="14.716" height="4.015" transform="translate(406.473 234.062)" fill="#092978"/>
          <rect id="Rectángulo_68187" data-name="Rectángulo 68187" width="14.715" height="4.015" transform="translate(479.396 234.062)" fill="#092978"/>
          <path id="Trazado_224594" data-name="Trazado 224594" d="M1247.942,408.589H1269.2c2.653,0,9.187,5.023,10.334,11.575h0c2.161,10.539,1.2,33.732-6.266,42l-8.462-.11-25.925-6.428V411.867a14.121,14.121,0,0,1,9.056-3.278" transform="translate(-831.82 -274.336)" fill="#f7941f" fill-rule="evenodd"/>
          <path id="Trazado_224595" data-name="Trazado 224595" d="M1331.154,408.8c10.5,1.031,11.475,14.221,11.339,22.457H1331.16Z" transform="translate(-893.771 -274.477)" fill="#f7941f" fill-rule="evenodd"/>
          <path id="Trazado_224596" data-name="Trazado 224596" d="M1279.389,477.227l10.31-.08s0,3.916-4.242,7.115-17.923,13.488-17.923,13.488h-15.011s3.191-4.09,7.4-4.432,4.371.238,4.371.238c.81-2.142,10.489-11.789,15.1-16.328" transform="translate(-840.976 -320.367)" fill="#f9c4c7" fill-rule="evenodd"/>
          <path id="Trazado_224597" data-name="Trazado 224597" d="M1356.062,734.221l1.028,7.395,2.642,2.444s2.059-.1,2.3.619a6.642,6.642,0,0,1,0,2.244H1348.51a61.285,61.285,0,0,1-1.561-12.277Z" transform="translate(-904.377 -492.973)" fill="#630"/>
          <path id="Trazado_224598" data-name="Trazado 224598" d="M1170.831,539.85h44.923a8,8,0,0,1,1.491.14h0c12.54-.064,14.1,8.054,14.978,16.9l5.06,50.836H1220.26l-5.616-51.742h-43.813a8.068,8.068,0,1,1,0-16.136" transform="translate(-780.709 -362.468)" fill="#092978" fill-rule="evenodd"/>
          <path id="Trazado_224599" data-name="Trazado 224599" d="M1224.657,677.914l6.168,13.81a11.12,11.12,0,0,1-1.44,3.924c-1.033,1.424-1.133,2.466-.486,3.323s.821,1.071.821,1.071l10.479-10.934-5.5-12.844Z" transform="translate(-822.267 -454.059)" fill="#630"/>
          <rect id="Rectángulo_68188" data-name="Rectángulo 68188" width="25.543" height="5.003" transform="translate(333.172 189.126)" fill="#d4ecfd"/>
          <path id="Trazado_224600" data-name="Trazado 224600" d="M1175.406,544.582a11.067,11.067,0,0,1,4.457,3.989c3.692,5.606,20.474,43.422,20.474,43.422h-19.292l-14.05-30.811c-.584-1.283-3.481-6.626-3.749-9.058-.862-7.83,5.641-10.532,12.159-7.541" transform="translate(-780.982 -364.847)" fill="#092978" fill-rule="evenodd"/>
          <path id="Trazado_224601" data-name="Trazado 224601" d="M1258.281,362.451c-2.223,3.967,1.595,9.5,6.291,9.1l-.007,1.258L1262,376.458l2.524,3.752,2.626.956,6.345-1.633V368.1c.232-.072.241.345.713.057a5.289,5.289,0,0,0,1.326-3.508c-.19-1.095-1.594-1.722-1.594-1.722,1.32-3.247,2.363-3.762-1.035-5.566s-10.258-1.669-10.258-1.669l-3.112,1.043c-.134,3.02.285,2.96-1.256,5.711" transform="translate(-844.406 -238.821)" fill="#f9c4c7" fill-rule="evenodd"/>
          <path id="Trazado_224602" data-name="Trazado 224602" d="M1275.2,401.565a5.625,5.625,0,0,0,.689-.016,16.116,16.116,0,0,0,5.69-1.171,5.992,5.992,0,0,1-3.111,3.329,10.267,10.267,0,0,1-3.98,1.088l1.394-1.987.007-1.258Z" transform="translate(-855.726 -268.822)" fill="#dd777b" fill-rule="evenodd"/>
          <path id="Trazado_224603" data-name="Trazado 224603" d="M1256.82,334.833c2.623.438,4.742.061,6.346.255a4.588,4.588,0,0,1,2.312,1.1c1.5,1.216,2.672,4.218,3.01,6.208,0,0,1.758-.735,2.332-.37s.213,1.241.126,1.605-.9.754-1.158.98c-.78.675,1.061.963,3.232-.788,6.948-5.606,4.813-14.5-4.972-17.825-3.971-1.351-1.188-3.5-3.923-4.075-12.5-2.642-15.073,11.354-7.3,12.907" transform="translate(-840.908 -215.925)" fill="#363653" fill-rule="evenodd"/>
          <path id="Trazado_224604" data-name="Trazado 224604" d="M1216.71,418.012c-5.776,5.15-9.131,12.264-11.184,19.726,3.785-.247,7.741-.23,11.492-.351Z" transform="translate(-809.421 -280.663)" fill="#f7941f" fill-rule="evenodd"/>
          <path id="Trazado_224605" data-name="Trazado 224605" d="M1274.313,422.519a.7.7,0,1,1-.7.695.7.7,0,0,1,.7-.695m0-4.034a.7.7,0,1,1-.7.7.7.7,0,0,1,.7-.7m-2.683-10.721c-2.411,4.117.219,7.041,2.588,8.362,3.341-2.169,6.344-4.283,6.344-8.362,0,0,1.153-.021,1.9,1.809,1.234,2.962-.834,9.616-.834,9.616s-2.321-3-4.251-3.165a6.789,6.789,0,0,0-3.181.42c-2.468-1.81-4.151.537-5.8,2.257-.521-4.388-.454-7.542,2.829-10.937Z" transform="translate(-851.471 -273.782)" fill="#fff" fill-rule="evenodd"/>
          <rect id="Rectángulo_68189" data-name="Rectángulo 68189" width="25.543" height="5.003" transform="translate(333.172 160.116)" fill="#d4ecfd"/>
          <path id="Trazado_224606" data-name="Trazado 224606" d="M1200.058,461.182h-32.509c-1.253,0-2.556,1.057-2.279,2.279l4.858,21.486c.277,1.223,1.026,2.28,2.28,2.28h32.508c1.254,0,2.556-1.057,2.28-2.28l-4.858-21.486c-.276-1.222-1.026-2.279-2.279-2.279" transform="translate(-782.368 -309.648)" fill="#dff2fc" fill-rule="evenodd"/>
          <path id="Trazado_224607" data-name="Trazado 224607" d="M1195.623,461.182h-32.509c-1.254,0-2.555,1.057-2.279,2.279l4.858,21.486c.276,1.223,1.026,2.28,2.28,2.28h32.508c1.254,0,2.556-1.057,2.28-2.28l-4.858-21.486c-.276-1.222-1.026-2.279-2.279-2.279" transform="translate(-779.39 -309.648)" fill="#afcceb" fill-rule="evenodd"/>
          <path id="Trazado_224608" data-name="Trazado 224608" d="M1220.127,494.164a2.279,2.279,0,1,0,2.465,1.563,2.081,2.081,0,0,0-2.465-1.563" transform="translate(-818.405 -331.742)" fill="#fff" fill-rule="evenodd"/>
          <path id="Trazado_224609" data-name="Trazado 224609" d="M1306.154,533.969h-16.508V536.1h17.572v-1.065a1.067,1.067,0,0,0-1.064-1.064" transform="translate(-865.902 -358.519)" fill="#dff2fc" fill-rule="evenodd"/>
        </g>
      </g>
      <g id="Grupo_212410" data-name="Grupo 212410" transform="translate(188.619 127.037)">
        <g id="Grupo_212409" data-name="Grupo 212409" clip-path="url(#clip-path-9)">
          <rect id="Rectángulo_68191" data-name="Rectángulo 68191" width="78.355" height="105.368" transform="translate(0 0)" fill="url(#linear-gradient-7)"/>
        </g>
      </g>
      <g id="Grupo_212412" data-name="Grupo 212412" transform="translate(188.619 123.044)">
        <g id="Grupo_212411" data-name="Grupo 212411" clip-path="url(#clip-path-10)">
          <rect id="Rectángulo_68192" data-name="Rectángulo 68192" width="78.355" height="105.369" transform="translate(0)" fill="url(#linear-gradient-8)"/>
        </g>
      </g>
      <g id="Grupo_212414" data-name="Grupo 212414" transform="translate(0 -0.005)">
        <g id="Grupo_212413" data-name="Grupo 212413" transform="translate(0 0)" clip-path="url(#clip-path-2)">
          <path id="Trazado_224612" data-name="Trazado 224612" d="M1357.929,765.8h1.52a11.535,11.535,0,0,1,11.5,11.5v64.065h-97.307v-2.7h94.607V777.3a8.833,8.833,0,0,0-8.8-8.8h-1.52Z" transform="translate(-855.159 -514.174)" fill="#102b6e" fill-rule="evenodd"/>
          <path id="Trazado_224613" data-name="Trazado 224613" d="M1530.159,903.912h1.52a11.534,11.534,0,0,1,11.5,11.5v19.362h-2.7V915.417a8.832,8.832,0,0,0-8.8-8.8h-1.52Z" transform="translate(-1027.388 -606.908)" fill="#102b6e" fill-rule="evenodd"/>
          <path id="Trazado_224614" data-name="Trazado 224614" d="M1530.572,639.676a11.555,11.555,0,0,1,7.566,10.807V755.335h-2.7V650.483a8.774,8.774,0,0,0-2.587-6.216,8.883,8.883,0,0,0-2.279-1.651Z" transform="translate(-1027.666 -429.493)" fill="#102b6e" fill-rule="evenodd"/>
          <path id="Trazado_224615" data-name="Trazado 224615" d="M169.834,995.789h503.52a2.466,2.466,0,0,1,0,4.932H169.834a2.466,2.466,0,1,1,0-4.932" transform="translate(-112.375 -668.597)" fill="#1a47b6" fill-rule="evenodd"/>
          <path id="Trazado_224616" data-name="Trazado 224616" d="M1319.932,221.616l.518.978a1.032,1.032,0,0,1-.2,1.233,10.675,10.675,0,0,0-1.686,2.037,1.033,1.033,0,0,1-1.174.426l-1.059-.324a1.039,1.039,0,0,0-1.3.685l-.625,2.028a1.041,1.041,0,0,0,.688,1.3l1.058.326a1.032,1.032,0,0,1,.731,1.014,10.65,10.65,0,0,0,.247,2.632,1.028,1.028,0,0,1-.531,1.13l-.979.518a1.041,1.041,0,0,0-.433,1.406l.992,1.875a1.04,1.04,0,0,0,1.405.433l.979-.517a1.031,1.031,0,0,1,1.233.2,10.747,10.747,0,0,0,2.034,1.686,1.031,1.031,0,0,1,.428,1.176l-.327,1.058a1.038,1.038,0,0,0,.688,1.3l2.027.627a1.041,1.041,0,0,0,1.3-.688l.327-1.058a1.029,1.029,0,0,1,1.014-.73,10.787,10.787,0,0,0,2.632-.246,1.029,1.029,0,0,1,1.131.528l.517.979a1.04,1.04,0,0,0,1.406.433l1.875-.991a1.041,1.041,0,0,0,.434-1.406l-.517-.979a1.032,1.032,0,0,1,.2-1.233,10.647,10.647,0,0,0,1.685-2.035,1.034,1.034,0,0,1,1.175-.429l1.058.328a1.04,1.04,0,0,0,1.3-.687l.626-2.026a1.042,1.042,0,0,0-.689-1.3l-1.058-.325a1.031,1.031,0,0,1-.73-1.015,10.656,10.656,0,0,0-.247-2.631,1.03,1.03,0,0,1,.529-1.132l.979-.518a1.04,1.04,0,0,0,.434-1.406l-.991-1.876a1.044,1.044,0,0,0-1.407-.434l-.979.519a1.035,1.035,0,0,1-1.234-.2,10.709,10.709,0,0,0-2.033-1.684,1.034,1.034,0,0,1-.428-1.175l.327-1.058a1.042,1.042,0,0,0-.688-1.3l-2.028-.625a1.04,1.04,0,0,0-1.3.688l-.327,1.059a1.032,1.032,0,0,1-1.014.73,10.52,10.52,0,0,0-2.631.246,1.028,1.028,0,0,1-1.13-.529l-.519-.98a1.04,1.04,0,0,0-1.405-.434l-1.876.992a1.039,1.039,0,0,0-.432,1.406m5.883,4.549a5.761,5.761,0,1,1-2.771,8.99,5.754,5.754,0,0,1,2.771-8.99" transform="translate(-882.493 -146.631)" fill="#76c5fb" fill-rule="evenodd"/>
          <rect id="Rectángulo_68193" data-name="Rectángulo 68193" width="25.543" height="5.003" transform="translate(333.172 278.598)" fill="#d4ecfd"/>
          <rect id="Rectángulo_68194" data-name="Rectángulo 68194" width="25.543" height="5.003" transform="translate(333.172 250.009)" fill="#d4ecfd"/>
          <rect id="Rectángulo_68195" data-name="Rectángulo 68195" width="25.543" height="5.003" transform="translate(333.172 219.143)" fill="#d4ecfd"/>
          <rect id="Rectángulo_68196" data-name="Rectángulo 68196" width="34.306" height="4.288" transform="translate(439.527 312.568)" fill="#3882c8"/>
          <rect id="Rectángulo_68197" data-name="Rectángulo 68197" width="22.14" height="4.288" transform="translate(477.227 312.568)" fill="#3882c8"/>
          <rect id="Rectángulo_68198" data-name="Rectángulo 68198" width="34.306" height="4.289" transform="translate(439.527 266.47)" fill="#3882c8"/>
          <rect id="Rectángulo_68199" data-name="Rectángulo 68199" width="22.14" height="4.289" transform="translate(477.227 266.47)" fill="#3882c8"/>
          <rect id="Rectángulo_68200" data-name="Rectángulo 68200" width="19.392" height="4.289" transform="translate(454.441 221.265)" fill="#3882c8"/>
          <rect id="Rectángulo_68201" data-name="Rectángulo 68201" width="22.14" height="4.289" transform="translate(477.227 221.265)" fill="#3882c8"/>
          <path id="Trazado_224617" data-name="Trazado 224617" d="M1008.916,56.537h0a1.066,1.066,0,0,1,1.064,1.063v9.3a1.063,1.063,0,0,1-2.127,0V57.6a1.066,1.066,0,0,1,1.063-1.063" transform="translate(-676.699 -37.959)" fill="#8dd7f7" fill-rule="evenodd"/>
          <path id="Trazado_224618" data-name="Trazado 224618" d="M1005.13,71.747h0a1.066,1.066,0,0,1-1.064,1.063h-9.3a1.063,1.063,0,0,1,0-2.127h9.3a1.066,1.066,0,0,1,1.064,1.063" transform="translate(-667.2 -47.457)" fill="#8dd7f7" fill-rule="evenodd"/>
          <path id="Trazado_224619" data-name="Trazado 224619" d="M663.246,95.556h0a1.207,1.207,0,0,1,1.2,1.2v10.527a1.2,1.2,0,1,1-2.408,0V96.76a1.206,1.206,0,0,1,1.2-1.2" transform="translate(-444.512 -64.157)" fill="#8dd7f7" fill-rule="evenodd"/>
          <path id="Trazado_224620" data-name="Trazado 224620" d="M658.957,112.776h0a1.207,1.207,0,0,1-1.2,1.2H647.228a1.2,1.2,0,0,1,0-2.408h10.526a1.207,1.207,0,0,1,1.2,1.2" transform="translate(-433.757 -74.911)" fill="#8dd7f7" fill-rule="evenodd"/>
          <path id="Trazado_224621" data-name="Trazado 224621" d="M895.044,140.388a2.857,2.857,0,0,0-4.036,0l0,0a2.858,2.858,0,0,0,0,4.037v0a2.856,2.856,0,0,0,4.039-4.039Zm-2.018-2.428a4.432,4.432,0,0,1,3.144,1.3h0a4.443,4.443,0,1,1-6.284,6.284v0a4.441,4.441,0,0,1,0-6.284v0h0a4.432,4.432,0,0,1,3.14-1.3" transform="translate(-596.616 -92.628)" fill="#8dd7f7"/>
          <path id="Trazado_224622" data-name="Trazado 224622" d="M1184.093,91.4a2.339,2.339,0,0,0-3.3,0l0,0a2.34,2.34,0,0,0,0,3.3v0A2.339,2.339,0,0,0,1184.1,91.4Zm-1.652-1.988a3.626,3.626,0,0,1,2.573,1.067h0a3.638,3.638,0,1,1-5.144,5.145h0a3.637,3.637,0,0,1,0-5.145h0a3.628,3.628,0,0,1,2.571-1.067" transform="translate(-791.478 -60.031)" fill="#8dd7f7"/>
          <path id="Trazado_224623" data-name="Trazado 224623" d="M526.326,80.853a2.338,2.338,0,0,0-3.3,0l0,0a2.34,2.34,0,0,0,0,3.3v0a2.338,2.338,0,0,0,3.307-3.306Zm-1.652-1.988a3.628,3.628,0,0,1,2.574,1.066v0a3.638,3.638,0,1,1-5.145,5.144h0a3.637,3.637,0,0,1,0-5.144h0l0,0a3.627,3.627,0,0,1,2.571-1.066" transform="translate(-349.836 -52.95)" fill="#8dd7f7"/>
          <path id="Trazado_224624" data-name="Trazado 224624" d="M446.017,168.925h0a1.114,1.114,0,0,1,1.111,1.111v9.716a1.115,1.115,0,0,1-1.111,1.111h0a1.115,1.115,0,0,1-1.111-1.111v-9.716a1.114,1.114,0,0,1,1.111-1.111" transform="translate(-298.721 -113.419)" fill="#8dd7f7" fill-rule="evenodd"/>
          <path id="Trazado_224625" data-name="Trazado 224625" d="M442.059,184.82h0a1.115,1.115,0,0,1-1.111,1.112h-9.716a1.111,1.111,0,0,1,0-2.222h9.716a1.115,1.115,0,0,1,1.111,1.111" transform="translate(-288.794 -123.345)" fill="#8dd7f7" fill-rule="evenodd"/>
          <path id="Trazado_224626" data-name="Trazado 224626" d="M1362.571,81.441a3.509,3.509,0,0,0-4.956,0l0,0a3.508,3.508,0,0,0,0,4.957v0a3.507,3.507,0,0,0,4.959-4.96Zm-2.478-2.98a5.441,5.441,0,0,1,3.86,1.6l0,0a5.456,5.456,0,1,1-7.716,7.716l0,0a5.455,5.455,0,0,1,0-7.717l0,0,0,0a5.443,5.443,0,0,1,3.857-1.6" transform="translate(-909.537 -52.679)" fill="#8dd7f7"/>
          <path id="Trazado_224627" data-name="Trazado 224627" d="M1096.038,157.156h0a.757.757,0,0,1,.755.755v6.6a.758.758,0,0,1-.755.756h0a.758.758,0,0,1-.755-.756v-6.6a.758.758,0,0,1,.755-.755" transform="translate(-735.401 -105.517)" fill="#8dd7f7" fill-rule="evenodd"/>
          <path id="Trazado_224628" data-name="Trazado 224628" d="M1093.348,167.961h0a.757.757,0,0,1-.755.755h-6.6a.758.758,0,0,1-.756-.755h0a.758.758,0,0,1,.756-.755h6.6a.757.757,0,0,1,.755.755" transform="translate(-728.654 -112.265)" fill="#8dd7f7" fill-rule="evenodd"/>
        </g>
      </g>
    </g>
  </g>
</svg>
