<svg xmlns="http://www.w3.org/2000/svg" xmlns:xlink="http://www.w3.org/1999/xlink" width="126.595" height="126.597" viewBox="0 0 126.595 126.597">
  <defs>
    <clipPath id="clip-path">
      <path id="Trazado_189538" data-name="Trazado 189538" d="M2.207,63.3A61.091,61.091,0,1,1,63.3,124.39,61.161,61.161,0,0,1,2.207,63.3M63.3,0a63.3,63.3,0,1,0,63.3,63.3A63.369,63.369,0,0,0,63.3,0Z" fill="#fff"/>
    </clipPath>
    <clipPath id="clip-path-2">
      <rect id="Rect치ngulo_68526" data-name="Rect치ngulo 68526" width="74.878" height="74.837" fill="#fff" stroke="#fff" stroke-width="1"/>
    </clipPath>
  </defs>
  <g id="Grupo_213467" data-name="Grupo 213467" transform="translate(-1293.215 -3047)">
    <g id="Grupo_199122" data-name="Grupo 199122" transform="translate(1293.215 3047)">
      <g id="Grupo_172087" data-name="Grupo 172087" clip-path="url(#clip-path)">
        <rect id="Rect치ngulo_49153" data-name="Rect치ngulo 49153" width="157.073" height="157.074" transform="translate(-34.146 10) rotate(-16.323)" fill="#fff"/>
      </g>
    </g>
    <g id="Grupo_213460" data-name="Grupo 213460" transform="translate(1319.215 3073)">
      <g id="Grupo_213459" data-name="Grupo 213459" clip-path="url(#clip-path-2)">
        <path id="Trazado_225867" data-name="Trazado 225867" d="M67.986,40.789a.993.993,0,0,1-.389-.822q.015-11.312,0-22.625c0-.435.117-.563.552-.662A8.433,8.433,0,1,0,57.994,7.765c-.046.648-.286.684-.8.683q-14.1-.017-28.207-.008-14.066,0-28.132-.015C.195,8.424,0,8.56,0,9.262q.035,23.3,0,46.607c0,.653.119.864.831.863q17.121-.039,34.241-.019c1.179,0,1.177,0,1.318,1.2.029.249.084.5.121.744A19.271,19.271,0,0,0,59.379,74.4c7.682-1.719,12.8-6.45,14.787-14.041,2.006-7.671-.279-14.264-6.18-19.573M66.432,2.407a6.033,6.033,0,1,1-6.068,6,6.051,6.051,0,0,1,6.068-6m-29.911,49.9c-.044.2-.08.394-.11.593-.212,1.4-.211,1.4-1.667,1.4q-15.762,0-31.524.018c-.671,0-.805-.166-.8-.815q.031-20.926,0-41.853c0-.655.143-.813.807-.812q27.15.032,54.3,0c.591,0,.9.12,1.057.732a4.563,4.563,0,0,0,.843,1.586c.192.25.155.4-.065.623q-3.4,3.372-6.775,6.769a.561.561,0,0,1-.713.172,3.041,3.041,0,0,0-2.283-.014.6.6,0,0,1-.778-.179c-.514-.551-1.039-1.1-1.6-1.6a.9.9,0,0,1-.283-1.094,3.342,3.342,0,0,0-1.213-3.766,3.365,3.365,0,0,0-3.88-.4,3.492,3.492,0,0,0-1.98,3.373.848.848,0,0,0,.038.372c.469.864.009,1.381-.6,1.959-1.6,1.527-3.147,3.109-4.7,4.685a.81.81,0,0,1-.967.243,3.561,3.561,0,0,0-4.154,1.619,3.616,3.616,0,1,0,6.578.816.814.814,0,0,1,.228-.972q2.633-2.592,5.226-5.225a.715.715,0,0,1,.906-.217,2.7,2.7,0,0,0,2.064.008.766.766,0,0,1,1.022.287c.209.25.459.465.691.694.694.684,1.405,1.2.976,2.5-.434,1.32.548,2.793,1.821,3.487a3.525,3.525,0,0,0,3.957-.346A3.361,3.361,0,0,0,54.165,23.2a.981.981,0,0,1,.324-1.153q3.249-3.2,6.453-6.451c.294-.3.476-.377.857-.1a6.378,6.378,0,0,0,2.675,1.143c.566.1.737.3.734.908-.03,6.133-.018,12.267-.018,18.4V38.7c-8.97-4.359-16.957-3.022-24.138,3.927V38.838c0-1.434,0-1.434-1.434-1.434-1.76,0-3.52.014-5.279-.01-.427-.006-.54.114-.538.539q.023,6.711,0,13.423c0,.424.108.565.538.539.6-.036,1.207.009,1.809-.016.349-.015.445.114.372.432m15.39-28.1A1.205,1.205,0,1,1,50.8,22.927a1.226,1.226,0,0,1,1.107,1.279m-7.24-7.348a1.2,1.2,0,1,1-1.216-1.175,1.223,1.223,0,0,1,1.216,1.175M33.808,27.773a1.2,1.2,0,1,1-1.161-1.229,1.221,1.221,0,0,1,1.161,1.229M55.551,45.852a9.654,9.654,0,1,1-9.671,9.675,9.682,9.682,0,0,1,9.671-9.675M36.512,49.463c-.451.045-.278-.327-.28-.528-.014-1.431-.007-2.862-.007-4.293s.016-2.863-.01-4.293c-.008-.422.107-.538.535-.543,1.888-.022,1.888-.037,1.888,1.817a10.461,10.461,0,0,0,.011,1.5c.322,2.189-.455,4.116-1.328,6.041-.212.467-.528.267-.809.295m4.411,13.105c-.444.277-.609.241-.84-.264A16.882,16.882,0,0,1,53.772,38.723c.5-.054.591.079.565.53-.036.626-.009,1.256-.009,1.884s-.023,1.258.008,1.884c.02.393-.134.5-.5.558A12.032,12.032,0,0,0,43.477,56.02a10.648,10.648,0,0,0,.815,3.806c.2.483.2.713-.31.975-1.045.541-2.059,1.145-3.059,1.767m28.289,2.849a16.8,16.8,0,0,1-11.59,6.842c-.373.05-.748.1-1.124.119-.325.02-.653,0-.979,0A16.849,16.849,0,0,1,41.97,65.575c-.372-.48-.332-.7.2-.978,1.062-.563,2.1-1.178,3.128-1.8.345-.208.516-.167.781.156a11.968,11.968,0,0,0,18.885.032c.277-.339.445-.419.839-.175,1.065.659,2.155,1.279,3.253,1.882.383.21.422.37.156.724m1.5-2.545c-1.313-.758-2.581-1.515-3.876-2.224-.455-.249-.172-.5-.081-.737a12.06,12.06,0,0,0-9.44-16.32c-.421-.068-.6-.162-.59-.635q.054-1.883,0-3.769c-.013-.475.157-.492.557-.461A16.828,16.828,0,0,1,70.716,62.872" transform="translate(0 0.001)" fill="#fff" stroke="#fff" stroke-width="1"/>
        <path id="Trazado_225868" data-name="Trazado 225868" d="M127.013,171.261c0-3.042-.012-6.083.012-9.125,0-.491-.122-.624-.616-.617-2.036.029-4.073.024-6.109,0-.427,0-.539.114-.538.539q.021,9.125,0,18.25c0,.425.111.544.538.54,2.036-.022,4.073-.027,6.109,0,.493.007.62-.125.616-.617-.024-2.991-.012-5.983-.012-8.974M124,178.44c-1.811-.011-1.811.008-1.811-1.824,0-4,.013-7.993-.015-11.99,0-.561.125-.708.693-.7,1.735.035,1.735.007,1.735,1.751v5.5c0,2.212-.015,4.424.012,6.636.006.49-.12.622-.615.619" transform="translate(-95.616 -128.954)" fill="#fff" stroke="#fff" stroke-width="1"/>
        <path id="Trazado_225869" data-name="Trazado 225869" d="M30.7,197.443q-3.092.033-6.184,0c-.427,0-.544.114-.539.539.023,1.835.01,3.67.01,5.5s.013,3.67-.01,5.5c-.005.426.112.544.539.539q3.092-.033,6.184,0c.427,0,.54-.114.538-.539q-.025-5.5,0-11.01c0-.425-.112-.544-.539-.539m-2.4,9.677c-1.9.024-1.9.042-1.9-1.882,0-1.608.012-3.217-.008-4.825-.005-.4.067-.554.519-.56,1.9-.025,1.9-.043,1.9,1.882v1.81c0,1.005-.017,2.011.008,3.016.01.4-.066.554-.519.56" transform="translate(-19.146 -157.635)" fill="#fff" stroke="#fff" stroke-width="1"/>
        <path id="Trazado_225870" data-name="Trazado 225870" d="M78.592,209.415q-3.092.033-6.184,0c-.426,0-.547.113-.539.539.026,1.432.01,2.865.01,4.3s.016,2.866-.01,4.3c-.008.427.113.544.539.539q3.092-.033,6.184,0c.426,0,.541-.114.539-.539q-.028-4.3,0-8.6c0-.426-.113-.543-.539-.539m-1.877,6.791c.005.353-.085.457-.454.471-1.968.078-1.968.09-1.968-1.891v-1.131c0-1.837,0-1.819,1.8-1.829.48,0,.639.105.623.611-.039,1.255-.025,2.513-.005,3.769" transform="translate(-57.379 -167.193)" fill="#fff" stroke="#fff" stroke-width="1"/>
        <path id="Trazado_225871" data-name="Trazado 225871" d="M48.557,68.177c2.589-.031,5.178-.014,7.768-.014h6.787c1.709,0,1.683,0,1.719-1.69.012-.576-.124-.743-.725-.739-4.8.028-9.6.016-14.4.016-1.793,0-1.77,0-1.795,1.765-.007.52.11.669.65.662" transform="translate(-38.248 -52.481)" fill="#fff" stroke="#fff" stroke-width="1"/>
        <path id="Trazado_225872" data-name="Trazado 225872" d="M48.536,92.128c2.589-.02,5.179-.01,7.768-.01h6.787c1.73,0,1.7,0,1.738-1.75.014-.6-.185-.678-.714-.676-4.8.021-9.6.012-14.4.012-1.821,0-1.8,0-1.811,1.826,0,.524.175.6.636.6" transform="translate(-38.242 -71.609)" fill="#fff" stroke="#fff" stroke-width="1"/>
        <path id="Trazado_225873" data-name="Trazado 225873" d="M49.763,113.645c-1.875,0-1.855,0-1.857,1.854,0,.48.137.574.588.57,2.614-.022,5.229-.011,7.843-.011H63.05c1.781,0,1.756,0,1.782-1.779.008-.542-.148-.649-.665-.647-4.8.021-9.6.012-14.4.012" transform="translate(-38.247 -90.722)" fill="#fff" stroke="#fff" stroke-width="1"/>
        <path id="Trazado_225874" data-name="Trazado 225874" d="M48.6,140.022c4.8-.022,9.6-.013,14.4-.013,1.826,0,1.8,0,1.816-1.82,0-.513-.158-.608-.63-.6-2.589.022-5.178.01-7.768.01H49.633c-1.735,0-1.7,0-1.743,1.744-.013.588.167.684.708.682" transform="translate(-38.234 -109.846)" fill="#fff" stroke="#fff" stroke-width="1"/>
        <path id="Trazado_225875" data-name="Trazado 225875" d="M25.278,68.225c1.168,0,1.168,0,1.168-1.171,0-1.243,0-1.243-1.246-1.243-1.168,0-1.168,0-1.168,1.171,0,1.243,0,1.243,1.246,1.243" transform="translate(-19.187 -52.542)" fill="#fff" stroke="#fff" stroke-width="1"/>
        <path id="Trazado_225876" data-name="Trazado 225876" d="M25.166,92.167c1.28,0,1.28,0,1.28-1.285,0-1.129,0-1.129-1.134-1.129-1.28,0-1.28,0-1.28,1.285,0,1.129,0,1.129,1.134,1.129" transform="translate(-19.187 -71.657)" fill="#fff" stroke="#fff" stroke-width="1"/>
        <path id="Trazado_225877" data-name="Trazado 225877" d="M25.179,116.109c1.267,0,1.267,0,1.267-1.222,0-1.191,0-1.191-1.223-1.191-1.191,0-1.191,0-1.191,1.222,0,1.191,0,1.191,1.147,1.191" transform="translate(-19.187 -90.772)" fill="#fff" stroke="#fff" stroke-width="1"/>
        <path id="Trazado_225878" data-name="Trazado 225878" d="M25.278,140.052c1.168,0,1.168,0,1.168-1.171,0-1.243,0-1.243-1.246-1.243-1.168,0-1.168,0-1.168,1.17,0,1.243,0,1.243,1.246,1.243" transform="translate(-19.187 -109.888)" fill="#fff" stroke="#fff" stroke-width="1"/>
        <path id="Trazado_225879" data-name="Trazado 225879" d="M246.752,253.876a7.24,7.24,0,1,0-7.219-7.263,7.263,7.263,0,0,0,7.219,7.263m.024-12.067a4.827,4.827,0,1,1-4.829,4.842,4.84,4.84,0,0,1,4.829-4.842" transform="translate(-191.239 -191.129)" fill="#fff" stroke="#fff" stroke-width="1"/>
      </g>
    </g>
  </g>
</svg>
