<svg id="Grupo_199147" data-name="Grupo 199147" xmlns="http://www.w3.org/2000/svg" xmlns:xlink="http://www.w3.org/1999/xlink" width="126.595" height="126.597" viewBox="0 0 126.595 126.597">
  <defs>
    <clipPath id="clip-path">
      <rect id="Rect치ngulo_60511" data-name="Rect치ngulo 60511" width="63.657" height="63.666" fill="#fff"/>
    </clipPath>
    <clipPath id="clip-path-2">
      <path id="Trazado_189538" data-name="Trazado 189538" d="M2.207,63.3A61.091,61.091,0,1,1,63.3,124.39,61.161,61.161,0,0,1,2.207,63.3M63.3,0a63.3,63.3,0,1,0,63.3,63.3A63.369,63.369,0,0,0,63.3,0Z" fill="#fff"/>
    </clipPath>
  </defs>
  <g id="Grupo_199124" data-name="Grupo 199124" transform="translate(31.391 31.391)">
    <g id="Grupo_199123" data-name="Grupo 199123" clip-path="url(#clip-path)">
      <path id="Trazado_208169" data-name="Trazado 208169" d="M61.72,32.207c-.662-.019-1.325,0-1.988,0q-3.976,0-7.952,0c-.686,0-.744-.055-.753-.672-.01-.661,0-1.322,0-1.983,0-.817.011-.8.82-1.036a11.659,11.659,0,0,0,8.771-9.667,23.856,23.856,0,0,0,.1-4.082,1.925,1.925,0,0,0-1.961-2.1,2.034,2.034,0,0,0-1.979,2.114c-.014.7.019,1.406-.008,2.107a7.873,7.873,0,0,1-4.8,7.355c-.852.4-.925.35-.945-.58-.045-2.117-1.2-3.55-3.3-3.689-.31-.021-.619-.044-.929-.05-.7-.012-.74-.05-.742-.743,0-1.942,0-3.884,0-5.826a5.97,5.97,0,0,0-.088-1.233,7.963,7.963,0,0,0-5.647-6.4c-.444-.143-.55-.335-.344-.765.339-.708.649-1.43.957-2.152A1.883,1.883,0,0,0,39.661,0h-.87a2.079,2.079,0,0,0-1.663,1.472C36.66,2.55,36.165,3.617,35.7,4.7a.9.9,0,0,1-.957.6q-2.914-.027-5.829,0a.9.9,0,0,1-.957-.6C27.492,3.617,27,2.55,26.529,1.472A2.079,2.079,0,0,0,24.866,0H24a1.884,1.884,0,0,0-1.268,2.8c.282.666.587,1.322.874,1.986.318.738.321.741-.44.978a8.058,8.058,0,0,0-5.555,7.522c0,1.983-.01,3.966.006,5.95,0,.5-.172.727-.686.687a6.786,6.786,0,0,0-1.482.122,3.162,3.162,0,0,0-2.677,2.566,6.749,6.749,0,0,0-.135,1.478c.013.3-.122.417-.421.328a3.193,3.193,0,0,1-.413-.134,7.733,7.733,0,0,1-4.8-6.3c-.159-1.134-.06-2.269-.119-3.4A2.016,2.016,0,0,0,4.9,12.664,1.926,1.926,0,0,0,2.94,14.64c-.018.867-.01,1.735,0,2.6a11.377,11.377,0,0,0,4.656,9.23A11.053,11.053,0,0,0,12,28.547a.7.7,0,0,1,.642.812c-.023.722-.026,1.447,0,2.169.02.521-.205.715-.7.675-.185-.015-.373,0-.559,0-3.106,0-6.212-.007-9.318,0A1.792,1.792,0,0,0,0,33.738v.868A1.655,1.655,0,0,0,1.069,36a2.612,2.612,0,0,0,1.038.142q4.878,0,9.756,0c.734,0,.766.037.77.775q.006.992,0,1.984c0,.766-.019.768-.745.97a11.638,11.638,0,0,0-8.7,8.875,19.143,19.143,0,0,0-.2,5.369,1.658,1.658,0,0,0,1.081,1.413,1.952,1.952,0,0,0,2.806-1.786c.053-1.134.013-2.267.121-3.4a7.783,7.783,0,0,1,5.041-6.308c.451-.143.571-.016.619.43.073.679.057,1.363.134,2.038a18.891,18.891,0,0,0,6.676,12.626,18.186,18.186,0,0,0,15.727,4.186c7.912-1.473,12.927-6.368,15.19-14.069a25.627,25.627,0,0,0,.633-4.718c.064-.628.116-.683.664-.46A7.537,7.537,0,0,1,56.659,50.4c.15,1.113.072,2.228.123,3.341a1.968,1.968,0,1,0,3.934-.059c.015-.847,0-1.695,0-2.542a11.311,11.311,0,0,0-3.311-8.049,11.452,11.452,0,0,0-5.64-3.224c-.731-.183-.741-.2-.746-.967,0-.62,0-1.24,0-1.86,0-.9,0-.9.9-.9,3.252,0,6.5,0,9.756,0a1.75,1.75,0,0,0,1.983-1.532v-.868a1.771,1.771,0,0,0-1.937-1.532M21.491,12.966a4.123,4.123,0,0,1,4-3.774c1.531-.059,3.066-.022,4.6-.023q3.76,0,7.521,0a4.319,4.319,0,0,1,4.634,4.6c.009,1.9-.018,3.8.015,5.7.009.528-.1.7-.669.693-3.253-.031-6.505-.015-9.758-.015s-6.506-.016-9.758.015c-.571.006-.685-.163-.669-.693.068-2.168-.109-4.342.089-6.505M47.116,44.281c-.1,6.593-3.147,11.373-9.093,14.234A15.3,15.3,0,0,1,16.531,44.21q.009-9.892-.013-19.784c0-.534.149-.626.647-.623q6.092.032,12.184,0c.5,0,.647.1.645.627-.022,5.6-.016,11.2-.012,16.807A1.872,1.872,0,0,0,31.9,43.343a1.841,1.841,0,0,0,1.777-1.93c.02-.951,0-1.9,0-2.853,0-4.713.006-9.427-.009-14.14,0-.454.073-.622.588-.619q6.154.037,12.308,0c.463,0,.576.105.574.57-.022,3.556-.012,7.111-.012,10.667,0,3.08.04,6.161-.008,9.241" fill="#fff"/>
    </g>
  </g>
  <g id="Grupo_172088" data-name="Grupo 172088">
    <g id="Grupo_172087" data-name="Grupo 172087" clip-path="url(#clip-path-2)">
      <rect id="Rect치ngulo_49153" data-name="Rect치ngulo 49153" width="157.073" height="157.074" transform="translate(-34.146 10) rotate(-16.323)" fill="#fff"/>
    </g>
  </g>
</svg>
