<svg xmlns="http://www.w3.org/2000/svg" xmlns:xlink="http://www.w3.org/1999/xlink" width="126.595" height="126.808" viewBox="0 0 126.595 126.808">
  <defs>
    <clipPath id="clip-path">
      <path id="Trazado_189538" data-name="Trazado 189538" d="M2.207,63.3A61.091,61.091,0,1,1,63.3,124.39,61.161,61.161,0,0,1,2.207,63.3M63.3,0a63.3,63.3,0,1,0,63.3,63.3A63.369,63.369,0,0,0,63.3,0Z" fill="#fff"/>
    </clipPath>
    <clipPath id="clip-path-2">
      <rect id="Rect치ngulo_68522" data-name="Rect치ngulo 68522" width="74.85" height="74.837" fill="#fff" stroke="#fff" stroke-width="1"/>
    </clipPath>
  </defs>
  <g id="Grupo_216713" data-name="Grupo 216713" transform="translate(6897.078 8015.211)">
    <ellipse id="Elipse_4905" data-name="Elipse 4905" cx="63.218" cy="63.218" rx="63.218" ry="63.218" transform="translate(-6896.919 -8015.211)" fill="#f24dc3"/>
    <g id="Grupo_213478" data-name="Grupo 213478" transform="translate(-7395.293 -11062)">
      <g id="Grupo_199118" data-name="Grupo 199118" transform="translate(498.215 3047)">
        <g id="Grupo_172087" data-name="Grupo 172087" clip-path="url(#clip-path)">
          <rect id="Rect치ngulo_49153" data-name="Rect치ngulo 49153" width="157.073" height="157.074" transform="translate(-34.146 10) rotate(-16.323)" fill="#fff"/>
        </g>
      </g>
      <g id="Grupo_213452" data-name="Grupo 213452" transform="translate(524.215 3073)">
        <g id="Grupo_213452-2" data-name="Grupo 213452" clip-path="url(#clip-path-2)">
          <path id="Trazado_225812" data-name="Trazado 225812" d="M17.46,4.823c.077,1.921,0,3.848.027,5.772.007.5-.113.671-.638.655-1.314-.038-2.63-.015-3.946-.012-2.656.006-4.142,1.5-4.143,4.171q0,14.761.009,29.521A2.091,2.091,0,0,1,8.3,46.32C5.712,49.612,3.153,52.925.57,56.22c-.07.089-.132.179-.189.27a6.9,6.9,0,0,0-.37,1.328s0,.005,0,.008c.033.729-.017,1.463.022,2.191a3.653,3.653,0,0,0,3.632,3.563q13.7.039,27.4.012a1.269,1.269,0,0,0,1.387-1.353c.011-.17,0-.341,0-.511q0-24.3,0-48.593c0-1.552-.341-1.9-1.873-1.9-3.313,0-6.626-.015-9.938.014-.559,0-.688-.151-.679-.69.032-2.119.009-4.238.015-6.357,0-1.3.416-1.714,1.693-1.715,4.628,0,9.256.008,13.885-.013.508,0,.639.126.639.637q-.02,34.307,0,68.615c0,.524-.15.632-.647.629-3.41-.022-6.82-.008-10.231-.014-1.14,0-1.6-.461-1.611-1.59-.006-.485,0-.97,0-1.642.555.553,1,1.009,1.46,1.453a1.3,1.3,0,0,0,1.934.151c.544-.551.485-1.245-.187-1.925q-1.669-1.689-3.358-3.359a1.323,1.323,0,0,0-2.2.025Q19.693,67.1,18.05,68.763c-.69.7-.748,1.435-.179,1.982.54.519,1.259.448,1.927-.21.433-.426.845-.872,1.419-1.467,0,.706,0,1.222,0,1.739a3.775,3.775,0,0,0,4.018,4.027q15.31.009,30.619,0a3.766,3.766,0,0,0,4.038-4.007c.028-2.143.04-4.288-.013-6.43-.017-.7.219-.819.852-.813,3.166.031,6.333.014,9.5.014,2.742,0,3.6-.573,4.626-3.086V57C72.3,53.7,69.777,50.362,67.166,47.1A4.56,4.56,0,0,1,66.09,44c.049-9.548.029-19.1.025-28.645a3.745,3.745,0,0,0-2.888-4.017,4.957,4.957,0,0,0-1.158-.1q-8.989-.009-17.977,0c-1.245,0-1.672.421-1.672,1.658q0,24.516,0,49.033c0,1.244.424,1.667,1.663,1.667,4.214,0,8.429.012,12.643-.013.551,0,.7.138.687.685-.032,2.119-.009,4.238-.015,6.357,0,1.294-.424,1.719-1.694,1.72-5.457,0-10.913-.011-16.37.018-.591,0-.654-.2-.653-.7q.017-34.235,0-68.471c0-.555.12-.724.705-.72,4.19.028,8.38.014,12.57.016,1.282,0,1.7.426,1.705,1.714,0,.453,0,.905,0,1.531-.558-.562-.99-1.011-1.437-1.443a1.294,1.294,0,0,0-1.932-.155,1.265,1.265,0,0,0,.139,1.878q1.712,1.75,3.461,3.462a1.276,1.276,0,0,0,2.041-.016Q57.68,7.748,59.391,6a1.252,1.252,0,1,0-1.768-1.744c-.457.437-.886.9-1.518,1.552.287-2.762-.185-4.96-3.027-5.8H20.336c-.007.023-.008.063-.022.068-2.268.8-2.945,2.508-2.854,4.756M29.855,60.982c-.31.381-1.094.117-1.669.118q-11.9.013-23.81.006c-1.543,0-2.1-.672-1.88-2.195.06-.414.318-.29.525-.291,1.728-.008,3.457,0,5.185,0h8.034c4.333,0,8.667.008,13-.01.525,0,.814.063.736.689-.071.572.168,1.331-.123,1.687m-.014-4.959c-.318.283-1.062.1-1.617.1q-11.723,0-23.446,0H3.814c.533-.684.979-1.253,1.422-1.824q2.509-3.226,5.016-6.454a.944.944,0,0,1,.819-.475q9.167.027,18.333,0c.449,0,.591.115.573.57-.035.875-.044,1.754,0,2.628.028.52-.186.583-.629.581-3.749-.015-7.5-.009-11.248-.008-.219,0-.439-.01-.657.009A1.229,1.229,0,0,0,17.3,53.6a3.938,3.938,0,0,0,.727.036c3.749,0,7.5.017,11.248-.014.6,0,.759.182.693.73-.069.572.247,1.335-.131,1.671m-.622-42.308c.592,0,.768.117.764.743-.029,4.969-.016,9.938-.016,14.907,0,4.92-.009,9.841.013,14.761,0,.568-.078.783-.727.78q-8.66-.045-17.32-.005c-.518,0-.692-.084-.691-.658q.032-14.432.016-28.865c0-1.257.4-1.647,1.664-1.647,5.432,0,10.865.009,16.3-.015m16.352,0c5.481.023,10.962.012,16.443.015,1.2,0,1.6.41,1.605,1.633q0,14.432.015,28.865c0,.547-.129.676-.675.674q-8.7-.033-17.393,0c-.564,0-.67-.16-.668-.69.021-4.969.012-9.938.012-14.907s.009-9.938-.013-14.907c0-.541.12-.685.674-.683m-.553,40.049c.31-.385,1.093-.118,1.668-.12,3.408-.013,6.817-.007,10.226-.006a2.251,2.251,0,0,0,.934-.117,1.221,1.221,0,0,0-.191-2.331,3.474,3.474,0,0,0-.8-.041c-3.749,0-7.5-.016-11.248.014-.589,0-.741-.164-.709-.726.047-.85.028-1.7,0-2.555-.01-.376.1-.5.49-.5q9.24.017,18.479.005a.626.626,0,0,1,.571.228c2.172,2.8,4.351,5.6,6.619,8.515H56.083c-3.506,0-7.012-.015-10.518.015-.563,0-.718-.153-.664-.688.058-.575-.172-1.33.117-1.689m.654,7.36c-.668,0-.793-.186-.778-.8.043-1.7.014-1.7,1.686-1.7H58.7c4.334,0,8.667.011,13-.013.54,0,.694.117.679.672-.039,1.445-.384,1.831-1.807,1.831-8.3,0-16.6-.009-24.905.018" transform="translate(-0.009)" fill="#fff" stroke="#fff" stroke-width="1"/>
          <path id="Trazado_225813" data-name="Trazado 225813" d="M335.19,279.268c.169-.005.339,0,.508,0,.145,0,.29,0,.435,0a1.249,1.249,0,1,1,.009,2.487c-.314.016-.629.013-.944,0a1.311,1.311,0,0,1-1.422-1.246,1.293,1.293,0,0,1,1.413-1.242" transform="translate(-272.649 -228.12)" fill="#fff" stroke="#fff" stroke-width="1"/>
          <path id="Trazado_225814" data-name="Trazado 225814" d="M56.5,279.3c-.242,0-.486-.02-.725,0a1.21,1.21,0,0,0-1.148,1.188,1.19,1.19,0,0,0,1.007,1.237,4.258,4.258,0,0,0,.866.049c1.226,0,1.852-.423,1.852-1.251s-.615-1.239-1.852-1.228" transform="translate(-44.621 -228.141)" fill="#fff" stroke="#fff" stroke-width="1"/>
          <path id="Trazado_225815" data-name="Trazado 225815" d="M335.2,281.756c.314.012.63.014.943,0a1.249,1.249,0,1,0-.009-2.487c-.145-.005-.29,0-.435,0-.169,0-.339,0-.508,0a1.293,1.293,0,0,0-1.413,1.242,1.311,1.311,0,0,0,1.422,1.246" transform="translate(-272.649 -228.12)" fill="#fff" stroke="#fff" stroke-width="1"/>
        </g>
      </g>
    </g>
  </g>
</svg>
