<svg xmlns="http://www.w3.org/2000/svg" xmlns:xlink="http://www.w3.org/1999/xlink" width="126.595" height="126.808" viewBox="0 0 126.595 126.808">
  <defs>
    <clipPath id="clip-path">
      <path id="Trazado_189538" data-name="Trazado 189538" d="M2.207,63.3A61.091,61.091,0,1,1,63.3,124.39,61.161,61.161,0,0,1,2.207,63.3M63.3,0a63.3,63.3,0,1,0,63.3,63.3A63.369,63.369,0,0,0,63.3,0Z" fill="#fff"/>
    </clipPath>
  </defs>
  <g id="Grupo_216715" data-name="Grupo 216715" transform="translate(6579.078 6575.211)">
    <ellipse id="Elipse_4907" data-name="Elipse 4907" cx="63.218" cy="63.218" rx="63.218" ry="63.218" transform="translate(-6578.919 -6575.211)" fill="#f24dc3"/>
    <g id="Grupo_213496" data-name="Grupo 213496" transform="translate(-7395.293 -9622)">
      <g id="Grupo_199120" data-name="Grupo 199120" transform="translate(816.215 3047)">
        <g id="Grupo_172087" data-name="Grupo 172087" clip-path="url(#clip-path)">
          <rect id="Rectángulo_49153" data-name="Rectángulo 49153" width="157.073" height="157.074" transform="translate(-34.146 10) rotate(-16.323)" fill="#fff"/>
        </g>
      </g>
      <g id="_009-backup" data-name="009-backup" transform="translate(842.186 3073)">
        <path id="Trazado_225836" data-name="Trazado 225836" d="M176.631,260.094h-3.505a1.1,1.1,0,0,0,0,2.193h3.5a1.1,1.1,0,0,0,0-2.193Z" transform="translate(-146.86 -222.077)" fill="#fff" stroke="#fff" stroke-width="1"/>
        <path id="Trazado_225837" data-name="Trazado 225837" d="M125.168,262.286h3.5a1.1,1.1,0,1,0,0-2.193h-3.5a1.1,1.1,0,1,0,0,2.193Z" transform="translate(-105.912 -222.077)" fill="#fff" stroke="#fff" stroke-width="1"/>
        <path id="Trazado_225838" data-name="Trazado 225838" d="M90.189,263.894a1.1,1.1,0,0,0,1.1-1.1v-.512H91.8a1.1,1.1,0,0,0,0-2.193H90.189a1.1,1.1,0,0,0-1.1,1.1V262.8A1.1,1.1,0,0,0,90.189,263.894Z" transform="translate(-76.046 -222.077)" fill="#fff" stroke="#fff" stroke-width="1"/>
        <path id="Trazado_225839" data-name="Trazado 225839" d="M170.628,38.017h-.715V36.349a1.878,1.878,0,0,0-1.876-1.876h-.478V32.207a27.875,27.875,0,0,0,9.38-1.753c3.129-1.268,4.853-3.077,4.853-5.093V18.816c0-.007,0-.014,0-.022a4,4,0,0,0-1.118-2.685,4,4,0,0,0,1.118-2.681V6.862c0-2.017-1.723-3.825-4.853-5.093A28.8,28.8,0,0,0,166.464,0,33.888,33.888,0,0,0,160.6.494a1.1,1.1,0,1,0,.381,2.159,31.7,31.7,0,0,1,5.486-.461c7.518,0,13.135,2.465,13.135,4.67s-5.617,4.67-13.135,4.67S153.33,9.067,153.33,6.862c0-1.067,1.438-2.28,3.753-3.167a1.1,1.1,0,1,0-.784-2.047c-3.328,1.275-5.161,3.127-5.161,5.214v6.566a4,4,0,0,0,1.118,2.681,4,4,0,0,0-1.118,2.685v6.566c0,2.017,1.723,3.825,4.853,5.093a27.871,27.871,0,0,0,9.376,1.753v2.266h-.478a1.878,1.878,0,0,0-1.876,1.876v1.668H162.3a1.1,1.1,0,1,0,0,2.192h.715v1.668a1.878,1.878,0,0,0,1.876,1.876h3.148a1.878,1.878,0,0,0,1.876-1.876V40.209h.715a1.1,1.1,0,0,0,0-2.192ZM153.952,17.5a13.24,13.24,0,0,0,2.038,1.022,28.8,28.8,0,0,0,10.475,1.769,28.8,28.8,0,0,0,10.475-1.769,13.241,13.241,0,0,0,2.038-1.022,1.944,1.944,0,0,1,.623,1.288v.021c-.024,2.2-5.633,4.656-13.135,4.656-7.518,0-13.135-2.466-13.135-4.67A1.939,1.939,0,0,1,153.952,17.5Zm2.038-5.545a28.8,28.8,0,0,0,10.475,1.769,28.8,28.8,0,0,0,10.475-1.769,12.123,12.123,0,0,0,2.66-1.444v2.917c0,2.2-5.617,4.67-13.135,4.67s-13.135-2.465-13.135-4.67V10.511A12.123,12.123,0,0,0,155.99,11.956Zm-2.66,13.405V22.443a12.117,12.117,0,0,0,2.66,1.444,28.8,28.8,0,0,0,10.475,1.769,28.8,28.8,0,0,0,10.475-1.769,12.122,12.122,0,0,0,2.66-1.444v2.917c0,2.2-5.617,4.67-13.135,4.67S153.33,27.565,153.33,25.361Zm14.391,16.2H165.2v-4.9h2.516Z" transform="translate(-129.021)" fill="#fff" stroke="#fff" stroke-width="1"/>
        <path id="Trazado_225840" data-name="Trazado 225840" d="M306.659,261.19a1.1,1.1,0,0,0-1.1-1.1h-3.5a1.1,1.1,0,0,0,0,2.193h3.5A1.1,1.1,0,0,0,306.659,261.19Z" transform="translate(-256.947 -222.077)" fill="#fff" stroke="#fff" stroke-width="1"/>
        <path id="Trazado_225841" data-name="Trazado 225841" d="M348.92,261.19a1.1,1.1,0,0,0,1.1,1.1h3.5a1.1,1.1,0,0,0,0-2.193h-3.5A1.1,1.1,0,0,0,348.92,261.19Z" transform="translate(-297.895 -222.077)" fill="#fff" stroke="#fff" stroke-width="1"/>
        <path id="Trazado_225842" data-name="Trazado 225842" d="M397.975,262.286h.512v.512a1.1,1.1,0,1,0,2.193,0V261.19a1.1,1.1,0,0,0-1.1-1.1h-1.608a1.1,1.1,0,1,0,0,2.193Z" transform="translate(-338.844 -222.077)" fill="#fff" stroke="#fff" stroke-width="1"/>
        <path id="Trazado_225843" data-name="Trazado 225843" d="M24.915,298.076a5.328,5.328,0,0,0-5.289-4.525H15.239v-1a1.1,1.1,0,0,0-2.192,0v1H8.777a5.327,5.327,0,0,0-5.289,4.524l-2.75,17.55a3.254,3.254,0,0,0-.709,2.031v2.768a3.273,3.273,0,0,0,3.27,3.27h7.468a1.1,1.1,0,0,0,0-2.193H3.3a1.078,1.078,0,0,1-1.077-1.077v-2.768A1.078,1.078,0,0,1,3.3,316.579H25.1a1.078,1.078,0,0,1,1.077,1.077v2.768A1.078,1.078,0,0,1,25.1,321.5h-10.1a1.1,1.1,0,0,0,0,2.193H25.1a3.273,3.273,0,0,0,3.27-3.27v-2.768a3.254,3.254,0,0,0-.709-2.031ZM3.151,314.39l2.5-15.975a3.145,3.145,0,0,1,3.123-2.671H19.626a3.146,3.146,0,0,1,3.123,2.672l2.5,15.974c-.1,0-21.983-.006-22.1,0Z" transform="translate(0 -248.856)" fill="#fff" stroke="#fff" stroke-width="1"/>
        <path id="Trazado_225844" data-name="Trazado 225844" d="M26.279,470.939v.825a1.1,1.1,0,0,0,2.192,0v-.825a1.1,1.1,0,1,0-2.192,0Z" transform="translate(-22.413 -401.168)" fill="#fff" stroke="#fff" stroke-width="1"/>
        <path id="Trazado_225845" data-name="Trazado 225845" d="M50.418,470.939v.825a1.1,1.1,0,0,0,2.192,0v-.825a1.1,1.1,0,1,0-2.192,0Z" transform="translate(-43.024 -401.168)" fill="#fff" stroke="#fff" stroke-width="1"/>
        <path id="Trazado_225846" data-name="Trazado 225846" d="M105.714,474.857a1.1,1.1,0,0,0,0-2.193H99.99a1.1,1.1,0,0,0,0,2.193Z" transform="translate(-84.414 -403.577)" fill="#fff" stroke="#fff" stroke-width="1"/>
        <path id="Trazado_225847" data-name="Trazado 225847" d="M41.731,410.022H39.542a1.1,1.1,0,1,0,0,2.192h2.188a1.1,1.1,0,1,0,0-2.192Z" transform="translate(-32.802 -350.091)" fill="#fff" stroke="#fff" stroke-width="1"/>
        <path id="Trazado_225848" data-name="Trazado 225848" d="M345.393,469.843a1.1,1.1,0,0,0-1.1,1.1v.825a1.1,1.1,0,0,0,2.193,0v-.825A1.1,1.1,0,0,0,345.393,469.843Z" transform="translate(-293.948 -401.168)" fill="#fff" stroke="#fff" stroke-width="1"/>
        <path id="Trazado_225849" data-name="Trazado 225849" d="M369.532,469.843a1.1,1.1,0,0,0-1.1,1.1v.825a1.1,1.1,0,0,0,2.193,0v-.825A1.1,1.1,0,0,0,369.532,469.843Z" transform="translate(-314.558 -401.168)" fill="#fff" stroke="#fff" stroke-width="1"/>
        <path id="Trazado_225850" data-name="Trazado 225850" d="M423.731,472.664h-5.723a1.1,1.1,0,0,0,0,2.193h5.723a1.1,1.1,0,0,0,0-2.193Z" transform="translate(-355.948 -403.577)" fill="#fff" stroke="#fff" stroke-width="1"/>
        <path id="Trazado_225851" data-name="Trazado 225851" d="M345.682,315.625l-1.517-9.68a1.1,1.1,0,0,0-2.166.339l1.27,8.1c-.1,0-21.983-.005-22.1,0l2.5-15.975a3.145,3.145,0,0,1,3.123-2.671h10.849a3.146,3.146,0,0,1,3.123,2.672l.569,3.631a1.1,1.1,0,0,0,2.166-.339l-.569-3.631a5.327,5.327,0,0,0-5.289-4.525h-4.274v-1a1.1,1.1,0,0,0-2.192,0v1h-4.382a5.327,5.327,0,0,0-5.289,4.524l-2.751,17.55a3.254,3.254,0,0,0-.709,2.031v2.768a3.273,3.273,0,0,0,3.269,3.27h21.806a3.273,3.273,0,0,0,3.269-3.27v-2.768A3.252,3.252,0,0,0,345.682,315.625Zm-1.484,4.8a1.078,1.078,0,0,1-1.077,1.077H321.315a1.078,1.078,0,0,1-1.077-1.077v-2.768a1.078,1.078,0,0,1,1.077-1.077h21.806a1.078,1.078,0,0,1,1.077,1.077Z" transform="translate(-271.533 -248.856)" fill="#fff" stroke="#fff" stroke-width="1"/>
        <path id="Trazado_225852" data-name="Trazado 225852" d="M357.559,410.022a1.1,1.1,0,1,0,0,2.192h2.189a1.1,1.1,0,1,0,0-2.192Z" transform="translate(-304.335 -350.091)" fill="#fff" stroke="#fff" stroke-width="1"/>
      </g>
    </g>
  </g>
</svg>
