<svg xmlns="http://www.w3.org/2000/svg" xmlns:xlink="http://www.w3.org/1999/xlink" width="126.595" height="126.808" viewBox="0 0 126.595 126.808">
  <defs>
    <clipPath id="clip-path">
      <path id="Trazado_189538" data-name="Trazado 189538" d="M2.207,63.3A61.091,61.091,0,1,1,63.3,124.39,61.161,61.161,0,0,1,2.207,63.3M63.3,0a63.3,63.3,0,1,0,63.3,63.3A63.369,63.369,0,0,0,63.3,0Z" fill="#fff"/>
    </clipPath>
    <clipPath id="clip-path-2">
      <rect id="Rect치ngulo_68525" data-name="Rect치ngulo 68525" width="74.994" height="74.837" fill="#fff" stroke="#fff" stroke-width="1"/>
    </clipPath>
  </defs>
  <g id="Grupo_216717" data-name="Grupo 216717" transform="translate(6260.078 5135.211)">
    <ellipse id="Elipse_4909" data-name="Elipse 4909" cx="63.218" cy="63.218" rx="63.218" ry="63.218" transform="translate(-6260.078 -5135.211)" fill="#f24dc3"/>
    <g id="Grupo_213517" data-name="Grupo 213517" transform="translate(-7395.293 -8182)">
      <g id="Grupo_199122" data-name="Grupo 199122" transform="translate(1135.215 3047)">
        <g id="Grupo_172087" data-name="Grupo 172087" clip-path="url(#clip-path)">
          <rect id="Rect치ngulo_49153" data-name="Rect치ngulo 49153" width="157.073" height="157.074" transform="translate(-34.146 10) rotate(-16.323)" fill="#fff"/>
        </g>
      </g>
      <g id="Grupo_213458" data-name="Grupo 213458" transform="translate(1160.215 3073)">
        <g id="Grupo_213457" data-name="Grupo 213457" clip-path="url(#clip-path-2)">
          <path id="Trazado_225859" data-name="Trazado 225859" d="M73.137,0H1.848C.236,0,0,.24,0,1.881Q0,19.647,0,37.412V72.865c0,1.735.232,1.972,1.935,1.972H73.066c1.671,0,1.928-.253,1.928-1.9q0-35.531,0-71.063C74.994.242,74.754,0,73.137,0M2.348,3.133c0-.584.107-.8.759-.8q34.39.028,68.78,0c.652,0,.762.212.758.8-.025,3.53-.03,7.06,0,10.59.006.642-.135.817-.8.815q-17.215-.035-34.43-.017-17.1,0-34.194.018c-.732,0-.888-.2-.881-.9.036-3.5.029-7.008,0-10.511m70.3,68.541c0,.639-.138.827-.808.825q-17.171-.034-34.342-.016-17.131,0-34.263.017c-.728,0-.893-.192-.892-.9q.031-26.9,0-53.8c0-.741.154-.946.929-.945q34.224.036,68.447,0c.769,0,.933.2.932.942q-.034,26.938,0,53.876" transform="translate(0 0)" fill="#fff" stroke="#fff" stroke-width="1"/>
          <path id="Trazado_225860" data-name="Trazado 225860" d="M118.69,165.669c.233-.636.477-1.269.685-1.914a1.5,1.5,0,0,1,.8-.845,3.166,3.166,0,0,1,3.68.177c.128.086.288.123.425.2a1.287,1.287,0,0,0,1.7-.282c.878-.9,1.763-1.791,2.667-2.663a1.326,1.326,0,0,0,.29-1.7c-.317-.657-.621-1.321-.925-1.984a.737.737,0,0,1-.061-.653c.765-1.97.753-1.974,2.778-2.723.22-.082.441-.162.66-.247a1.241,1.241,0,0,0,.855-1.268q-.007-1.961,0-3.922a1.251,1.251,0,0,0-.927-1.295c-.689-.243-1.374-.5-2.057-.757a.881.881,0,0,1-.592-.447c-.887-1.907-.9-1.9-.007-3.81.11-.236.224-.471.331-.708a1.188,1.188,0,0,0-.233-1.44q-1.441-1.447-2.89-2.884a1.214,1.214,0,0,0-1.51-.23c-.635.3-1.284.583-1.911.9a1.329,1.329,0,0,1-1.026.034,3.174,3.174,0,0,1-2.55-2.751,3.465,3.465,0,0,0-.179-.517,1.278,1.278,0,0,0-1.3-.928q-1.965,0-3.93,0a1.277,1.277,0,0,0-1.307.923,11.077,11.077,0,0,0-.493,1.4c-.18.861-.754,1.2-1.5,1.576a2.52,2.52,0,0,1-2.611-.129,5.6,5.6,0,0,0-1.592-.676,1.331,1.331,0,0,0-1.035.445c-.924.926-1.846,1.856-2.779,2.773a1.241,1.241,0,0,0-.262,1.566c.325.682.639,1.37.951,2.058a.738.738,0,0,1,.057.653c-.777,1.983-.765,1.987-2.77,2.722-.221.081-.436.177-.657.255a1.2,1.2,0,0,0-.861,1.256q.005,1.961,0,3.922a1.248,1.248,0,0,0,.921,1.3c.69.241,1.369.512,2.058.757a.879.879,0,0,1,.592.451c.894,1.891.9,1.888.011,3.807-.11.237-.218.473-.327.71a1.213,1.213,0,0,0,.279,1.5c.93.921,1.859,1.842,2.778,2.774a1.267,1.267,0,0,0,1.571.283c.687-.317,1.383-.615,2.058-.957a1.038,1.038,0,0,1,.807-.008,3.27,3.27,0,0,1,2.643,2.852,2.663,2.663,0,0,0,.158.441,1.253,1.253,0,0,0,1.3.917q1.965-.023,3.93,0a1.254,1.254,0,0,0,1.309-.907m-4.072-1.44c-.38-.013-.571-.123-.654-.5a4.362,4.362,0,0,0-3.1-3.359,4.043,4.043,0,0,0-4,.187.886.886,0,0,1-1.322-.179c-1.215-1.308-1.293-1.3-.481-2.883a2.27,2.27,0,0,0-.05-2.548,5.992,5.992,0,0,1-.748-1.882,1.48,1.48,0,0,0-1.113-1.186,3.958,3.958,0,0,1-.509-.2c-.546-.227-1.4-.227-1.585-.689a6.91,6.91,0,0,1-.1-2.165c-.018-.388.282-.422.5-.471a4.374,4.374,0,0,0,3.368-3.1,3.92,3.92,0,0,0-.178-3.981c-.371-.556-.236-.932.236-1.377,1.251-1.182,1.255-1.253,2.763-.468a2.393,2.393,0,0,0,2.633-.016,7.236,7.236,0,0,1,1.883-.749,1.594,1.594,0,0,0,1.192-1.117c.04-.124.087-.245.132-.367.681-1.849.681-1.835,2.625-1.826.43,0,.689.094.781.545a4.342,4.342,0,0,0,3.121,3.339,4,4,0,0,0,4-.2.852.852,0,0,1,1.261.171c1.253,1.314,1.324,1.315.493,2.945a2.231,2.231,0,0,0,.056,2.477,6.229,6.229,0,0,1,.755,1.88,1.485,1.485,0,0,0,1.168,1.223,2.245,2.245,0,0,1,.289.119c1.92.714,1.91.714,1.863,2.741-.008.367-.094.594-.469.665A4.369,4.369,0,0,0,126,154.39a3.923,3.923,0,0,0,.215,3.979.845.845,0,0,1-.229,1.312,10.021,10.021,0,0,0-.953.932c-.107.1-.229.2-.33.28-.569-.264-1.111-.467-1.6-.755a2.141,2.141,0,0,0-2.485.042,6.2,6.2,0,0,1-1.96.771,1.522,1.522,0,0,0-1.176,1.131c-.029.1-.065.2-.1.3-.718,1.936-.718,1.925-2.766,1.854" transform="translate(-77.925 -105.121)" fill="#fff" stroke="#fff" stroke-width="1"/>
          <path id="Trazado_225861" data-name="Trazado 225861" d="M78.161,96.063a16.83,16.83,0,0,1,6.079-2.19c-.047.069-.089.134-.134.2-.455.653-.424,1.263.087,1.657a1.109,1.109,0,0,0,1.586-.294q1.086-1.187,2.148-2.4a1.021,1.021,0,0,0,.05-1.539q-1.358-1.3-2.814-2.5a.937.937,0,0,0-1.4.154,1.02,1.02,0,0,0,.055,1.479c.2.207.412.394.707.673-.176.048-.244.07-.314.084-9.437,1.874-19.3,10.092-19.379,23.12-.006.92.41,1.467,1.127,1.494.738.027,1.2-.542,1.232-1.494a21.191,21.191,0,0,1,10.97-18.446" transform="translate(-51.238 -70.141)" fill="#fff" stroke="#fff" stroke-width="1"/>
          <path id="Trazado_225862" data-name="Trazado 225862" d="M202.825,207.518c-.712.249-.83.839-.842,1.517A21.422,21.422,0,0,1,186.7,229.227a4.607,4.607,0,0,1-1.726.358c.547-.865.535-1.449,0-1.857s-1.1-.244-1.745.475q-.994,1.111-1.985,2.224a1.021,1.021,0,0,0-.043,1.538c.9.869,1.844,1.7,2.817,2.494a.948.948,0,0,0,1.4-.164,1.013,1.013,0,0,0-.02-1.422c-.2-.235-.432-.445-.7-.72.23-.063.4-.119.583-.159a23.555,23.555,0,0,0,17.085-13.862,22.2,22.2,0,0,0,1.975-9.348,1.172,1.172,0,0,0-1.522-1.266" transform="translate(-142.949 -163.951)" fill="#fff" stroke="#fff" stroke-width="1"/>
          <path id="Trazado_225863" data-name="Trazado 225863" d="M79.018,30.531a3.536,3.536,0,0,0,3.518-3.482,3.489,3.489,0,0,0-3.486-3.572,3.539,3.539,0,0,0-3.579,3.5,3.575,3.575,0,0,0,3.547,3.551m-.031-4.7a1.145,1.145,0,0,1,1.189,1.1,1.182,1.182,0,0,1-1.137,1.244,1.218,1.218,0,0,1-1.208-1.193,1.186,1.186,0,0,1,1.156-1.151" transform="translate(-59.646 -18.555)" fill="#fff" stroke="#fff" stroke-width="1"/>
          <path id="Trazado_225864" data-name="Trazado 225864" d="M123.963,30.531a3.534,3.534,0,0,0,3.559-3.52A3.491,3.491,0,0,0,124,23.477a3.538,3.538,0,0,0-3.541,3.541,3.576,3.576,0,0,0,3.507,3.513m.047-4.7a1.147,1.147,0,0,1,1.153,1.136,1.184,1.184,0,0,1-1.176,1.209,1.226,1.226,0,0,1-1.17-1.154,1.182,1.182,0,0,1,1.193-1.191" transform="translate(-95.199 -18.554)" fill="#fff" stroke="#fff" stroke-width="1"/>
          <path id="Trazado_225865" data-name="Trazado 225865" d="M33.832,30.529a3.527,3.527,0,0,0,.021-7.054A3.494,3.494,0,0,0,30.3,26.982a3.536,3.536,0,0,0,3.531,3.547m.018-4.7a1.187,1.187,0,0,1,1.157,1.151A1.221,1.221,0,0,1,33.8,28.173a1.181,1.181,0,0,1-1.136-1.244,1.143,1.143,0,0,1,1.188-1.1" transform="translate(-23.947 -18.553)" fill="#fff" stroke="#fff" stroke-width="1"/>
          <path id="Trazado_225866" data-name="Trazado 225866" d="M158.366,185.231a7.389,7.389,0,1,0-7.375,7.38,7.417,7.417,0,0,0,7.375-7.38m-7.505,5.025a5.009,5.009,0,0,1-4.914-5.222,5.034,5.034,0,0,1,10.06.387,5.019,5.019,0,0,1-5.146,4.835" transform="translate(-113.48 -140.565)" fill="#fff" stroke="#fff" stroke-width="1"/>
        </g>
      </g>
    </g>
  </g>
</svg>
