<svg xmlns="http://www.w3.org/2000/svg" xmlns:xlink="http://www.w3.org/1999/xlink" width="834" height="518" viewBox="0 0 834 518"><defs><clipPath id="a"><rect width="820" height="504.317" fill="none"/></clipPath></defs><g transform="translate(-383 -2942)"><g transform="translate(390 2950.25)"><g clip-path="url(#a)"><path d="M253.969,217.615,152.775,116.42a11.374,11.374,0,0,0-16.084,0L35.5,217.615a11.371,11.371,0,0,0,0,16.084l27.686,27.686a19.335,19.335,0,0,1,0,27.343l-3.579,3.58a19.558,19.558,0,0,1-17.357,5.3,35.882,35.882,0,0,0-42.168,32.9,35.87,35.87,0,0,0,71.428,6.473,36.343,36.343,0,0,0-.071-8.7,19.472,19.472,0,0,1,5.472-16.321l4.754-4.754a19.336,19.336,0,0,1,27.343,0l27.686,27.686a11.374,11.374,0,0,0,16.084,0L253.969,233.7a11.374,11.374,0,0,0,0-16.084" transform="translate(0 38.15)" fill="#561aa7"/><path d="M34.83,317.286a31.928,31.928,0,1,1,31.928-31.929A31.965,31.965,0,0,1,34.83,317.286m0-62.518a30.59,30.59,0,1,0,30.59,30.589,30.625,30.625,0,0,0-30.59-30.589" transform="translate(0.979 85.494)" fill="#fff"/><path d="M346.628,341.031l-85.959-85.959a45.275,45.275,0,0,1,1.36-65.38,36.4,36.4,0,1,0-48.765.464,42.7,42.7,0,0,1,14.784,31.866v1.83a41.724,41.724,0,0,1-12.223,29.509l-87.67,87.671a11.372,11.372,0,0,0,0,16.083l101.194,101.2a11.374,11.374,0,0,0,16.084,0l101.194-101.2a11.372,11.372,0,0,0,0-16.083" transform="translate(42.109 42.677)" fill="#008666"/><path d="M217.05,193.982a31.928,31.928,0,1,1,31.928-31.929,31.964,31.964,0,0,1-31.928,31.929m0-62.518a30.59,30.59,0,1,0,30.59,30.589,30.625,30.625,0,0,0-30.59-30.589" transform="translate(62.45 43.898)" fill="#fff"/><path d="M526.491,347.188,425.3,245.994a11.372,11.372,0,0,1,0-16.083L526.491,128.716a11.371,11.371,0,0,1,16.084,0L570.261,156.4a19.341,19.341,0,0,0,27.345,0l3.579-3.581a19.553,19.553,0,0,0,5.3-17.355,35.882,35.882,0,0,1,32.9-42.169,35.869,35.869,0,1,1-2.228,71.355,19.474,19.474,0,0,0-16.321,5.475l-4.754,4.753a19.337,19.337,0,0,0,0,27.343l27.686,27.687a11.37,11.37,0,0,1,0,16.083L542.575,347.188a11.374,11.374,0,0,1-16.084,0" transform="translate(142.349 31.447)" fill="#5059ab"/><path d="M594.431,160.131A31.928,31.928,0,1,1,626.361,128.2a31.963,31.963,0,0,1-31.929,31.929m0-62.52a30.591,30.591,0,1,0,30.592,30.59,30.625,30.625,0,0,0-30.592-30.59" transform="translate(189.759 32.478)" fill="#fff"/><path d="M449.769,240.048l-85.961,85.961a45.275,45.275,0,0,0,1.36,65.38,36.4,36.4,0,1,1-48.764-.465,42.7,42.7,0,0,0,14.784-31.865v-1.831a41.726,41.726,0,0,0-12.223-29.509L231.3,240.048a11.37,11.37,0,0,1,0-16.083L332.491,122.77a11.374,11.374,0,0,1,16.084,0L449.769,223.965a11.372,11.372,0,0,1,0,16.083" transform="translate(76.903 40.292)" fill="#14a0c0"/><path d="M320.192,382.331A31.928,31.928,0,1,1,352.12,350.4a31.966,31.966,0,0,1-31.928,31.929m0-62.52a30.591,30.591,0,1,0,30.59,30.59,30.627,30.627,0,0,0-30.59-30.59" transform="translate(97.245 107.436)" fill="#fff"/><path d="M451.875,253.968,553.069,152.773a11.37,11.37,0,0,0,0-16.083L451.875,35.495a11.372,11.372,0,0,0-16.083,0L408.1,63.18a19.335,19.335,0,0,1-27.343,0L377.183,59.6a19.556,19.556,0,0,1-5.3-17.356A35.887,35.887,0,0,0,338.98.078a35.869,35.869,0,1,0,2.227,71.355,19.475,19.475,0,0,1,16.322,5.474l4.754,4.753a19.337,19.337,0,0,1,0,27.345L334.6,136.69a11.37,11.37,0,0,0,0,16.083L435.792,253.968a11.372,11.372,0,0,0,16.083,0" transform="translate(101.446 0)" fill="#09909f"/><path d="M335.178,66.911a31.928,31.928,0,1,1,31.928-31.929,31.965,31.965,0,0,1-31.928,31.929m0-62.52a30.591,30.591,0,1,0,30.59,30.59,30.626,30.626,0,0,0-30.59-30.59" transform="translate(102.3 1.03)" fill="#fff"/></g></g><path d="M22.118,16.609H17.89L17.152,19h-3.3L18.549,6.2h2.9L26.178,19H22.865Zm-3.489-2.382h2.751L20,9.789ZM29.272,9.49l.1,1.116a3.225,3.225,0,0,1,2.716-1.292A2.713,2.713,0,0,1,34.3,10.2a4.226,4.226,0,0,1,.76,2.672V19H32.093V13a1.6,1.6,0,0,0-.29-1.059,1.342,1.342,0,0,0-1.055-.338,1.413,1.413,0,0,0-1.292.686V19H26.495V9.49ZM42.06,19a3.344,3.344,0,0,1-.281-.853,2.754,2.754,0,0,1-2.285,1.028,3.374,3.374,0,0,1-2.285-.813,2.588,2.588,0,0,1-.94-2.043,2.66,2.66,0,0,1,1.143-2.338,5.821,5.821,0,0,1,3.322-.791h.914v-.5q0-1.316-1.134-1.316a.927.927,0,0,0-1.055,1.042H36.5a2.655,2.655,0,0,1,1.173-2.239,4.931,4.931,0,0,1,2.993-.86,4.323,4.323,0,0,1,2.874.888,3.086,3.086,0,0,1,1.081,2.435v4.21a4.311,4.311,0,0,0,.4,2V19Zm-1.854-1.934a1.652,1.652,0,0,0,.918-.237,1.487,1.487,0,0,0,.523-.536V14.772h-.861q-1.547,0-1.547,1.389a.848.848,0,0,0,.272.655A.986.986,0,0,0,40.206,17.066ZM40.944,5.5h3.129L41.629,8.26l-2.417,0ZM49.381,19H46.411V5.5h2.971Zm4.948,0H51.359V9.49H54.33ZM51.183,7.038A1.322,1.322,0,0,1,51.64,6a1.943,1.943,0,0,1,2.373,0,1.322,1.322,0,0,1,.457,1.037,1.322,1.322,0,0,1-.457,1.037,1.943,1.943,0,0,1-2.373,0A1.322,1.322,0,0,1,51.183,7.038Zm9.949,9.29a.684.684,0,0,0-.4-.606,6.016,6.016,0,0,0-1.5-.475,6.853,6.853,0,0,1-1.828-.646,3.062,3.062,0,0,1-1.1-.971,2.319,2.319,0,0,1-.378-1.31,2.628,2.628,0,0,1,1.081-2.158,4.453,4.453,0,0,1,2.83-.848,4.934,4.934,0,0,1,3.023.853,2.666,2.666,0,0,1,1.143,2.241H61.036q0-1.143-1.2-1.143a1.194,1.194,0,0,0-.782.259.8.8,0,0,0-.316.646.737.737,0,0,0,.387.642,3.654,3.654,0,0,0,1.235.4,10.671,10.671,0,0,1,1.49.378,2.706,2.706,0,0,1,2.145,2.646,2.491,2.491,0,0,1-1.156,2.118,5.068,5.068,0,0,1-2.993.817,5.172,5.172,0,0,1-2.18-.439,3.645,3.645,0,0,1-1.494-1.2,2.707,2.707,0,0,1-.536-1.591H58.4a1.145,1.145,0,0,0,.439.962,1.808,1.808,0,0,0,1.081.3,1.422,1.422,0,0,0,.91-.246A.787.787,0,0,0,61.132,16.328ZM68.5,19H65.527V9.49H68.5ZM65.351,7.038A1.322,1.322,0,0,1,65.808,6a1.943,1.943,0,0,1,2.373,0,1.322,1.322,0,0,1,.457,1.037,1.322,1.322,0,0,1-.457,1.037,1.943,1.943,0,0,1-2.373,0A1.322,1.322,0,0,1,65.351,7.038Zm9.949,9.29a.684.684,0,0,0-.4-.606,6.016,6.016,0,0,0-1.5-.475,6.853,6.853,0,0,1-1.828-.646,3.062,3.062,0,0,1-1.1-.971,2.319,2.319,0,0,1-.378-1.31,2.628,2.628,0,0,1,1.081-2.158,4.453,4.453,0,0,1,2.83-.848,4.934,4.934,0,0,1,3.023.853,2.666,2.666,0,0,1,1.143,2.241H75.2q0-1.143-1.2-1.143a1.194,1.194,0,0,0-.782.259.8.8,0,0,0-.316.646.737.737,0,0,0,.387.642,3.654,3.654,0,0,0,1.235.4,10.671,10.671,0,0,1,1.49.378,2.706,2.706,0,0,1,2.145,2.646A2.491,2.491,0,0,1,77,18.358a5.068,5.068,0,0,1-2.993.817,5.172,5.172,0,0,1-2.18-.439,3.645,3.645,0,0,1-1.494-1.2A2.707,2.707,0,0,1,69.8,15.95h2.769a1.145,1.145,0,0,0,.439.962,1.808,1.808,0,0,0,1.081.3A1.422,1.422,0,0,0,75,16.97.787.787,0,0,0,75.3,16.328Zm8.35-2.153a5.809,5.809,0,0,1,.976-3.56,3.211,3.211,0,0,1,2.725-1.3,2.731,2.731,0,0,1,2.145,1V5.5h2.971V19H89.8l-.149-1.02a2.8,2.8,0,0,1-2.32,1.2,3.205,3.205,0,0,1-2.689-1.3A5.993,5.993,0,0,1,83.65,14.175Zm2.962.185q0,2.531,1.477,2.531a1.458,1.458,0,0,0,1.406-.826V12.443a1.419,1.419,0,0,0-1.389-.844q-1.371,0-1.485,2.215ZM98.75,19.176a4.889,4.889,0,0,1-3.542-1.305,4.507,4.507,0,0,1-1.354-3.4v-.246a5.84,5.84,0,0,1,.541-2.575,3.955,3.955,0,0,1,1.578-1.727,4.763,4.763,0,0,1,2.461-.611,4.117,4.117,0,0,1,3.164,1.244,4.887,4.887,0,0,1,1.16,3.467v1.151H96.869a2.135,2.135,0,0,0,.694,1.257,2.066,2.066,0,0,0,1.389.457,2.662,2.662,0,0,0,2.2-.984l1.354,1.6a3.784,3.784,0,0,1-1.569,1.217A5.3,5.3,0,0,1,98.75,19.176ZM98.416,11.6q-1.3,0-1.547,1.723h2.988v-.229a1.467,1.467,0,0,0-.36-1.1A1.434,1.434,0,0,0,98.416,11.6ZM9.633,44a3.344,3.344,0,0,1-.281-.853,2.754,2.754,0,0,1-2.285,1.028,3.374,3.374,0,0,1-2.285-.813,2.588,2.588,0,0,1-.94-2.043,2.66,2.66,0,0,1,1.143-2.338,5.821,5.821,0,0,1,3.322-.791H9.22v-.5q0-1.316-1.134-1.316a.927.927,0,0,0-1.055,1.042H4.069a2.655,2.655,0,0,1,1.173-2.239,4.931,4.931,0,0,1,2.993-.86,4.323,4.323,0,0,1,2.874.888,3.086,3.086,0,0,1,1.081,2.435v4.21a4.311,4.311,0,0,0,.4,2V44ZM7.778,42.066a1.652,1.652,0,0,0,.918-.237,1.487,1.487,0,0,0,.523-.536V39.772H8.358q-1.547,0-1.547,1.389a.848.848,0,0,0,.272.655A.986.986,0,0,0,7.778,42.066ZM16.55,34.49l.1,1.116a3.225,3.225,0,0,1,2.716-1.292,2.713,2.713,0,0,1,2.219.888,4.226,4.226,0,0,1,.76,2.672V44H19.371V38a1.6,1.6,0,0,0-.29-1.059,1.342,1.342,0,0,0-1.055-.338,1.413,1.413,0,0,0-1.292.686V44H13.772V34.49Zm10.881-2.364V34.49H29v2.057H27.431V40.9a1.111,1.111,0,0,0,.193.747,1.037,1.037,0,0,0,.765.211,4.345,4.345,0,0,0,.738-.053v2.118a5.466,5.466,0,0,1-1.67.255,3.1,3.1,0,0,1-2.259-.721,2.954,2.954,0,0,1-.729-2.188v-4.72H23.256V34.49h1.213V32.126Zm7.33,12.05a4.889,4.889,0,0,1-3.542-1.305,4.507,4.507,0,0,1-1.354-3.4v-.246a5.84,5.84,0,0,1,.541-2.575,3.955,3.955,0,0,1,1.578-1.727,4.763,4.763,0,0,1,2.461-.611,4.117,4.117,0,0,1,3.164,1.244,4.887,4.887,0,0,1,1.16,3.467v1.151H32.88a2.135,2.135,0,0,0,.694,1.257,2.066,2.066,0,0,0,1.389.457,2.662,2.662,0,0,0,2.2-.984l1.354,1.6a3.784,3.784,0,0,1-1.569,1.217A5.3,5.3,0,0,1,34.761,44.176ZM34.427,36.6q-1.3,0-1.547,1.723h2.988v-.229a1.467,1.467,0,0,0-.36-1.1A1.434,1.434,0,0,0,34.427,36.6Zm9.554,5.291a1.317,1.317,0,0,0,.967-.338,1.241,1.241,0,0,0,.334-.945h2.777a3.288,3.288,0,0,1-1.121,2.566,4.168,4.168,0,0,1-2.887,1,4.22,4.22,0,0,1-3.27-1.3,5.125,5.125,0,0,1-1.2-3.6v-.123a5.792,5.792,0,0,1,.532-2.544,3.872,3.872,0,0,1,1.534-1.7,4.573,4.573,0,0,1,2.373-.593,4.116,4.116,0,0,1,2.944,1.028,3.647,3.647,0,0,1,1.09,2.786H45.281A1.626,1.626,0,0,0,44.921,37a1.244,1.244,0,0,0-.967-.4q-1.151,0-1.345,1.468a10.357,10.357,0,0,0-.062,1.283,4.068,4.068,0,0,0,.343,1.986A1.187,1.187,0,0,0,43.98,41.891Zm9.932,2.285a4.889,4.889,0,0,1-3.542-1.305,4.507,4.507,0,0,1-1.354-3.4v-.246a5.84,5.84,0,0,1,.541-2.575,3.955,3.955,0,0,1,1.578-1.727,4.763,4.763,0,0,1,2.461-.611,4.117,4.117,0,0,1,3.164,1.244,4.887,4.887,0,0,1,1.16,3.467v1.151H52.031a2.135,2.135,0,0,0,.694,1.257,2.066,2.066,0,0,0,1.389.457,2.662,2.662,0,0,0,2.2-.984l1.354,1.6A3.784,3.784,0,0,1,56.1,43.723,5.3,5.3,0,0,1,53.912,44.176ZM53.578,36.6q-1.3,0-1.547,1.723H55.02v-.229a1.467,1.467,0,0,0-.36-1.1A1.434,1.434,0,0,0,53.578,36.6Zm5.159,2.575a5.809,5.809,0,0,1,.976-3.56,3.211,3.211,0,0,1,2.725-1.3,2.731,2.731,0,0,1,2.145,1V30.5h2.971V44H64.89l-.149-1.02a2.8,2.8,0,0,1-2.32,1.2,3.205,3.205,0,0,1-2.689-1.3A5.993,5.993,0,0,1,58.737,39.175Zm2.962.185q0,2.531,1.477,2.531a1.458,1.458,0,0,0,1.406-.826V37.443a1.419,1.419,0,0,0-1.389-.844q-1.371,0-1.485,2.215Zm12.138,4.816a4.889,4.889,0,0,1-3.542-1.305,4.507,4.507,0,0,1-1.354-3.4v-.246a5.84,5.84,0,0,1,.541-2.575,3.955,3.955,0,0,1,1.578-1.727,4.763,4.763,0,0,1,2.461-.611,4.117,4.117,0,0,1,3.164,1.244,4.887,4.887,0,0,1,1.16,3.467v1.151H71.956a2.135,2.135,0,0,0,.694,1.257,2.066,2.066,0,0,0,1.389.457,2.662,2.662,0,0,0,2.2-.984l1.354,1.6a3.784,3.784,0,0,1-1.569,1.217A5.3,5.3,0,0,1,73.837,44.176ZM73.5,36.6q-1.3,0-1.547,1.723h2.988v-.229a1.467,1.467,0,0,0-.36-1.1A1.434,1.434,0,0,0,73.5,36.6Zm8.253-2.109.1,1.116a3.225,3.225,0,0,1,2.716-1.292,2.713,2.713,0,0,1,2.219.888,4.226,4.226,0,0,1,.76,2.672V44H84.577V38a1.6,1.6,0,0,0-.29-1.059,1.342,1.342,0,0,0-1.055-.338,1.413,1.413,0,0,0-1.292.686V44H78.979V34.49Zm10.881-2.364V34.49H94.2v2.057H92.637V40.9a1.111,1.111,0,0,0,.193.747,1.037,1.037,0,0,0,.765.211,4.345,4.345,0,0,0,.738-.053v2.118a5.466,5.466,0,0,1-1.67.255,3.1,3.1,0,0,1-2.259-.721,2.954,2.954,0,0,1-.729-2.188v-4.72H88.462V34.49h1.213V32.126Zm7.33,12.05a4.889,4.889,0,0,1-3.542-1.305,4.507,4.507,0,0,1-1.354-3.4v-.246a5.84,5.84,0,0,1,.541-2.575,3.955,3.955,0,0,1,1.578-1.727,4.763,4.763,0,0,1,2.461-.611,4.117,4.117,0,0,1,3.164,1.244,4.887,4.887,0,0,1,1.16,3.467v1.151H98.086a2.135,2.135,0,0,0,.694,1.257,2.066,2.066,0,0,0,1.389.457,2.662,2.662,0,0,0,2.2-.984l1.354,1.6a3.784,3.784,0,0,1-1.569,1.217A5.3,5.3,0,0,1,99.967,44.176ZM99.633,36.6q-1.3,0-1.547,1.723h2.988v-.229a1.467,1.467,0,0,0-.36-1.1A1.434,1.434,0,0,0,99.633,36.6Zm10.512,4.729a.684.684,0,0,0-.4-.606,6.016,6.016,0,0,0-1.5-.475,6.853,6.853,0,0,1-1.828-.646,3.062,3.062,0,0,1-1.1-.971,2.319,2.319,0,0,1-.378-1.31,2.628,2.628,0,0,1,1.081-2.158,4.453,4.453,0,0,1,2.83-.848,4.934,4.934,0,0,1,3.023.853,2.666,2.666,0,0,1,1.143,2.241h-2.971q0-1.143-1.2-1.143a1.194,1.194,0,0,0-.782.259.8.8,0,0,0-.316.646.737.737,0,0,0,.387.642,3.654,3.654,0,0,0,1.235.4,10.671,10.671,0,0,1,1.49.378A2.706,2.706,0,0,1,113,41.24a2.491,2.491,0,0,1-1.156,2.118,5.068,5.068,0,0,1-2.993.817,5.172,5.172,0,0,1-2.18-.439,3.645,3.645,0,0,1-1.494-1.2,2.707,2.707,0,0,1-.536-1.591h2.769a1.145,1.145,0,0,0,.439.962,1.808,1.808,0,0,0,1.081.3,1.422,1.422,0,0,0,.91-.246A.787.787,0,0,0,110.145,41.328Z" transform="translate(470 3192)" fill="#fff"/><path d="M7.316,16.627h5.37V19H4.231V6.2H7.316Zm11.136,2.549a4.889,4.889,0,0,1-3.542-1.305,4.507,4.507,0,0,1-1.354-3.4v-.246a5.84,5.84,0,0,1,.541-2.575,3.955,3.955,0,0,1,1.578-1.727,4.763,4.763,0,0,1,2.461-.611A4.117,4.117,0,0,1,21.3,10.558a4.887,4.887,0,0,1,1.16,3.467v1.151H16.571a2.135,2.135,0,0,0,.694,1.257,2.066,2.066,0,0,0,1.389.457,2.662,2.662,0,0,0,2.2-.984l1.354,1.6a3.784,3.784,0,0,1-1.569,1.217A5.3,5.3,0,0,1,18.452,19.176ZM18.118,11.6q-1.3,0-1.547,1.723h2.988v-.229a1.467,1.467,0,0,0-.36-1.1A1.434,1.434,0,0,0,18.118,11.6Zm9.211,3.876,1.5-5.985h3.12L28.849,19H25.826l-3.1-9.51h3.129ZM38.06,19a3.344,3.344,0,0,1-.281-.853,2.754,2.754,0,0,1-2.285,1.028,3.374,3.374,0,0,1-2.285-.813,2.588,2.588,0,0,1-.94-2.043,2.66,2.66,0,0,1,1.143-2.338,5.821,5.821,0,0,1,3.322-.791h.914v-.5q0-1.316-1.134-1.316a.927.927,0,0,0-1.055,1.042H32.5a2.655,2.655,0,0,1,1.173-2.239,4.931,4.931,0,0,1,2.993-.86,4.323,4.323,0,0,1,2.874.888,3.086,3.086,0,0,1,1.081,2.435v4.21a4.311,4.311,0,0,0,.4,2V19Zm-1.854-1.934a1.652,1.652,0,0,0,.918-.237,1.487,1.487,0,0,0,.523-.536V14.772h-.861q-1.547,0-1.547,1.389a.848.848,0,0,0,.272.655A.986.986,0,0,0,36.206,17.066ZM44.977,9.49l.1,1.116A3.225,3.225,0,0,1,47.79,9.314a2.713,2.713,0,0,1,2.219.888,4.226,4.226,0,0,1,.76,2.672V19H47.8V13a1.6,1.6,0,0,0-.29-1.059,1.342,1.342,0,0,0-1.055-.338,1.413,1.413,0,0,0-1.292.686V19H42.2V9.49ZM55.858,7.126V9.49h1.564v2.057H55.858V15.9a1.111,1.111,0,0,0,.193.747,1.037,1.037,0,0,0,.765.211,4.345,4.345,0,0,0,.738-.053v2.118a5.466,5.466,0,0,1-1.67.255,3.1,3.1,0,0,1-2.259-.721,2.954,2.954,0,0,1-.729-2.188v-4.72H51.683V9.49H52.9V7.126ZM63.944,19a3.344,3.344,0,0,1-.281-.853,2.754,2.754,0,0,1-2.285,1.028,3.374,3.374,0,0,1-2.285-.813,2.588,2.588,0,0,1-.94-2.043,2.66,2.66,0,0,1,1.143-2.338,5.821,5.821,0,0,1,3.322-.791h.914v-.5q0-1.316-1.134-1.316a.927.927,0,0,0-1.055,1.042H58.38a2.655,2.655,0,0,1,1.173-2.239,4.931,4.931,0,0,1,2.993-.86,4.323,4.323,0,0,1,2.874.888A3.086,3.086,0,0,1,66.5,12.637v4.21a4.311,4.311,0,0,0,.4,2V19Zm-1.854-1.934a1.652,1.652,0,0,0,.918-.237,1.487,1.487,0,0,0,.523-.536V14.772h-.861q-1.547,0-1.547,1.389a.848.848,0,0,0,.272.655A.986.986,0,0,0,62.089,17.066ZM70.94,9.49l.1,1.116a3.27,3.27,0,0,1,2.716-1.292,2.407,2.407,0,0,1,2.435,1.433,3.165,3.165,0,0,1,2.795-1.433q2.892,0,2.971,3.5V19H78.982V13a1.813,1.813,0,0,0-.246-1.063,1.048,1.048,0,0,0-.9-.334,1.4,1.4,0,0,0-1.31.782l.009.123V19H73.568V13.015a1.906,1.906,0,0,0-.237-1.081,1.045,1.045,0,0,0-.905-.334,1.42,1.42,0,0,0-1.3.782V19H68.163V9.49ZM86.769,19H83.8V9.49h2.971ZM83.623,7.038A1.322,1.322,0,0,1,84.08,6a1.943,1.943,0,0,1,2.373,0,1.322,1.322,0,0,1,.457,1.037,1.322,1.322,0,0,1-.457,1.037,1.943,1.943,0,0,1-2.373,0A1.322,1.322,0,0,1,83.623,7.038Zm9.571,12.138a4.889,4.889,0,0,1-3.542-1.305,4.507,4.507,0,0,1-1.354-3.4v-.246a5.84,5.84,0,0,1,.541-2.575,3.955,3.955,0,0,1,1.578-1.727,4.763,4.763,0,0,1,2.461-.611,4.117,4.117,0,0,1,3.164,1.244,4.887,4.887,0,0,1,1.16,3.467v1.151H91.313a2.135,2.135,0,0,0,.694,1.257,2.066,2.066,0,0,0,1.389.457,2.662,2.662,0,0,0,2.2-.984l1.354,1.6a3.784,3.784,0,0,1-1.569,1.217A5.3,5.3,0,0,1,93.194,19.176ZM92.86,11.6q-1.3,0-1.547,1.723H94.3v-.229a1.467,1.467,0,0,0-.36-1.1A1.434,1.434,0,0,0,92.86,11.6Zm8.253-2.109.1,1.116a3.225,3.225,0,0,1,2.716-1.292,2.713,2.713,0,0,1,2.219.888,4.226,4.226,0,0,1,.76,2.672V19h-2.971V13a1.6,1.6,0,0,0-.29-1.059,1.342,1.342,0,0,0-1.055-.338,1.413,1.413,0,0,0-1.292.686V19H98.335V9.49Zm10.881-2.364V9.49h1.564v2.057h-1.564V15.9a1.111,1.111,0,0,0,.193.747,1.037,1.037,0,0,0,.765.211,4.345,4.345,0,0,0,.738-.053v2.118a5.466,5.466,0,0,1-1.67.255,3.1,3.1,0,0,1-2.259-.721,2.954,2.954,0,0,1-.729-2.188v-4.72h-1.213V9.49h1.213V7.126Zm2.092,7.031a5.613,5.613,0,0,1,.554-2.536,3.96,3.96,0,0,1,1.591-1.709,4.791,4.791,0,0,1,2.435-.6,4.373,4.373,0,0,1,3.366,1.323,5.076,5.076,0,0,1,1.23,3.6v.105a4.925,4.925,0,0,1-1.235,3.529,4.384,4.384,0,0,1-3.344,1.305,4.434,4.434,0,0,1-3.261-1.217,4.761,4.761,0,0,1-1.327-3.3Zm2.962.185a3.538,3.538,0,0,0,.413,1.934,1.376,1.376,0,0,0,1.222.615q1.582,0,1.617-2.435v-.3q0-2.558-1.635-2.558-1.485,0-1.608,2.206ZM28.484,39.852l1.582-5.361h3.173l-3.876,11.1L29.2,46a2.944,2.944,0,0,1-2.918,1.846,4.642,4.642,0,0,1-1.222-.175v-2.11h.387a2.026,2.026,0,0,0,.954-.18,1.094,1.094,0,0,0,.488-.647l.237-.633-3.3-9.605h3.164ZM41.94,32.126V34.49H43.5v2.057H41.94V40.9a1.111,1.111,0,0,0,.193.747,1.037,1.037,0,0,0,.765.211,4.345,4.345,0,0,0,.738-.053v2.118a5.466,5.466,0,0,1-1.67.255,3.1,3.1,0,0,1-2.259-.721,2.954,2.954,0,0,1-.729-2.188v-4.72H37.766V34.49h1.213V32.126Zm2.092,7.031a5.613,5.613,0,0,1,.554-2.536,3.96,3.96,0,0,1,1.591-1.709,4.791,4.791,0,0,1,2.435-.6,4.373,4.373,0,0,1,3.366,1.323,5.076,5.076,0,0,1,1.23,3.6v.105a4.925,4.925,0,0,1-1.235,3.529,4.384,4.384,0,0,1-3.344,1.305,4.434,4.434,0,0,1-3.261-1.217,4.761,4.761,0,0,1-1.327-3.3Zm2.962.185a3.538,3.538,0,0,0,.413,1.934,1.376,1.376,0,0,0,1.222.615q1.582,0,1.617-2.435v-.3q0-2.558-1.635-2.558-1.485,0-1.608,2.206ZM57.313,34.49l.1,1.116a3.27,3.27,0,0,1,2.716-1.292,2.407,2.407,0,0,1,2.435,1.433,3.165,3.165,0,0,1,2.795-1.433q2.892,0,2.971,3.5V44H65.354V38a1.813,1.813,0,0,0-.246-1.063,1.048,1.048,0,0,0-.9-.334,1.4,1.4,0,0,0-1.31.782l.009.123V44H59.94V38.015a1.906,1.906,0,0,0-.237-1.081A1.045,1.045,0,0,0,58.8,36.6a1.42,1.42,0,0,0-1.3.782V44H54.535V34.49ZM75.374,44a3.344,3.344,0,0,1-.281-.853,2.754,2.754,0,0,1-2.285,1.028,3.374,3.374,0,0,1-2.285-.813,2.588,2.588,0,0,1-.94-2.043,2.66,2.66,0,0,1,1.143-2.338,5.821,5.821,0,0,1,3.322-.791h.914v-.5q0-1.316-1.134-1.316a.927.927,0,0,0-1.055,1.042H69.811a2.655,2.655,0,0,1,1.173-2.239,4.931,4.931,0,0,1,2.993-.86,4.323,4.323,0,0,1,2.874.888,3.086,3.086,0,0,1,1.081,2.435v4.21a4.311,4.311,0,0,0,.4,2V44ZM73.52,42.066a1.652,1.652,0,0,0,.918-.237,1.487,1.487,0,0,0,.523-.536V39.772H74.1q-1.547,0-1.547,1.389a.848.848,0,0,0,.272.655A.986.986,0,0,0,73.52,42.066Zm10.16-2.892a5.809,5.809,0,0,1,.976-3.56,3.211,3.211,0,0,1,2.725-1.3,2.731,2.731,0,0,1,2.145,1V30.5H92.5V44H89.832l-.149-1.02a2.8,2.8,0,0,1-2.32,1.2,3.205,3.205,0,0,1-2.689-1.3A5.993,5.993,0,0,1,83.68,39.175Zm2.962.185q0,2.531,1.477,2.531a1.458,1.458,0,0,0,1.406-.826V37.443a1.419,1.419,0,0,0-1.389-.844q-1.371,0-1.485,2.215Zm12.138,4.816a4.889,4.889,0,0,1-3.542-1.305,4.507,4.507,0,0,1-1.354-3.4v-.246a5.84,5.84,0,0,1,.541-2.575A3.955,3.955,0,0,1,96,34.925a4.763,4.763,0,0,1,2.461-.611,4.117,4.117,0,0,1,3.164,1.244,4.887,4.887,0,0,1,1.16,3.467v1.151H96.9a2.135,2.135,0,0,0,.694,1.257,2.066,2.066,0,0,0,1.389.457,2.662,2.662,0,0,0,2.2-.984l1.354,1.6a3.784,3.784,0,0,1-1.569,1.217A5.3,5.3,0,0,1,98.779,44.176ZM98.445,36.6q-1.3,0-1.547,1.723h2.988v-.229a1.467,1.467,0,0,0-.36-1.1A1.434,1.434,0,0,0,98.445,36.6ZM30,69.176a4.889,4.889,0,0,1-3.542-1.305,4.507,4.507,0,0,1-1.354-3.4v-.246a5.84,5.84,0,0,1,.541-2.575,3.955,3.955,0,0,1,1.578-1.727,4.763,4.763,0,0,1,2.461-.611,4.117,4.117,0,0,1,3.164,1.244,4.887,4.887,0,0,1,1.16,3.467v1.151H28.12a2.135,2.135,0,0,0,.694,1.257,2.066,2.066,0,0,0,1.389.457,2.662,2.662,0,0,0,2.2-.984l1.354,1.6a3.784,3.784,0,0,1-1.569,1.217A5.3,5.3,0,0,1,30,69.176ZM29.667,61.6q-1.3,0-1.547,1.723h2.988v-.229a1.467,1.467,0,0,0-.36-1.1A1.434,1.434,0,0,0,29.667,61.6Zm9.211,3.876,1.5-5.985H43.5L40.4,69H37.375l-3.1-9.51H37.4ZM47.508,69H44.538V59.49h2.971ZM44.362,57.038A1.322,1.322,0,0,1,44.819,56a1.943,1.943,0,0,1,2.373,0,1.405,1.405,0,0,1,0,2.074,1.943,1.943,0,0,1-2.373,0A1.322,1.322,0,0,1,44.362,57.038Zm4.6,7.137a5.809,5.809,0,0,1,.976-3.56,3.211,3.211,0,0,1,2.725-1.3,2.731,2.731,0,0,1,2.145,1V55.5h2.971V69H55.111l-.149-1.02a2.8,2.8,0,0,1-2.32,1.2,3.205,3.205,0,0,1-2.689-1.3A5.993,5.993,0,0,1,48.958,64.175Zm2.962.185q0,2.531,1.477,2.531a1.458,1.458,0,0,0,1.406-.826V62.443a1.419,1.419,0,0,0-1.389-.844q-1.371,0-1.485,2.215Zm12.138,4.816a4.889,4.889,0,0,1-3.542-1.305,4.507,4.507,0,0,1-1.354-3.4v-.246a5.84,5.84,0,0,1,.541-2.575,3.955,3.955,0,0,1,1.578-1.727,4.763,4.763,0,0,1,2.461-.611,4.117,4.117,0,0,1,3.164,1.244,4.887,4.887,0,0,1,1.16,3.467v1.151H62.177a2.135,2.135,0,0,0,.694,1.257,2.066,2.066,0,0,0,1.389.457,2.662,2.662,0,0,0,2.2-.984l1.354,1.6a3.784,3.784,0,0,1-1.569,1.217A5.3,5.3,0,0,1,64.058,69.176ZM63.724,61.6q-1.3,0-1.547,1.723h2.988v-.229a1.467,1.467,0,0,0-.36-1.1A1.434,1.434,0,0,0,63.724,61.6Zm8.253-2.109.1,1.116a3.225,3.225,0,0,1,2.716-1.292,2.713,2.713,0,0,1,2.219.888,4.226,4.226,0,0,1,.76,2.672V69H74.8V63a1.6,1.6,0,0,0-.29-1.059,1.342,1.342,0,0,0-1.055-.338,1.413,1.413,0,0,0-1.292.686V69H69.2V59.49Zm11.452,7.4a1.317,1.317,0,0,0,.967-.338,1.241,1.241,0,0,0,.334-.945h2.777a3.288,3.288,0,0,1-1.121,2.566,4.168,4.168,0,0,1-2.887,1,4.22,4.22,0,0,1-3.27-1.3,5.125,5.125,0,0,1-1.2-3.6v-.123a5.792,5.792,0,0,1,.532-2.544,3.872,3.872,0,0,1,1.534-1.7,4.573,4.573,0,0,1,2.373-.593,4.116,4.116,0,0,1,2.944,1.028,3.647,3.647,0,0,1,1.09,2.786H84.73A1.626,1.626,0,0,0,84.37,62a1.244,1.244,0,0,0-.967-.4q-1.151,0-1.345,1.468A10.357,10.357,0,0,0,82,64.351a4.068,4.068,0,0,0,.343,1.986A1.187,1.187,0,0,0,83.429,66.891ZM91.884,69H88.914V59.49h2.971ZM88.738,57.038A1.322,1.322,0,0,1,89.195,56a1.943,1.943,0,0,1,2.373,0,1.405,1.405,0,0,1,0,2.074,1.943,1.943,0,0,1-2.373,0A1.322,1.322,0,0,1,88.738,57.038ZM99.065,69a3.344,3.344,0,0,1-.281-.853A2.754,2.754,0,0,1,96.5,69.176a3.374,3.374,0,0,1-2.285-.813,2.588,2.588,0,0,1-.94-2.043,2.66,2.66,0,0,1,1.143-2.338,5.821,5.821,0,0,1,3.322-.791h.914v-.5q0-1.316-1.134-1.316a.927.927,0,0,0-1.055,1.042H93.5a2.655,2.655,0,0,1,1.173-2.239,4.931,4.931,0,0,1,2.993-.86,4.323,4.323,0,0,1,2.874.888,3.086,3.086,0,0,1,1.081,2.435v4.21a4.311,4.311,0,0,0,.4,2V69ZM97.21,67.066a1.652,1.652,0,0,0,.918-.237,1.487,1.487,0,0,0,.523-.536V64.772h-.861q-1.547,0-1.547,1.389a.848.848,0,0,0,.272.655A.986.986,0,0,0,97.21,67.066Z" transform="translate(747 3192)" fill="#fff"/><path d="M23.735,13.568H18.883v3.059h5.73V19H15.8V6.2h8.833V8.585H18.883v2.7h4.852Zm4.72-4.078.1,1.116a3.225,3.225,0,0,1,2.716-1.292,2.713,2.713,0,0,1,2.219.888,4.226,4.226,0,0,1,.76,2.672V19H31.276V13a1.6,1.6,0,0,0-.29-1.059,1.342,1.342,0,0,0-1.055-.338,1.413,1.413,0,0,0-1.292.686V19H25.677V9.49ZM39.335,7.126V9.49H40.9v2.057H39.335V15.9a1.111,1.111,0,0,0,.193.747,1.037,1.037,0,0,0,.765.211,4.345,4.345,0,0,0,.738-.053v2.118a5.466,5.466,0,0,1-1.67.255,3.1,3.1,0,0,1-2.259-.721,2.954,2.954,0,0,1-.729-2.188v-4.72H35.161V9.49h1.213V7.126Zm8.481,5.045-.976-.07a1.752,1.752,0,0,0-1.793.879V19H42.086V9.49h2.777l.1,1.222a2.294,2.294,0,0,1,2.083-1.4,2.888,2.888,0,0,1,.826.105Zm5.669,7a4.889,4.889,0,0,1-3.542-1.305,4.507,4.507,0,0,1-1.354-3.4v-.246a5.84,5.84,0,0,1,.541-2.575,3.955,3.955,0,0,1,1.578-1.727,4.763,4.763,0,0,1,2.461-.611,4.117,4.117,0,0,1,3.164,1.244,4.887,4.887,0,0,1,1.16,3.467v1.151H51.6a2.135,2.135,0,0,0,.694,1.257,2.066,2.066,0,0,0,1.389.457,2.662,2.662,0,0,0,2.2-.984l1.354,1.6a3.784,3.784,0,0,1-1.569,1.217A5.3,5.3,0,0,1,53.486,19.176ZM53.152,11.6q-1.3,0-1.547,1.723h2.988v-.229a1.467,1.467,0,0,0-.36-1.1A1.434,1.434,0,0,0,53.152,11.6Zm5.186,2.575a6.421,6.421,0,0,1,.475-2.549,3.821,3.821,0,0,1,1.362-1.709,3.591,3.591,0,0,1,2.065-.6,2.855,2.855,0,0,1,2.32,1l.105-.826h2.689V18.64a4.009,4.009,0,0,1-.584,2.184,3.75,3.75,0,0,1-1.692,1.424,6.219,6.219,0,0,1-2.566.5,5.365,5.365,0,0,1-2.026-.4,3.657,3.657,0,0,1-1.5-1.028l1.239-1.74a2.716,2.716,0,0,0,2.18.976,1.764,1.764,0,0,0,1.969-2.021v-.3a2.781,2.781,0,0,1-2.153.94,3.437,3.437,0,0,1-2.812-1.332,5.517,5.517,0,0,1-1.072-3.564Zm2.971.185a3.383,3.383,0,0,0,.439,1.85,1.387,1.387,0,0,0,1.23.681,1.573,1.573,0,0,0,1.4-.642v-4A1.534,1.534,0,0,0,63,11.6a1.4,1.4,0,0,0-1.239.708A3.858,3.858,0,0,0,61.308,14.359ZM74.4,19a3.344,3.344,0,0,1-.281-.853,2.754,2.754,0,0,1-2.285,1.028,3.374,3.374,0,0,1-2.285-.813,2.588,2.588,0,0,1-.94-2.043,2.66,2.66,0,0,1,1.143-2.338,5.821,5.821,0,0,1,3.322-.791h.914v-.5q0-1.316-1.134-1.316a.927.927,0,0,0-1.055,1.042H68.832A2.655,2.655,0,0,1,70,10.175,4.931,4.931,0,0,1,73,9.314a4.323,4.323,0,0,1,2.874.888,3.086,3.086,0,0,1,1.081,2.435v4.21a4.311,4.311,0,0,0,.4,2V19Zm-1.854-1.934a1.652,1.652,0,0,0,.918-.237,1.487,1.487,0,0,0,.523-.536V14.772h-.861q-1.547,0-1.547,1.389a.848.848,0,0,0,.272.655A.986.986,0,0,0,72.541,17.066ZM82.7,14.175a5.809,5.809,0,0,1,.976-3.56,3.211,3.211,0,0,1,2.725-1.3,2.731,2.731,0,0,1,2.145,1V5.5h2.971V19H88.853L88.7,17.98a2.8,2.8,0,0,1-2.32,1.2,3.205,3.205,0,0,1-2.689-1.3A5.993,5.993,0,0,1,82.7,14.175Zm2.962.185q0,2.531,1.477,2.531a1.458,1.458,0,0,0,1.406-.826V12.443a1.419,1.419,0,0,0-1.389-.844q-1.371,0-1.485,2.215ZM97.8,19.176a4.889,4.889,0,0,1-3.542-1.305,4.507,4.507,0,0,1-1.354-3.4v-.246a5.84,5.84,0,0,1,.541-2.575,3.955,3.955,0,0,1,1.578-1.727,4.763,4.763,0,0,1,2.461-.611,4.117,4.117,0,0,1,3.164,1.244,4.887,4.887,0,0,1,1.16,3.467v1.151H95.919a2.135,2.135,0,0,0,.694,1.257A2.066,2.066,0,0,0,98,16.891a2.662,2.662,0,0,0,2.2-.984l1.354,1.6a3.784,3.784,0,0,1-1.569,1.217A5.3,5.3,0,0,1,97.8,19.176ZM97.466,11.6q-1.3,0-1.547,1.723h2.988v-.229a1.467,1.467,0,0,0-.36-1.1A1.434,1.434,0,0,0,97.466,11.6ZM14.427,37.171l-.976-.07a1.752,1.752,0,0,0-1.793.879V44H8.7V34.49h2.777l.1,1.222a2.294,2.294,0,0,1,2.083-1.4,2.888,2.888,0,0,1,.826.105Zm5.669,7a4.889,4.889,0,0,1-3.542-1.305,4.507,4.507,0,0,1-1.354-3.4v-.246a5.84,5.84,0,0,1,.541-2.575,3.955,3.955,0,0,1,1.578-1.727,4.763,4.763,0,0,1,2.461-.611,4.117,4.117,0,0,1,3.164,1.244,4.887,4.887,0,0,1,1.16,3.467v1.151H18.215a2.135,2.135,0,0,0,.694,1.257,2.066,2.066,0,0,0,1.389.457,2.662,2.662,0,0,0,2.2-.984l1.354,1.6a3.784,3.784,0,0,1-1.569,1.217A5.3,5.3,0,0,1,20.1,44.176ZM19.762,36.6q-1.3,0-1.547,1.723H21.2v-.229a1.467,1.467,0,0,0-.36-1.1A1.434,1.434,0,0,0,19.762,36.6Zm10.512,4.729a.684.684,0,0,0-.4-.606,6.016,6.016,0,0,0-1.5-.475,6.853,6.853,0,0,1-1.828-.646,3.062,3.062,0,0,1-1.1-.971,2.319,2.319,0,0,1-.378-1.31,2.628,2.628,0,0,1,1.081-2.158,4.453,4.453,0,0,1,2.83-.848,4.934,4.934,0,0,1,3.023.853,2.666,2.666,0,0,1,1.143,2.241H30.177q0-1.143-1.2-1.143a1.194,1.194,0,0,0-.782.259.8.8,0,0,0-.316.646.737.737,0,0,0,.387.642,3.654,3.654,0,0,0,1.235.4,10.671,10.671,0,0,1,1.49.378A2.706,2.706,0,0,1,33.13,41.24a2.491,2.491,0,0,1-1.156,2.118,5.068,5.068,0,0,1-2.993.817,5.172,5.172,0,0,1-2.18-.439,3.645,3.645,0,0,1-1.494-1.2,2.707,2.707,0,0,1-.536-1.591h2.769a1.145,1.145,0,0,0,.439.962,1.808,1.808,0,0,0,1.081.3,1.422,1.422,0,0,0,.91-.246A.787.787,0,0,0,30.274,41.328Zm9.905,1.644a3.054,3.054,0,0,1-2.54,1.2,3,3,0,0,1-2.369-.91,3.826,3.826,0,0,1-.8-2.615V34.49h2.962v6.179a1.065,1.065,0,0,0,1.187,1.222,1.548,1.548,0,0,0,1.45-.729V34.49h2.979V44H40.267ZM47.791,44H44.82V30.5h2.971Zm5.273-11.874V34.49h1.564v2.057H53.064V40.9a1.111,1.111,0,0,0,.193.747,1.037,1.037,0,0,0,.765.211,4.345,4.345,0,0,0,.738-.053v2.118a5.466,5.466,0,0,1-1.67.255,3.1,3.1,0,0,1-2.259-.721,2.954,2.954,0,0,1-.729-2.188v-4.72H48.889V34.49H50.1V32.126ZM61.15,44a3.344,3.344,0,0,1-.281-.853,2.754,2.754,0,0,1-2.285,1.028,3.374,3.374,0,0,1-2.285-.813,2.588,2.588,0,0,1-.94-2.043A2.66,2.66,0,0,1,56.5,38.981a5.821,5.821,0,0,1,3.322-.791h.914v-.5q0-1.316-1.134-1.316a.927.927,0,0,0-1.055,1.042H55.586a2.655,2.655,0,0,1,1.173-2.239,4.931,4.931,0,0,1,2.993-.86,4.323,4.323,0,0,1,2.874.888,3.086,3.086,0,0,1,1.081,2.435v4.21a4.311,4.311,0,0,0,.4,2V44ZM59.3,42.066a1.652,1.652,0,0,0,.918-.237,1.487,1.487,0,0,0,.523-.536V39.772h-.861q-1.547,0-1.547,1.389a.848.848,0,0,0,.272.655A.986.986,0,0,0,59.3,42.066Zm5.678-2.892a5.809,5.809,0,0,1,.976-3.56,3.211,3.211,0,0,1,2.725-1.3,2.731,2.731,0,0,1,2.145,1V30.5h2.971V44H71.125l-.149-1.02a2.8,2.8,0,0,1-2.32,1.2,3.205,3.205,0,0,1-2.689-1.3A5.993,5.993,0,0,1,64.973,39.175Zm2.962.185q0,2.531,1.477,2.531a1.458,1.458,0,0,0,1.406-.826V37.443a1.419,1.419,0,0,0-1.389-.844q-1.371,0-1.485,2.215Zm7.163-.2a5.613,5.613,0,0,1,.554-2.536,3.96,3.96,0,0,1,1.591-1.709,4.791,4.791,0,0,1,2.435-.6,4.373,4.373,0,0,1,3.366,1.323,5.076,5.076,0,0,1,1.23,3.6v.105a4.925,4.925,0,0,1-1.235,3.529,4.384,4.384,0,0,1-3.344,1.305,4.434,4.434,0,0,1-3.261-1.217,4.761,4.761,0,0,1-1.327-3.3Zm2.962.185a3.538,3.538,0,0,0,.413,1.934,1.376,1.376,0,0,0,1.222.615q1.582,0,1.617-2.435v-.3q0-2.558-1.635-2.558-1.485,0-1.608,2.206Zm11.628-.167a5.809,5.809,0,0,1,.976-3.56,3.211,3.211,0,0,1,2.725-1.3,2.731,2.731,0,0,1,2.145,1V30.5H98.5V44H95.84l-.149-1.02a2.8,2.8,0,0,1-2.32,1.2,3.205,3.205,0,0,1-2.689-1.3A5.993,5.993,0,0,1,89.688,39.175Zm2.962.185q0,2.531,1.477,2.531a1.458,1.458,0,0,0,1.406-.826V37.443a1.419,1.419,0,0,0-1.389-.844q-1.371,0-1.485,2.215Zm12.138,4.816a4.889,4.889,0,0,1-3.542-1.305,4.507,4.507,0,0,1-1.354-3.4v-.246a5.84,5.84,0,0,1,.541-2.575,3.955,3.955,0,0,1,1.578-1.727,4.763,4.763,0,0,1,2.461-.611,4.117,4.117,0,0,1,3.164,1.244,4.887,4.887,0,0,1,1.16,3.467v1.151h-5.889a2.135,2.135,0,0,0,.694,1.257,2.066,2.066,0,0,0,1.389.457,2.662,2.662,0,0,0,2.2-.984l1.354,1.6a3.784,3.784,0,0,1-1.569,1.217A5.3,5.3,0,0,1,104.788,44.176Zm-.334-7.576q-1.3,0-1.547,1.723H105.9v-.229a1.467,1.467,0,0,0-.36-1.1A1.434,1.434,0,0,0,104.454,36.6ZM20.391,69.176a4.889,4.889,0,0,1-3.542-1.305,4.507,4.507,0,0,1-1.354-3.4v-.246a5.84,5.84,0,0,1,.541-2.575,3.955,3.955,0,0,1,1.578-1.727,4.763,4.763,0,0,1,2.461-.611,4.117,4.117,0,0,1,3.164,1.244,4.887,4.887,0,0,1,1.16,3.467v1.151H18.51a2.135,2.135,0,0,0,.694,1.257,2.066,2.066,0,0,0,1.389.457,2.662,2.662,0,0,0,2.2-.984l1.354,1.6a3.784,3.784,0,0,1-1.569,1.217A5.3,5.3,0,0,1,20.391,69.176ZM20.057,61.6q-1.3,0-1.547,1.723H21.5v-.229a1.467,1.467,0,0,0-.36-1.1A1.434,1.434,0,0,0,20.057,61.6Zm9.211,3.876,1.5-5.985h3.12L30.788,69H27.765l-3.1-9.51h3.129ZM37.9,69H34.928V59.49H37.9ZM34.752,57.038A1.322,1.322,0,0,1,35.209,56a1.943,1.943,0,0,1,2.373,0,1.405,1.405,0,0,1,0,2.074,1.943,1.943,0,0,1-2.373,0A1.322,1.322,0,0,1,34.752,57.038Zm4.6,7.137a5.809,5.809,0,0,1,.976-3.56,3.211,3.211,0,0,1,2.725-1.3,2.731,2.731,0,0,1,2.145,1V55.5h2.971V69H45.5l-.149-1.02a2.8,2.8,0,0,1-2.32,1.2,3.205,3.205,0,0,1-2.689-1.3A5.993,5.993,0,0,1,39.349,64.175Zm2.962.185q0,2.531,1.477,2.531a1.458,1.458,0,0,0,1.406-.826V62.443A1.419,1.419,0,0,0,43.8,61.6q-1.371,0-1.485,2.215Zm12.138,4.816a4.889,4.889,0,0,1-3.542-1.305,4.507,4.507,0,0,1-1.354-3.4v-.246a5.84,5.84,0,0,1,.541-2.575,3.955,3.955,0,0,1,1.578-1.727,4.763,4.763,0,0,1,2.461-.611A4.117,4.117,0,0,1,57.3,60.558a4.887,4.887,0,0,1,1.16,3.467v1.151H52.567a2.135,2.135,0,0,0,.694,1.257,2.066,2.066,0,0,0,1.389.457,2.662,2.662,0,0,0,2.2-.984l1.354,1.6a3.784,3.784,0,0,1-1.569,1.217A5.3,5.3,0,0,1,54.448,69.176ZM54.114,61.6q-1.3,0-1.547,1.723h2.988v-.229a1.467,1.467,0,0,0-.36-1.1A1.434,1.434,0,0,0,54.114,61.6Zm8.253-2.109.1,1.116a3.225,3.225,0,0,1,2.716-1.292A2.713,2.713,0,0,1,67.4,60.2a4.226,4.226,0,0,1,.76,2.672V69H65.188V63a1.6,1.6,0,0,0-.29-1.059,1.342,1.342,0,0,0-1.055-.338,1.413,1.413,0,0,0-1.292.686V69H59.59V59.49Zm11.452,7.4a1.317,1.317,0,0,0,.967-.338,1.241,1.241,0,0,0,.334-.945H77.9a3.288,3.288,0,0,1-1.121,2.566,4.168,4.168,0,0,1-2.887,1,4.22,4.22,0,0,1-3.27-1.3,5.125,5.125,0,0,1-1.2-3.6v-.123a5.792,5.792,0,0,1,.532-2.544,3.872,3.872,0,0,1,1.534-1.7,4.573,4.573,0,0,1,2.373-.593,4.116,4.116,0,0,1,2.944,1.028,3.647,3.647,0,0,1,1.09,2.786H75.12A1.626,1.626,0,0,0,74.76,62a1.244,1.244,0,0,0-.967-.4q-1.151,0-1.345,1.468a10.357,10.357,0,0,0-.062,1.283,4.068,4.068,0,0,0,.343,1.986A1.187,1.187,0,0,0,73.819,66.891ZM82.274,69H79.3V59.49h2.971ZM79.128,57.038A1.322,1.322,0,0,1,79.585,56a1.943,1.943,0,0,1,2.373,0,1.405,1.405,0,0,1,0,2.074,1.943,1.943,0,0,1-2.373,0A1.322,1.322,0,0,1,79.128,57.038ZM89.455,69a3.344,3.344,0,0,1-.281-.853,2.754,2.754,0,0,1-2.285,1.028,3.374,3.374,0,0,1-2.285-.813,2.588,2.588,0,0,1-.94-2.043,2.66,2.66,0,0,1,1.143-2.338,5.821,5.821,0,0,1,3.322-.791h.914v-.5q0-1.316-1.134-1.316a.927.927,0,0,0-1.055,1.042H83.892a2.655,2.655,0,0,1,1.173-2.239,4.931,4.931,0,0,1,2.993-.86,4.323,4.323,0,0,1,2.874.888,3.086,3.086,0,0,1,1.081,2.435v4.21a4.311,4.311,0,0,0,.4,2V69ZM87.6,67.066a1.652,1.652,0,0,0,.918-.237,1.487,1.487,0,0,0,.523-.536V64.772h-.861q-1.547,0-1.547,1.389a.848.848,0,0,0,.272.655A.986.986,0,0,0,87.6,67.066Zm11.03-.738a.684.684,0,0,0-.4-.606,6.016,6.016,0,0,0-1.5-.475A6.853,6.853,0,0,1,94.9,64.6a3.062,3.062,0,0,1-1.1-.971,2.319,2.319,0,0,1-.378-1.31,2.628,2.628,0,0,1,1.081-2.158,4.453,4.453,0,0,1,2.83-.848,4.934,4.934,0,0,1,3.023.853,2.666,2.666,0,0,1,1.143,2.241H98.534q0-1.143-1.2-1.143a1.194,1.194,0,0,0-.782.259.8.8,0,0,0-.316.646.737.737,0,0,0,.387.642,3.654,3.654,0,0,0,1.235.4,10.671,10.671,0,0,1,1.49.378,2.706,2.706,0,0,1,2.145,2.646,2.491,2.491,0,0,1-1.156,2.118,5.068,5.068,0,0,1-2.993.817,5.172,5.172,0,0,1-2.18-.439,3.645,3.645,0,0,1-1.494-1.2,2.707,2.707,0,0,1-.536-1.591H95.9a1.145,1.145,0,0,0,.439.962,1.808,1.808,0,0,0,1.081.3,1.422,1.422,0,0,0,.91-.246A.787.787,0,0,0,98.631,66.328Z" transform="translate(882 3055)" fill="#fff"/><path d="M20.24,22.284A10.184,10.184,0,0,1,18.3,28.949a6.707,6.707,0,0,1-5.471,2.344A6.743,6.743,0,0,1,7.32,28.935a10.168,10.168,0,0,1-1.948-6.65v-3.9a10.184,10.184,0,0,1,1.941-6.665A6.724,6.724,0,0,1,12.8,9.379a6.726,6.726,0,0,1,5.493,2.358A10.193,10.193,0,0,1,20.24,18.4ZM15.3,17.758a7.607,7.607,0,0,0-.6-3.435,2.008,2.008,0,0,0-1.9-1.135,1.96,1.96,0,0,0-1.853,1.055,7.166,7.166,0,0,0-.623,3.193v5.449a7.664,7.664,0,0,0,.6,3.494,2.015,2.015,0,0,0,1.9,1.106,1.988,1.988,0,0,0,1.86-1.077,7.317,7.317,0,0,0,.615-3.376ZM33.746,31H28.795V15.238l-4.863,1.421v-3.75l9.36-3.237h.454Z" transform="translate(405 3303)" fill="#fff"/><path d="M20.24,22.284A10.184,10.184,0,0,1,18.3,28.949a6.707,6.707,0,0,1-5.471,2.344A6.743,6.743,0,0,1,7.32,28.935a10.168,10.168,0,0,1-1.948-6.65v-3.9a10.184,10.184,0,0,1,1.941-6.665A6.724,6.724,0,0,1,12.8,9.379a6.726,6.726,0,0,1,5.493,2.358A10.193,10.193,0,0,1,20.24,18.4ZM15.3,17.758a7.607,7.607,0,0,0-.6-3.435,2.008,2.008,0,0,0-1.9-1.135,1.96,1.96,0,0,0-1.853,1.055,7.166,7.166,0,0,0-.623,3.193v5.449a7.664,7.664,0,0,0,.6,3.494,2.015,2.015,0,0,0,1.9,1.106,1.988,1.988,0,0,0,1.86-1.077,7.317,7.317,0,0,0,.615-3.376ZM37.687,31H22.8V27.777l6.855-7.207q2.534-2.886,2.534-4.585a3.189,3.189,0,0,0-.6-2.095,2.144,2.144,0,0,0-1.743-.718,2.171,2.171,0,0,0-1.831.959,3.943,3.943,0,0,0-.7,2.4H22.364a7,7,0,0,1,.981-3.625,6.882,6.882,0,0,1,2.725-2.6,8.094,8.094,0,0,1,3.9-.937,7.962,7.962,0,0,1,5.325,1.6,5.7,5.7,0,0,1,1.868,4.585A6.658,6.658,0,0,1,36.69,18a10.76,10.76,0,0,1-1.458,2.5,36.715,36.715,0,0,1-3.186,3.508l-2.754,3.179h8.394Z" transform="translate(648 3138)" fill="#fff"/><path d="M25.24,22.284A10.184,10.184,0,0,1,23.3,28.949a6.707,6.707,0,0,1-5.471,2.344,6.743,6.743,0,0,1-5.508-2.358,10.168,10.168,0,0,1-1.948-6.65v-3.9a10.184,10.184,0,0,1,1.941-6.665A6.724,6.724,0,0,1,17.8,9.379a6.726,6.726,0,0,1,5.493,2.358A10.193,10.193,0,0,1,25.24,18.4ZM20.3,17.758a7.607,7.607,0,0,0-.6-3.435,2.008,2.008,0,0,0-1.9-1.135,1.96,1.96,0,0,0-1.853,1.055,7.166,7.166,0,0,0-.623,3.193v5.449a7.664,7.664,0,0,0,.6,3.494,2.015,2.015,0,0,0,1.9,1.106,1.988,1.988,0,0,0,1.86-1.077,7.317,7.317,0,0,0,.615-3.376Zm12.012.513h2.329q2.769,0,2.769-2.71a2.343,2.343,0,0,0-.659-1.721,2.5,2.5,0,0,0-1.86-.667,2.676,2.676,0,0,0-1.707.571,1.743,1.743,0,0,0-.725,1.421H27.525a5.053,5.053,0,0,1,.938-3,6.191,6.191,0,0,1,2.6-2.058,8.89,8.89,0,0,1,3.655-.74,8.735,8.735,0,0,1,5.6,1.626,5.405,5.405,0,0,1,2.036,4.468,4.505,4.505,0,0,1-.842,2.6,6,6,0,0,1-2.454,1.985,5.734,5.734,0,0,1,2.666,1.868,4.919,4.919,0,0,1,.967,3.1,5.5,5.5,0,0,1-2.2,4.57,9.12,9.12,0,0,1-5.771,1.714,9.458,9.458,0,0,1-3.889-.8,6.093,6.093,0,0,1-2.717-2.212,5.751,5.751,0,0,1-.923-3.215h4.966a2.223,2.223,0,0,0,.791,1.7,2.793,2.793,0,0,0,1.948.718,2.925,2.925,0,0,0,2.08-.725,2.424,2.424,0,0,0,.776-1.853,2.833,2.833,0,0,0-.806-2.285,3.368,3.368,0,0,0-2.227-.674h-2.4Z" transform="translate(780 3391)" fill="#fff"/><path d="M25.24,22.284A10.184,10.184,0,0,1,23.3,28.949a6.707,6.707,0,0,1-5.471,2.344,6.743,6.743,0,0,1-5.508-2.358,10.168,10.168,0,0,1-1.948-6.65v-3.9a10.184,10.184,0,0,1,1.941-6.665A6.724,6.724,0,0,1,17.8,9.379a6.726,6.726,0,0,1,5.493,2.358A10.193,10.193,0,0,1,25.24,18.4ZM20.3,17.758a7.607,7.607,0,0,0-.6-3.435,2.008,2.008,0,0,0-1.9-1.135,1.96,1.96,0,0,0-1.853,1.055,7.166,7.166,0,0,0-.623,3.193v5.449a7.664,7.664,0,0,0,.6,3.494,2.015,2.015,0,0,0,1.9,1.106,1.988,1.988,0,0,0,1.86-1.077,7.317,7.317,0,0,0,.615-3.376Zm20.537,4.907h2.168v3.809H40.841V31H35.9V26.474H27.657l-.293-3.018L35.9,9.716V9.672h4.937Zm-8.774,0H35.9V16.1l-.308.5Z" transform="translate(800 2967)" fill="#fff"/><path d="M25.24,22.284A10.184,10.184,0,0,1,23.3,28.949a6.707,6.707,0,0,1-5.471,2.344,6.743,6.743,0,0,1-5.508-2.358,10.168,10.168,0,0,1-1.948-6.65v-3.9a10.184,10.184,0,0,1,1.941-6.665A6.724,6.724,0,0,1,17.8,9.379a6.726,6.726,0,0,1,5.493,2.358A10.193,10.193,0,0,1,25.24,18.4ZM20.3,17.758a7.607,7.607,0,0,0-.6-3.435,2.008,2.008,0,0,0-1.9-1.135,1.96,1.96,0,0,0-1.853,1.055,7.166,7.166,0,0,0-.623,3.193v5.449a7.664,7.664,0,0,0,.6,3.494,2.015,2.015,0,0,0,1.9,1.106,1.988,1.988,0,0,0,1.86-1.077,7.317,7.317,0,0,0,.615-3.376ZM28.1,20.582l1.3-10.91H41.866V13.51H33.414l-.483,4.237a5.822,5.822,0,0,1,1.384-.544,6.316,6.316,0,0,1,1.677-.235,6.257,6.257,0,0,1,4.885,1.882,7.582,7.582,0,0,1,1.707,5.281,7.569,7.569,0,0,1-.916,3.713A6.293,6.293,0,0,1,39.1,30.4a8.116,8.116,0,0,1-3.911.894,8.733,8.733,0,0,1-3.765-.827A6.754,6.754,0,0,1,28.668,28.2a5.513,5.513,0,0,1-.981-3.257h4.951a2.8,2.8,0,0,0,.747,1.856,2.371,2.371,0,0,0,1.772.687q2.49,0,2.49-3.684,0-3.406-3.047-3.406a3.04,3.04,0,0,0-2.578,1.111Z" transform="translate(1147 3094)" fill="#fff"/><path d="M5.788,19V6.2H9.91a6.064,6.064,0,0,1,3.05.769,5.406,5.406,0,0,1,2.114,2.171,6.554,6.554,0,0,1,.769,3.142v.589a6.592,6.592,0,0,1-.743,3.151,5.429,5.429,0,0,1-2.092,2.18A5.93,5.93,0,0,1,10,19ZM8.873,8.585v8.042H9.945a2.4,2.4,0,0,0,2.039-.945,4.63,4.63,0,0,0,.712-2.808V12.32a4.592,4.592,0,0,0-.712-2.795,2.442,2.442,0,0,0-2.074-.94ZM20.413,19H17.442V9.49h2.971ZM17.266,7.038A1.322,1.322,0,0,1,17.723,6,1.943,1.943,0,0,1,20.1,6a1.322,1.322,0,0,1,.457,1.037A1.322,1.322,0,0,1,20.1,8.075a1.943,1.943,0,0,1-2.373,0A1.322,1.322,0,0,1,17.266,7.038Zm8.991,9.853a1.317,1.317,0,0,0,.967-.338,1.241,1.241,0,0,0,.334-.945h2.777a3.288,3.288,0,0,1-1.121,2.566,4.168,4.168,0,0,1-2.887,1,4.22,4.22,0,0,1-3.27-1.3,5.125,5.125,0,0,1-1.2-3.6v-.123a5.792,5.792,0,0,1,.532-2.544,3.872,3.872,0,0,1,1.534-1.7A4.573,4.573,0,0,1,26.3,9.314a4.116,4.116,0,0,1,2.944,1.028,3.647,3.647,0,0,1,1.09,2.786H27.558A1.626,1.626,0,0,0,27.2,12a1.244,1.244,0,0,0-.967-.4q-1.151,0-1.345,1.468a10.357,10.357,0,0,0-.062,1.283,4.068,4.068,0,0,0,.343,1.986A1.187,1.187,0,0,0,26.257,16.891Zm8.78-9.765V9.49H36.6v2.057H35.038V15.9a1.111,1.111,0,0,0,.193.747,1.037,1.037,0,0,0,.765.211,4.345,4.345,0,0,0,.738-.053v2.118a5.466,5.466,0,0,1-1.67.255,3.1,3.1,0,0,1-2.259-.721,2.954,2.954,0,0,1-.729-2.188v-4.72H30.863V9.49h1.213V7.126ZM43.124,19a3.344,3.344,0,0,1-.281-.853,2.754,2.754,0,0,1-2.285,1.028,3.374,3.374,0,0,1-2.285-.813,2.588,2.588,0,0,1-.94-2.043,2.66,2.66,0,0,1,1.143-2.338A5.821,5.821,0,0,1,41.8,13.19h.914v-.5q0-1.316-1.134-1.316a.927.927,0,0,0-1.055,1.042H37.56a2.655,2.655,0,0,1,1.173-2.239,4.931,4.931,0,0,1,2.993-.86A4.323,4.323,0,0,1,44.6,10.2a3.086,3.086,0,0,1,1.081,2.435v4.21a4.311,4.311,0,0,0,.4,2V19Zm-1.854-1.934a1.652,1.652,0,0,0,.918-.237,1.487,1.487,0,0,0,.523-.536V14.772h-.861q-1.547,0-1.547,1.389a.848.848,0,0,0,.272.655A.986.986,0,0,0,41.269,17.066ZM50.12,9.49l.1,1.116a3.27,3.27,0,0,1,2.716-1.292,2.407,2.407,0,0,1,2.435,1.433,3.165,3.165,0,0,1,2.795-1.433q2.892,0,2.971,3.5V19H58.162V13a1.813,1.813,0,0,0-.246-1.063,1.048,1.048,0,0,0-.9-.334,1.4,1.4,0,0,0-1.31.782l.009.123V19H52.748V13.015a1.906,1.906,0,0,0-.237-1.081A1.045,1.045,0,0,0,51.6,11.6a1.42,1.42,0,0,0-1.3.782V19H47.342V9.49Zm17.306,9.686a4.889,4.889,0,0,1-3.542-1.305,4.507,4.507,0,0,1-1.354-3.4v-.246a5.84,5.84,0,0,1,.541-2.575,3.955,3.955,0,0,1,1.578-1.727,4.763,4.763,0,0,1,2.461-.611,4.117,4.117,0,0,1,3.164,1.244,4.887,4.887,0,0,1,1.16,3.467v1.151H65.544a2.135,2.135,0,0,0,.694,1.257,2.066,2.066,0,0,0,1.389.457,2.662,2.662,0,0,0,2.2-.984l1.354,1.6a3.784,3.784,0,0,1-1.569,1.217A5.3,5.3,0,0,1,67.425,19.176ZM67.091,11.6q-1.3,0-1.547,1.723h2.988v-.229a1.467,1.467,0,0,0-.36-1.1A1.434,1.434,0,0,0,67.091,11.6ZM75.344,9.49l.1,1.116a3.225,3.225,0,0,1,2.716-1.292,2.713,2.713,0,0,1,2.219.888,4.226,4.226,0,0,1,.76,2.672V19H78.166V13a1.6,1.6,0,0,0-.29-1.059,1.342,1.342,0,0,0-1.055-.338,1.413,1.413,0,0,0-1.292.686V19H72.567V9.49Zm15.715,5.361L92.641,9.49h3.173l-3.876,11.1-.167.4a2.944,2.944,0,0,1-2.918,1.846,4.642,4.642,0,0,1-1.222-.175v-2.11h.387a2.026,2.026,0,0,0,.954-.18,1.094,1.094,0,0,0,.488-.647L89.7,19.1l-3.3-9.605h3.164ZM97.6,20.1H95.5L99.866,6.2h2.109Zm4.931-5.941a5.613,5.613,0,0,1,.554-2.536,3.96,3.96,0,0,1,1.591-1.709,4.791,4.791,0,0,1,2.435-.6,4.373,4.373,0,0,1,3.366,1.323,5.076,5.076,0,0,1,1.23,3.6v.105a4.925,4.925,0,0,1-1.235,3.529,4.384,4.384,0,0,1-3.344,1.305,4.434,4.434,0,0,1-3.261-1.217,4.761,4.761,0,0,1-1.327-3.3Zm2.962.185a3.538,3.538,0,0,0,.413,1.934,1.376,1.376,0,0,0,1.222.615q1.582,0,1.617-2.435v-.3q0-2.558-1.635-2.558-1.485,0-1.608,2.206ZM25.04,40.476l1.5-5.985h3.12L26.561,44H23.537l-3.1-9.51h3.129Zm10.107,3.7a4.889,4.889,0,0,1-3.542-1.305,4.507,4.507,0,0,1-1.354-3.4v-.246a5.84,5.84,0,0,1,.541-2.575,3.955,3.955,0,0,1,1.578-1.727,4.763,4.763,0,0,1,2.461-.611A4.117,4.117,0,0,1,38,35.558a4.887,4.887,0,0,1,1.16,3.467v1.151H33.267a2.135,2.135,0,0,0,.694,1.257,2.066,2.066,0,0,0,1.389.457,2.662,2.662,0,0,0,2.2-.984l1.354,1.6a3.784,3.784,0,0,1-1.569,1.217A5.3,5.3,0,0,1,35.147,44.176ZM34.813,36.6q-1.3,0-1.547,1.723h2.988v-.229a1.467,1.467,0,0,0-.36-1.1A1.434,1.434,0,0,0,34.813,36.6Zm11.285.571-.976-.07a1.752,1.752,0,0,0-1.793.879V44H40.368V34.49h2.777l.1,1.222a2.294,2.294,0,0,1,2.083-1.4,2.888,2.888,0,0,1,.826.105Zm5.669,7a4.889,4.889,0,0,1-3.542-1.305,4.507,4.507,0,0,1-1.354-3.4v-.246a5.84,5.84,0,0,1,.541-2.575,3.955,3.955,0,0,1,1.578-1.727,4.763,4.763,0,0,1,2.461-.611,4.117,4.117,0,0,1,3.164,1.244,4.887,4.887,0,0,1,1.16,3.467v1.151H49.887a2.135,2.135,0,0,0,.694,1.257,2.066,2.066,0,0,0,1.389.457,2.662,2.662,0,0,0,2.2-.984l1.354,1.6a3.784,3.784,0,0,1-1.569,1.217A5.3,5.3,0,0,1,51.768,44.176ZM51.434,36.6q-1.3,0-1.547,1.723h2.988v-.229a1.467,1.467,0,0,0-.36-1.1A1.434,1.434,0,0,0,51.434,36.6Zm5.159,2.575a5.809,5.809,0,0,1,.976-3.56,3.211,3.211,0,0,1,2.725-1.3,2.731,2.731,0,0,1,2.145,1V30.5h2.971V44H62.745L62.6,42.98a2.8,2.8,0,0,1-2.32,1.2,3.205,3.205,0,0,1-2.689-1.3A5.993,5.993,0,0,1,56.593,39.175Zm2.962.185q0,2.531,1.477,2.531a1.458,1.458,0,0,0,1.406-.826V37.443a1.419,1.419,0,0,0-1.389-.844q-1.371,0-1.485,2.215ZM70.216,44H67.245V34.49h2.971ZM67.069,32.038A1.322,1.322,0,0,1,67.526,31,1.943,1.943,0,0,1,69.9,31a1.405,1.405,0,0,1,0,2.074,1.943,1.943,0,0,1-2.373,0A1.322,1.322,0,0,1,67.069,32.038Zm8.991,9.853a1.317,1.317,0,0,0,.967-.338,1.241,1.241,0,0,0,.334-.945h2.777a3.288,3.288,0,0,1-1.121,2.566,4.168,4.168,0,0,1-2.887,1,4.22,4.22,0,0,1-3.27-1.3,5.125,5.125,0,0,1-1.2-3.6v-.123A5.792,5.792,0,0,1,72.2,36.6a3.872,3.872,0,0,1,1.534-1.7,4.573,4.573,0,0,1,2.373-.593,4.116,4.116,0,0,1,2.944,1.028,3.647,3.647,0,0,1,1.09,2.786H77.361A1.626,1.626,0,0,0,77,37a1.244,1.244,0,0,0-.967-.4q-1.151,0-1.345,1.468a10.357,10.357,0,0,0-.062,1.283,4.068,4.068,0,0,0,.343,1.986A1.187,1.187,0,0,0,76.061,41.891Zm8.78-9.765V34.49h1.564v2.057H84.841V40.9a1.111,1.111,0,0,0,.193.747,1.037,1.037,0,0,0,.765.211,4.345,4.345,0,0,0,.738-.053v2.118a5.466,5.466,0,0,1-1.67.255,3.1,3.1,0,0,1-2.259-.721,2.954,2.954,0,0,1-.729-2.188v-4.72H80.666V34.49h1.213V32.126Zm2.092,7.031a5.613,5.613,0,0,1,.554-2.536,3.96,3.96,0,0,1,1.591-1.709,4.791,4.791,0,0,1,2.435-.6,4.373,4.373,0,0,1,3.366,1.323,5.076,5.076,0,0,1,1.23,3.6v.105a4.925,4.925,0,0,1-1.235,3.529,4.384,4.384,0,0,1-3.344,1.305,4.434,4.434,0,0,1-3.261-1.217,4.761,4.761,0,0,1-1.327-3.3Zm2.962.185a3.538,3.538,0,0,0,.413,1.934,1.376,1.376,0,0,0,1.222.615q1.582,0,1.617-2.435v-.3q0-2.558-1.635-2.558-1.485,0-1.608,2.206Z" transform="translate(1010 3205)" fill="#fff"/><path d="M9.3,13.568H4.452v3.059h5.73V19H1.367V6.2H10.2V8.585H4.452v2.7H9.3Zm4.72-4.078.1,1.116a3.225,3.225,0,0,1,2.716-1.292,2.713,2.713,0,0,1,2.219.888,4.226,4.226,0,0,1,.76,2.672V19H16.844V13a1.6,1.6,0,0,0-.29-1.059A1.342,1.342,0,0,0,15.5,11.6a1.413,1.413,0,0,0-1.292.686V19H11.246V9.49ZM24.9,7.126V9.49h1.564v2.057H24.9V15.9a1.111,1.111,0,0,0,.193.747,1.037,1.037,0,0,0,.765.211A4.345,4.345,0,0,0,26.6,16.8v2.118a5.466,5.466,0,0,1-1.67.255,3.1,3.1,0,0,1-2.259-.721,2.954,2.954,0,0,1-.729-2.188v-4.72H20.729V9.49h1.213V7.126Zm8.481,5.045-.976-.07a1.752,1.752,0,0,0-1.793.879V19H27.655V9.49h2.777l.1,1.222a2.294,2.294,0,0,1,2.083-1.4,2.888,2.888,0,0,1,.826.105Zm5.669,7a4.889,4.889,0,0,1-3.542-1.305,4.507,4.507,0,0,1-1.354-3.4v-.246a5.84,5.84,0,0,1,.541-2.575,3.955,3.955,0,0,1,1.578-1.727,4.763,4.763,0,0,1,2.461-.611A4.117,4.117,0,0,1,41.9,10.558a4.887,4.887,0,0,1,1.16,3.467v1.151H37.173a2.135,2.135,0,0,0,.694,1.257,2.066,2.066,0,0,0,1.389.457,2.662,2.662,0,0,0,2.2-.984l1.354,1.6a3.784,3.784,0,0,1-1.569,1.217A5.3,5.3,0,0,1,39.054,19.176ZM38.72,11.6q-1.3,0-1.547,1.723h2.988v-.229a1.467,1.467,0,0,0-.36-1.1A1.434,1.434,0,0,0,38.72,11.6Zm9.211,3.876,1.5-5.985h3.12L49.452,19H46.428l-3.1-9.51h3.129ZM56.562,19H53.591V9.49h2.971ZM53.416,7.038A1.322,1.322,0,0,1,53.873,6a1.943,1.943,0,0,1,2.373,0A1.322,1.322,0,0,1,56.7,7.038a1.322,1.322,0,0,1-.457,1.037,1.943,1.943,0,0,1-2.373,0A1.322,1.322,0,0,1,53.416,7.038Zm9.949,9.29a.684.684,0,0,0-.4-.606,6.016,6.016,0,0,0-1.5-.475,6.853,6.853,0,0,1-1.828-.646,3.062,3.062,0,0,1-1.1-.971,2.319,2.319,0,0,1-.378-1.31,2.628,2.628,0,0,1,1.081-2.158,4.453,4.453,0,0,1,2.83-.848,4.934,4.934,0,0,1,3.023.853,2.666,2.666,0,0,1,1.143,2.241H63.268q0-1.143-1.2-1.143a1.194,1.194,0,0,0-.782.259.8.8,0,0,0-.316.646.737.737,0,0,0,.387.642,3.654,3.654,0,0,0,1.235.4,10.671,10.671,0,0,1,1.49.378,2.706,2.706,0,0,1,2.145,2.646,2.491,2.491,0,0,1-1.156,2.118,5.068,5.068,0,0,1-2.993.817,5.172,5.172,0,0,1-2.18-.439,3.645,3.645,0,0,1-1.494-1.2,2.707,2.707,0,0,1-.536-1.591h2.769a1.145,1.145,0,0,0,.439.962,1.808,1.808,0,0,0,1.081.3,1.422,1.422,0,0,0,.91-.246A.787.787,0,0,0,63.365,16.328Zm7.69-9.2V9.49H72.62v2.057H71.055V15.9a1.111,1.111,0,0,0,.193.747,1.037,1.037,0,0,0,.765.211,4.345,4.345,0,0,0,.738-.053v2.118a5.466,5.466,0,0,1-1.67.255,3.1,3.1,0,0,1-2.259-.721,2.954,2.954,0,0,1-.729-2.188v-4.72H66.88V9.49h1.213V7.126ZM79.141,19a3.344,3.344,0,0,1-.281-.853,2.754,2.754,0,0,1-2.285,1.028,3.374,3.374,0,0,1-2.285-.813,2.588,2.588,0,0,1-.94-2.043,2.66,2.66,0,0,1,1.143-2.338,5.821,5.821,0,0,1,3.322-.791h.914v-.5q0-1.316-1.134-1.316a.927.927,0,0,0-1.055,1.042H73.578a2.655,2.655,0,0,1,1.173-2.239,4.931,4.931,0,0,1,2.993-.86,4.323,4.323,0,0,1,2.874.888A3.086,3.086,0,0,1,81.7,12.637v4.21a4.311,4.311,0,0,0,.4,2V19Zm-1.854-1.934a1.652,1.652,0,0,0,.918-.237,1.487,1.487,0,0,0,.523-.536V14.772h-.861q-1.547,0-1.547,1.389a.848.848,0,0,0,.272.655A.986.986,0,0,0,77.287,17.066Zm14.555-.176a1.317,1.317,0,0,0,.967-.338,1.241,1.241,0,0,0,.334-.945h2.777A3.288,3.288,0,0,1,94.8,18.174a4.168,4.168,0,0,1-2.887,1,4.22,4.22,0,0,1-3.27-1.3,5.125,5.125,0,0,1-1.2-3.6v-.123a5.792,5.792,0,0,1,.532-2.544,3.872,3.872,0,0,1,1.534-1.7,4.573,4.573,0,0,1,2.373-.593,4.116,4.116,0,0,1,2.944,1.028,3.647,3.647,0,0,1,1.09,2.786H93.142A1.626,1.626,0,0,0,92.782,12a1.244,1.244,0,0,0-.967-.4q-1.151,0-1.345,1.468a10.357,10.357,0,0,0-.062,1.283,4.068,4.068,0,0,0,.343,1.986A1.187,1.187,0,0,0,91.841,16.891ZM96.8,14.157a5.613,5.613,0,0,1,.554-2.536,3.96,3.96,0,0,1,1.591-1.709,4.791,4.791,0,0,1,2.435-.6,4.373,4.373,0,0,1,3.366,1.323,5.076,5.076,0,0,1,1.23,3.6v.105a4.925,4.925,0,0,1-1.235,3.529,4.384,4.384,0,0,1-3.344,1.305,4.434,4.434,0,0,1-3.261-1.217,4.761,4.761,0,0,1-1.327-3.3Zm2.962.185a3.538,3.538,0,0,0,.413,1.934,1.376,1.376,0,0,0,1.222.615q1.582,0,1.617-2.435v-.3q0-2.558-1.635-2.558-1.485,0-1.608,2.206ZM110,9.49l.1,1.116a3.225,3.225,0,0,1,2.716-1.292,2.713,2.713,0,0,1,2.219.888,4.226,4.226,0,0,1,.76,2.672V19h-2.971V13a1.6,1.6,0,0,0-.29-1.059,1.342,1.342,0,0,0-1.055-.338,1.413,1.413,0,0,0-1.292.686V19h-2.962V9.49ZM13.759,44H10.789V30.5h2.971Zm7.181,0a3.344,3.344,0,0,1-.281-.853,2.754,2.754,0,0,1-2.285,1.028,3.374,3.374,0,0,1-2.285-.813,2.588,2.588,0,0,1-.94-2.043,2.66,2.66,0,0,1,1.143-2.338,5.821,5.821,0,0,1,3.322-.791h.914v-.5q0-1.316-1.134-1.316a.927.927,0,0,0-1.055,1.042H15.376a2.655,2.655,0,0,1,1.173-2.239,4.931,4.931,0,0,1,2.993-.86,4.323,4.323,0,0,1,2.874.888A3.086,3.086,0,0,1,23.5,37.637v4.21a4.311,4.311,0,0,0,.4,2V44Zm-1.854-1.934A1.652,1.652,0,0,0,20,41.829a1.487,1.487,0,0,0,.523-.536V39.772h-.861q-1.547,0-1.547,1.389a.848.848,0,0,0,.272.655A.986.986,0,0,0,19.085,42.066Zm11.03-.738a.684.684,0,0,0-.4-.606,6.016,6.016,0,0,0-1.5-.475,6.853,6.853,0,0,1-1.828-.646,3.062,3.062,0,0,1-1.1-.971,2.319,2.319,0,0,1-.378-1.31,2.628,2.628,0,0,1,1.081-2.158,4.453,4.453,0,0,1,2.83-.848,4.934,4.934,0,0,1,3.023.853,2.666,2.666,0,0,1,1.143,2.241H30.019q0-1.143-1.2-1.143a1.194,1.194,0,0,0-.782.259.8.8,0,0,0-.316.646.737.737,0,0,0,.387.642,3.654,3.654,0,0,0,1.235.4,10.671,10.671,0,0,1,1.49.378,2.706,2.706,0,0,1,2.145,2.646,2.491,2.491,0,0,1-1.156,2.118,5.068,5.068,0,0,1-2.993.817,5.172,5.172,0,0,1-2.18-.439,3.645,3.645,0,0,1-1.494-1.2,2.707,2.707,0,0,1-.536-1.591h2.769a1.145,1.145,0,0,0,.439.962,1.808,1.808,0,0,0,1.081.3,1.422,1.422,0,0,0,.91-.246A.787.787,0,0,0,30.116,41.328Zm12.516-.853,1.5-5.985h3.12L44.152,44H41.128l-3.1-9.51h3.129ZM51.368,44H48.388V34.49h2.979ZM50.26,30.676h3.129l-2.443,2.76-2.417,0Zm7.031,11.215a1.317,1.317,0,0,0,.967-.338,1.241,1.241,0,0,0,.334-.945H61.37a3.288,3.288,0,0,1-1.121,2.566,4.168,4.168,0,0,1-2.887,1,4.22,4.22,0,0,1-3.27-1.3,5.125,5.125,0,0,1-1.2-3.6v-.123a5.792,5.792,0,0,1,.532-2.544,3.872,3.872,0,0,1,1.534-1.7,4.573,4.573,0,0,1,2.373-.593,4.116,4.116,0,0,1,2.944,1.028,3.647,3.647,0,0,1,1.09,2.786H58.592A1.626,1.626,0,0,0,58.232,37a1.244,1.244,0,0,0-.967-.4q-1.151,0-1.345,1.468a10.357,10.357,0,0,0-.062,1.283,4.068,4.068,0,0,0,.343,1.986A1.187,1.187,0,0,0,57.292,41.891Zm8.78-9.765V34.49h1.564v2.057H66.072V40.9a1.111,1.111,0,0,0,.193.747,1.037,1.037,0,0,0,.765.211,4.345,4.345,0,0,0,.738-.053v2.118a5.466,5.466,0,0,1-1.67.255,3.1,3.1,0,0,1-2.259-.721,2.954,2.954,0,0,1-.729-2.188v-4.72H61.9V34.49H63.11V32.126ZM71.925,44H68.955V34.49h2.971ZM68.779,32.038A1.322,1.322,0,0,1,69.236,31a1.943,1.943,0,0,1,2.373,0,1.405,1.405,0,0,1,0,2.074,1.943,1.943,0,0,1-2.373,0A1.322,1.322,0,0,1,68.779,32.038Zm7.77,2.452.1,1.116a3.27,3.27,0,0,1,2.716-1.292A2.407,2.407,0,0,1,81.8,35.747a3.165,3.165,0,0,1,2.795-1.433q2.892,0,2.971,3.5V44H84.59V38a1.813,1.813,0,0,0-.246-1.063,1.048,1.048,0,0,0-.9-.334,1.4,1.4,0,0,0-1.31.782l.009.123V44H79.176V38.015a1.906,1.906,0,0,0-.237-1.081,1.045,1.045,0,0,0-.905-.334,1.42,1.42,0,0,0-1.3.782V44H73.771V34.49ZM94.61,44a3.344,3.344,0,0,1-.281-.853,2.754,2.754,0,0,1-2.285,1.028,3.374,3.374,0,0,1-2.285-.813,2.588,2.588,0,0,1-.94-2.043,2.66,2.66,0,0,1,1.143-2.338,5.821,5.821,0,0,1,3.322-.791H94.2v-.5q0-1.316-1.134-1.316a.927.927,0,0,0-1.055,1.042H89.046a2.655,2.655,0,0,1,1.173-2.239,4.931,4.931,0,0,1,2.993-.86,4.323,4.323,0,0,1,2.874.888,3.086,3.086,0,0,1,1.081,2.435v4.21a4.311,4.311,0,0,0,.4,2V44Zm-1.854-1.934a1.652,1.652,0,0,0,.918-.237,1.487,1.487,0,0,0,.523-.536V39.772h-.861q-1.547,0-1.547,1.389a.848.848,0,0,0,.272.655A.986.986,0,0,0,92.755,42.066Zm11.03-.738a.684.684,0,0,0-.4-.606,6.016,6.016,0,0,0-1.5-.475,6.853,6.853,0,0,1-1.828-.646,3.062,3.062,0,0,1-1.1-.971,2.319,2.319,0,0,1-.378-1.31,2.628,2.628,0,0,1,1.081-2.158,4.453,4.453,0,0,1,2.83-.848,4.934,4.934,0,0,1,3.023.853,2.666,2.666,0,0,1,1.143,2.241h-2.971q0-1.143-1.2-1.143a1.194,1.194,0,0,0-.782.259.8.8,0,0,0-.316.646.737.737,0,0,0,.387.642,3.654,3.654,0,0,0,1.235.4,10.671,10.671,0,0,1,1.49.378,2.706,2.706,0,0,1,2.145,2.646,2.491,2.491,0,0,1-1.156,2.118,5.068,5.068,0,0,1-2.993.817,5.172,5.172,0,0,1-2.18-.439,3.645,3.645,0,0,1-1.494-1.2,2.707,2.707,0,0,1-.536-1.591h2.769a1.145,1.145,0,0,0,.439.962,1.808,1.808,0,0,0,1.081.3,1.422,1.422,0,0,0,.91-.246A.787.787,0,0,0,103.786,41.328Z" transform="translate(619 3333)" fill="#fff"/><g transform="translate(638.824 -7746)"><path d="M17,0A17,17,0,1,1,0,17,17,17,0,0,1,17,0Z" transform="translate(154.676 11172)" fill="#f24dc3"/><text transform="translate(171.676 11198)" fill="#fff" font-size="26" font-family="Roboto-Black, Roboto" font-weight="800"><tspan x="-6.944" y="0">+</tspan></text></g><g transform="translate(228.324 -7843)"><path d="M17,0A17,17,0,1,1,0,17,17,17,0,0,1,17,0Z" transform="translate(154.676 11172)" fill="#f24dc3"/><text transform="translate(171.676 11198)" fill="#fff" font-size="26" font-family="Roboto-Black, Roboto" font-weight="800"><tspan x="-6.944" y="0">+</tspan></text></g><g transform="translate(498.324 -8071)"><path d="M17,0A17,17,0,1,1,0,17,17,17,0,0,1,17,0Z" transform="translate(154.676 11172)" fill="#f24dc3"/><text transform="translate(171.676 11198)" fill="#fff" font-size="26" font-family="Roboto-Black, Roboto" font-weight="800"><tspan x="-6.944" y="0">+</tspan></text></g><g transform="translate(631.324 -8229)"><path d="M17,0A17,17,0,1,1,0,17,17,17,0,0,1,17,0Z" transform="translate(154.676 11172)" fill="#f24dc3"/><text transform="translate(171.676 11198)" fill="#fff" font-size="26" font-family="Roboto-Black, Roboto" font-weight="800"><tspan x="-6.944" y="0">+</tspan></text></g><g transform="translate(1028.324 -8105)"><path d="M17,0A17,17,0,1,1,0,17,17,17,0,0,1,17,0Z" transform="translate(154.676 11172)" fill="#f24dc3"/><text transform="translate(171.676 11198)" fill="#fff" font-size="26" font-family="Roboto-Black, Roboto" font-weight="800"><tspan x="-6.944" y="0">+</tspan></text></g></g></svg>