<svg xmlns="http://www.w3.org/2000/svg" xmlns:xlink="http://www.w3.org/1999/xlink" width="363" height="184" viewBox="0 0 363 184"><defs><clipPath id="a"><rect width="312.568" height="149.845" fill="none"/></clipPath><clipPath id="c"><rect width="17.342" height="24.096" fill="none"/></clipPath><clipPath id="d"><rect width="17.344" height="24.087" fill="none"/></clipPath><clipPath id="e"><rect width="34.689" height="14.145" fill="none"/></clipPath><clipPath id="f"><rect width="26.771" height="30.686" fill="none"/></clipPath><clipPath id="g"><rect width="15.825" height="31.703" fill="none"/></clipPath><clipPath id="h"><rect width="12.901" height="0.882" fill="none"/></clipPath><clipPath id="i"><rect width="28.586" height="41.618" fill="none"/></clipPath><clipPath id="j"><rect width="52.412" height="30.361" fill="none"/></clipPath><clipPath id="k"><rect width="107.721" height="28.771" fill="none"/></clipPath><clipPath id="l"><rect width="2.823" height="8.825" fill="none"/></clipPath><clipPath id="m"><rect width="2.821" height="8.825" fill="none"/></clipPath><clipPath id="p"><rect width="4.383" height="4.383" fill="none"/></clipPath><clipPath id="q"><rect width="1.231" height="1.362" fill="none"/></clipPath><clipPath id="s"><rect width="1.232" height="1.362" fill="none"/></clipPath><clipPath id="t"><rect width="44.949" height="0.584" fill="none"/></clipPath><clipPath id="y"><rect width="4.383" height="4.385" fill="none"/></clipPath><clipPath id="z"><rect width="1.231" height="1.361" fill="none"/></clipPath><clipPath id="ab"><rect width="1.232" height="1.361" fill="none"/></clipPath><clipPath id="ad"><rect width="2.823" height="8.824" fill="none"/></clipPath><clipPath id="ae"><rect width="2.821" height="8.824" fill="none"/></clipPath><clipPath id="au"><rect width="9.537" height="15.88" fill="none"/></clipPath><clipPath id="av"><rect width="3.001" height="13.066" fill="none"/></clipPath><clipPath id="aw"><rect width="12.897" height="10.438" fill="none"/></clipPath><clipPath id="ax"><rect width="2.403" height="6.082" fill="none"/></clipPath><clipPath id="ay"><rect width="31.603" height="30.97" fill="none"/></clipPath><clipPath id="az"><rect width="46.566" height="26.711" fill="none"/></clipPath></defs><g transform="translate(-265.465 -1292)"><rect width="363" height="184" rx="20" transform="translate(265.465 1292)" fill="#fff"/><g transform="translate(290.308 1309.078)"><g clip-path="url(#a)"><g transform="translate(0 0)"><g clip-path="url(#a)"><path d="M229.975,109.643A20.035,20.035,0,1,1,250,89.608a20.058,20.058,0,0,1-20.024,20.035m0-38.614A18.58,18.58,0,1,0,248.55,89.608a18.6,18.6,0,0,0-18.575-18.579" transform="translate(62.57 20.736)" fill="#227e87"/><path d="M228.758,78.953a38.248,38.248,0,0,1-7.51-.735A37.182,37.182,0,0,1,214.019,76l.561-1.345a36.481,36.481,0,0,0,14.14,2.84,37.116,37.116,0,0,0,7.255-.726,35.749,35.749,0,0,0,6.93-2.143l.14-.057h.149v.736l.279.671a38.047,38.047,0,0,1-14.715,2.974" transform="translate(63.787 22.226)" fill="#227e87"/><path d="M243.2,96.209h-.157l-.132-.053a35.983,35.983,0,0,0-6.943-2.143A36.8,36.8,0,0,0,221.539,94a36.079,36.079,0,0,0-6.948,2.131l-.566-1.343a37.051,37.051,0,0,1,7.233-2.212,37.462,37.462,0,0,1,7.472-.75,38.734,38.734,0,0,1,7.535.758,37.491,37.491,0,0,1,7.22,2.231l-.279.665Z" transform="translate(63.788 27.367)" fill="#227e87"/><path d="M227.758,109.643c-4.953,0-10.384-10.486-10.384-20.035,0-8.8,5.817-20.034,10.384-20.034v1.455c-3.441,0-8.927,10.147-8.927,18.579,0,9.216,5.195,18.58,8.927,18.58Z" transform="translate(64.787 20.736)" fill="#227e87"/><path d="M225.374,109.643v-1.455c3.728,0,8.918-9.364,8.918-18.58,0-8.432-5.48-18.579-8.918-18.579V69.574c4.555,0,10.378,11.236,10.378,20.034,0,9.55-5.432,20.035-10.378,20.035" transform="translate(67.171 20.736)" fill="#227e87"/><rect width="1.45" height="38.608" transform="translate(291.814 91.041)" fill="#227e87"/><rect width="38.609" height="1.463" transform="translate(273.234 109.613)" fill="#227e87"/><path d="M106.22,20.994c4.612,0,7.543,3.11,7.543,7.586,0,3.947-2.557,5.955-4.722,5.955a2.193,2.193,0,0,1-2.422-1.674h-.047a3.593,3.593,0,0,1-2.665,1.5c-1.611,0-2.779-1.216-2.779-3.223,0-2.514,1.784-5.27,4.342-5.27a1.825,1.825,0,0,1,1.72,1.081h.045l.288-.9h1.61l-.948,4.657c-.376,1.5.021,2.225,1.1,2.225,1.366,0,2.8-1.633,2.8-4.256,0-3.353-1.9-6.09-6.067-6.09-3.856,0-7.609,3.288-7.609,8.339,0,4.346,2.915,6.594,6.507,6.594a7.472,7.472,0,0,0,3.464-.9l.593,1.415a8.43,8.43,0,0,1-4.256,1.1c-4.364,0-8.071-2.736-8.071-8.118,0-6.038,4.386-10.012,9.572-10.012M104.436,32.7c.523,0,1.08-.331,1.741-1.145l.572-3.241a1.364,1.364,0,0,0-1.212-.775c-1.521,0-2.451,1.964-2.451,3.441,0,1.192.532,1.72,1.35,1.72" transform="translate(28.805 6.257)" fill="#227e87"/><path d="M169.156,62.3h-46.7V7.768h46.7Zm1.131-55.665H121.33V63.434h48.957Z" transform="translate(36.161 1.979)" fill="#227e87"/><rect width="48.957" height="4.408" transform="translate(157.491 8.619)" fill="#227e87"/><rect width="5.401" height="1.037" transform="translate(160.272 17.825)" fill="#227e87"/><rect width="10.985" height="1.037" transform="translate(167.834 17.825)" fill="#227e87"/><rect width="6.302" height="1.037" transform="translate(160.273 55.168)" fill="#227e87"/><rect width="12.967" height="1.037" transform="translate(168.734 55.168)" fill="#227e87"/><rect width="7.381" height="1.04" transform="translate(164.414 59.317)" fill="#227e87"/><rect width="4.864" height="1.04" transform="translate(173.956 59.317)" fill="#227e87"/><rect width="10.802" height="1.037" transform="translate(164.414 21.975)" fill="#227e87"/><rect width="11.075" height="1.037" transform="translate(177.379 21.975)" fill="#227e87"/><rect width="10.264" height="1.037" transform="translate(164.413 26.122)" fill="#227e87"/><rect width="8.463" height="1.037" transform="translate(176.837 26.122)" fill="#227e87"/><rect width="5.4" height="1.037" transform="translate(187.463 26.122)" fill="#227e87"/><rect width="7.022" height="1.037" transform="translate(195.024 26.122)" fill="#227e87"/><rect width="6.482" height="1.04" transform="translate(164.413 30.272)" fill="#227e87"/><rect width="15.487" height="1.04" transform="translate(173.055 30.272)" fill="#227e87"/><rect width="4.864" height="1.04" transform="translate(190.7 30.272)" fill="#227e87"/><rect width="5.941" height="1.04" transform="translate(197.725 30.272)" fill="#227e87"/><rect width="12.425" height="1.038" transform="translate(164.413 38.57)" fill="#227e87"/><rect width="13.955" height="1.037" transform="translate(164.413 42.72)" fill="#227e87"/><rect width="9.726" height="1.037" transform="translate(180.526 42.72)" fill="#227e87"/><rect width="6.752" height="1.037" transform="translate(192.411 42.72)" fill="#227e87"/><rect width="7.832" height="1.038" transform="translate(164.414 46.87)" fill="#227e87"/><rect width="16.656" height="1.038" transform="translate(174.406 46.87)" fill="#227e87"/><rect width="8.284" height="1.037" transform="translate(160.272 34.421)" fill="#227e87"/><rect width="5.044" height="1.037" transform="translate(170.715 34.421)" fill="#227e87"/><rect width="6.482" height="1.036" transform="translate(164.413 51.021)" fill="#227e87"/><rect width="10.623" height="1.036" transform="translate(173.056 51.021)" fill="#227e87"/><path d="M14.844,16.331a2.9,2.9,0,1,1-2.9-2.9,2.9,2.9,0,0,1,2.9,2.9" transform="translate(2.697 4.004)" fill="#227e87"/><path d="M1.224,7.443,0,6.253a20.293,20.293,0,0,1,29.016-.293l-1.2,1.206a18.6,18.6,0,0,0-26.593.278" transform="translate(0 0)" fill="#227e87"/><path d="M7.265,12.7l-1.26-1.155a9.318,9.318,0,0,1,6.85-3.03,9.216,9.216,0,0,1,6.56,2.718l-1.206,1.212a7.5,7.5,0,0,0-5.354-2.216A7.583,7.583,0,0,0,7.265,12.7" transform="translate(1.79 2.538)" fill="#227e87"/><path d="M4.246,10.075,3.005,8.9A14.773,14.773,0,0,1,24.219,8.6L23.022,9.8a13.1,13.1,0,0,0-18.776.271" transform="translate(0.896 1.269)" fill="#227e87"/><path d="M242.438,133.088H74.476V72.476H6.73V44.419H8.8V70.4H76.551v60.612H240.365V120.688h2.073Z" transform="translate(2.006 13.239)" fill="#227e87"/><path d="M93.71,35.011H91.638V7.914H37.819V5.841H93.71Z" transform="translate(11.272 1.741)" fill="#227e87"/><path d="M189.55,71.586h-2.073V56.651H248.3V34.977h2.073V58.724H189.55Z" transform="translate(55.876 10.425)" fill="#227e87"/><path d="M173.427,29.588h-2.073V5.841h40.932V7.914H173.427Z" transform="translate(51.071 1.741)" fill="#227e87"/><rect width="21.241" height="28.131" transform="translate(92.54 40.685)" fill="#88dee4"/><rect width="6.601" height="1.263" transform="translate(95.886 43.5)" fill="#efefef"/><rect width="6.723" height="1.263" transform="translate(103.711 43.5)" fill="#efefef"/><rect width="4.101" height="1.263" transform="translate(106.333 47.04)" fill="#efefef"/><rect width="7.342" height="1.263" transform="translate(97.505 47.04)" fill="#efefef"/><rect width="13.244" height="1.263" transform="translate(95.885 50.578)" fill="#efefef"/><rect width="3.892" height="1.264" transform="translate(95.886 54.119)" fill="#efefef"/><rect width="6.436" height="1.264" transform="translate(100.542 54.119)" fill="#efefef"/><rect width="2.494" height="1.264" transform="translate(107.94 54.119)" fill="#efefef"/><rect width="12.056" height="1.264" transform="translate(98.377 57.656)" fill="#efefef"/><rect width="14.547" height="1.264" transform="translate(95.886 61.197)" fill="#efefef"/><rect width="8.492" height="1.263" transform="translate(95.886 64.736)" fill="#efefef"/><path d="M208.848,83.212H174.159l4.211-3.379,4.485-3.588.813-.648,1.646-1.319.811-.648,5.379-4.306,5.365,4.294.01.012.813.648,1.647,1.319.813.648,2.342,1.881.613.484,1.541,1.233Z" transform="translate(51.907 20.662)" fill="#ffe5a5"/><path d="M175.622,82.855,191.067,70.5l15.444,12.356Z" transform="translate(52.343 21.012)" fill="#ffa300"/><rect width="34.689" height="24.088" transform="translate(226.066 103.874)" fill="#ffa300"/><rect width="26.276" height="35.205" transform="translate(230.276 86.847)" fill="#fff"/><rect width="5.474" height="0.656" transform="translate(233.246 89.704)" fill="#007c87"/><rect width="5.474" height="0.654" transform="translate(233.246 91.016)" fill="#007c87"/><rect width="20.329" height="0.654" transform="translate(233.246 96.258)" fill="#007c87"/><rect width="20.329" height="0.654" transform="translate(233.246 98.223)" fill="#007c87"/><rect width="3.879" height="0.656" transform="translate(233.246 100.188)" fill="#007c87"/><rect width="20.329" height="0.657" transform="translate(233.246 102.153)" fill="#007c87"/><rect width="20.329" height="0.657" transform="translate(233.246 104.119)" fill="#007c87"/><rect width="14.743" height="0.657" transform="translate(233.246 106.085)" fill="#007c87"/><rect width="20.329" height="0.657" transform="translate(233.246 108.052)" fill="#007c87"/><rect width="20.329" height="0.657" transform="translate(233.246 110.016)" fill="#007c87"/><rect width="20.329" height="0.656" transform="translate(233.246 111.982)" fill="#007c87"/><rect width="7.753" height="0.656" transform="translate(233.246 113.951)" fill="#007c87"/><rect width="20.329" height="0.657" transform="translate(233.246 94.291)" fill="#007c87"/><rect width="4.929" height="0.657" transform="translate(248.646 117.226)" fill="#007c87"/><rect width="4.929" height="0.657" transform="translate(248.646 118.536)" fill="#007c87"/><g transform="translate(226.068 103.867)" opacity="0.2"><g clip-path="url(#c)"><path d="M174.161,104.114,191.5,91.744,174.161,80.019Z" transform="translate(-174.161 -80.018)"/></g></g><g transform="translate(243.41 103.874)" opacity="0.2"><g clip-path="url(#d)"><path d="M204.865,80.024v24.088l-5.743-4.1L196.58,98.2l-8.836-6.294-.223-.166,1.023-.694.166-.106,3.175-2.153.976-.658,1.943-1.306.967-.658,3.352-2.26,1.541-1.048Z" transform="translate(-187.521 -80.024)"/></g></g><path d="M174.161,104.114,191.5,92.068l-17.342-12.05Z" transform="translate(51.907 23.849)" fill="#ffd059"/><path d="M204.865,80.024v24.088l-5.743-3.991L196.358,98.2l-8.837-6.142.223-.152,1-.694.166-.118,3.328-2.308.941-.658,1.885-1.306.953-.658,3.106-2.153,1.541-1.071Z" transform="translate(55.889 23.85)" fill="#ffd059"/><g transform="translate(226.066 113.816)" opacity="0.2"><g clip-path="url(#e)"><path d="M208.848,101.828H174.159l7.247-5.91,8.707-7.105.2-.154,1.19-.975,1.189.975.2.154,4.4,3.589.8.659,3.5,2.857,1.507,1.227Z" transform="translate(-174.159 -87.683)"/></g></g><path d="M208.848,101.766H174.159l7.388-5.91,8.731-6.989.2-.165,1.025-.811,1.023.811.2.165,4.342,3.472.826.659,3.564,2.857,1.647,1.319Z" transform="translate(51.907 26.195)" fill="#ffe6a7"/><path d="M37.118,74.375s-8.165,3.937-13.375,3.8c0,0-.253,17.023,1.645,21.673,1.737,4.246,11.73,11.638,11.73,11.638s9.994-7.392,11.73-11.638c1.9-4.651,1.645-21.673,1.645-21.673-5.21.134-13.375-3.8-13.375-3.8" transform="translate(7.073 22.167)" fill="#6bc41e"/><path d="M37.5,74.793S45.4,78.6,50.612,78.6c.088,0,.177,0,.26-.005,0,0,.256,17.023-1.645,21.673-1.737,4.247-11.73,11.638-11.73,11.638s-9.994-7.391-11.73-11.638c-1.9-4.651-1.645-21.673-1.645-21.673.087,0,.171.005.261.005C29.6,78.6,37.5,74.793,37.5,74.793m0-1.825-.715.344c-.074.036-7.623,3.641-12.4,3.641-.074,0-.147,0-.221,0L22.5,76.909l-.026,1.661c-.026,1.78-.2,17.5,1.769,22.322,1.855,4.543,11.214,11.554,12.274,12.342l.979.72.98-.72c1.059-.788,10.419-7.8,12.273-12.342,1.969-4.821,1.8-20.543,1.771-22.322l-.026-1.661-1.664.042c-.073,0-.144,0-.218,0-4.788,0-12.324-3.6-12.4-3.641Z" transform="translate(6.694 21.747)" fill="#efefef"/><g transform="translate(30.804 96.541)" opacity="0.2"><g clip-path="url(#f)"><path d="M26.212,100.672C24.313,96.024,24.565,79,24.565,79c5.213.13,12.553-3.8,12.553-3.8s8.18,3.544,13.384,3.79c0-.515-.009-.811-.009-.811-5.21.134-13.375-3.8-13.375-3.8s-8.165,3.937-13.375,3.8c0,0-.254,17.023,1.645,21.673a18.581,18.581,0,0,0,4.128,5.21,15.938,15.938,0,0,1-3.3-4.389" transform="translate(-23.731 -74.375)"/></g></g><path d="M46.252,89.752a9.927,9.927,0,1,1-9.926-9.927,9.924,9.924,0,0,1,9.926,9.927" transform="translate(7.867 23.791)" fill="#efefef"/><path d="M36.542,100.846A10.875,10.875,0,1,1,47.417,89.97a10.886,10.886,0,0,1-10.875,10.876m0-19.86a8.984,8.984,0,1,0,8.982,8.984,8.993,8.993,0,0,0-8.982-8.984" transform="translate(7.65 23.574)" fill="#ff7643"/><path d="M37.761,88.779c0,2.565-1.351,4.639-3.022,4.639s-3.023-2.074-3.023-4.639,1.356-4.641,3.023-4.641,3.022,2.076,3.022,4.641" transform="translate(9.453 25.077)" fill="#254048"/><path d="M36.7,88.25a.286.286,0,0,1-.2-.074.3.3,0,0,1-.034-.427l1.367-1.6V84.014a.3.3,0,0,1,.607,0v2.248a.3.3,0,0,1-.074.2l-1.44,1.686a.3.3,0,0,1-.23.1" transform="translate(10.847 24.95)" fill="#254048"/><path d="M39.4,91.156a.306.306,0,0,1-.275-.175l-.776-1.707-2.176-.806A.3.3,0,0,1,36,88.08a.3.3,0,0,1,.387-.182l2.292.853a.3.3,0,0,1,.169.157l.829,1.819a.3.3,0,0,1-.149.4.31.31,0,0,1-.126.027" transform="translate(10.724 26.192)" fill="#254048"/><path d="M37.62,93.608a.3.3,0,0,1-.305-.3V91.5l-1.646-1.171a.305.305,0,0,1,.356-.5L37.792,91.1a.3.3,0,0,1,.13.245V93.3a.3.3,0,0,1-.3.3" transform="translate(10.594 26.757)" fill="#254048"/><path d="M31.864,88.25a.312.312,0,0,1-.232-.1l-1.44-1.686a.3.3,0,0,1-.075-.2V84.014a.3.3,0,0,1,.607,0v2.137l1.369,1.6a.3.3,0,0,1-.032.427.3.3,0,0,1-.2.074" transform="translate(8.976 24.95)" fill="#254048"/><path d="M29.539,91.156a.3.3,0,0,1-.125-.027.3.3,0,0,1-.148-.4l.827-1.819a.3.3,0,0,1,.169-.157l2.294-.853a.3.3,0,0,1,.214.57l-2.176.806-.779,1.707a.308.308,0,0,1-.276.175" transform="translate(8.714 26.192)" fill="#254048"/><path d="M31.019,93.608a.3.3,0,0,1-.3-.3V91.342a.3.3,0,0,1,.127-.245l1.773-1.266a.3.3,0,0,1,.35.5L31.321,91.5V93.3a.3.3,0,0,1-.3.3" transform="translate(9.154 26.757)" fill="#254048"/><path d="M38.319,88.158c0,2.643-1.306,4.763-3.052,5.058a2.564,2.564,0,0,1-.423.038,2.725,2.725,0,0,1-.413-.035c-1.748-.291-3.065-2.41-3.065-5.061a7.257,7.257,0,0,1,.251-1.937h6.455a7.26,7.26,0,0,1,.247,1.937" transform="translate(9.349 25.697)" fill="#00d2e7"/><path d="M34.564,93.216a2.563,2.563,0,0,1-.423.036,2.725,2.725,0,0,1-.413-.034l.489-7Z" transform="translate(10.052 25.697)" fill="#254048"/><path d="M35.664,85.021c0,.186-.27.337-.6.337s-.6-.152-.6-.337.269-.341.6-.341.6.152.6.341" transform="translate(10.273 25.238)" fill="#d6542d"/><path d="M34.349,85.009A3.012,3.012,0,0,1,34.61,83.9a2.933,2.933,0,0,1,.662-.913,2.86,2.86,0,0,1,2.035-.759,2.778,2.778,0,0,0-1.928.867,2.7,2.7,0,0,0-.561.893,2.638,2.638,0,0,0-.166,1.033Z" transform="translate(10.237 24.505)" fill="#254048"/><path d="M32.7,85.021c0,.186.271.337.6.337s.6-.152.6-.337-.269-.341-.6-.341-.6.152-.6.341" transform="translate(9.746 25.238)" fill="#d6542d"/><path d="M34.117,85.017a2.644,2.644,0,0,0-.727-1.925,2.764,2.764,0,0,0-1.926-.867A2.871,2.871,0,0,1,34.157,83.9a2.99,2.99,0,0,1,.263,1.114Z" transform="translate(9.378 24.506)" fill="#254048"/><path d="M29.613,97.082l-1.336-1.34L42.315,81.706l1.336,1.34Z" transform="translate(8.428 24.352)" fill="#ff7643"/><g transform="translate(40.931 100.305)" opacity="0.2"><g clip-path="url(#g)"><path d="M47.347,77.31a10.932,10.932,0,0,1-1.172-.036c-.206,6.171-.719,13.223-1.938,16.209-1.63,3.99-9.082,10.2-12.7,13.053,1.76,1.45,3.1,2.442,3.1,2.442s9.5-7.028,11.149-11.064c1.806-4.42,1.565-20.6,1.565-20.6" transform="translate(-31.533 -77.274)" fill="#fff"/></g></g><path d="M75.848,20.774V59.268a1.566,1.566,0,0,1-1.565,1.562H19.164A1.57,1.57,0,0,1,17.6,59.268V20.774a1.567,1.567,0,0,1,1.564-1.562H74.283a1.563,1.563,0,0,1,1.565,1.562" transform="translate(5.246 5.726)" fill="#254048"/><rect width="52.411" height="30.361" transform="translate(25.765 28.074)" fill="#00d2e7"/><rect width="52.411" height="30.361" transform="translate(25.765 28.074)" fill="#efefef"/><rect width="13.4" height="9.567" transform="translate(28.197 37.9)" fill="#95db73"/><rect width="13.4" height="0.785" transform="translate(28.197 48.71)" fill="#758688"/><rect width="13.396" height="9.567" transform="translate(45.443 37.9)" fill="#ff7643"/><rect width="13.396" height="0.785" transform="translate(45.443 48.71)" fill="#758688"/><rect width="13.398" height="9.567" transform="translate(62.345 37.9)" fill="#00d2e7"/><rect width="13.398" height="0.785" transform="translate(62.345 48.71)" fill="#758688"/><rect width="52.411" height="7.797" transform="translate(25.765 28.074)" fill="#ffd059"/><rect width="48.975" height="1.44" transform="translate(27.483 50.79)" fill="#54666f"/><rect width="48.975" height="0.671" transform="translate(27.483 52.95)" fill="#758688"/><rect width="48.975" height="0.671" transform="translate(27.483 54.728)" fill="#758688"/><rect width="18.283" height="0.668" transform="translate(27.483 56.505)" fill="#758688"/><path d="M75.848,47.582v3.231a1.566,1.566,0,0,1-1.565,1.562H19.164A1.57,1.57,0,0,1,17.6,50.813V47.582Z" transform="translate(5.246 14.181)" fill="#ceced0"/><path d="M54.461,57.645H31l1.12-.7,3.169-1.983H50.164Z" transform="translate(9.24 16.381)" fill="#ceced0"/><rect width="23.457" height="0.505" transform="translate(40.244 74.026)" fill="#a5a5a7"/><rect width="12.901" height="5.65" transform="translate(45.518 66.554)" fill="#a5a5a7"/><g transform="translate(45.518 66.556)" opacity="0.2"><g clip-path="url(#h)"><rect width="12.901" height="0.883" transform="translate(0)"/></g></g><g transform="translate(22.845 24.937)" opacity="0.3"><g clip-path="url(#i)"><path d="M46.185,19.212l-1.808,3.137-.008.009-.437.772-.008.008-4.038,7.006-3.532,6.131L33.8,40.688l-.6,1.053-.715,1.245-.454.785-.749,1.293L30.46,46.5l-.421.722-.387.675L29.021,49l-.388.678-.64,1.106-.393.675-.715,1.255-.008.006-1.908,3.32L22.2,60.831H19.163A1.569,1.569,0,0,1,17.6,59.268V20.774a1.566,1.566,0,0,1,1.563-1.562Z" transform="translate(-17.599 -19.211)" fill="#fff"/></g></g><g transform="translate(25.764 28.075)" opacity="0.2"><g clip-path="url(#j)"><path d="M20.631,22.413H72.26v-.784H19.849v30.36h.783Z" transform="translate(-19.849 -21.628)"/></g></g><path d="M101.3,71.28l-.152.149v2.295H99.7l-3.172-3.143h-11.2V67.717H97.7l3.172,3.149h.273v.265Z" transform="translate(25.431 20.182)" fill="#ceced0"/><path d="M79.068,69.988a4.774,4.774,0,0,0,9.356,1.35,4.378,4.378,0,0,0,.2-1.35,4.618,4.618,0,0,0-.258-1.515,4.771,4.771,0,0,0-9.3,1.515m6.7,0a1.917,1.917,0,1,1-1.92-1.915,1.918,1.918,0,0,1,1.92,1.915" transform="translate(23.566 19.435)" fill="#ceced0"/><rect width="2.592" height="18.566" transform="translate(130.972 68.383)" fill="#ceced0"/><path d="M103.007,45.646a4.865,4.865,0,0,0-4.855,4.874,4.8,4.8,0,0,0,3.559,4.674,4.219,4.219,0,0,0,2.591,0,4.8,4.8,0,0,0,3.579-4.674,4.873,4.873,0,0,0-4.874-4.874m0,7.161a2.283,2.283,0,1,1,2.278-2.287,2.287,2.287,0,0,1-2.278,2.287" transform="translate(29.253 13.604)" fill="#ceced0"/><path d="M133.187,51.527a4.759,4.759,0,0,0,3.323,4.524,4.593,4.593,0,0,0,2.861,0,4.73,4.73,0,0,0,3.354-4.524,4.769,4.769,0,1,0-9.538,0m6.669,0a1.9,1.9,0,1,1-1.916-1.921,1.914,1.914,0,0,1,1.916,1.921" transform="translate(39.695 13.934)" fill="#ceced0"/><path d="M139.667,53V66.238l-4.6,4.6v5.431h-2.856V69.65l4.594-4.6V53Z" transform="translate(39.405 15.795)" fill="#ceced0"/><path d="M161.6,62.866v2.86H151.46l-14.846,14.89h-8.522V77.75h7.331l14.848-14.885Z" transform="translate(38.177 18.737)" fill="#ceced0"/><path d="M161.027,71.959H153.9l-9.959,9.934h-13.91v2.858h15.109l9.96-9.933h5.929Z" transform="translate(38.754 21.447)" fill="#ceced0"/><rect width="31.243" height="2.858" transform="translate(94.121 100.213)" fill="#ceced0"/><rect width="4.012" height="9.933" transform="translate(90.724 96.612)" fill="#ceced0"/><path d="M159.374,83.453a23.319,23.319,0,0,0-45.513-6.161A17.832,17.832,0,0,0,89.413,90.018a16.033,16.033,0,1,0-4.181,31.553v.008h73.883a19.064,19.064,0,0,0,.258-38.126" transform="translate(20.672 18.201)" fill="#efefef"/><g transform="translate(91.139 111.009)" opacity="0.2"><g clip-path="url(#k)"><path d="M175.256,85.52a19.055,19.055,0,0,1-17.681,26.2H83.689v-.009a16.019,16.019,0,0,1-13.476-7.636,16.035,16.035,0,0,0,14.764,10.212v.008h73.886A19.036,19.036,0,0,0,175.256,85.52" transform="translate(-70.213 -85.52)"/></g></g><path d="M70.65,108.112A15.991,15.991,0,0,1,90.7,92.592a17.836,17.836,0,0,1,24.447-12.725,23.314,23.314,0,0,1,42.337-4.676,23.3,23.3,0,0,0-43.622,2.1A17.834,17.834,0,0,0,89.412,90.018a16.013,16.013,0,0,0-17.659,23.916,16.007,16.007,0,0,1-1.1-5.823" transform="translate(20.672 18.201)" fill="#fff"/><rect width="2.073" height="11.948" transform="translate(143.41 133.341)" fill="#227e87"/><path d="M116.031,112.817a3.863,3.863,0,1,1-3.863-3.862,3.864,3.864,0,0,1,3.863,3.862" transform="translate(32.279 32.473)" fill="#00d2e7"/><path d="M112.327,117.53a4.554,4.554,0,1,1,4.554-4.555,4.561,4.561,0,0,1-4.554,4.555m0-7.726a3.172,3.172,0,1,0,3.172,3.171,3.176,3.176,0,0,0-3.172-3.171" transform="translate(32.121 32.315)" fill="#254048"/><path d="M138.61,93.561H95.121a2.576,2.576,0,0,1-2.577-2.575V82.762a2.577,2.577,0,0,1,2.577-2.577h43.49a2.576,2.576,0,0,1,2.575,2.577v8.224a2.575,2.575,0,0,1-2.575,2.575" transform="translate(27.582 23.898)" fill="#ffd059"/><rect width="2.823" height="8.825" transform="translate(122.605 106.359)" fill="#df8f00"/><g transform="translate(122.606 106.359)" opacity="0.2"><g clip-path="url(#l)"><path d="M94.889,82.373h2.388v-.435H94.454v8.825h.435Z" transform="translate(-94.455 -81.938)"/></g></g><rect width="2.821" height="8.825" transform="translate(126.733 106.359)" fill="#df8f00"/><g transform="translate(126.733 106.359)" opacity="0.2"><g clip-path="url(#m)"><path d="M98.067,82.373h2.388v-.435H97.634v8.825h.432Z" transform="translate(-97.634 -81.938)"/></g></g><rect width="2.825" height="8.825" transform="translate(130.856 106.359)" fill="#df8f00"/><g transform="translate(130.857 106.359)" opacity="0.2"><g clip-path="url(#l)"><path d="M101.245,82.373h2.39v-.435H100.81v8.825h.435Z" transform="translate(-100.811 -81.938)"/></g></g><rect width="2.823" height="8.825" transform="translate(134.982 106.359)" fill="#df8f00"/><g transform="translate(134.982 106.359)" opacity="0.2"><g clip-path="url(#l)"><path d="M104.424,82.373h2.388v-.435h-2.823v8.825h.435Z" transform="translate(-103.989 -81.938)"/></g></g><g transform="translate(155.947 108.58)" opacity="0.2"><g clip-path="url(#p)"><path d="M124.524,85.839a2.192,2.192,0,1,1-2.192-2.19,2.192,2.192,0,0,1,2.192,2.19" transform="translate(-120.14 -83.649)"/></g></g><path d="M124.1,85.76a1.845,1.845,0,1,1-1.846-1.845A1.844,1.844,0,0,1,124.1,85.76" transform="translate(35.887 25.01)" fill="#6bc41e"/><g transform="translate(156.716 109.409)" opacity="0.3"><g clip-path="url(#q)"><path d="M121.744,85.275c-.261.336-.645.47-.866.3s-.184-.576.073-.914.65-.471.868-.3.186.579-.075.915" transform="translate(-120.733 -84.288)" fill="#fff"/></g></g><g transform="translate(161.199 108.58)" opacity="0.2"><g clip-path="url(#p)"><path d="M128.569,85.839a2.192,2.192,0,1,1-2.192-2.19,2.193,2.193,0,0,1,2.192,2.19" transform="translate(-124.186 -83.649)"/></g></g><path d="M128.143,85.76a1.846,1.846,0,1,1-1.845-1.845,1.846,1.846,0,0,1,1.845,1.845" transform="translate(37.092 25.01)" fill="#ff7643"/><g transform="translate(161.967 109.409)" opacity="0.3"><g clip-path="url(#s)"><path d="M125.788,85.275c-.26.336-.645.47-.863.3s-.184-.576.074-.914.649-.471.867-.3.186.579-.078.915" transform="translate(-124.778 -84.288)" fill="#fff"/></g></g><rect width="44.95" height="2.507" transform="translate(121.972 101.577)" fill="#ffa300"/><g transform="translate(121.972 101.578)" opacity="0.2"><g clip-path="url(#t)"><rect width="44.95" height="0.584" transform="translate(0 0.001)"/></g></g><path d="M138.61,105.8H95.121a2.576,2.576,0,0,1-2.577-2.574V95a2.577,2.577,0,0,1,2.577-2.577h43.49A2.576,2.576,0,0,1,141.186,95v8.226a2.575,2.575,0,0,1-2.575,2.574" transform="translate(27.582 27.545)" fill="#ffd059"/><rect width="2.823" height="8.825" transform="translate(122.605 122.24)" fill="#df8f00"/><g transform="translate(122.606 122.241)" opacity="0.2"><g clip-path="url(#l)"><path d="M94.889,94.608h2.388v-.435H94.454V103h.435Z" transform="translate(-94.455 -94.173)"/></g></g><rect width="2.821" height="8.825" transform="translate(126.733 122.24)" fill="#df8f00"/><g transform="translate(126.733 122.241)" opacity="0.2"><g clip-path="url(#m)"><path d="M98.067,94.608h2.388v-.435H97.634V103h.432Z" transform="translate(-97.634 -94.173)"/></g></g><rect width="2.825" height="8.825" transform="translate(130.856 122.24)" fill="#df8f00"/><g transform="translate(130.857 122.241)" opacity="0.2"><g clip-path="url(#l)"><path d="M101.245,94.608h2.39v-.435H100.81V103h.435Z" transform="translate(-100.811 -94.173)"/></g></g><rect width="2.823" height="8.825" transform="translate(134.982 122.24)" fill="#df8f00"/><g transform="translate(134.982 122.241)" opacity="0.2"><g clip-path="url(#l)"><path d="M104.424,94.608h2.388v-.435h-2.823V103h.435Z" transform="translate(-103.989 -94.173)"/></g></g><g transform="translate(155.947 124.461)" opacity="0.2"><g clip-path="url(#y)"><path d="M124.524,98.074a2.192,2.192,0,1,1-2.192-2.19,2.192,2.192,0,0,1,2.192,2.19" transform="translate(-120.14 -95.883)"/></g></g><path d="M124.1,97.995a1.845,1.845,0,1,1-1.846-1.845,1.844,1.844,0,0,1,1.846,1.845" transform="translate(35.887 28.657)" fill="#6bc41e"/><g transform="translate(156.716 125.292)" opacity="0.3"><g clip-path="url(#z)"><path d="M121.744,97.511c-.261.336-.645.47-.866.3s-.184-.576.073-.913.65-.471.868-.3.186.579-.075.915" transform="translate(-120.733 -96.523)" fill="#fff"/></g></g><g transform="translate(161.199 124.461)" opacity="0.2"><g clip-path="url(#y)"><path d="M128.569,98.074a2.192,2.192,0,1,1-2.192-2.19,2.193,2.193,0,0,1,2.192,2.19" transform="translate(-124.186 -95.883)"/></g></g><path d="M128.143,97.995A1.846,1.846,0,1,1,126.3,96.15a1.846,1.846,0,0,1,1.845,1.845" transform="translate(37.092 28.657)" fill="#ff7643"/><g transform="translate(161.967 125.292)" opacity="0.3"><g clip-path="url(#ab)"><path d="M125.788,97.511c-.26.336-.645.47-.863.3s-.184-.576.074-.913.649-.471.867-.3.186.579-.078.915" transform="translate(-124.778 -96.523)" fill="#fff"/></g></g><rect width="44.95" height="2.507" transform="translate(121.972 117.46)" fill="#ffa300"/><g transform="translate(121.972 117.46)" opacity="0.2"><g clip-path="url(#t)"><rect width="44.95" height="0.584" transform="translate(0 0)"/></g></g><path d="M138.61,81.326H95.121a2.577,2.577,0,0,1-2.577-2.575V70.525a2.576,2.576,0,0,1,2.577-2.575h43.49a2.575,2.575,0,0,1,2.575,2.575v8.226a2.576,2.576,0,0,1-2.575,2.575" transform="translate(27.582 20.252)" fill="#ffd059"/><rect width="2.823" height="8.824" transform="translate(122.605 90.477)" fill="#df8f00"/><g transform="translate(122.606 90.478)" opacity="0.2"><g clip-path="url(#ad)"><path d="M94.889,70.137h2.388V69.7H94.454v8.824h.435Z" transform="translate(-94.455 -69.704)"/></g></g><rect width="2.821" height="8.824" transform="translate(126.733 90.477)" fill="#df8f00"/><g transform="translate(126.733 90.478)" opacity="0.2"><g clip-path="url(#ae)"><path d="M98.067,70.137h2.388V69.7H97.634v8.824h.432Z" transform="translate(-97.634 -69.704)"/></g></g><rect width="2.825" height="8.824" transform="translate(130.856 90.477)" fill="#df8f00"/><g transform="translate(130.857 90.478)" opacity="0.2"><g clip-path="url(#ad)"><path d="M101.245,70.137h2.39V69.7H100.81v8.824h.435Z" transform="translate(-100.811 -69.704)"/></g></g><rect width="2.823" height="8.824" transform="translate(134.982 90.477)" fill="#df8f00"/><g transform="translate(134.982 90.478)" opacity="0.2"><g clip-path="url(#ad)"><path d="M104.424,70.137h2.388V69.7h-2.823v8.824h.435Z" transform="translate(-103.989 -69.704)"/></g></g><g transform="translate(155.947 92.698)" opacity="0.2"><g clip-path="url(#p)"><path d="M124.524,73.6a2.192,2.192,0,1,1-2.192-2.19,2.192,2.192,0,0,1,2.192,2.19" transform="translate(-120.14 -71.414)"/></g></g><path d="M124.1,73.524a1.845,1.845,0,1,1-1.846-1.845,1.844,1.844,0,0,1,1.846,1.845" transform="translate(35.887 21.363)" fill="#6bc41e"/><g transform="translate(156.716 93.527)" opacity="0.3"><g clip-path="url(#q)"><path d="M121.744,73.04c-.261.336-.645.47-.866.3s-.184-.575.073-.913.65-.471.868-.3.186.579-.075.915" transform="translate(-120.733 -72.052)" fill="#fff"/></g></g><g transform="translate(161.199 92.698)" opacity="0.2"><g clip-path="url(#p)"><path d="M128.569,73.6a2.192,2.192,0,1,1-2.192-2.19,2.193,2.193,0,0,1,2.192,2.19" transform="translate(-124.186 -71.414)"/></g></g><path d="M128.143,73.524a1.846,1.846,0,1,1-1.845-1.845,1.846,1.846,0,0,1,1.845,1.845" transform="translate(37.092 21.363)" fill="#ff7643"/><g transform="translate(161.967 93.527)" opacity="0.3"><g clip-path="url(#s)"><path d="M125.788,73.04c-.26.336-.645.47-.863.3s-.184-.575.074-.913.649-.471.867-.3.186.579-.078.915" transform="translate(-124.778 -72.052)" fill="#fff"/></g></g><rect width="44.95" height="2.507" transform="translate(121.972 85.695)" fill="#ffa300"/><g transform="translate(121.972 85.696)" opacity="0.2"><g clip-path="url(#t)"><rect width="44.95" height="0.584" transform="translate(0 0)"/></g></g><path d="M138.61,69.09H95.121a2.577,2.577,0,0,1-2.577-2.575V58.289a2.576,2.576,0,0,1,2.577-2.575h43.49a2.575,2.575,0,0,1,2.575,2.575v8.226a2.576,2.576,0,0,1-2.575,2.575" transform="translate(27.582 16.605)" fill="#ffd059"/><rect width="2.823" height="8.825" transform="translate(122.605 74.595)" fill="#df8f00"/><g transform="translate(122.606 74.595)" opacity="0.2"><g clip-path="url(#l)"><path d="M94.889,57.9h2.388v-.435H94.454v8.825h.435Z" transform="translate(-94.455 -57.467)"/></g></g><rect width="2.821" height="8.825" transform="translate(126.733 74.595)" fill="#df8f00"/><g transform="translate(126.733 74.595)" opacity="0.2"><g clip-path="url(#m)"><path d="M98.067,57.9h2.388v-.435H97.634v8.825h.432Z" transform="translate(-97.634 -57.467)"/></g></g><rect width="2.825" height="8.825" transform="translate(130.856 74.595)" fill="#df8f00"/><g transform="translate(130.857 74.595)" opacity="0.2"><g clip-path="url(#l)"><path d="M101.245,57.9h2.39v-.435H100.81v8.825h.435Z" transform="translate(-100.811 -57.467)"/></g></g><rect width="2.823" height="8.825" transform="translate(134.982 74.595)" fill="#df8f00"/><g transform="translate(134.982 74.595)" opacity="0.2"><g clip-path="url(#l)"><path d="M104.424,57.9h2.388v-.435h-2.823v8.825h.435Z" transform="translate(-103.989 -57.467)"/></g></g><g transform="translate(155.947 76.815)" opacity="0.2"><g clip-path="url(#y)"><path d="M124.524,61.368a2.192,2.192,0,1,1-2.192-2.19,2.192,2.192,0,0,1,2.192,2.19" transform="translate(-120.14 -59.177)"/></g></g><path d="M124.1,61.289a1.845,1.845,0,1,1-1.846-1.845,1.844,1.844,0,0,1,1.846,1.845" transform="translate(35.887 17.717)" fill="#6bc41e"/><g transform="translate(156.716 77.645)" opacity="0.3"><g clip-path="url(#q)"><path d="M121.744,60.806c-.261.335-.645.469-.866.3s-.184-.575.073-.913.65-.471.868-.3.186.579-.075.916" transform="translate(-120.733 -59.817)" fill="#fff"/></g></g><g transform="translate(161.199 76.815)" opacity="0.2"><g clip-path="url(#y)"><path d="M128.569,61.368a2.192,2.192,0,1,1-2.192-2.19,2.193,2.193,0,0,1,2.192,2.19" transform="translate(-124.186 -59.177)"/></g></g><path d="M128.143,61.289a1.846,1.846,0,1,1-1.845-1.845,1.846,1.846,0,0,1,1.845,1.845" transform="translate(37.092 17.717)" fill="#ff7643"/><g transform="translate(161.967 77.645)" opacity="0.3"><g clip-path="url(#s)"><path d="M125.788,60.806c-.26.335-.645.469-.863.3s-.184-.575.074-.913.649-.471.867-.3.186.579-.078.916" transform="translate(-124.778 -59.817)" fill="#fff"/></g></g><path d="M239.317,18.405h-2.429V9.333a4.378,4.378,0,1,0-8.755,0v9.072h-2.427V9.333a6.806,6.806,0,1,1,13.611,0Z" transform="translate(67.27 0.753)" fill="#ceced0"/><g transform="translate(292.976 3.278)" opacity="0.5"><g clip-path="url(#au)"><path d="M226.108,9.492A6.789,6.789,0,0,1,235.243,3.1a6.8,6.8,0,0,0-9.537,6.231v9.072h.4Z" transform="translate(-225.706 -2.525)" fill="#fff"/></g></g><g transform="translate(301.566 6.092)" opacity="0.2"><g clip-path="url(#av)"><path d="M235.325,17.759V8.845a4.382,4.382,0,0,0-3-4.152,4.379,4.379,0,0,1,2.594,3.994v9.072Z" transform="translate(-232.324 -4.693)"/></g></g><path d="M240.228,25.254H225.822a1.617,1.617,0,0,1-1.62-1.616V12.191a1.621,1.621,0,0,1,1.62-1.62h14.406a1.621,1.621,0,0,1,1.62,1.62V23.638a1.617,1.617,0,0,1-1.62,1.616" transform="translate(66.821 3.151)" fill="#ffd059"/><g transform="translate(291.739 14.429)" opacity="0.2"><g clip-path="url(#aw)"><path d="M226.5,15.244a8.433,8.433,0,0,1,2.548-2.549c1.925-.99,9.481-1.58,8.511-1.58H226.8a2.039,2.039,0,0,0-2.046,2.041v8.278c0,1.029.963-4.787,1.752-6.189" transform="translate(-224.753 -11.116)" fill="#fff"/></g></g><path d="M232.947,16.345a1.584,1.584,0,1,0-2.561,1.24l-.561,3.259H232.9l-.562-3.259a1.581,1.581,0,0,0,.607-1.24" transform="translate(68.483 4.399)" fill="#ffa300"/><g transform="translate(298.26 19.16)" opacity="0.2"><g clip-path="url(#ax)"><path d="M230.365,20.844l.528-3.058a1.564,1.564,0,0,1-.607-1.236,1.582,1.582,0,0,1,1.582-1.586,1.668,1.668,0,0,1,.312.031,1.568,1.568,0,0,0-.816-.234,1.578,1.578,0,0,0-.977,2.823l-.562,3.259Z" transform="translate(-229.777 -14.761)"/></g></g><path d="M230.643,19.609V48.446H179.821V19.609a2.131,2.131,0,0,1,2.127-2.134h46.567a2.13,2.13,0,0,1,2.127,2.134" transform="translate(53.594 5.208)" fill="#3c4a4d"/><rect width="46.566" height="26.711" transform="translate(235.541 24.813)" fill="#00d2e7"/><rect width="46.563" height="26.711" transform="translate(235.544 24.813)" fill="#efefef"/><rect width="11.907" height="8.417" transform="translate(237.704 33.456)" fill="#95db73"/><rect width="11.907" height="0.691" transform="translate(237.704 42.966)" fill="#758688"/><rect width="11.904" height="8.417" transform="translate(253.027 33.456)" fill="#ff7643"/><rect width="11.904" height="0.691" transform="translate(253.027 42.966)" fill="#758688"/><rect width="11.902" height="8.417" transform="translate(268.043 33.456)" fill="#00d2e7"/><rect width="11.902" height="0.691" transform="translate(268.043 42.966)" fill="#758688"/><rect width="46.566" height="6.858" transform="translate(235.541 24.813)" fill="#ffd059"/><rect width="43.512" height="1.266" transform="translate(237.072 44.795)" fill="#54666f"/><rect width="43.512" height="0.589" transform="translate(237.072 46.697)" fill="#758688"/><rect width="43.512" height="0.587" transform="translate(237.072 48.262)" fill="#758688"/><rect width="16.242" height="0.589" transform="translate(237.072 49.824)" fill="#758688"/><path d="M234.131,44.643H177.636l2.838-3.313h50.82Z" transform="translate(52.943 12.318)" fill="#ceced0"/><path d="M208.75,42.609H194.331l-2.125,1.183h18.671Z" transform="translate(57.286 12.699)" fill="#efefef"/><path d="M230.584,45.184h-49.4c-1.955,0-3.542-.06-3.542-1.3H234.13c0,1.242-1.586,1.3-3.546,1.3" transform="translate(52.943 13.079)" fill="#254048"/><g transform="translate(233.414 22.684)" opacity="0.3"><g clip-path="url(#ay)"><path d="M211.423,17.475l-17.845,30.97H179.82V19.609a2.131,2.131,0,0,1,2.127-2.134Z" transform="translate(-179.82 -17.475)" fill="#fff"/></g></g><g transform="translate(235.541 24.813)" opacity="0.2"><g clip-path="url(#az)"><path d="M182.168,19.826h45.857v-.71H181.459V45.827h.709Z" transform="translate(-181.459 -19.116)"/></g></g></g></g></g></g></g></svg>