<svg xmlns="http://www.w3.org/2000/svg" xmlns:xlink="http://www.w3.org/1999/xlink" width="365" height="184" viewBox="0 0 365 184"><defs><clipPath id="a"><rect width="310.478" height="149.884" fill="none"/></clipPath><clipPath id="c"><rect width="15.494" height="0.837" fill="none"/></clipPath><clipPath id="d"><rect width="0.535" height="5.938" fill="none"/></clipPath><clipPath id="e"><rect width="17.703" height="20.206" fill="none"/></clipPath><clipPath id="f"><rect width="12.981" height="23.283" fill="none"/></clipPath><clipPath id="g"><rect width="11.739" height="14.525" fill="none"/></clipPath><clipPath id="h"><rect width="11.666" height="14.061" fill="none"/></clipPath><clipPath id="i"><rect width="13.759" height="4.595" fill="none"/></clipPath><clipPath id="j"><rect width="39.768" height="10.622" fill="none"/></clipPath><clipPath id="k"><rect width="32.531" height="19.515" fill="none"/></clipPath><clipPath id="l"><rect width="20.592" height="34.295" fill="none"/></clipPath><clipPath id="m"><rect width="6.521" height="1.558" fill="none"/></clipPath><clipPath id="n"><rect width="19.105" height="41.878" fill="none"/></clipPath><clipPath id="o"><rect width="62.903" height="65.259" fill="none"/></clipPath><clipPath id="p"><rect width="9.805" height="23.222" fill="none"/></clipPath><clipPath id="q"><rect width="29.39" height="20.647" fill="none"/></clipPath><clipPath id="r"><rect width="35.35" height="12.662" fill="none"/></clipPath><clipPath id="s"><rect width="35.35" height="13.271" fill="none"/></clipPath></defs><g transform="translate(-877.511 -1292.023)"><rect width="365" height="184" rx="20" transform="translate(877.511 1292.023)" fill="#fff"/><g transform="translate(904.709 1309.081)"><g clip-path="url(#a)"><g transform="translate(0 0)"><g clip-path="url(#a)"><path d="M93.1,50.685V38.132a.554.554,0,0,0-.554-.555l-.266-.008-.006-3.114a8.746,8.746,0,1,0-2.218.018v3.1l-.285-.009a.557.557,0,0,0-.554.555l0,12.568a.584.584,0,0,0,.556.558l2.775-.008a.555.555,0,0,0,.554-.555m-9.357-24.81a7.318,7.318,0,1,1,7.319,7.318,7.33,7.33,0,0,1-7.319-7.318" transform="translate(22.27 4.643)" fill="#54666f"/><path d="M249.242,115.458H158.969v-2.01h88.265V101.619h2.009Z" transform="translate(42.988 27.479)" fill="#506275"/><path d="M245.759,104.6H218.07V94.331h2.01v8.255h23.67V94.331h2.009Z" transform="translate(58.97 25.508)" fill="#506275"/><path d="M101.459,115.458H9.838V101.619h2.009v11.829h89.613Z" transform="translate(2.66 27.479)" fill="#506275"/><path d="M27.688,104.6H0V94.331H2.009v8.255h23.67V94.331h2.009Z" transform="translate(0 25.508)" fill="#506275"/><path d="M145.211,48.44H103.187v-10.5H105.2v8.488H143.2V37.944h2.009Z" transform="translate(27.903 10.261)" fill="#506275"/><path d="M145.211,12.94H143.2V2.009H105.2v8.7h-2.009V0h42.024Z" transform="translate(27.903 0)" fill="#506275"/><path d="M84.681,107.8H66.414V49.121h8.577V14.974H67.419v-2.01H77V51.131H68.423v54.657H84.681Z" transform="translate(17.959 3.506)" fill="#506275"/><path d="M42.615,51.13H32.843V12.964H44.634v2.009H34.853V49.122h7.762Z" transform="translate(8.881 3.506)" fill="#506275"/><path d="M216.518,48.659h-9.581v-2.01h7.572V12.5h-7.572V10.492h9.581Z" transform="translate(55.959 2.837)" fill="#506275"/><path d="M176.2,108.466H159.411v-2.01h14.777v-57.8h-8.766V10.492h11.789V12.5h-9.781V46.649H176.2Z" transform="translate(43.107 2.837)" fill="#506275"/><rect width="2.009" height="17.792" transform="translate(151.089 57.977)" fill="#506275"/><path d="M202.519,98.97a12.2,12.2,0,0,0,3.339-1.033,10.979,10.979,0,0,0,.005-1.805,12.278,12.278,0,0,0-3.341-1.033,9.457,9.457,0,0,0-.4-1.242,9.31,9.31,0,0,0-.595-1.165,12.187,12.187,0,0,0,1.63-3.092,11,11,0,0,0-1.277-1.274,12.257,12.257,0,0,0-3.092,1.63,8.056,8.056,0,0,0-2.4-.995,12.287,12.287,0,0,0-1.033-3.341,11.238,11.238,0,0,0-1.8,0,12.423,12.423,0,0,0-1.039,3.34,9.626,9.626,0,0,0-1.237.4,9.144,9.144,0,0,0-1.165.6,12.355,12.355,0,0,0-3.092-1.63,10.985,10.985,0,0,0-1.274,1.276,12.232,12.232,0,0,0,1.629,3.092,8.643,8.643,0,0,0-.593,1.164,8.437,8.437,0,0,0-.4,1.242,12.26,12.26,0,0,0-3.342,1.032,11.254,11.254,0,0,0,0,1.8,12.252,12.252,0,0,0,3.339,1.035,8.909,8.909,0,0,0,.405,1.241,9.016,9.016,0,0,0,.591,1.164,12.377,12.377,0,0,0-1.626,3.093,11,11,0,0,0,1.274,1.277,12.236,12.236,0,0,0,3.092-1.631,8.974,8.974,0,0,0,1.165.595,8.884,8.884,0,0,0,1.237.4,12.3,12.3,0,0,0,1.037,3.34,11.108,11.108,0,0,0,1.8,0,12.43,12.43,0,0,0,1.038-3.339,8.411,8.411,0,0,0,2.4-.993,12.35,12.35,0,0,0,3.093,1.624,10.251,10.251,0,0,0,1.275-1.275,12.323,12.323,0,0,0-1.631-3.092,8.076,8.076,0,0,0,1-2.4M196.505,102a5.38,5.38,0,1,1,2.914-2.912A5.361,5.361,0,0,1,196.505,102" transform="translate(49.484 23.143)" fill="#506275"/><path d="M158.507,29.935l-6.017-3.468v1.965h-9.81V31.44h9.81v1.968Z" transform="translate(38.583 7.157)" fill="#506275"/><path d="M138.535,23.372l6.014-3.475v1.97h9.814v3.008h-9.814V26.84Z" transform="translate(37.462 5.381)" fill="#506275"/><path d="M53.9,95.542l-9.843,5.684V89.855Z" transform="translate(11.913 24.298)" fill="#506275"/><path d="M49.123,107.353A10.738,10.738,0,1,1,59.861,96.617a10.747,10.747,0,0,1-10.738,10.736m0-19.923a9.186,9.186,0,1,0,9.186,9.186,9.2,9.2,0,0,0-9.186-9.186" transform="translate(10.38 23.222)" fill="#506275"/><path d="M19.876,70.417a8.342,8.342,0,0,1-2.09-3.56H6.475a8.355,8.355,0,0,1-2.09,3.56Z" transform="translate(1.186 18.079)" fill="#758688"/><path d="M17.121,64.356H6.249a8,8,0,0,1-.219,3.177H17.342a8,8,0,0,1-.221-3.177" transform="translate(1.631 17.403)" fill="#a5a5a7"/><path d="M19.878,88.136a7.663,7.663,0,0,0-.728.837A8.458,8.458,0,0,0,17.787,91.7H6.475a8.484,8.484,0,0,0-1.363-2.723c-.107-.146-.222-.282-.343-.423s-.253-.277-.385-.414Z" transform="translate(1.186 23.833)" fill="#758688"/><path d="M17.119,94.117H6.246a7.979,7.979,0,0,0-.216-3.179H17.342a8.025,8.025,0,0,0-.222,3.179" transform="translate(1.631 24.591)" fill="#a5a5a7"/><g transform="translate(5.569 111.97)" opacity="0.2"><g clip-path="url(#c)"><path d="M19.878,88.136a7.663,7.663,0,0,0-.728.837H5.107c-.108-.146-.217-.282-.338-.423s-.253-.277-.385-.414Z" transform="translate(-4.383 -88.136)"/></g></g><rect width="1.25" height="5.938" transform="translate(23.706 97.168)" fill="#979c96"/><g transform="translate(23.719 97.168)" opacity="0.2"><g clip-path="url(#d)"><rect width="0.535" height="5.938" transform="translate(-0.001 0)"/></g></g><path d="M21.16,92.942H4.226A1.926,1.926,0,0,1,2.3,91.017V71.581a1.924,1.924,0,0,1,1.925-1.922H21.16a1.922,1.922,0,0,1,1.923,1.922V91.017a1.924,1.924,0,0,1-1.923,1.925" transform="translate(0.622 18.837)" fill="#3c4a4d"/><path d="M21.2,69.506H4.264a2.122,2.122,0,0,0-2.115,2.115V91.057a2.119,2.119,0,0,0,2.115,2.117H21.2a2.12,2.12,0,0,0,2.122-2.117V71.621A2.123,2.123,0,0,0,21.2,69.506m1.734,21.551A1.735,1.735,0,0,1,21.2,92.793H4.264a1.735,1.735,0,0,1-1.729-1.735V71.621a1.731,1.731,0,0,1,1.729-1.728H21.2a1.732,1.732,0,0,1,1.734,1.728Z" transform="translate(0.581 18.795)" fill="#ceced0"/><path d="M.3,0H17.4a.3.3,0,0,1,.3.3V19.9a.3.3,0,0,1-.3.3H.3a.3.3,0,0,1-.3-.3V.3A.3.3,0,0,1,.3,0Z" transform="translate(4.463 90.035)" fill="#00bdc7"/><g transform="translate(4.463 90.035)" opacity="0.3"><g clip-path="url(#e)"><path d="M4.283,71.254H21.217a.386.386,0,0,0-.385-.384H3.9a.386.386,0,0,0-.384.384V90.69a.387.387,0,0,0,.384.387V71.64a.387.387,0,0,1,.385-.386" transform="translate(-3.513 -70.871)"/></g></g><rect width="0.586" height="1.26" transform="translate(18.972 91.42)" fill="#e5e5e5"/><rect width="0.586" height="1.26" transform="translate(19.827 91.42)" fill="#e5e5e5"/><rect width="0.586" height="1.26" transform="translate(20.682 91.42)" fill="#e5e5e5"/><path d="M5.858,77.246v6.844l4.2-3.424Z" transform="translate(1.584 20.888)" fill="#e5e5e5"/><path d="M11.51,80.666l4.2,3.423V77.246Z" transform="translate(3.112 20.889)" fill="#e5e5e5"/><path d="M11.476,81.1l-1.183-.963L6.132,83.521H16.819l-4.161-3.388Z" transform="translate(1.658 21.669)" fill="#e5e5e5"/><path d="M10.445,80.589l.151.123.879.715.879-.715.151-.123.152-.125,4.161-3.386H6.132l4.161,3.386Z" transform="translate(1.658 20.843)" fill="#c7c7c8"/><path d="M17.553,77.559A2.254,2.254,0,1,1,15.3,75.305a2.253,2.253,0,0,1,2.254,2.254" transform="translate(3.527 20.364)" fill="#ff7643"/><path d="M15.258,78.008v-1.8H14.88a1.549,1.549,0,0,1-.549.2v.32h.417v1.278h-.483v.415h1.409v-.415Z" transform="translate(3.857 20.607)" fill="#efefef"/><path d="M9.143,71.855l-.071.071v.556l.071.072.071-.072v-.556Z" transform="translate(2.453 19.431)" fill="#e5e5e5"/><path d="M9.143,72.406l-.071.07v.558l.071.072.071-.072v-.558Z" transform="translate(2.453 19.58)" fill="#e5e5e5"/><path d="M9.629,71.855l-.072.071v.556l.072.072.069-.072v-.556Z" transform="translate(2.584 19.431)" fill="#e5e5e5"/><path d="M10.179,71.855l-.071.071v.556l.071.072.07-.072v-.556Z" transform="translate(2.733 19.431)" fill="#e5e5e5"/><path d="M9.629,72.406l-.072.07v.558l.072.072.069-.072v-.558Z" transform="translate(2.584 19.58)" fill="#e5e5e5"/><path d="M10.179,72.406l-.071.07v.558l.071.072.07-.072v-.558Z" transform="translate(2.733 19.58)" fill="#e5e5e5"/><path d="M9.614,71.87l.069.071h.558l.072-.071L10.24,71.8H9.682Z" transform="translate(2.6 19.416)" fill="#e5e5e5"/><path d="M9.614,72.972l.069.07h.558l.072-.07L10.24,72.9H9.682Z" transform="translate(2.6 19.713)" fill="#e5e5e5"/><path d="M10.814,71.855l-.07.071v.556l.07.072.069-.072v-.556Z" transform="translate(2.905 19.431)" fill="#e5e5e5"/><path d="M10.814,72.406l-.07.07v.558l.07.072.069-.072v-.558Z" transform="translate(2.905 19.58)" fill="#e5e5e5"/><path d="M11.3,71.855l-.071.071v.556l.071.072.071-.072v-.556Z" transform="translate(3.036 19.431)" fill="#e5e5e5"/><path d="M11.849,71.855l-.071.071v.556l.071.072.071-.072v-.556Z" transform="translate(3.185 19.431)" fill="#e5e5e5"/><path d="M11.3,72.406l-.071.07v.558l.071.072.071-.072v-.558Z" transform="translate(3.036 19.58)" fill="#e5e5e5"/><path d="M11.849,72.406l-.071.07v.558l.071.072.071-.072v-.558Z" transform="translate(3.185 19.58)" fill="#e5e5e5"/><path d="M11.283,71.87l.071.071h.556l.072-.071-.072-.071h-.556Z" transform="translate(3.051 19.416)" fill="#e5e5e5"/><path d="M11.283,72.972l.071.07h.556l.072-.07-.072-.071h-.556Z" transform="translate(3.051 19.713)" fill="#e5e5e5"/><rect width="0.122" height="0.122" transform="translate(13.254 91.652)" fill="#e5e5e5"/><rect width="0.122" height="0.123" transform="translate(13.254 92.195)" fill="#e5e5e5"/><path d="M10.645,84.938a.77.77,0,1,0,.769.771.772.772,0,0,0-.769-.771" transform="translate(2.67 22.969)" fill="#e5e5e5"/><path d="M8.826,84.938a.759.759,0,0,0-.723.526.673.673,0,0,0-.044.246.77.77,0,0,0,1.479.3.882.882,0,0,0,.06-.3.77.77,0,0,0-.771-.772m0,1.352a.58.58,0,0,1-.578-.579.417.417,0,0,1,.028-.164.566.566,0,0,1,.55-.414.579.579,0,0,1,.578.578.5.5,0,0,1-.06.246.568.568,0,0,1-.518.333" transform="translate(2.179 22.969)" fill="#e5e5e5"/><path d="M12.464,84.938a.771.771,0,1,0,.767.772.77.77,0,0,0-.767-.772m0,1.352a.579.579,0,1,1,.573-.579.58.58,0,0,1-.573.579" transform="translate(3.162 22.969)" fill="#e5e5e5"/><g transform="translate(2.923 88.495)" opacity="0.2"><g clip-path="url(#f)"><path d="M4.226,69.659A1.924,1.924,0,0,0,2.3,71.582V91.017a1.926,1.926,0,0,0,1.925,1.925H6.135l9.147-23.283Z" transform="translate(-2.301 -69.659)" fill="#fff"/></g></g><path d="M185.416,20.1l2.059,6.44.776-.588c.856-1.132,5.367-1.132,6.224,0l.775.588,2.059-6.44Z" transform="translate(50.139 5.435)" fill="#3c4a4d"/><path d="M194.758,20.887c3.67-.55,14.836,0,14.836,0s3.767,0,3.767,3.28-.263,7.352-1.706,9.061S199.4,36.5,196.819,34.75c-3.537-2.391-6.5-13.2-2.062-13.863" transform="translate(52.061 5.582)" fill="#00bdc7"/><g transform="translate(244.585 26.224)" opacity="0.3"><g clip-path="url(#g)"><path d="M194.758,20.887c-3.779.564-2.193,8.483.548,12.3l5.608-12.542a48.967,48.967,0,0,0-6.155.243" transform="translate(-192.524 -20.642)" fill="#fff"/><path d="M201.657,20.658l-6.13,13.71a4.65,4.65,0,0,0,.48.377,3.233,3.233,0,0,0,.973.418l6.469-14.47c-.582-.014-1.184-.028-1.793-.036" transform="translate(-191.712 -20.638)" fill="#fff"/></g></g><path d="M187.81,34.75c-2.579,1.747-13.389.183-14.832-1.522-1.118-1.324-1.528-4.068-1.657-6.762-.037-.781-.051-1.561-.051-2.3a2.911,2.911,0,0,1,.963-2.3,4.762,4.762,0,0,1,2.8-.983s11.167-.548,14.835,0c4.44.664,1.474,11.472-2.062,13.863" transform="translate(46.314 5.582)" fill="#00bdc7"/><g transform="translate(217.584 26.233)" opacity="0.3"><g clip-path="url(#h)"><path d="M175.037,20.872s-3.767,0-3.767,3.28.262,7.352,1.707,9.061a2.813,2.813,0,0,0,.952.63L179.8,20.7c-2.672.071-4.768.175-4.768.175" transform="translate(-171.27 -20.636)" fill="#fff"/><path d="M180.384,20.676,174.294,34.3c.465.146.985.282,1.54.41l6.285-14.062c-.583.006-1.165.017-1.734.027" transform="translate(-170.452 -20.649)" fill="#fff"/></g></g><path d="M218.981,22.122h-47.35c-1.062,0-1.062-2.32,0-2.32h47.35c1.061,0,1.061,2.32,0,2.32" transform="translate(46.196 5.355)" fill="#758688"/><path d="M171.983,20.361h46.464a3.013,3.013,0,0,1,.807.108,2.366,2.366,0,0,0-1.49-.464h-45.1a2.368,2.368,0,0,0-1.489.464,3.022,3.022,0,0,1,.808-.108" transform="translate(46.288 5.41)" fill="#bdbec2"/><g transform="translate(217.584 27.452)" opacity="0.3"><g clip-path="url(#i)"><path d="M185.028,23.424v.966A1.729,1.729,0,0,1,183.4,26.2H171.321c-.036-.781-.05-1.561-.05-2.3a2.907,2.907,0,0,1,.963-2.3H183.4a1.73,1.73,0,0,1,1.629,1.815" transform="translate(-171.27 -21.609)"/></g></g><rect width="7.978" height="3.94" transform="translate(216.518 27.451)" fill="#a5a5a7"/><path d="M181.314,21.609h-4.6v3.94h4.6a1.554,1.554,0,0,0,1.554-1.555v-.828a1.554,1.554,0,0,0-1.554-1.556" transform="translate(47.785 5.843)" fill="#ceced0"/><path d="M173.406,23.507a1.243,1.243,0,1,1-1.244-1.245,1.244,1.244,0,0,1,1.244,1.245" transform="translate(46.219 6.02)" fill="#3c4a4d"/><path d="M172.841,23.407a.778.778,0,1,1-.776-.777.776.776,0,0,1,.776.777" transform="translate(46.318 6.119)" fill="#69797a"/><path d="M172.058,23.168a.233.233,0,1,1-.233-.234.234.234,0,0,1,.233.234" transform="translate(46.401 6.202)" fill="#e5e5e5"/><rect width="4.045" height="0.311" transform="translate(225.326 28.179)" fill="#00d2e7"/><rect width="4.045" height="0.311" transform="translate(225.326 29.268)" fill="#00d2e7"/><rect width="4.045" height="0.309" transform="translate(225.326 30.355)" fill="#00d2e7"/><path d="M61.632,61.084a8.608,8.608,0,0,0-16.8-2.275,6.589,6.589,0,0,0-9.026,4.7,5.919,5.919,0,1,0-1.544,11.648v0H61.537a7.038,7.038,0,0,0,.1-14.075" transform="translate(7.681 14.284)" fill="#75dee4"/><g transform="translate(36.49 78.82)" opacity="0.2"><g clip-path="url(#j)"><path d="M67.5,62.043a7.036,7.036,0,0,1-6.529,9.67H33.7a5.921,5.921,0,0,1-4.976-2.82,5.924,5.924,0,0,0,5.451,3.771v0H61.449A7.03,7.03,0,0,0,67.5,62.043" transform="translate(-28.722 -62.042)" fill="#007c87"/></g></g><g transform="translate(36.083 67.104)" opacity="0.4"><g clip-path="url(#k)"><path d="M28.878,70.186a5.924,5.924,0,0,1,5.924-5.92,6,6,0,0,1,1.479.192,6.578,6.578,0,0,1,9.024-4.7,8.607,8.607,0,0,1,15.629-1.729,8.6,8.6,0,0,0-16.1.775,6.589,6.589,0,0,0-9.026,4.7,5.9,5.9,0,0,0-7.4,5.73,5.864,5.864,0,0,0,.883,3.1,5.929,5.929,0,0,1-.408-2.15" transform="translate(-28.402 -52.821)" fill="#fff"/></g></g><path d="M132.474,50.027H112.448a2.835,2.835,0,0,1-2.834-2.834V8.461a2.833,2.833,0,0,1,2.834-2.832h20.026a2.832,2.832,0,0,1,2.832,2.832V47.193a2.834,2.834,0,0,1-2.832,2.834" transform="translate(29.641 1.522)" fill="#254048"/><rect width="20.592" height="34.295" transform="translate(141.809 10.17)" fill="#00d2e7"/><rect width="20.592" height="34.295" transform="translate(141.809 10.17)" fill="#efefef"/><rect width="11.366" height="0.884" transform="translate(149.857 21.47)" fill="#758688"/><rect width="11.366" height="0.884" transform="translate(149.857 24.22)" fill="#758688"/><rect width="11.366" height="0.884" transform="translate(149.857 29.94)" fill="#758688"/><rect width="11.366" height="0.884" transform="translate(149.857 32.69)" fill="#758688"/><rect width="11.366" height="0.882" transform="translate(149.857 38.412)" fill="#758688"/><rect width="11.366" height="0.882" transform="translate(149.857 41.163)" fill="#758688"/><rect width="7.077" height="8.471" transform="translate(141.809 19.052)" fill="#95db73"/><rect width="7.077" height="8.47" transform="translate(141.809 27.524)" fill="#ff7643"/><rect width="7.08" height="8.472" transform="translate(141.809 35.992)" fill="#00d2e7"/><rect width="20.592" height="8.808" transform="translate(141.809 10.17)" fill="#ffd059"/><rect width="20.592" height="0.499" transform="translate(141.809 27.275)" fill="#dfe1e5"/><rect width="20.592" height="0.499" transform="translate(141.809 35.742)" fill="#dfe1e5"/><g transform="translate(141.809 10.17)" opacity="0.3"><g clip-path="url(#l)"><path d="M112.188,8.574V42.3h-.564V8.006h20.592v.568Z" transform="translate(-111.624 -8.005)"/></g></g><path d="M121.982,39.691h-3.12a1.441,1.441,0,1,1,0-2.833h3.12a1.44,1.44,0,1,1,0,2.833" transform="translate(31.682 9.967)" fill="#54666f"/><g transform="translate(148.842 46.825)" opacity="0.3"><g clip-path="url(#m)"><path d="M118.862,37.144h3.12a1.607,1.607,0,0,1,1.682,1.273c0-.046.017-.093.017-.142a1.58,1.58,0,0,0-1.7-1.417h-3.12a1.582,1.582,0,0,0-1.7,1.417.739.739,0,0,0,.022.142,1.6,1.6,0,0,1,1.681-1.273" transform="translate(-117.16 -36.858)"/></g></g><g transform="translate(139.255 7.15)" opacity="0.3"><g clip-path="url(#n)"><path d="M112.45,5.629a2.834,2.834,0,0,0-2.836,2.832V47.193a2.348,2.348,0,0,0,.036.314L128.72,5.629Z" transform="translate(-109.614 -5.628)" fill="#fff"/></g></g><path d="M181.077,63.649v60.994H79.91V63.649a4.245,4.245,0,0,1,4.23-4.265h92.7a4.243,4.243,0,0,1,4.233,4.265" transform="translate(21.609 16.058)" fill="#3c4a4d"/><rect width="92.705" height="56.77" transform="translate(105.749 79.691)" fill="#00d2e7"/><path d="M187.922,117.34H75.467l5.644-6.588H182.279Z" transform="translate(20.408 29.949)" fill="#ceced0"/><path d="M138.035,113.341H109.33l-4.236,2.355h37.176Z" transform="translate(28.419 30.649)" fill="#efefef"/><path d="M187.922,115.938c0,2.476-3.153,2.594-7.057,2.594H82.522c-3.9,0-7.055-.118-7.055-2.594Z" transform="translate(20.407 31.351)" fill="#254048"/><path d="M124.512,112.321A22.469,22.469,0,1,1,146.97,89.854a22.491,22.491,0,0,1-22.458,22.467m0-43.3a20.833,20.833,0,1,0,20.831,20.834A20.861,20.861,0,0,0,124.512,69.02" transform="translate(27.594 18.222)" fill="#007c87"/><path d="M123.247,78.026a43.183,43.183,0,0,1-8.422-.822,42.252,42.252,0,0,1-8.108-2.486l.634-1.511A40.807,40.807,0,0,0,123.2,76.392a41.553,41.553,0,0,0,8.134-.811,39.863,39.863,0,0,0,7.774-2.406l.152-.06h.174v.823l.313.751a42.622,42.622,0,0,1-16.5,3.336" transform="translate(28.858 19.772)" fill="#007c87"/><path d="M139.451,97.8h-.175l-.151-.058a40.305,40.305,0,0,0-7.789-2.4,41.022,41.022,0,0,0-23.975,2.371l-.63-1.507a42.9,42.9,0,0,1,16.486-3.317,43.2,43.2,0,0,1,8.446.85,41.651,41.651,0,0,1,8.1,2.5l-.311.742Z" transform="translate(28.861 25.117)" fill="#007c87"/><path d="M122.208,112.321c-5.553,0-11.645-11.756-11.645-22.467,0-9.866,6.526-22.47,11.645-22.47V69.02c-3.857,0-10.011,11.379-10.011,20.834,0,10.335,5.829,20.832,10.011,20.832Z" transform="translate(29.898 18.222)" fill="#007c87"/><path d="M119.729,112.321v-1.635c4.183,0,10-10.5,10-20.832,0-9.454-6.148-20.834-10-20.834V67.384c5.11,0,11.641,12.6,11.641,22.47,0,10.711-6.094,22.467-11.641,22.467" transform="translate(32.377 18.222)" fill="#007c87"/><rect width="1.629" height="43.293" transform="translate(151.287 86.43)" fill="#007c87"/><rect width="43.301" height="1.64" transform="translate(130.451 107.257)" fill="#007c87"/><g transform="translate(101.519 75.442)" opacity="0.3"><g clip-path="url(#o)"><path d="M142.813,59.383l-35.527,65.259H79.91V63.648a4.246,4.246,0,0,1,4.23-4.265Z" transform="translate(-79.91 -59.384)" fill="#fff"/></g></g><path d="M240.651,81.185a9.633,9.633,0,0,0-7.774-9.454,9.96,9.96,0,0,0-1.86-.179,9.626,9.626,0,0,0-7.93,15.093c0,.006.633.8.893,1.1,2.6,3.1,2.4,5.886,3.021,9.009h8.035c.62-3.123.419-5.909,3.012-9.009.264-.3.9-1.1.9-1.1a9.555,9.555,0,0,0,1.7-5.046c.006-.136.006-.277.006-.413" transform="translate(59.866 19.348)" fill="#ffba42"/><g transform="translate(282.351 91.65)" opacity="0.3"><g clip-path="url(#p)"><path d="M226.892,86.481c-.174-.374-.61-1.331-.6-1.326a10.259,10.259,0,0,1-.311-5.914,10.107,10.107,0,0,1,6.073-7.062c-.243-.02-.484-.037-.736-.037a9.066,9.066,0,0,0-7.468,14.21s.6.751.845,1.039c2.32,2.771,2.692,5.129,3.214,7.973.215-3.054.563-5.531-1.019-8.883" transform="translate(-222.251 -72.142)" fill="#fff"/></g></g><path d="M231.517,97.442h-3.6L226.192,96h7.048Z" transform="translate(61.166 25.959)" fill="#3c4a4d"/><path d="M233.345,92.326H226.3l-.492-.934h8.038Z" transform="translate(61.061 24.714)" fill="#a5a5a7"/><rect width="7.05" height="4.917" transform="translate(287.357 117.041)" fill="#ceced0"/><path d="M226.077,93.326c1.052-.257,2.6-.432,3.668-.584s2.63-.255,3.713-.277a.251.251,0,0,1,.252.246.248.248,0,0,1-.189.241,35.227,35.227,0,0,1-3.668.583c-1.066.138-2.627.252-3.708.282a.251.251,0,0,1-.255-.244.256.256,0,0,1,.188-.248" transform="translate(61.084 25.004)" fill="#a5a5a7"/><path d="M226.077,94.392c1.052-.26,2.6-.431,3.668-.581a35.852,35.852,0,0,1,3.713-.279.25.25,0,0,1,.252.244.253.253,0,0,1-.189.244,35.922,35.922,0,0,1-3.668.582c-1.066.136-2.627.25-3.708.279a.246.246,0,0,1-.255-.241.261.261,0,0,1,.188-.248" transform="translate(61.084 25.292)" fill="#a5a5a7"/><path d="M226.077,95.456c1.052-.258,2.6-.432,3.668-.583s2.63-.259,3.713-.277a.247.247,0,0,1,.062.487,35.924,35.924,0,0,1-3.668.584c-1.066.137-2.627.249-3.708.279a.248.248,0,0,1-.255-.243.258.258,0,0,1,.188-.248" transform="translate(61.084 25.58)" fill="#a5a5a7"/><path d="M229.229,71.466A1.232,1.232,0,0,1,228,70.234V65.809a1.229,1.229,0,1,1,2.458,0v4.425a1.23,1.23,0,0,1-1.229,1.232" transform="translate(61.654 17.463)" fill="#ffba42"/><path d="M222.136,74.4a1.236,1.236,0,0,1-.869-.361l-3.128-3.13a1.229,1.229,0,0,1,.87-2.1,1.232,1.232,0,0,1,.87.36l3.128,3.134a1.208,1.208,0,0,1,.361.868,1.232,1.232,0,0,1-1.232,1.228" transform="translate(58.89 18.608)" fill="#ffba42"/><path d="M214.773,81.494a1.23,1.23,0,0,1,0-2.461H219.2a1.23,1.23,0,1,1,0,2.461Z" transform="translate(57.746 21.372)" fill="#ffba42"/><path d="M219.009,92.384a1.238,1.238,0,0,1-1.232-1.232,1.2,1.2,0,0,1,.362-.866l3.128-3.132a1.221,1.221,0,0,1,1.74,0,1.227,1.227,0,0,1,0,1.738l-3.128,3.129a1.236,1.236,0,0,1-.87.363" transform="translate(58.89 23.469)" fill="#ffba42"/><path d="M240.117,92.384a1.22,1.22,0,0,1-.87-.363l-3.129-3.129a1.232,1.232,0,0,1-.362-.871,1.227,1.227,0,0,1,2.1-.866l3.13,3.132a1.211,1.211,0,0,1,.358.868,1.23,1.23,0,0,1-1.227,1.231" transform="translate(63.752 23.469)" fill="#ffba42"/><path d="M240.2,81.494a1.23,1.23,0,0,1,0-2.461h4.426a1.23,1.23,0,0,1,0,2.461Z" transform="translate(64.621 21.372)" fill="#ffba42"/><path d="M241.344,70.041a1.222,1.222,0,0,0-.362-.87,1.189,1.189,0,0,0-.869-.357,1.223,1.223,0,0,0-.873.357L236.117,72.3a1.228,1.228,0,1,0,1.737,1.737l3.128-3.125a1.207,1.207,0,0,0,.362-.87" transform="translate(63.753 18.608)" fill="#ffba42"/><path d="M217.9,75.052h-35.06a1.034,1.034,0,0,1-1.035-1.038V54.524a1.037,1.037,0,0,1,1.035-1.037H217.9a1.037,1.037,0,0,1,1.032,1.037V74.014a1.035,1.035,0,0,1-1.032,1.038" transform="translate(49.164 14.464)" fill="#ff7643"/><path d="M201.739,71.487a7.845,7.845,0,1,1,7.846-7.846,7.853,7.853,0,0,1-7.846,7.846m0-15.119a7.275,7.275,0,1,0,7.276,7.273,7.283,7.283,0,0,0-7.276-7.273" transform="translate(52.432 15.088)" fill="#d6542d"/><path d="M201.3,59.511a15.081,15.081,0,0,1-2.941-.287,14.757,14.757,0,0,1-2.83-.87l.222-.523a14.3,14.3,0,0,0,5.535,1.112,14.494,14.494,0,0,0,2.839-.285,14.018,14.018,0,0,0,2.715-.84l.053-.022h.06v.288l.111.259a14.887,14.887,0,0,1-2.824.874,15.157,15.157,0,0,1-2.94.293" transform="translate(52.873 15.629)" fill="#d6542d"/><path d="M206.954,66.414h-.061l-.051-.024a14.3,14.3,0,0,0-11.092-.006l-.221-.526a14.744,14.744,0,0,1,2.832-.869,14.852,14.852,0,0,1,5.876.005,14.733,14.733,0,0,1,2.827.873l-.109.262Z" transform="translate(52.874 17.495)" fill="#d6542d"/><path d="M200.934,71.487c-1.935,0-4.063-4.106-4.063-7.846,0-3.447,2.28-7.845,4.063-7.845v.572c-1.349,0-3.494,3.971-3.494,7.273,0,3.609,2.034,7.277,3.494,7.277Z" transform="translate(53.237 15.088)" fill="#d6542d"/><path d="M200.069,71.487v-.569c1.46,0,3.5-3.668,3.5-7.277,0-3.3-2.15-7.273-3.5-7.273V55.8c1.787,0,4.064,4.4,4.064,7.845,0,3.74-2.128,7.846-4.064,7.846" transform="translate(54.102 15.088)" fill="#d6542d"/><rect width="0.569" height="15.119" transform="translate(253.887 71.171)" fill="#d6542d"/><rect width="15.117" height="0.569" transform="translate(246.613 78.446)" fill="#d6542d"/><path d="M200.2,54.917a9.023,9.023,0,0,1,8.122,4.885,8.9,8.9,0,0,1,.967,3.2,9.237,9.237,0,0,1-7.3,10.011l-.128-.654a8.72,8.72,0,0,0,2.963-1.129,8.845,8.845,0,0,0,2.364-2.138,8.7,8.7,0,0,0,1.447-2.857A8.874,8.874,0,0,0,200.2,54.917" transform="translate(54.138 14.85)" fill="#d6542d"/><path d="M202.307,69.018l.551.709-.024.02-1.3-.353c-.446-.043-.893-.085-1.334-.136q.633-.215,1.268-.433l1.185-.639.028.011Z" transform="translate(54.138 18.439)" fill="#d6542d"/><path d="M202.148,72.881a8.958,8.958,0,0,1-3.245-.559A9.062,9.062,0,0,1,194.024,68a8.928,8.928,0,0,1-.964-3.2,9.135,9.135,0,0,1,1.7-6.391,9.282,9.282,0,0,1,2.456-2.325,9.052,9.052,0,0,1,3.144-1.293l.126.653a8.668,8.668,0,0,0-2.961,1.129,8.8,8.8,0,0,0-2.365,2.136,8.6,8.6,0,0,0-1.444,2.857,8.841,8.841,0,0,0,.534,6.319,8.975,8.975,0,0,0,4.689,4.359,9.04,9.04,0,0,0,3.214.635" transform="translate(52.191 14.817)" fill="#d6542d"/><path d="M198.664,55.263l-.554-.709.024-.019,1.3.349c.443.043.892.089,1.333.136-.423.145-.844.288-1.267.437l-1.185.633-.032-.006Z" transform="translate(53.572 14.747)" fill="#d6542d"/><rect width="1.18" height="2.072" transform="translate(233.458 82.77)" fill="#efefef"/><rect width="1.183" height="2.072" transform="translate(235.226 82.77)" fill="#efefef"/><rect width="1.179" height="2.072" transform="translate(236.997 82.77)" fill="#efefef"/><rect width="1.176" height="2.072" transform="translate(238.767 82.77)" fill="#efefef"/><rect width="1.184" height="2.072" transform="translate(242.013 82.77)" fill="#efefef"/><rect width="1.18" height="2.072" transform="translate(243.781 82.77)" fill="#efefef"/><rect width="1.178" height="2.072" transform="translate(245.556 82.77)" fill="#efefef"/><rect width="1.179" height="2.072" transform="translate(247.322 82.77)" fill="#efefef"/><rect width="1.179" height="2.072" transform="translate(250.572 82.77)" fill="#efefef"/><rect width="1.178" height="2.072" transform="translate(252.341 82.77)" fill="#efefef"/><rect width="1.178" height="2.072" transform="translate(254.111 82.77)" fill="#efefef"/><rect width="1.18" height="2.072" transform="translate(255.879 82.77)" fill="#efefef"/><rect width="1.176" height="2.072" transform="translate(259.128 82.77)" fill="#efefef"/><rect width="1.183" height="2.072" transform="translate(260.895 82.77)" fill="#efefef"/><rect width="1.181" height="2.072" transform="translate(262.665 82.77)" fill="#efefef"/><rect width="1.18" height="2.072" transform="translate(264.436 82.77)" fill="#efefef"/><path d="M190.224,62.029H185.69a.646.646,0,0,1-.645-.647v-4.53a.646.646,0,0,1,.645-.649h4.534a.647.647,0,0,1,.644.649v4.53a.646.646,0,0,1-.644.647" transform="translate(50.039 15.198)" fill="#ffba42"/><rect width="0.309" height="5.826" transform="translate(237.841 71.401)" fill="#3c4a4d"/><rect width="5.824" height="0.311" transform="translate(235.084 73.161)" fill="#3c4a4d"/><rect width="2.911" height="0.306" transform="translate(235.084 75.268)" fill="#3c4a4d"/><rect width="6.919" height="3.931" transform="translate(259.72 70.837)" fill="#efefef"/><g transform="translate(230.973 67.951)" opacity="0.2"><g clip-path="url(#q)"><path d="M211.2,53.487,181.818,74.134a.532.532,0,0,1-.01-.126V54.522a1.025,1.025,0,0,1,1.037-1.035Z" transform="translate(-181.809 -53.487)" fill="#fff"/></g></g><path d="M39.883,41.063,57.558,30.279,39.883,19.5Z" transform="translate(10.785 5.272)" fill="#ffb636"/><path d="M71.47,41.063,53.8,30.279,71.47,19.5Z" transform="translate(14.547 5.272)" fill="#ffb636"/><g transform="translate(50.668 33.673)" opacity="0.2"><g clip-path="url(#r)"><path d="M39.883,39.167,57.558,26.505,75.232,39.167Z" transform="translate(-39.883 -26.505)"/></g></g><path d="M39.883,39.115,57.558,26.7,75.232,39.115Z" transform="translate(10.785 7.22)" fill="#ffd059"/><g transform="translate(50.668 24.77)" opacity="0.2"><g clip-path="url(#s)"><path d="M39.883,19.5,57.558,32.768,75.232,19.5Z" transform="translate(-39.883 -19.498)"/></g></g><path d="M39.883,19.5,57.558,31.913,75.232,19.5Z" transform="translate(10.785 5.272)" fill="#ffd059"/></g></g></g></g></g></svg>