<svg id="Grupo_213439" data-name="Grupo 213439" xmlns="http://www.w3.org/2000/svg" xmlns:xlink="http://www.w3.org/1999/xlink" width="48.868" height="48.931" viewBox="0 0 48.868 48.931">
  <defs>
    <clipPath id="clip-path">
      <rect id="Rectángulo_68511" data-name="Rectángulo 68511" width="48.868" height="48.931" fill="#6d05f7"/>
    </clipPath>
  </defs>
  <g id="Grupo_213432" data-name="Grupo 213432" clip-path="url(#clip-path)">
    <path id="Trazado_225770" data-name="Trazado 225770" d="M37.448,49.485a1.537,1.537,0,0,0,.965-1.737c-.057-.433.082-.6.508-.654a9.393,9.393,0,0,0,2.666-.719.671.671,0,0,1,.815.2c.631.63,1.252,1.271,1.9,1.889a3.256,3.256,0,0,0,2.375,1.058,2.988,2.988,0,0,0,2.806-1.735,2.949,2.949,0,0,0-.292-3.245,16.179,16.179,0,0,0-2.055-2.128,1.246,1.246,0,0,1-.333-1.548,9.35,9.35,0,0,0-2.069-10.045A8.971,8.971,0,0,0,39.1,27.95a9.665,9.665,0,0,0-10.937,8.9c-.034.42-.164.531-.592.47q-1.183-.167-2.347-.441a2.159,2.159,0,0,1-1.409-1.926c-.123-1.392-.119-1.4,1.11-2.046A11.184,11.184,0,0,0,30.5,26.516a.832.832,0,0,1,.8-.611A3.472,3.472,0,0,0,33.784,20.5a1.254,1.254,0,0,1-.033-1.63A10.385,10.385,0,0,0,32.381,6.511,15.834,15.834,0,0,0,24.813,2a26.484,26.484,0,0,0-5.824-.991,15.737,15.737,0,0,0-4.842.222A12.05,12.05,0,0,0,4.911,10.09a11.873,11.873,0,0,0-.087,6.371A9.787,9.787,0,0,0,6.048,19.2c.351.559.35.565-.034,1.094a3.531,3.531,0,0,0,1.826,5.521,1.119,1.119,0,0,0,.372.083c.6-.032.863.313,1.059.831a11.131,11.131,0,0,0,6.061,6.42.906.906,0,0,1,.61.993,3.325,3.325,0,0,1-.715,2.267,1.8,1.8,0,0,1-1.074.557c-1.772.313-3.546.617-5.31.972A8.175,8.175,0,0,0,2.3,44.045c-.311,1.02-.595,2.049-.887,3.075-.358,1.253-.21,1.681.874,2.405.078.052.171.094.145.217H37.217c-.023-.175.125-.209.231-.258m10.479-4.124a1.619,1.619,0,0,1-2.277,2.293c-.7-.644-1.355-1.339-2.032-2.008-.107-.105-.157-.181,0-.293A10.234,10.234,0,0,0,45.749,43.2c.741.732,1.485,1.424,2.178,2.164m-10.177-16a8.144,8.144,0,1,1-8.1,8.113,8.126,8.126,0,0,1,8.1-8.113M31.4,24.384c-.141.029-.252.06-.224-.159a35.513,35.513,0,0,0,.108-3.759A1.979,1.979,0,0,1,32.9,22.4a2.078,2.078,0,0,1-1.5,1.981M6.81,22.375a1.919,1.919,0,0,1,1.613-1.9,36.1,36.1,0,0,0,.131,3.941,1.979,1.979,0,0,1-1.744-2.04m1.628-5.2c0,.382.01.765,0,1.147-.007.194.122.455-.235.517-.3.052-.534.113-.759-.224a7.788,7.788,0,0,1-1.326-3.284A11.114,11.114,0,0,1,7.471,7.782a10.624,10.624,0,0,1,9.277-5.344c.35-.01.7,0,1.051,0a22.486,22.486,0,0,1,10.015,2.41,10.762,10.762,0,0,1,5.34,5.853,8.611,8.611,0,0,1-1,7.922c-.177.277-.362.272-.635.22-.318-.061-.244-.28-.241-.472a4.165,4.165,0,0,0-.232-1.69,3.341,3.341,0,0,0-3.122-2.115,23.675,23.675,0,0,1-9.735-2.758,14.04,14.04,0,0,1-2.513-1.722.822.822,0,0,0-1.415.224,9.871,9.871,0,0,1-4.075,3.9,3.12,3.12,0,0,0-1.745,2.957m1.781,7.386a24.5,24.5,0,0,1-.151-4.01c0-1.283,0-2.334,0-3.385a1.586,1.586,0,0,1,.894-1.516,11.319,11.319,0,0,0,4.108-3.558c.128-.183.21-.209.4-.069a23.871,23.871,0,0,0,12.346,4.175,1.709,1.709,0,0,1,1.821,1.918c-.019,1.879.079,3.759-.059,5.636a9.778,9.778,0,0,1-19.362.81M17.4,34.424c-.012-.344.032-.455.43-.373a10.36,10.36,0,0,0,4.12-.01c.259-.051.372-.054.352.258a3.99,3.99,0,0,0,1.175,3.249c.2.2.012.276-.095.37A4.771,4.771,0,0,1,20.5,39.133c-.221.016-.445,0-.667,0a4.876,4.876,0,0,1-3.478-1.166c-.228-.187-.271-.3-.033-.543a3.9,3.9,0,0,0,1.081-3M36.948,47.948c-.034.262-.239.161-.372.162-1.322.008-2.644.013-3.965,0-.439,0-1.027.2-1.276-.091-.215-.249-.058-.82-.06-1.249a1.411,1.411,0,0,0-.082-.61.766.766,0,0,0-.847-.48.723.723,0,0,0-.685.683,8.854,8.854,0,0,0-.011,1.288c.026.372-.085.475-.466.473-3.121-.017-6.242-.009-9.364-.009-3.105,0-6.211-.006-9.316.008-.347,0-.468-.066-.448-.436.035-.635.017-1.274.007-1.91a.821.821,0,0,0-.816-.917c-.5,0-.8.336-.809.912-.007.669-.015,1.338,0,2.006.008.275-.082.345-.348.343-1.672-.011-3.344-.007-5.016,0-.236,0-.406,0-.3-.338.385-1.26.692-2.546,1.122-3.789a6.707,6.707,0,0,1,5.54-4.653q2.324-.414,4.643-.851a.7.7,0,0,1,.772.267A5.612,5.612,0,0,0,18.161,40.6a7.948,7.948,0,0,0,4.726-.42,5,5,0,0,0,1.98-1.455.653.653,0,0,1,.737-.242c.686.134,1.372.281,2.065.368.373.047.478.23.548.559a9.632,9.632,0,0,0,5.816,7.125,8.485,8.485,0,0,0,2.334.648.7.7,0,0,1,.581.766" transform="translate(-1.078 -0.811)" fill="#6d05f7"/>
    <path id="Trazado_225771" data-name="Trazado 225771" d="M37.331,47.974a2.191,2.191,0,0,0,.086-1.509,15.5,15.5,0,0,0,1.678-.291,8.4,8.4,0,0,0,1.571-.548c.225-.109.341-.025.489.125q1.04,1.055,2.095,2.094a3.261,3.261,0,1,0,4.609-4.611c-.681-.693-1.365-1.383-2.064-2.057a.461.461,0,0,1-.114-.614,9.766,9.766,0,1,0-18.709-4.479c-.021.371-.164.366-.434.314-.7-.135-1.4-.28-2.112-.379a1.677,1.677,0,0,1-1.177-.8,3.412,3.412,0,0,1-.407-2.021.657.657,0,0,1,.464-.735A11.175,11.175,0,0,0,29.552,25.7a.6.6,0,0,1,.6-.454,3.648,3.648,0,0,0,2.416-5.993.494.494,0,0,1-.043-.712,10.169,10.169,0,0,0,.581-10.4,12.979,12.979,0,0,0-6.747-6.119A25.535,25.535,0,0,0,15.616,0,11.666,11.666,0,0,0,9.94,1.424a12.289,12.289,0,0,0-6.66,10.448A10.271,10.271,0,0,0,5.07,18.743c.167.238.028.331-.089.475a3.537,3.537,0,0,0-.6,3.8,3.466,3.466,0,0,0,3.067,2.235.516.516,0,0,1,.516.42,11.286,11.286,0,0,0,5.715,6.545c1.137.578,1.143.566,1,1.855-.013.111-.026.222-.047.331A1.971,1.971,0,0,1,13.2,36c-1.642.3-3.282.613-4.928.884A8.291,8.291,0,0,0,1.5,42.094,41.788,41.788,0,0,0,.049,46.877a1.693,1.693,0,0,0,.937,1.868c.121.063.284.046.365.186.027-.122-.067-.165-.145-.217C.122,47.989-.026,47.561.332,46.309c.293-1.026.577-2.055.887-3.075a8.175,8.175,0,0,1,6.544-6.109c1.764-.355,3.538-.658,5.31-.972a1.8,1.8,0,0,0,1.074-.557,3.326,3.326,0,0,0,.715-2.267.906.906,0,0,0-.61-.993,11.131,11.131,0,0,1-6.061-6.42c-.2-.518-.458-.863-1.059-.831A1.122,1.122,0,0,1,6.763,25a3.531,3.531,0,0,1-1.826-5.521c.383-.529.385-.535.034-1.094A9.788,9.788,0,0,1,3.746,15.65a11.873,11.873,0,0,1,.087-6.371A12.05,12.05,0,0,1,13.069.421,15.733,15.733,0,0,1,17.911.2a26.477,26.477,0,0,1,5.824.991A15.833,15.833,0,0,1,31.3,5.7a10.385,10.385,0,0,1,1.369,12.356,1.254,1.254,0,0,0,.033,1.63,3.472,3.472,0,0,1-2.484,5.408.832.832,0,0,0-.8.611,11.184,11.184,0,0,1-5.574,6.388c-1.229.644-1.233.654-1.11,2.046a2.159,2.159,0,0,0,1.409,1.926q1.162.271,2.347.441c.428.061.558-.051.592-.47a9.665,9.665,0,0,1,10.937-8.9,8.971,8.971,0,0,1,5.631,2.873,9.35,9.35,0,0,1,2.069,10.045,1.246,1.246,0,0,0,.333,1.548,16.188,16.188,0,0,1,2.055,2.128,2.949,2.949,0,0,1,.292,3.245,2.988,2.988,0,0,1-2.806,1.735,3.257,3.257,0,0,1-2.375-1.058c-.643-.618-1.264-1.259-1.9-1.889a.672.672,0,0,0-.815-.2,9.392,9.392,0,0,1-2.666.719c-.426.055-.565.221-.508.654a1.537,1.537,0,0,1-.965,1.737c-.107.048-.254.083-.231.258a2.139,2.139,0,0,0,1.192-.957" transform="translate(0 0)" fill="#6d05f7"/>
  </g>
</svg>
