<svg id="Grupo_213444" data-name="Grupo 213444" xmlns="http://www.w3.org/2000/svg" xmlns:xlink="http://www.w3.org/1999/xlink" width="48.927" height="48.931" viewBox="0 0 48.927 48.931">
  <defs>
    <clipPath id="clip-path">
      <rect id="Rectángulo_68514" data-name="Rectángulo 68514" width="48.927" height="48.931" fill="#6d05f7"/>
    </clipPath>
  </defs>
  <g id="Grupo_213436" data-name="Grupo 213436" clip-path="url(#clip-path)">
    <path id="Trazado_225783" data-name="Trazado 225783" d="M36.332.189a18.938,18.938,0,0,1-9.238,3.2c-.411.043-.823.084-1.236.118a1.929,1.929,0,0,0-1.877,2.02c-.014,2.469-.063,4.939.012,7.405a19.422,19.422,0,0,0,1.774,7.435c.013.029.028.057.041.086.351.749.261.9-.551.9-1.672.005-3.344,0-5.017,0q-7.453,0-14.906,0a3.945,3.945,0,0,0-4.2,4.181q0,9.532,0,19.064a3.971,3.971,0,0,0,4.173,4.178q16.889.005,33.778,0a3.981,3.981,0,0,0,4.184-4.18q.016-8.362-.008-16.723a2.1,2.1,0,0,1,.65-1.6A20.221,20.221,0,0,0,49.61,14.539c.039-.3-.08-.687.31-.874v-8.7A2.528,2.528,0,0,0,47.436,3.3a21.145,21.145,0,0,1-7.2-1.669A9.365,9.365,0,0,1,38.3.522a4.616,4.616,0,0,0-1-.523h-.86c.011.093-.047.142-.114.19m5.437,44.556A2.447,2.447,0,0,1,39.163,47.3q-16.956,0-33.913,0a2.456,2.456,0,0,1-2.627-2.625q0-9.6,0-19.2a2.454,2.454,0,0,1,2.66-2.635q10.6,0,21.208-.009a.7.7,0,0,1,.675.376A20.447,20.447,0,0,0,36.019,30.8a2.113,2.113,0,0,0,1.844-.049,20.963,20.963,0,0,0,3.448-2.019c.125-.091.255-.175.436-.3.015.127.026.172.026.217q0,8.049,0,16.1M36.452,1.812a.611.611,0,0,1,.82-.013,18.4,18.4,0,0,0,8.592,2.983c.615.08,1.233.138,1.851.187.417.033.583.241.579.651-.01,1.226,0,2.452,0,3.068a35.253,35.253,0,0,1-.286,6.513A18.864,18.864,0,0,1,37.2,29.255a.711.711,0,0,1-.678-.013,18.851,18.851,0,0,1-10.782-14.02,18.35,18.35,0,0,1-.282-3.563c.009-1.99,0-3.98,0-5.97,0-.567.12-.678.691-.725a22.709,22.709,0,0,0,8.936-2.287,10,10,0,0,0,1.367-.867" transform="translate(-0.993 0.001)" fill="#6d05f7"/>
    <path id="Trazado_225784" data-name="Trazado 225784" d="M33.288,1.259a21.239,21.239,0,0,1-8.31,2.081,2.125,2.125,0,0,0-2.139,2.255c0,2.2-.007,4.4,0,6.594a20.238,20.238,0,0,0,1.938,8.533c.226.487.228.486-.3.486q-10.129,0-20.258,0A4.058,4.058,0,0,0,0,25.412Q0,35.064,0,44.716a4.069,4.069,0,0,0,4.218,4.211q16.985.006,33.97,0a4.547,4.547,0,0,0,1.18-.144,4.1,4.1,0,0,0,3.037-4.126q.008-8.505-.008-17.01a1.427,1.427,0,0,1,.464-1.114,20.384,20.384,0,0,0,5.707-10.788,15.025,15.025,0,0,1,.355-2.082c-.389.187-.27.577-.31.874a20.22,20.22,0,0,1-5.693,11.737,2.1,2.1,0,0,0-.65,1.6q.029,8.362.008,16.723a3.981,3.981,0,0,1-4.184,4.18q-16.889,0-33.778,0A3.971,3.971,0,0,1,.147,44.605q0-9.532,0-19.064a3.945,3.945,0,0,1,4.2-4.181q7.453,0,14.906,0c1.672,0,3.344,0,5.017,0,.812,0,.9-.156.551-.9-.014-.029-.028-.057-.041-.086A19.422,19.422,0,0,1,23,12.932c-.075-2.466-.026-4.937-.012-7.405a1.929,1.929,0,0,1,1.877-2.02c.413-.034.824-.075,1.236-.118A18.938,18.938,0,0,0,35.34.19c.067-.048.125-.1.114-.19a5.525,5.525,0,0,0-1.267.722,7.094,7.094,0,0,1-.9.537" transform="translate(-0.001)" fill="#6d05f7"/>
    <path id="Trazado_225785" data-name="Trazado 225785" d="M34.355,204.486c1.114.027,2.229.029,3.343,0a2.435,2.435,0,0,0,2.4-2.465c.008-.557.012-1.115,0-1.672a2.4,2.4,0,0,0-2.241-2.36c-.6-.039-1.209-.007-1.814-.007v0c-.6,0-1.211-.03-1.814.006a2.377,2.377,0,0,0-2.266,2.328c-.021.588-.018,1.178,0,1.767a2.415,2.415,0,0,0,2.4,2.408m-.769-4.039a.767.767,0,0,1,.828-.84q1.6-.024,3.2,0a.8.8,0,0,1,.856.872c.012.493.011.986,0,1.479a.829.829,0,0,1-.887.9c-.524.016-1.049,0-1.574,0-.493,0-.986.008-1.479,0a.832.832,0,0,1-.943-.935c-.007-.493-.011-.986,0-1.479" transform="translate(-27.864 -172.682)" fill="#6d05f7"/>
    <path id="Trazado_225786" data-name="Trazado 225786" d="M254.817,306.585c-.512-.009-.827.341-.83.943,0,.875-.022,1.751.008,2.625.013.381-.063.513-.479.5-1.128-.034-2.259-.014-3.389-.011-.652,0-1.015.293-1.023.807-.009.531.334.818.994.822.748,0,1.5,0,2.243,0,.78,0,1.559.006,2.339,0a.816.816,0,0,0,.931-.938q.008-1.909,0-3.819c0-.578-.3-.92-.794-.929" transform="translate(-217.29 -267.429)" fill="#6d05f7"/>
    <path id="Trazado_225787" data-name="Trazado 225787" d="M38.415,332.084c-.891-.005-1.782,0-2.672,0-.923,0-1.845,0-2.768,0-.595,0-.922.288-.93.787s.34.837.939.839q2.72.01,5.44,0c.593,0,.947-.337.932-.848-.014-.488-.352-.775-.941-.779" transform="translate(-27.952 -289.669)" fill="#6d05f7"/>
    <path id="Trazado_225788" data-name="Trazado 225788" d="M87.057,268.085q-1.548-.024-3.1,0a.817.817,0,1,0-.011,1.626c.508.014,1.016,0,1.524,0,.524,0,1.048.01,1.572,0a.816.816,0,1,0,.011-1.626" transform="translate(-72.455 -233.836)" fill="#6d05f7"/>
    <path id="Trazado_225789" data-name="Trazado 225789" d="M238.754,269.715h1.477c.032,0,.063,0,.1,0a.818.818,0,1,0,.006-1.628q-1.548-.023-3.1,0a.816.816,0,1,0-.006,1.627c.508.014,1.016,0,1.524,0" transform="translate(-206.161 -233.837)" fill="#6d05f7"/>
    <path id="Trazado_225790" data-name="Trazado 225790" d="M32.911,269.713c.524.016,1.048,0,1.572,0s1.048.012,1.572,0a.816.816,0,0,0,.869-.813.825.825,0,0,0-.88-.811q-1.571-.024-3.143,0a.814.814,0,1,0,.01,1.624" transform="translate(-27.951 -233.838)" fill="#6d05f7"/>
    <path id="Trazado_225791" data-name="Trazado 225791" d="M138.059,268.1c-.508-.015-1.016,0-1.524,0-.524,0-1.048-.012-1.572,0a.838.838,0,0,0-.894.8.822.822,0,0,0,.9.828q1.548.018,3.1,0a.786.786,0,0,0,.881-.791.807.807,0,0,0-.891-.836" transform="translate(-116.946 -233.854)" fill="#6d05f7"/>
    <path id="Trazado_225792" data-name="Trazado 225792" d="M189.242,268.09q-1.571-.024-3.144,0a.814.814,0,1,0,0,1.624c.523.016,1.048,0,1.572,0s1.048.012,1.572,0a.814.814,0,1,0,0-1.624" transform="translate(-161.573 -233.84)" fill="#6d05f7"/>
    <path id="Trazado_225793" data-name="Trazado 225793" d="M60.736,306.505q-1.141-.018-2.283,0a.8.8,0,0,0-.9.773.812.812,0,0,0,.875.854c.38.016.761,0,1.141,0,.4,0,.793.015,1.189,0a.808.808,0,0,0,.848-.831.793.793,0,0,0-.875-.793" transform="translate(-50.206 -267.353)" fill="#6d05f7"/>
    <path id="Trazado_225794" data-name="Trazado 225794" d="M205.922,32.339a1.693,1.693,0,0,0-1.657,1.886c0,.764,0,1.528,0,2.293,0,.557-.016,1.115,0,1.672a17.188,17.188,0,0,0,8.869,14.956,1.668,1.668,0,0,0,1.808.012,17.23,17.23,0,0,0,8.526-11.632,35.18,35.18,0,0,0,.355-7.614,1.52,1.52,0,0,0-1.3-1.5c-.622-.13-1.254-.206-1.877-.332a21.566,21.566,0,0,1-5.682-2,1.826,1.826,0,0,0-1.859.016c-.373.209-.769.376-1.161.55a21.553,21.553,0,0,1-6.029,1.7m7.765-.719a.678.678,0,0,1,.7-.021,22.9,22.9,0,0,0,7.457,2.339c.224.031.383.044.375.347a45.189,45.189,0,0,1-.183,5.958,15.581,15.581,0,0,1-7.717,11.4.459.459,0,0,1-.554-.015A15.593,15.593,0,0,1,205.9,38.276c-.022-.556,0-1.114,0-1.671h-.008c0-.748.009-1.5,0-2.244,0-.258.029-.381.342-.422a22.782,22.782,0,0,0,7.463-2.319" transform="translate(-178.171 -26.021)" fill="#6d05f7"/>
    <path id="Trazado_225795" data-name="Trazado 225795" d="M250.7,81.656c.8.013,1.591,0,2.386,0v0c.843,0,1.687.017,2.529,0a1.568,1.568,0,0,0,1.566-1.591q.02-2.482,0-4.964a1.489,1.489,0,0,0-1.167-1.5c-.4-.087-.517-.25-.459-.619a1.876,1.876,0,0,0,0-.334,2.441,2.441,0,0,0-4.8-.573,3.487,3.487,0,0,0-.072,1.089c.01.255-.068.33-.321.384a1.577,1.577,0,0,0-1.312,1.634q-.011,2.411,0,4.821a1.582,1.582,0,0,0,1.651,1.652m1.591-8.624c.056-.776.276-1.148.83-1.144s.811.378.81,1.157c0,.467,0,.467-.859.467-.252-.122-.839.326-.781-.48m-1.621,2.391c0-.236.078-.289.3-.288,1.432.009,2.865.013,4.3,0,.28,0,.3.117.3.339-.01.716,0,1.432,0,2.149,0,.684-.008,1.369,0,2.053,0,.243-.023.366-.322.362-1.416-.017-2.832-.013-4.249,0-.243,0-.326-.055-.324-.313q.019-2.148,0-4.3" transform="translate(-217.239 -61.281)" fill="#6d05f7"/>
    <path id="Trazado_225796" data-name="Trazado 225796" d="M275.371,122.919a.807.807,0,0,0,.855-.775.812.812,0,1,0-1.622-.036.8.8,0,0,0,.768.811" transform="translate(-239.533 -105.806)" fill="#6d05f7"/>
  </g>
</svg>
