<svg xmlns="http://www.w3.org/2000/svg" xmlns:xlink="http://www.w3.org/1999/xlink" width="48.933" height="48.931" viewBox="0 0 48.933 48.931"><defs><clipPath id="a"><rect width="48.933" height="48.931" fill="#b581fb"/></clipPath></defs><g transform="translate(-774.21 -1551)"><g transform="translate(774.21 1551)"><g clip-path="url(#a)"><path d="M35.8,29.946c-.089-.089-.189-.168-.295-.261l-.729.7-2.706-2.7c.072-.116.159-.254.244-.393A15.393,15.393,0,0,0,34.42,15.94a15.457,15.457,0,0,0-5.585-9.25,1.007,1.007,0,0,1-.434-.9c.03-1.117.018-2.235.008-3.353A2.351,2.351,0,0,0,25.98.006Q18.953,0,11.927.005A2.357,2.357,0,0,0,9.475,2.462c-.007,1.1-.022,2.2.009,3.3a1.045,1.045,0,0,1-.453.944,15.648,15.648,0,0,0-4.8,17.869c.353.911.817,1.779,1.209,2.623a7.9,7.9,0,0,0-1.136.71c-.579.508-1.111,1.073-1.646,1.63a2.341,2.341,0,0,0-.447,2.689c.381.837.242,1.169-.622,1.492a2.35,2.35,0,0,0-1.582,2.22C0,36.7,0,37.454.007,38.21a2.352,2.352,0,0,0,1.607,2.253c.835.31.981.66.611,1.461a2.339,2.339,0,0,0,.449,2.73q.787.817,1.6,1.6a2.338,2.338,0,0,0,2.73.451c.8-.368,1.152-.222,1.461.613a2.352,2.352,0,0,0,2.254,1.6q1.109.015,2.219,0a2.361,2.361,0,0,0,2.283-1.635c.292-.794.668-.95,1.433-.593a2.339,2.339,0,0,0,2.733-.425q.837-.8,1.638-1.639a2.342,2.342,0,0,0,.439-2.692c-.378-.833-.24-1.158.632-1.487a2.361,2.361,0,0,0,1.575-2.227c.009-.444-.008-.888,0-1.331a3.155,3.155,0,0,0-.666-2.585l4.755-2.138,2.6,2.612-.722.772c.142.117.251.193.344.285q5.04,5.036,10.078,10.075c.651.651,1.283,1.323,1.965,1.939a4.133,4.133,0,0,0,5.551-6.126Q41.7,35.833,35.8,29.946M11.06,2.365a.764.764,0,0,1,.785-.781c.114-.009.23,0,.345,0h13.5c.911,0,1.142.227,1.143,1.125,0,1.181,0,2.361,0,3.576H11.054c0-1.326-.011-2.621.005-3.916M26.811,12.6H11.092V7.928h15.72ZM11.053,14.225h15.78v1.708c0,.706.008,1.413,0,2.119a.793.793,0,0,1-.884.886q-7,.008-13.993,0c-.57,0-.89-.286-.9-.821-.014-1.28,0-2.559,0-3.892m.34,6.246a2.934,2.934,0,0,0,.587.046q6.95,0,13.9,0a2.372,2.372,0,0,0,2.531-2.527c0-1.462,0-2.924,0-4.387,0-.032.011-.064.039-.223.144.251.25.417.339.592a10.991,10.991,0,0,1-7.167,15.664.641.641,0,0,1-.726-.212c-.478-.519-.985-1.013-1.495-1.5a2.343,2.343,0,0,0-2.729-.45c-.8.368-1.155.219-1.462-.611a2.326,2.326,0,0,0-2.251-1.6c-.934,0-1.867.054-2.8.064a.486.486,0,0,1-.344-.193,10.733,10.733,0,0,1-1.876-7.137A9.355,9.355,0,0,1,9.474,13.5c0,1.538-.008,3.076,0,4.613a2.35,2.35,0,0,0,1.917,2.356m-6.419.99a14,14,0,0,1,4.195-12.8c.047-.046.094-.092.145-.133a1.108,1.108,0,0,1,.159-.075c0,.691.014,1.33-.01,1.968a.885.885,0,0,1-.216.469A12.5,12.5,0,0,0,8.5,26.012a1.372,1.372,0,0,1-.551,1.563c-.122.031-.348-.118-.443-.247a13.388,13.388,0,0,1-2.534-5.867M22.1,38.087a.888.888,0,0,1-.653.926A2.375,2.375,0,0,0,20,42.523a.885.885,0,0,1-.2,1.116q-.72.71-1.43,1.429a.884.884,0,0,1-1.12.17,2.369,2.369,0,0,0-3.477,1.438.908.908,0,0,1-.961.676c-.657-.013-1.315-.01-1.972,0a.887.887,0,0,1-.926-.652,2.375,2.375,0,0,0-3.508-1.45.883.883,0,0,1-1.115-.2q-.709-.72-1.429-1.43A.883.883,0,0,1,3.692,42.5a2.37,2.37,0,0,0-1.436-3.478.907.907,0,0,1-.676-.96c.013-.657.011-1.315,0-1.972a.886.886,0,0,1,.651-.927,2.38,2.38,0,0,0,1.451-3.51.862.862,0,0,1,.163-1.078c.5-.5.99-1.01,1.505-1.493a2.787,2.787,0,0,1,.572-.329c.23.092.414.157.59.239A2.387,2.387,0,0,0,9.878,27.6c.232-.639.411-.768,1.084-.769.625,0,1.249.007,1.874,0a.887.887,0,0,1,.928.65,2.378,2.378,0,0,0,3.509,1.453.885.885,0,0,1,1.116.2q.709.72,1.429,1.43a.884.884,0,0,1,.171,1.12,2.37,2.37,0,0,0,1.438,3.477.907.907,0,0,1,.676.96c-.013.657-.01,1.315,0,1.972m-.838-5.2c.158-.544.295-1.071.475-1.582.031-.089.248-.121.384-.162,4.941-1.453,8.089-4.65,9.174-9.7a12.068,12.068,0,0,0-2.523-10.368,1.479,1.479,0,0,1-.368-1.067c.028-.475.008-.953.011-1.43,0-.027.025-.054.056-.12a14.115,14.115,0,0,1-7.21,24.426m7.949-1.823,1.87-1.842,2.4,2.41-1.852,1.85-2.42-2.418M46.786,46.384a2.532,2.532,0,0,1-3.717.285c-.544-.5-1.053-1.039-1.576-1.562q-4.6-4.6-9.206-9.2a2.582,2.582,0,0,0-.342-.257L35.6,32c.032.029.131.112.222.2q5.335,5.333,10.667,10.669a2.55,2.55,0,0,1,.3,3.515" transform="translate(0.001 -0.001)" fill="#b581fb"/><rect width="1.537" height="1.563" transform="translate(40.256 8.69)" fill="#b581fb"/><rect width="1.564" height="1.537" transform="translate(38.678 10.267)" fill="#b581fb"/><rect width="1.537" height="1.564" transform="translate(37.127 8.69)" fill="#b581fb"/><path d="M337.006,13.793V12.256h-1.563v1.537Z" transform="translate(-291.241 -10.641)" fill="#b581fb"/><rect width="1.563" height="1.537" transform="translate(43.413 22.131)" fill="#b581fb"/><path d="M319.219,181.28v-1.564h-1.537v1.564h1.537Z" transform="translate(-275.821 -156.035)" fill="#b581fb"/><rect width="1.537" height="1.564" transform="translate(44.99 23.681)" fill="#b581fb"/><rect width="1.565" height="1.537" transform="translate(43.412 25.26)" fill="#b581fb"/><rect width="1.565" height="1.537" transform="translate(38.677 7.139)" fill="#b581fb"/><path d="M335.443,36v1.537h1.563V36Z" transform="translate(-291.241 -31.255)" fill="#b581fb"/><rect width="1.537" height="1.565" transform="translate(45.779 3.165)" fill="#b581fb"/><rect width="1.537" height="1.565" transform="translate(42.651 3.165)" fill="#b581fb"/><rect width="1.563" height="1.537" transform="translate(26.053 41.069)" fill="#b581fb"/><rect width="1.537" height="1.564" transform="translate(24.501 42.62)" fill="#b581fb"/><path d="M187.476,323.436h0Z" transform="translate(-161.438 -280.816)" fill="#b581fb"/><rect width="1.537" height="1.564" transform="translate(27.63 42.62)" fill="#b581fb"/><rect width="1.565" height="1.537" transform="translate(26.052 44.198)" fill="#b581fb"/><path d="M305.408,65.851v-.014l-.013.014Z" transform="translate(-265.152 -57.161)" fill="#b581fb"/><path d="M305.408,77.822v-.014h-.013Z" transform="translate(-265.152 -67.554)" fill="#b581fb"/><path d="M293.415,77.828h.014v-.013Z" transform="translate(-254.751 -67.561)" fill="#b581fb"/><path d="M305.394,77.822h.013l-.013-.014Z" transform="translate(-265.151 -67.554)" fill="#b581fb"/><path d="M293.415,65.836v.014h.014Z" transform="translate(-254.751 -57.161)" fill="#b581fb"/><path d="M293.415,77.815v.013l.014-.013Z" transform="translate(-254.751 -67.561)" fill="#b581fb"/><path d="M305.408,65.836h-.013v.014Z" transform="translate(-265.152 -57.161)" fill="#b581fb"/><path d="M293.428,65.836h-.014l.014.014Z" transform="translate(-254.751 -57.161)" fill="#b581fb"/><path d="M335.443,23.931v0Z" transform="translate(-291.241 -20.765)" fill="#b581fb"/><path d="M335.348,23.918h-.014l.014.013Z" transform="translate(-291.146 -20.766)" fill="#b581fb"/><path d="M347.319,23.918H347.3v.014Z" transform="translate(-301.539 -20.766)" fill="#b581fb"/><path d="M347.3,35.9v0Z" transform="translate(-301.539 -31.166)" fill="#b581fb"/><path d="M335.333,35.909h.014V35.9Z" transform="translate(-291.146 -31.166)" fill="#b581fb"/><path d="M347.3,35.91h.014L347.3,35.9Z" transform="translate(-301.539 -31.167)" fill="#b581fb"/><path d="M347.3,35.9Z" transform="translate(-301.539 -31.166)" fill="#b581fb"/><path d="M347.319,23.931v-.014l-.014.014Z" transform="translate(-301.539 -20.766)" fill="#b581fb"/><path d="M347.3,35.9l.014.013V35.9Z" transform="translate(-301.539 -31.166)" fill="#b581fb"/><path d="M335.443,24.02Z" transform="translate(-291.241 -20.855)" fill="#b581fb"/><path d="M335.348,23.932l-.014-.013v.013Z" transform="translate(-291.146 -20.767)" fill="#b581fb"/><path d="M341.33,179.614h-.014v.013Z" transform="translate(-296.34 -155.946)" fill="#b581fb"/><path d="M329.359,179.614h-.014l.014.013Z" transform="translate(-285.947 -155.946)" fill="#b581fb"/><path d="M329.358,191.585h0Z" transform="translate(-285.946 -166.34)" fill="#b581fb"/><path d="M329.345,179.614v.013h.014Z" transform="translate(-285.947 -155.946)" fill="#b581fb"/><path d="M329.345,191.585v.014l.013-.014Z" transform="translate(-285.947 -166.339)" fill="#b581fb"/><path d="M341.33,179.628v-.013l-.014.013Z" transform="translate(-296.34 -155.946)" fill="#b581fb"/><path d="M341.336,191.6v-.014h-.014Z" transform="translate(-296.346 -166.339)" fill="#b581fb"/><path d="M329.448,191.585Z" transform="translate(-286.036 -166.34)" fill="#b581fb"/><path d="M341.323,191.6h.014l-.014-.014Z" transform="translate(-296.347 -166.339)" fill="#b581fb"/><path d="M329.359,191.585l-.013.014h.013Z" transform="translate(-285.947 -166.339)" fill="#b581fb"/><path d="M197.616,323.436h0Z" transform="translate(-171.564 -280.816)" fill="#b581fb"/><path d="M197.617,323.333H197.6l.014.014Z" transform="translate(-171.564 -280.727)" fill="#b581fb"/><path d="M209.588,323.333h-.014v.014Z" transform="translate(-181.957 -280.727)" fill="#b581fb"/><path d="M197.6,323.333v.014h.014Z" transform="translate(-171.564 -280.727)" fill="#b581fb"/><path d="M197.6,335.3v.014l.014-.014Z" transform="translate(-171.564 -291.121)" fill="#b581fb"/><path d="M209.594,335.319V335.3h-.014Z" transform="translate(-181.964 -291.121)" fill="#b581fb"/><path d="M209.588,323.346v-.014l-.014.014Z" transform="translate(-181.957 -280.727)" fill="#b581fb"/><path d="M197.6,335.319h.014V335.3Z" transform="translate(-171.564 -291.121)" fill="#b581fb"/><path d="M209.581,335.319h.014l-.014-.014Z" transform="translate(-181.964 -291.121)" fill="#b581fb"/><path d="M43.131,227.576a7.1,7.1,0,1,0,7.045,7.132,7.113,7.113,0,0,0-7.045-7.132m-.06,12.623a5.522,5.522,0,1,1,5.526-5.519,5.541,5.541,0,0,1-5.526,5.519" transform="translate(-31.233 -197.588)" fill="#b581fb"/><path d="M336.192,335.391a.785.785,0,1,0,.793.777.79.79,0,0,0-.793-.777" transform="translate(-291.217 -291.196)" fill="#b581fb"/><rect width="1.523" height="1.514" transform="translate(17.389 9.508)" fill="#b581fb"/><rect width="1.5" height="1.534" transform="translate(20.559 9.504)" fill="#b581fb"/><rect width="1.509" height="1.534" transform="translate(23.717 9.506)" fill="#b581fb"/><rect width="1.506" height="1.532" transform="translate(12.671 15.82)" fill="#b581fb"/><rect width="1.512" height="1.52" transform="translate(18.981 15.817)" fill="#b581fb"/><rect width="1.517" height="1.516" transform="translate(15.827 15.82)" fill="#b581fb"/><rect width="1.535" height="1.514" transform="translate(12.651 3.186)" fill="#b581fb"/><rect width="1.512" height="1.52" transform="translate(18.972 3.183)" fill="#b581fb"/><rect width="1.521" height="1.517" transform="translate(15.811 3.196)" fill="#b581fb"/><path d="M64.509,263.462l-.817-1.016-1.145,1.028,2.005,2.008,5.193-5.194-1.023-1.052-4.214,4.226" transform="translate(-54.305 -225.076)" fill="#b581fb"/></g></g></g></svg>