<svg xmlns="http://www.w3.org/2000/svg" xmlns:xlink="http://www.w3.org/1999/xlink" width="505" height="391.213" viewBox="0 0 505 391.213"><defs><clipPath id="a"><rect width="505" height="391.213" fill="none"/></clipPath></defs><g clip-path="url(#a)"><path d="M238.034,302.983,67.875,204.742c-4.814-2.779-4.211-7.634,1.347-10.843l115.867-66.873c5.558-3.209,13.966-3.557,18.78-.778l170.159,98.241c4.814,2.779,4.21,7.634-1.348,10.843L256.814,302.2c-5.558,3.21-13.966,3.558-18.78.779" transform="translate(30.2 58.121)" fill="#efefef"/><path d="M367.965,105.619,197.806,7.378a6.865,6.865,0,0,0-5.767-.707l.01-.018-.308.116-.076.029-6.15,2.352,5.52,2.7c-.025.1-.057.2-.079.3L163.241,138.317c-1.388,6.314,1.39,13.684,6.2,16.463l166.066,95.879-.591,7.037,6.72-2.6c2.258-1.056,4.066-3.444,4.813-6.845l27.716-126.163c1.388-6.314-1.39-13.686-6.2-16.465" transform="translate(76.118 2.956)" fill="#173d7a"/><path d="M364.842,105.619,194.683,7.378a6.865,6.865,0,0,0-5.767-.707l.01-.018-.308.116-.076.029-6.15,2.352,5.52,2.7c-.025.1-.057.2-.079.3L169.567,95.3l83.255,64.866L370.216,112.4a13.2,13.2,0,0,0-5.375-6.78" transform="translate(79.241 2.956)" fill="#396caa"/><path d="M302.353,93.1l12.953-5.516c.238-5.015-1.84-10.2-5.249-12.97l-20.5,8.625Z" transform="translate(135.313 34.869)" fill="#274f89"/><path d="M332.383,256.273l-170.16-98.241c-4.813-2.779-7.59-10.151-6.2-16.465L183.735,15.4c1.387-6.314,6.414-9.18,11.228-6.4l170.159,98.243c4.814,2.779,7.592,10.149,6.2,16.463L343.61,249.873c-1.388,6.314-6.415,9.179-11.228,6.4" transform="translate(72.743 3.712)" fill="#d4ecff"/><path d="M326.466,243.941,166.435,151.593c-4.4-2.544-6.948-9.29-5.679-15.066l25.363-115.45c1.269-5.777,5.869-8.4,10.274-5.856l160.031,92.348c4.4,2.543,6.948,9.288,5.679,15.066L336.74,238.085c-1.269,5.777-5.869,8.4-10.274,5.856" transform="translate(74.971 6.659)" fill="#fff"/><path d="M326.466,243.941,166.435,151.593c-4.4-2.544-6.948-9.29-5.679-15.066l25.363-115.45c1.269-5.777,5.869-8.4,10.274-5.856l160.031,92.348c4.4,2.543,6.948,9.288,5.679,15.066L336.74,238.085c-1.269,5.777-5.869,8.4-10.274,5.856" transform="translate(74.971 6.659)" fill="#173d7a"/><path d="M377.272,209.284l-23.26-3.071L203.866,119.527c-4.813-2.781-13.221-2.431-18.779.778l-106.394,61.4L64.63,179.851v7.979l.013,0c-.091,1.843.958,3.617,3.23,4.929L238.033,291c4.813,2.779,13.22,2.431,18.779-.778l115.867-66.873c3.127-1.8,4.685-4.132,4.594-6.315Z" transform="translate(30.203 54.98)" fill="#173d7a"/><path d="M264.458,144.73l-10.667-6.158H136.511L78.694,171.93,64.63,170.072v7.981h.013c-.091,1.844.958,3.618,3.23,4.93l170.159,98.241a17.62,17.62,0,0,0,9.693,1.817Z" transform="translate(30.203 64.757)" fill="#396caa"/><path d="M70.871,160.865l-6.242-.825v7.981h.015c-.092,1.844.958,3.618,3.228,4.93l3,1.731Z" transform="translate(30.202 74.789)" fill="#5793ce"/><path d="M183.974,242.32c4.562,1.73,11.086,1.354,15.957-.99v-17.8H183.974Z" transform="translate(85.974 104.459)" fill="#274f89"/><path d="M238.034,287.246,67.875,189c-4.814-2.779-4.211-7.634,1.347-10.843l115.867-66.873c5.558-3.209,13.966-3.557,18.78-.778l170.159,98.241c4.814,2.779,4.21,7.633-1.348,10.843L256.814,286.467c-5.558,3.209-13.966,3.558-18.78.779" transform="translate(30.2 50.766)" fill="#d4ecff"/><path d="M372.677,193.054,256.81,259.927c-5.558,3.209-13.966,3.558-18.779.779L67.872,162.463a6.334,6.334,0,0,1-2.992-3.272c-.753,2.276.207,4.579,2.992,6.188l170.16,98.241c4.813,2.779,13.221,2.431,18.779-.778l115.867-66.873c3.736-2.157,5.222-5.056,4.34-7.57a9.043,9.043,0,0,1-4.34,4.654" transform="translate(30.204 74.392)" fill="#fff"/><path d="M118.747,144.881l-7.7-4.445c-.618-.358-.54-.982.173-1.392l9.087-5.247a2.682,2.682,0,0,1,2.412-.1l7.7,4.445c.618.357.54.98-.173,1.393l-9.087,5.247a2.682,2.682,0,0,1-2.412.1" transform="translate(51.7 62.366)" fill="#b9dff9"/><path d="M126.85,149.56l-7.7-4.445c-.618-.358-.54-.98.173-1.393l9.087-5.247a2.682,2.682,0,0,1,2.412-.1l7.7,4.445c.618.357.54.98-.173,1.392l-9.087,5.247a2.682,2.682,0,0,1-2.412.1" transform="translate(55.486 64.553)" fill="#b9dff9"/><path d="M134.953,154.238l-7.7-4.444c-.618-.358-.54-.98.173-1.393l9.087-5.247a2.682,2.682,0,0,1,2.412-.1l7.7,4.444c.618.357.54.98-.173,1.392l-9.087,5.247a2.682,2.682,0,0,1-2.412.1" transform="translate(59.273 66.739)" fill="#b9dff9"/><path d="M146.16,150.105l-7.7-4.445c-.618-.358-.54-.98.173-1.392l7.629-4.4a2.682,2.682,0,0,1,2.412-.1l7.7,4.445c.618.358.54.98-.173,1.392l-7.629,4.4a2.682,2.682,0,0,1-2.412.1" transform="translate(64.51 65.201)" fill="#b9dff9"/><path d="M154.263,154.784l-7.7-4.445c-.618-.358-.54-.982.173-1.392l7.629-4.4a2.682,2.682,0,0,1,2.412-.1l7.7,4.445c.618.358.54.98-.173,1.392l-7.629,4.4a2.682,2.682,0,0,1-2.412.1" transform="translate(68.297 67.388)" fill="#b9dff9"/><path d="M162.366,159.462l-7.7-4.444c-.618-.358-.541-.98.173-1.393l7.629-4.4a2.679,2.679,0,0,1,2.411-.1l7.7,4.444c.619.358.541.98-.173,1.392l-7.627,4.4a2.682,2.682,0,0,1-2.412.1" transform="translate(72.083 69.574)" fill="#b9dff9"/><path d="M170.469,164.14l-7.7-4.445c-.618-.358-.541-.98.173-1.392l7.629-4.4a2.682,2.682,0,0,1,2.412-.1l7.7,4.445c.619.358.541.98-.173,1.392l-7.627,4.4a2.682,2.682,0,0,1-2.412.1" transform="translate(75.87 71.76)" fill="#b9dff9"/><path d="M178.572,168.818l-7.7-4.444c-.618-.358-.54-.98.173-1.393l7.629-4.4a2.682,2.682,0,0,1,2.412-.1l7.7,4.445c.618.358.54.98-.173,1.392l-7.629,4.4a2.682,2.682,0,0,1-2.412.1" transform="translate(79.657 73.946)" fill="#b9dff9"/><path d="M186.675,173.5l-7.7-4.444c-.618-.358-.541-.98.173-1.393l7.629-4.4a2.682,2.682,0,0,1,2.412-.1l7.7,4.445c.618.358.54.98-.173,1.392l-7.629,4.4a2.682,2.682,0,0,1-2.412.1" transform="translate(83.443 76.133)" fill="#b9dff9"/><path d="M194.778,178.175l-7.7-4.444c-.618-.358-.541-.98.173-1.392l7.629-4.4a2.682,2.682,0,0,1,2.412-.1l7.7,4.444c.619.358.541.98-.173,1.392l-7.627,4.4a2.682,2.682,0,0,1-2.412.1" transform="translate(87.23 78.319)" fill="#b9dff9"/><path d="M202.881,182.853l-7.7-4.445c-.618-.358-.54-.982.173-1.392l7.629-4.4a2.682,2.682,0,0,1,2.412-.1l7.7,4.444c.619.357.541.98-.173,1.392l-7.627,4.4a2.682,2.682,0,0,1-2.412.1" transform="translate(91.017 80.505)" fill="#b9dff9"/><path d="M210.984,187.531l-7.7-4.444c-.618-.357-.54-.98.173-1.392l7.629-4.4a2.682,2.682,0,0,1,2.412-.1l7.7,4.444c.618.358.54.982-.173,1.393l-7.629,4.4a2.682,2.682,0,0,1-2.412.1" transform="translate(94.803 82.691)" fill="#b9dff9"/><path d="M219.087,192.21l-7.7-4.444c-.618-.358-.541-.98.173-1.392l7.629-4.4a2.682,2.682,0,0,1,2.412-.1l7.7,4.444c.618.358.54.98-.173,1.392l-7.629,4.4a2.682,2.682,0,0,1-2.412.1" transform="translate(98.59 84.877)" fill="#b9dff9"/><path d="M158.1,147.89l-7.7-4.445c-.618-.358-.54-.98.173-1.392l7.629-4.4a2.682,2.682,0,0,1,2.412-.1l7.7,4.445c.619.358.541.982-.173,1.392l-7.627,4.4a2.682,2.682,0,0,1-2.412.1" transform="translate(70.089 64.166)" fill="#b9dff9"/><path d="M149.875,143.142l-7.7-4.445c-.618-.358-.54-.98.173-1.392l7.629-4.4a2.682,2.682,0,0,1,2.412-.1l7.7,4.444c.618.358.54.98-.173,1.393l-7.629,4.4a2.682,2.682,0,0,1-2.412.1" transform="translate(66.246 61.947)" fill="#b9dff9"/><path d="M144.467,140.021l-16.582-9.574c-.618-.357-.54-.98.173-1.391l7.629-4.4a2.682,2.682,0,0,1,2.412-.1l16.582,9.573c.618.358.54.98-.175,1.393l-7.627,4.4a2.682,2.682,0,0,1-2.412.1" transform="translate(59.568 58.092)" fill="#b9dff9"/><path d="M149.23,133.662l-13.457-7.769c-.618-.357-.54-.98.173-1.392l7.629-4.4a2.682,2.682,0,0,1,2.412-.1l13.457,7.769c.618.358.54.98-.173,1.393l-7.629,4.4a2.682,2.682,0,0,1-2.412.1" transform="translate(63.254 55.963)" fill="#b9dff9"/><path d="M166.2,152.569l-7.7-4.445c-.618-.358-.54-.98.173-1.392l7.629-4.4a2.682,2.682,0,0,1,2.412-.1l7.7,4.444c.618.358.54.98-.173,1.392l-7.629,4.4a2.682,2.682,0,0,1-2.412.1" transform="translate(73.876 66.353)" fill="#b9dff9"/><path d="M174.3,157.247l-7.7-4.444c-.618-.358-.54-.98.173-1.392l7.629-4.4a2.682,2.682,0,0,1,2.412-.1l7.7,4.445c.618.358.54.98-.173,1.392l-7.629,4.4a2.682,2.682,0,0,1-2.412.1" transform="translate(77.663 68.539)" fill="#b9dff9"/><path d="M182.408,161.925l-7.7-4.444c-.618-.358-.54-.98.173-1.392l7.629-4.4a2.682,2.682,0,0,1,2.412-.1l7.7,4.444c.619.358.541.98-.173,1.393l-7.627,4.4a2.682,2.682,0,0,1-2.412.1" transform="translate(81.449 70.725)" fill="#b9dff9"/><path d="M190.511,166.6l-7.7-4.444c-.618-.358-.54-.982.173-1.393l7.629-4.4a2.682,2.682,0,0,1,2.412-.1l7.7,4.444c.618.358.54.98-.175,1.392l-7.627,4.4a2.682,2.682,0,0,1-2.412.1" transform="translate(85.236 72.911)" fill="#b9dff9"/><path d="M198.614,171.282l-7.7-4.445c-.618-.358-.54-.98.173-1.392l7.629-4.4a2.682,2.682,0,0,1,2.412-.1l7.7,4.445c.618.358.54.98-.173,1.392l-7.629,4.4a2.682,2.682,0,0,1-2.412.1" transform="translate(89.023 75.097)" fill="#b9dff9"/><path d="M206.717,175.96l-7.7-4.444c-.618-.358-.54-.98.173-1.392l7.629-4.4a2.682,2.682,0,0,1,2.412-.1l7.7,4.444c.618.358.54.98-.173,1.392l-7.629,4.4a2.682,2.682,0,0,1-2.412.1" transform="translate(92.809 77.284)" fill="#b9dff9"/><path d="M214.82,180.638l-7.7-4.445c-.618-.358-.54-.98.173-1.393l7.629-4.4a2.682,2.682,0,0,1,2.412-.1l7.7,4.444c.618.358.54.98-.175,1.393l-7.627,4.4a2.682,2.682,0,0,1-2.412.1" transform="translate(96.596 79.47)" fill="#b9dff9"/><path d="M222.923,185.317l-7.7-4.445c-.618-.358-.541-.98.173-1.392l7.629-4.4a2.682,2.682,0,0,1,2.412-.1l7.7,4.444c.619.358.541.98-.173,1.393l-7.627,4.4a2.682,2.682,0,0,1-2.412.1" transform="translate(100.382 81.656)" fill="#b9dff9"/><path d="M231.026,190l-7.7-4.445c-.618-.358-.54-.98.173-1.392l7.629-4.4a2.682,2.682,0,0,1,2.412-.1l7.7,4.444c.618.358.54.98-.173,1.392l-7.629,4.4a2.682,2.682,0,0,1-2.412.1" transform="translate(104.169 83.842)" fill="#b9dff9"/><path d="M248.329,199.986l-16.8-9.7c-.618-.357-.54-.98.173-1.392l7.629-4.4a2.682,2.682,0,0,1,2.412-.1l16.8,9.7c.618.358.54.98-.173,1.392l-7.629,4.4a2.682,2.682,0,0,1-2.412.1" transform="translate(108.003 86.056)" fill="#b9dff9"/><path d="M263.271,190.4l-14.179-8.186c-.618-.357-.541-.98.173-1.392l7.629-4.4a2.686,2.686,0,0,1,2.412-.1l14.179,8.186c.618.357.54.98-.173,1.392l-7.629,4.4a2.682,2.682,0,0,1-2.412.1" transform="translate(116.209 82.281)" fill="#b9dff9"/><path d="M180.392,151.653l-7.7-4.444c-.618-.358-.54-.98.173-1.393l7.629-4.4a2.682,2.682,0,0,1,2.412-.1l7.7,4.445c.619.358.541.98-.173,1.392l-7.627,4.4a2.682,2.682,0,0,1-2.412.1" transform="translate(80.507 65.925)" fill="#b9dff9"/><path d="M172.088,146.859l-7.7-4.444c-.618-.358-.54-.98.173-1.392l7.629-4.4a2.682,2.682,0,0,1,2.412-.1l7.7,4.445c.616.358.538.98-.175,1.392l-7.629,4.4a2.679,2.679,0,0,1-2.411.1" transform="translate(76.626 63.684)" fill="#b9dff9"/><path d="M163.783,142.064l-7.7-4.445c-.618-.358-.54-.98.173-1.392l7.629-4.4a2.682,2.682,0,0,1,2.412-.1l7.7,4.445c.618.358.54.98-.173,1.392l-7.629,4.4a2.682,2.682,0,0,1-2.412.1" transform="translate(72.746 61.443)" fill="#b9dff9"/><path d="M155.478,137.27l-7.7-4.444c-.618-.358-.54-.98.173-1.392l7.629-4.4a2.682,2.682,0,0,1,2.412-.1l7.7,4.445c.618.358.54.98-.175,1.392l-7.627,4.4a2.682,2.682,0,0,1-2.412.1" transform="translate(68.864 59.203)" fill="#b9dff9"/><path d="M188.495,156.332l-7.7-4.445c-.618-.358-.54-.98.173-1.392l7.629-4.4a2.682,2.682,0,0,1,2.412-.1l7.7,4.444c.618.358.54.98-.175,1.392l-7.627,4.4a2.682,2.682,0,0,1-2.412.1" transform="translate(84.294 68.111)" fill="#b9dff9"/><path d="M196.6,161.01l-7.7-4.445c-.618-.358-.54-.982.173-1.392l7.629-4.4a2.682,2.682,0,0,1,2.412-.1l7.7,4.445c.618.357.54.98-.173,1.392l-7.629,4.4a2.682,2.682,0,0,1-2.412.1" transform="translate(88.08 70.297)" fill="#b9dff9"/><path d="M204.7,165.688l-7.7-4.444c-.618-.358-.54-.98.173-1.392l7.629-4.4a2.682,2.682,0,0,1,2.412-.1l7.7,4.444c.618.358.54.98-.173,1.392l-7.629,4.4a2.682,2.682,0,0,1-2.412.1" transform="translate(91.867 72.483)" fill="#b9dff9"/><path d="M212.8,170.366l-7.7-4.445c-.618-.358-.54-.98.173-1.392l7.629-4.4a2.682,2.682,0,0,1,2.412-.1l7.7,4.445c.618.358.54.98-.175,1.392l-7.627,4.4a2.682,2.682,0,0,1-2.412.1" transform="translate(95.654 74.669)" fill="#b9dff9"/><path d="M220.907,175.045l-7.7-4.445c-.618-.358-.541-.98.173-1.392l7.629-4.4a2.682,2.682,0,0,1,2.412-.1l7.7,4.445c.619.358.541.98-.173,1.392l-7.627,4.4a2.682,2.682,0,0,1-2.412.1" transform="translate(99.44 76.856)" fill="#b9dff9"/><path d="M229.01,179.723l-7.7-4.444c-.618-.358-.54-.982.173-1.393l7.629-4.4a2.682,2.682,0,0,1,2.412-.1l7.7,4.445c.618.358.54.98-.173,1.393l-7.629,4.4a2.682,2.682,0,0,1-2.412.1" transform="translate(103.227 79.042)" fill="#b9dff9"/><path d="M237.113,184.4l-7.7-4.445c-.618-.358-.54-.98.173-1.392l7.629-4.4a2.682,2.682,0,0,1,2.412-.1l7.7,4.444c.618.358.54.98-.173,1.392l-7.629,4.4a2.682,2.682,0,0,1-2.412.1" transform="translate(107.014 81.228)" fill="#b9dff9"/><path d="M245.216,189.079l-7.7-4.445c-.618-.358-.541-.98.173-1.392l7.629-4.4a2.682,2.682,0,0,1,2.412-.1l7.7,4.445c.618.358.54.98-.175,1.392l-7.627,4.4a2.682,2.682,0,0,1-2.412.1" transform="translate(110.8 83.414)" fill="#b9dff9"/><path d="M253.319,193.758l-7.7-4.445c-.618-.358-.541-.98.173-1.392l7.629-4.4a2.682,2.682,0,0,1,2.412-.1l7.7,4.445c.619.358.541.98-.173,1.392l-7.627,4.4a2.682,2.682,0,0,1-2.412.1" transform="translate(114.587 85.601)" fill="#b9dff9"/><path d="M176.125,140.082l-7.7-4.445c-.618-.358-.541-.98.173-1.392l7.629-4.4a2.682,2.682,0,0,1,2.412-.1l7.7,4.444c.619.358.541.98-.173,1.392l-7.627,4.4a2.682,2.682,0,0,1-2.412.1" transform="translate(78.513 60.517)" fill="#b9dff9"/><path d="M168.063,135.427l-7.7-4.445c-.618-.358-.541-.98.173-1.392l7.629-4.4a2.679,2.679,0,0,1,2.411-.1l7.7,4.445c.618.358.54.98-.173,1.392l-7.629,4.4a2.682,2.682,0,0,1-2.412.1" transform="translate(74.745 58.342)" fill="#b9dff9"/><path d="M160,130.772l-7.7-4.444c-.618-.358-.54-.98.173-1.392l7.629-4.4a2.682,2.682,0,0,1,2.412-.1l7.7,4.445c.618.358.54.98-.173,1.392l-7.629,4.4a2.682,2.682,0,0,1-2.412.1" transform="translate(70.978 56.167)" fill="#b9dff9"/><path d="M151.937,126.117l-7.7-4.444c-.618-.358-.541-.98.173-1.392l7.629-4.4a2.682,2.682,0,0,1,2.412-.1l7.7,4.444c.619.358.541.98-.173,1.393l-7.627,4.4a2.682,2.682,0,0,1-2.412.1" transform="translate(67.21 53.991)" fill="#b9dff9"/><path d="M160.228,120.391l-7.7-4.444c-.618-.358-.54-.98.173-1.392l2.522-1.457a2.684,2.684,0,0,1,2.411-.1l7.7,4.446c.619.357.541.98-.173,1.392l-2.521,1.456a2.682,2.682,0,0,1-2.412.1" transform="translate(71.084 52.693)" fill="#b9dff9"/><path d="M170.75,126.467l-7.7-4.445c-.618-.358-.54-.982.173-1.393l2.522-1.457a2.679,2.679,0,0,1,2.411-.1l7.7,4.446c.619.357.541.98-.173,1.392l-2.521,1.456a2.682,2.682,0,0,1-2.412.1" transform="translate(76.001 55.532)" fill="#b9dff9"/><path d="M178.779,131.1l-7.7-4.445c-.618-.358-.541-.98.173-1.392l2.522-1.457a2.684,2.684,0,0,1,2.411-.1l7.7,4.446c.618.357.541.98-.173,1.392L181.191,131a2.682,2.682,0,0,1-2.412.1" transform="translate(79.753 57.699)" fill="#b9dff9"/><path d="M186.808,135.737l-7.7-4.445c-.618-.358-.54-.98.173-1.392l2.522-1.457a2.683,2.683,0,0,1,2.411-.1l7.7,4.446c.619.357.541.98-.173,1.393l-2.521,1.456a2.682,2.682,0,0,1-2.412.1" transform="translate(83.505 59.865)" fill="#b9dff9"/><path d="M194.837,140.373l-7.7-4.445c-.618-.358-.54-.98.173-1.392l2.522-1.457a2.683,2.683,0,0,1,2.411-.1l7.7,4.446c.619.357.541.98-.173,1.392l-2.521,1.456a2.682,2.682,0,0,1-2.412.1" transform="translate(87.258 62.031)" fill="#b9dff9"/><path d="M239.662,166.254l-7.7-4.444c-.618-.358-.54-.982.173-1.393l2.522-1.457a2.679,2.679,0,0,1,2.411-.1l7.7,4.446c.619.357.541.98-.173,1.392l-2.521,1.456a2.682,2.682,0,0,1-2.412.1" transform="translate(108.205 74.125)" fill="#b9dff9"/><path d="M247.691,170.888l-7.7-4.445c-.618-.358-.54-.98.173-1.392l2.522-1.457a2.684,2.684,0,0,1,2.411-.1l7.7,4.446c.619.357.541.98-.173,1.393l-2.521,1.456a2.682,2.682,0,0,1-2.412.1" transform="translate(111.957 76.291)" fill="#b9dff9"/><path d="M255.72,175.524l-7.7-4.445c-.618-.358-.541-.98.173-1.392l2.522-1.456a2.679,2.679,0,0,1,2.411-.1l7.7,4.446c.619.357.541.98-.173,1.393l-2.521,1.456a2.682,2.682,0,0,1-2.412.1" transform="translate(115.709 78.458)" fill="#b9dff9"/><path d="M263.749,180.159l-7.7-4.444c-.618-.358-.54-.98.173-1.392l2.522-1.457a2.684,2.684,0,0,1,2.411-.1l7.7,4.446c.619.357.541.98-.173,1.393l-2.521,1.456a2.682,2.682,0,0,1-2.412.1" transform="translate(119.461 80.624)" fill="#b9dff9"/><path d="M184.228,144.76l-7.7-4.445c-.618-.358-.54-.98.173-1.392l7.629-4.4a2.682,2.682,0,0,1,2.412-.1l7.7,4.445c.618.358.54.98-.173,1.392l-7.629,4.4a2.682,2.682,0,0,1-2.412.1" transform="translate(82.3 62.703)" fill="#b9dff9"/><path d="M192.331,149.439l-7.7-4.445c-.618-.358-.541-.98.173-1.392l7.629-4.4a2.682,2.682,0,0,1,2.412-.1l7.7,4.444c.618.358.54.98-.173,1.392l-7.629,4.4a2.682,2.682,0,0,1-2.412.1" transform="translate(86.086 64.89)" fill="#b9dff9"/><path d="M200.434,154.117l-7.7-4.444c-.618-.358-.541-.98.173-1.393l7.629-4.4a2.682,2.682,0,0,1,2.412-.1l7.7,4.444c.618.358.54.98-.175,1.393l-7.627,4.4a2.682,2.682,0,0,1-2.412.1" transform="translate(89.873 67.076)" fill="#b9dff9"/><path d="M208.537,158.8l-7.7-4.444c-.618-.358-.54-.98.173-1.392l7.629-4.4a2.682,2.682,0,0,1,2.412-.1l7.7,4.445c.619.358.541.98-.173,1.392l-7.627,4.4a2.682,2.682,0,0,1-2.412.1" transform="translate(93.66 69.262)" fill="#b9dff9"/><path d="M216.64,163.473l-7.7-4.444c-.618-.358-.54-.98.173-1.393l7.629-4.4a2.682,2.682,0,0,1,2.412-.1l7.7,4.445c.618.358.54.98-.173,1.392l-7.629,4.4a2.682,2.682,0,0,1-2.412.1" transform="translate(97.446 71.448)" fill="#b9dff9"/><path d="M224.743,168.152l-7.7-4.444c-.618-.358-.541-.98.173-1.392l7.629-4.4a2.682,2.682,0,0,1,2.412-.1l7.7,4.444c.618.358.54.98-.173,1.392l-7.629,4.4a2.682,2.682,0,0,1-2.412.1" transform="translate(101.233 73.635)" fill="#b9dff9"/><path d="M232.846,172.83l-7.7-4.445c-.618-.358-.54-.982.173-1.393l7.629-4.4a2.682,2.682,0,0,1,2.412-.1l7.7,4.444c.618.357.54.98-.175,1.392l-7.627,4.4a2.682,2.682,0,0,1-2.412.1" transform="translate(105.02 75.821)" fill="#b9dff9"/><path d="M240.949,177.508l-7.7-4.445c-.618-.358-.54-.98.173-1.392l7.629-4.4a2.682,2.682,0,0,1,2.412-.1l7.7,4.445c.618.358.54.98-.175,1.392l-7.627,4.4a2.682,2.682,0,0,1-2.412.1" transform="translate(108.806 78.007)" fill="#b9dff9"/><path d="M249.052,182.186l-7.7-4.444c-.618-.358-.54-.98.173-1.392l7.629-4.4a2.682,2.682,0,0,1,2.412-.1l7.7,4.444c.618.358.54.98-.173,1.392l-7.629,4.4a2.682,2.682,0,0,1-2.412.1" transform="translate(112.593 80.193)" fill="#b9dff9"/><path d="M142.671,148.092,120,135c-.618-.357-.54-.98.173-1.393l7.629-4.4a2.677,2.677,0,0,1,2.412-.1l22.674,13.09c.618.358.54.98-.173,1.392l-7.629,4.4a2.682,2.682,0,0,1-2.412.1" transform="translate(55.882 60.22)" fill="#b9dff9"/><path d="M242.218,205.565l-22.674-13.091c-.618-.357-.54-.98.173-1.392l7.629-4.4a2.677,2.677,0,0,1,2.412-.1l22.674,13.09c.618.358.54.98-.173,1.392l-7.629,4.4a2.682,2.682,0,0,1-2.412.1" transform="translate(102.401 87.078)" fill="#b9dff9"/><path d="M205.044,194.7l-7.7-4.444c-.618-.358-.54-.98.173-1.392l9.087-5.247a2.682,2.682,0,0,1,2.412-.1l7.7,4.445c.618.357.54.98-.173,1.392l-9.087,5.247a2.682,2.682,0,0,1-2.412.1" transform="translate(92.027 85.649)" fill="#b9dff9"/><path d="M147.669,161.58l-12.312-7.109c-.619-.357-.541-.98.173-1.393l9.087-5.246a2.679,2.679,0,0,1,2.411-.1l12.314,7.109c.618.357.54.98-.173,1.392l-9.087,5.247a2.682,2.682,0,0,1-2.412.1" transform="translate(63.059 68.925)" fill="#b9dff9"/><path d="M198.706,191.046l-12.312-7.109c-.619-.357-.541-.98.173-1.392l9.087-5.246a2.679,2.679,0,0,1,2.411-.1l12.314,7.109c.618.357.54.98-.173,1.392l-9.087,5.247a2.682,2.682,0,0,1-2.412.1" transform="translate(86.909 82.695)" fill="#b9dff9"/><path d="M159.36,168.329l-12.314-7.109c-.618-.357-.54-.98.175-1.392l9.087-5.246a2.679,2.679,0,0,1,2.411-.1l12.314,7.109c.618.357.54.98-.173,1.393l-9.087,5.247a2.682,2.682,0,0,1-2.412.1" transform="translate(68.522 72.079)" fill="#b9dff9"/><path d="M158.644,154.438l53.534,30.908a.733.733,0,0,1,0,1.388l-9.268,5.351a2.661,2.661,0,0,1-2.4,0l-53.534-30.908Z" transform="translate(68.682 72.171)" fill="#b9dff9"/><path d="M227.074,199.611l8.576,4.951c.506.293.443.8-.142,1.142l-3.718,2.147a2.2,2.2,0,0,1-1.976.082l-8.575-4.952c-.508-.292-.443-.8.141-1.142l3.718-2.145a2.2,2.2,0,0,1,1.976-.082" transform="translate(103.228 93.189)" fill="#b9dff9"/><path d="M218.9,194.894l8.576,4.951c.506.293.443.8-.142,1.142l-3.718,2.147a2.2,2.2,0,0,1-1.977.082l-8.575-4.952c-.508-.292-.443-.8.141-1.14l3.718-2.147a2.2,2.2,0,0,1,1.976-.082" transform="translate(99.41 90.985)" fill="#b9dff9"/><path d="M210.8,190.216l8.576,4.951c.506.293.443.8-.142,1.142l-3.718,2.147a2.2,2.2,0,0,1-1.976.082l-8.575-4.952c-.508-.292-.443-.8.141-1.14l3.718-2.147a2.2,2.2,0,0,1,1.977-.082" transform="translate(95.623 88.799)" fill="#b9dff9"/><path d="M223.378,192.311l8.576,4.951c.506.293.443.8-.142,1.142l-3.718,2.147a2.2,2.2,0,0,1-1.976.082l-8.575-4.952c-.508-.292-.443-.8.141-1.142l3.718-2.145a2.2,2.2,0,0,1,1.976-.082" transform="translate(101.501 89.778)" fill="#b9dff9"/><path d="M291.59,99.321,214.261,54.675l.995-5.027,77.329,44.646Z" transform="translate(100.127 23.201)" fill="#5793ce"/><path d="M265.278,100.809,211.3,69.644l.995-5.027,53.98,31.164Z" transform="translate(98.743 30.197)" fill="#5793ce"/><path d="M259.479,89.121l-46.7-26.962.995-5.027,46.7,26.962Z" transform="translate(99.435 26.699)" fill="#fff"/><path d="M272.917,96.88,249.568,83.4l.995-5.027,23.349,13.48Z" transform="translate(116.627 36.625)" fill="#ff2c9c"/><path d="M286.448,117.181l-13.662,64.769-49.055-28.309,10.716-21.049Z" transform="translate(104.553 54.76)" fill="#0a2d60"/><path d="M166.158,208.934h0a20.467,20.467,0,0,1,0-35.45l68.587-39.6,69.728,40.259-60.26,34.79a78.052,78.052,0,0,1-78.055,0" transform="translate(72.866 62.567)" fill="#5793ce"/><path d="M213.453,54.622,189.329,40.694l1.029-5.194L214.48,49.427Z" transform="translate(88.476 16.589)" fill="#d4ecff"/><path d="M211.989,62.126,187.865,48.2,188.894,43l24.123,13.928Z" transform="translate(87.792 20.096)" fill="#fff"/><path d="M68.039,186.269h.025c-11.04-6.132-17.932-19.565-17.994-38.794-.119-38.068,26.554-84.607,59.461-103.744l23.747-13.81,1.146.643L243.352,91.824l-27.6,17.936L205.4,117.34l-14.264,14.9-2.293,2.091-15.179,23-5.567,14.4-4.129,11.448-3.392,24.016-.233,2.075,1.225,10.124,3.5,12.538L170,240.423l7.188,8.531Z" transform="translate(23.398 13.983)" fill="#5793ce"/><path d="M215.243,71.793l.013,4.031L142.972,117.8c1.224-2.808,3.538-5.137,5.9-7.472Z" transform="translate(66.813 33.55)" fill="#d4ecff"/><path d="M332.129,134.359,223.2,71.793,157.249,111.38l-8.255,9.609-12.4,21.784-7.788,21.775-2.537,17.021-.318,16.994,10.64,24.308,13.834,8.083,14.226.738,17.062-7.081,134.87-79.339Z" transform="translate(58.859 33.55)" fill="#d4ecff"/><path d="M67.878,145.986c-9.238-5.13-15.554-15.389-17.411-29.86l111.105,63.68,3.306,11.838,4.94,8.494,7.187,8.531L67.853,145.984Z" transform="translate(23.584 54.267)" fill="#396caa"/><path d="M51.074,124.467a69.131,69.131,0,0,1-1-11.712c-.009-2.8.144-5.655.418-8.535L161.244,167.7l-.673,4.77-.233,2.075,1.225,10.124,1.039,3.721Z" transform="translate(23.398 48.704)" fill="#173d7a"/><path d="M332.91,138.243l-.013-4.031L184.192,220.627c-30.984,18.019-56.285,3.517-56.4-32.326s25-79.666,55.988-97.687l24.889-14.474-.012-4.031L183.771,86.584c-32.907,19.137-59.58,65.676-59.461,103.744s26.988,53.467,59.9,34.331Z" transform="translate(58.091 33.698)" fill="#173d7a"/><path d="M248.685,134.883,181.73,95.84l-4.2,2.4,66.954,39.042Z" transform="translate(82.963 44.788)" fill="#5793ce"/><path d="M240.974,115.945,194.236,88.691l-4.2,2.4,46.738,27.252Z" transform="translate(88.807 41.447)" fill="#5793ce"/><path d="M228.417,115.843,187.984,92.266l-4.2,2.4,40.433,23.577Z" transform="translate(85.885 43.117)" fill="#5793ce"/><path d="M240.053,122.628,219.836,110.84l-4.2,2.4,20.217,11.788Z" transform="translate(100.77 51.797)" fill="#5793ce"/><path d="M227.548,291.293,372,207.835c3.5-2.022,3.062-5.554-.982-7.89s-10.161-2.588-13.662-.566L212.9,282.838c-3.5,2.022-3.064,5.554.98,7.888s10.161,2.588,13.664.566" transform="translate(98.388 92.535)" fill="#efefef"/><path d="M331.261,185.352h0a.555.555,0,0,0-.594-.267l-7.69,1.588,2.971,5.171L331.194,186a.553.553,0,0,0,.068-.647" transform="translate(150.932 86.488)" fill="#ff2c9c"/><path d="M335.688,188.861a3.835,3.835,0,0,0-1.73-3.011,1.257,1.257,0,0,0-1.15-.153,49.019,49.019,0,0,0-25.3,6.506l-.556.32,9.37,16.311L319.153,207a49.008,49.008,0,0,0,14.862-15.106l1.225-1.957a1.254,1.254,0,0,0,.447-1.071" transform="translate(143.442 86.742)" fill="#5793ce"/><path d="M318.9,202.472a14.7,14.7,0,0,0-6.626-11.533c-3.67-2.129-6.65-.415-6.659,3.825a14.7,14.7,0,0,0,6.626,11.533c3.668,2.129,6.65.417,6.659-3.825" transform="translate(142.819 88.801)" fill="#5793ce"/><path d="M278.069,241.319l56.92-34.684-9.37-16.311L267,222.046Z" transform="translate(124.771 88.941)" fill="#5793ce"/><path d="M281.118,226.3a17.374,17.374,0,0,0-7.83-13.628c-4.336-2.515-7.859-.49-7.869,4.521a17.369,17.369,0,0,0,7.831,13.628c4.334,2.515,7.857.49,7.868-4.521" transform="translate(124.034 98.879)" fill="#d4ecff"/><path d="M278.906,227.57a17.371,17.371,0,0,0-7.831-13.628c-4.334-2.515-7.857-.49-7.868,4.521a17.369,17.369,0,0,0,7.831,13.628c4.334,2.515,7.857.49,7.868-4.521" transform="translate(123.001 99.473)" fill="#d4ecff"/><rect width="86.82" height="22.227" transform="translate(313.242 356.106) rotate(-29.881)" fill="#d4ecff"/><path d="M227.6,257.048a17.371,17.371,0,0,0-7.831-13.628c-4.334-2.515-7.857-.49-7.868,4.521a17.369,17.369,0,0,0,7.831,13.628c4.334,2.515,7.857.492,7.868-4.521" transform="translate(99.025 113.249)" fill="#d4ecff"/><path d="M223.9,254.128a11.48,11.48,0,0,0-5.3-8.283c-2.784-1.614-4.924-.524-4.782,2.436a11.477,11.477,0,0,0,5.3,8.282c2.784,1.616,4.924.525,4.781-2.434" transform="translate(99.918 114.538)" fill="#396caa"/><path d="M280.486,226.4a17.369,17.369,0,0,0-7.83-13.627,6.133,6.133,0,0,0-4.662-.92c1.429-1.466,3.752-1.617,6.38-.092a17.371,17.371,0,0,1,7.83,13.627c-.006,2.993-1.271,4.91-3.206,5.441a6.211,6.211,0,0,0,1.488-4.428" transform="translate(125.238 98.454)" fill="#fff"/><path d="M282.131,226.074a17.375,17.375,0,0,0-7.831-13.628c-2.169-1.258-4.133-1.379-5.557-.561l-4.266,2.45,1.987,3.457a17.742,17.742,0,0,0,7.1,12.358l1.987,3.457,4.264-2.45c1.423-.819,2.307-2.577,2.314-5.083" transform="translate(123.595 98.775)" fill="#5793ce"/><path d="M278.6,227.745a17.379,17.379,0,0,0-7.831-13.628c-4.336-2.515-7.859-.49-7.869,4.521a17.369,17.369,0,0,0,7.831,13.628c4.334,2.515,7.857.49,7.869-4.521" transform="translate(122.858 99.555)" fill="#d4ecff"/><path d="M225.642,255.392l-4.778-8.315-15.956,9.168a4.8,4.8,0,1,0,4.778,8.315Z" transform="translate(94.632 115.463)" fill="#ff2c9c"/><path d="M221.109,253.271a7.492,7.492,0,0,0-3.379-5.88c-1.869-1.086-3.389-.213-3.394,1.95a7.494,7.494,0,0,0,3.378,5.88c1.871,1.086,3.391.213,3.4-1.95" transform="translate(100.162 115.392)" fill="#ff2c9c"/><path d="M238.021,238.936l-2.367-1.373c-1.359-.786-3.168-.612-5.093.494l-8.2,4.712a6.2,6.2,0,0,0-2.813,4.849l-.009,4.081a3.351,3.351,0,0,1-.842,2.043l.286,1.893-2.021-1.184.006,0a1.046,1.046,0,0,1-.477-1l.009-4.081a12.94,12.94,0,0,1,5.869-10.113l8.2-4.712c2.738-1.573,5.31-1.822,7.244-.7l2.364,1.373c1.359.788,3.168.613,5.095-.495l33.051-18.99a1.062,1.062,0,0,1,1.089-.1h0l2.015,1.181-1.743.65a3.355,3.355,0,0,1-1.366,1.778l-33.053,18.99c-2.738,1.574-5.313,1.824-7.244.7" transform="translate(101.171 100.718)" fill="#5793ce"/><path d="M237.051,238.381c-1.359-.788-3.168-.612-5.095.494l-8.2,4.712a6.2,6.2,0,0,0-2.813,4.849l-.009,4.081a3.359,3.359,0,0,1-1.526,2.631c-.842.484-1.522.09-1.52-.88l.009-4.081a12.937,12.937,0,0,1,5.866-10.113l8.2-4.712c2.74-1.574,5.313-1.824,7.246-.7l2.365,1.373c1.359.788,3.168.612,5.095-.494l33.051-18.99c.841-.484,1.522-.09,1.519.88a3.364,3.364,0,0,1-1.526,2.632l-33.051,18.99c-2.741,1.574-5.313,1.824-7.246.7Z" transform="translate(101.823 101.1)" fill="#5793ce"/><path d="M219.9,239l-.009,4.081c0,.026-.012.056-.013.082a2.609,2.609,0,0,0,.122-.754l.009-4.081c0-.116.021-.238.031-.357A4.545,4.545,0,0,0,219.9,239" transform="translate(102.754 111.208)" fill="#fff"/><path d="M212.169,270.54l15.112-8.725c1.822-1.052,1.595-2.891-.511-4.106a7.9,7.9,0,0,0-7.109-.295l-15.112,8.725c-1.824,1.054-1.595,2.891.509,4.106h0a7.9,7.9,0,0,0,7.109.295" transform="translate(95.014 119.962)" fill="#efefef"/><path d="M20.195,164.338,0,152.678l20.195-11.659,20.195,11.659Z" transform="translate(0 65.9)" fill="#efefef"/><path d="M33.958,147.378,13.763,159.037V135.719l20.195-11.659Z" transform="translate(6.432 57.975)" fill="#d3008d"/><path d="M20.195,139.432,0,127.773l20.195-11.659,20.195,11.659Z" transform="translate(0 54.262)" fill="#ff2c9c"/><path d="M20.195,159.037,0,147.378V124.059l20.195,11.659Z" transform="translate(0 57.975)" fill="#ff2c9c"/><path d="M336,168.1l-22.494-12.987L336,142.127l22.494,12.986Z" transform="translate(146.506 66.418)" fill="#efefef"/><path d="M351.33,149.209,328.836,162.2V136.224l22.494-12.987Z" transform="translate(153.67 57.59)" fill="#173d7a"/><path d="M336,140.359l-22.494-12.987L336,114.386l22.494,12.986Z" transform="translate(146.506 53.454)" fill="#d4ecff"/><path d="M336,162.2l-22.494-12.987V123.236L336,136.224Z" transform="translate(146.506 57.59)" fill="#5793ce"/><path d="M116.2,273.44,93.706,260.453,116.2,247.467l22.494,12.986Z" transform="translate(43.79 115.645)" fill="#efefef"/><path d="M131.53,254.549l-22.494,12.987V241.563l22.494-12.987Z" transform="translate(50.954 106.817)" fill="#173d7a"/><path d="M116.2,245.7,93.706,232.711,116.2,219.726l22.494,12.986Z" transform="translate(43.79 102.681)" fill="#d4ecff"/><path d="M116.2,267.536,93.706,254.549V228.576L116.2,241.563Z" transform="translate(43.79 106.817)" fill="#5793ce"/><path d="M198.417,149.151c-13.348,7.706-34.99,7.706-48.339,0s-13.348-20.2,0-27.91,34.99-7.706,48.338,0,13.35,20.2,0,27.908" transform="translate(65.455 53.957)" fill="#5793ce"/><path d="M208.428,128.279V122h-1.812a21.846,21.846,0,0,0-8.2-7.67c-13.348-7.708-34.991-7.708-48.338,0a21.813,21.813,0,0,0-8.2,7.67h-1.809v6.232h0c-.022,5.068,3.31,10.139,10.009,14.006,13.348,7.708,34.99,7.708,48.338,0,6.676-3.853,10.013-8.905,10.013-13.956" transform="translate(65.455 50.725)" fill="#d3008d"/><path d="M198.417,137.951c-13.348,7.706-34.99,7.706-48.339,0s-13.348-20.2,0-27.908,34.99-7.708,48.338,0,13.35,20.2,0,27.908" transform="translate(65.455 48.723)" fill="#ff2c9c"/><path d="M198.406,131.465c-13.348,7.708-34.991,7.708-48.339,0-6.4-3.693-9.695-8.487-9.96-13.326-.288,5.257,3.009,10.569,9.96,14.582,13.348,7.708,34.991,7.708,48.339,0,6.951-4.013,10.248-9.323,9.959-14.582-.264,4.839-3.561,9.633-9.959,13.326" transform="translate(65.466 55.208)" fill="#fff"/><path d="M152.42,127.225a1.535,1.535,0,0,1-.9-1.259l.035-12.858c0-.98,1.382-1.774,3.08-1.773s3.073.8,3.071,1.78l-.028,10.662,30.943-3.79c1.662-.2,3.294.411,3.648,1.369s-.71,1.9-2.371,2.107l-34.662,4.243a4.867,4.867,0,0,1-2.578-.358c-.082-.04-.161-.079-.236-.123" transform="translate(70.807 52.029)" fill="#fff"/><path d="M266.9,98.159a2.393,2.393,0,0,1-3.448,1.062,3,3,0,0,1-1.234-3.767,2.392,2.392,0,0,1,3.447-1.061,3,3,0,0,1,1.236,3.765" transform="translate(122.421 43.946)" fill="#ff2c9c"/><path d="M272.528,101.41a2.394,2.394,0,0,1-3.448,1.062,3,3,0,0,1-1.234-3.767,2.392,2.392,0,0,1,3.447-1.061,3,3,0,0,1,1.235,3.765" transform="translate(125.052 45.466)" fill="#fff"/><path d="M278.157,104.66a2.4,2.4,0,0,1-3.448,1.062,3,3,0,0,1-1.234-3.767,2.392,2.392,0,0,1,3.447-1.061,3,3,0,0,1,1.235,3.765" transform="translate(127.682 46.984)" fill="#d4ecff"/><path d="M283.786,107.91a2.4,2.4,0,0,1-3.448,1.062,3,3,0,0,1-1.234-3.767,2.392,2.392,0,0,1,3.447-1.061,3,3,0,0,1,1.236,3.765" transform="translate(130.313 48.503)" fill="#ff2c9c"/><path d="M122.511,30.565l-1.146-.643h0L97.617,43.733A101.911,101.911,0,0,0,75.563,61.481L116.228,84.96l50.826-29.343Z" transform="translate(35.312 13.983)" fill="#173d7a"/><path d="M152.2,45.256,144.823,41l27.189-15.7c1.285-.741,1.285-1.947,0-2.69L144.236,6.575a5.156,5.156,0,0,0-4.657,0l-27.189,15.7-7.375-4.257L132.2,2.317c5.35-3.089,14.055-3.089,19.407,0l27.776,16.038c5.35,3.089,5.35,8.116,0,11.2Z" transform="translate(49.075 0)" fill="#ff2c9c"/><path d="M182.512,44.64c0-3.943-2.4-8.522-5.354-10.229L127.9,5.969a3.434,3.434,0,0,0-3.467-.3h0L65.607,39.851l56.879,42.86,57.947-33.632a2.678,2.678,0,0,0,.512-.3h0a5.038,5.038,0,0,0,1.566-4.141" transform="translate(30.659 2.49)" fill="#d4ecff"/><path d="M106.751,72.006,164.7,38.373a2.677,2.677,0,0,0,.512-.3,5.034,5.034,0,0,0,1.567-4.141,13.123,13.123,0,0,0-1.444-5.7L99.278,66.375Z" transform="translate(46.394 13.196)" fill="#5793ce"/><path d="M119.241,71.773,69.979,43.332c-2.957-1.708-5.354-6.287-5.354-10.23s2.4-5.755,5.354-4.047L119.241,57.5c2.957,1.708,5.354,6.287,5.354,10.23s-2.4,5.753-5.354,4.047" transform="translate(30.2 13.277)" fill="#5793ce"/><path d="M119.068,57.31,69.806,28.869a3.4,3.4,0,0,0-3.541-.251,3.726,3.726,0,0,1,2.948.519L118.475,57.58c2.957,1.706,5.354,6.287,5.354,10.229,0,2.131-.7,3.63-1.814,4.3,1.448-.44,2.406-2.078,2.406-4.566h0c0-3.941-2.4-8.521-5.354-10.229" transform="translate(30.967 13.193)" fill="#fff"/><path d="M99.044,53.461l-5.922-3.416a2.556,2.556,0,0,1-1.068-2.04c0-.786.478-1.147,1.068-.807l5.922,3.417a2.552,2.552,0,0,1,1.067,2.038c0,.786-.477,1.147-1.067.807" transform="translate(43.018 21.997)" fill="#fff"/><path d="M103.88,25.3c1.787-1.056,1.77-2.739-.04-3.758a7.192,7.192,0,0,0-6.509.067c-1.787,1.056-1.77,2.739.04,3.758a7.192,7.192,0,0,0,6.509-.067" transform="translate(44.863 9.719)" fill="#5793ce"/><path d="M110.64,29.109c1.787-1.056,1.77-2.739-.04-3.758a7.192,7.192,0,0,0-6.509.067c-1.787,1.056-1.77,2.739.04,3.758a7.192,7.192,0,0,0,6.509-.068" transform="translate(48.022 11.499)" fill="#fff"/><path d="M117.4,32.919c1.787-1.056,1.77-2.739-.04-3.758a7.192,7.192,0,0,0-6.509.067c-1.787,1.056-1.77,2.739.04,3.758a7.192,7.192,0,0,0,6.509-.067" transform="translate(51.181 13.279)" fill="#fff"/><path d="M49.748,253.73,4.7,227.72c-2.764-1.6-2.418-4.384.775-6.227l43.5-25.113c3.193-1.844,8.022-2.044,10.786-.448l45.05,26.008c2.764,1.6,2.418,4.386-.775,6.229l-43.5,25.113c-3.191,1.843-8.022,2.044-10.786.448" transform="translate(1.323 91.058)" fill="#efefef"/><path d="M106.657,212.259h0V196.716L71.8,196.7,59.755,189.74c-2.764-1.6-7.593-1.4-10.785.448l-11.24,6.488-34.887-.019v15.986A3.13,3.13,0,0,0,4.7,215.534l45.05,26.008c2.764,1.6,7.593,1.4,10.786-.448l43.5-25.113c1.841-1.064,2.731-2.44,2.626-3.723" transform="translate(1.326 88.165)" fill="#396caa"/><path d="M54.752,188.668a12.432,12.432,0,0,0-5.783,1.517l-11.24,6.488-34.885-.019v15.986A3.126,3.126,0,0,0,4.7,215.53l45.048,26.01a9.78,9.78,0,0,0,5.006,1.07Z" transform="translate(1.326 88.167)" fill="#396caa"/><path d="M6.793,194.113H2.844V210.1A3.128,3.128,0,0,0,4.7,212.988l2.1,1.209Z" transform="translate(1.326 90.712)" fill="#5793ce"/><path d="M35.279,230.745a12.288,12.288,0,0,0,8.622-.1V212.5H35.279Z" transform="translate(16.486 99.303)" fill="#5793ce"/><path d="M49.748,232.6,4.7,206.587c-2.764-1.6-2.418-4.384.775-6.227l43.5-25.113c3.193-1.844,8.022-2.044,10.786-.448l45.05,26.008c2.764,1.6,2.418,4.386-.775,6.229l-43.5,25.113c-3.191,1.843-8.022,2.044-10.786.448" transform="translate(1.323 81.183)" fill="#d4ecff"/><path d="M104.033,194.96l-43.5,25.113c-3.193,1.844-8.022,2.044-10.786.448L4.7,194.513a4.172,4.172,0,0,1-1.379-1.224c-.949,1.527-.519,3.186,1.379,4.282l45.05,26.01c2.764,1.6,7.593,1.4,10.786-.448l43.5-25.113c2.481-1.432,3.234-3.434,2.154-5a6.017,6.017,0,0,1-2.154,1.944" transform="translate(1.324 90.199)" fill="#fff"/><path d="M63.459,207.954a4.023,4.023,0,0,1-1.819,3.152c-1.005.58-1.819.11-1.819-1.051a4.02,4.02,0,0,1,1.819-3.152c1.005-.58,1.819-.11,1.819,1.051" transform="translate(27.955 96.573)" fill="#d4ecff"/><path d="M67.449,205.65a4.023,4.023,0,0,1-1.819,3.152c-1.005.58-1.819.11-1.819-1.051a4.023,4.023,0,0,1,1.819-3.152c1.005-.58,1.819-.11,1.819,1.051" transform="translate(29.819 95.496)" fill="#d4ecff"/><path d="M71.439,203.347a4.023,4.023,0,0,1-1.819,3.152c-1.005.58-1.819.11-1.819-1.051a4.023,4.023,0,0,1,1.819-3.152c1.005-.58,1.819-.11,1.819,1.051" transform="translate(31.684 94.42)" fill="#d4ecff"/><path d="M43.613,211.631,22.532,199.459c-1.294-.747-1.131-2.051.362-2.914l20.356-11.752a5.61,5.61,0,0,1,5.048-.21l21.079,12.171c1.294.747,1.133,2.051-.362,2.914L48.661,211.421a5.61,5.61,0,0,1-5.048.21" transform="translate(10.121 86.023)" fill="#5793ce"/><path d="M38.964,197.125l-2.917-1.684c-.179-.1-.156-.283.05-.4l2.817-1.627a.775.775,0,0,1,.7-.028l2.917,1.683c.178.1.156.285-.051.4L39.663,197.1a.775.775,0,0,1-.7.029" transform="translate(16.789 90.338)" fill="#d4ecff"/><path d="M22.533,199.46l.06.034a3.293,3.293,0,0,1,.3-.207L43.25,187.534a5.614,5.614,0,0,1,5.048-.208L69.32,199.462c1.191-.854,1.255-2.016.059-2.706L48.3,184.585a5.61,5.61,0,0,0-5.048.21L22.9,196.546c-1.494.863-1.657,2.167-.362,2.914" transform="translate(10.122 86.024)" fill="#396caa"/></g></svg>