<svg xmlns="http://www.w3.org/2000/svg" xmlns:xlink="http://www.w3.org/1999/xlink" width="53.791" height="48.93" viewBox="0 0 53.791 48.93"><defs><clipPath id="a"><rect width="53.791" height="48.93" fill="#b581fb"/></clipPath></defs><g transform="translate(-529.21 -1551)"><g transform="translate(529.21 1551)"><g clip-path="url(#a)"><path d="M38.667,11.728C37.1,9.017,35.613,6.25,33.894,3.638A7.968,7.968,0,0,0,26.764,0a8.449,8.449,0,0,0-7.506,4.522Q10.24,20.108,1.249,35.708a8.812,8.812,0,0,0-1.19,3.447,8.629,8.629,0,0,0,8.7,9.75q18.13.047,36.26-.007a8.371,8.371,0,0,0,8-5.147,17.2,17.2,0,0,0,.774-2.6V39.473a11.939,11.939,0,0,0-1.569-4.294q-6.8-11.714-13.555-23.451m8.706,35.2a8.847,8.847,0,0,1-2.63.39q-2.233.012-4.466.017c-4.467.009-8.933,0-13.4,0l-9.012,0q-4.506,0-9.012-.006a7.075,7.075,0,0,1-7.127-5.588,6.924,6.924,0,0,1,.839-5.158Q11.615,20.9,20.683,5.228a7.024,7.024,0,0,1,11.05-1.714,8.073,8.073,0,0,1,1.435,1.861q9,15.533,17.971,31.083a7.087,7.087,0,0,1-3.766,10.476" transform="translate(0 -0.001)" fill="#b581fb"/><path d="M58.436,34.121a5.294,5.294,0,0,0-1.412-1.591,4.425,4.425,0,0,0-6.549,1.625q-4,6.9-7.981,13.819c-.429.742-.4,1.183.09,1.456.469.261.853.063,1.266-.651q3.938-6.819,7.879-13.636a5.262,5.262,0,0,1,.59-.865,2.745,2.745,0,0,1,2.48-.961,3,3,0,0,1,2.332,1.667q2.951,5.115,5.907,10.228,6,10.388,12,20.775a3.224,3.224,0,0,1,.514,2.25,2.948,2.948,0,0,1-3.166,2.4q-8.96,0-17.92,0H51.836q-7.646,0-15.292,0a2.942,2.942,0,0,1-2.91-1.681,3.031,3.031,0,0,1,.29-3q3.947-6.814,7.875-13.638a4.334,4.334,0,0,0,.305-.607.7.7,0,0,0-.333-.9.705.705,0,0,0-.952.135,2.491,2.491,0,0,0-.321.477q-2.156,3.726-4.307,7.454c-1.242,2.152-2.479,4.307-3.728,6.455a4.4,4.4,0,0,0-.524,3.531,4.485,4.485,0,0,0,4.641,3.344q17.894,0,35.787-.005a5.413,5.413,0,0,0,1.4-.159,4.432,4.432,0,0,0,2.709-6.708q-9-15.624-18.043-31.226" transform="translate(-27.592 -27.51)" fill="#b581fb"/><path d="M204.713,327.65q-8.96,0-17.92,0h0q8.96,0,17.92,0" transform="translate(-159.921 -284.517)" fill="#b581fb"/><path d="M178.393,94.668c0,2.175-.06,4.353-.008,6.525q.011.466.03.931a3.345,3.345,0,0,0,4.811,2.719,3.488,3.488,0,0,0,1.961-3.432c-.012-4.062,0-8.124-.006-12.187,0-.665,0-1.332-.047-1.994a3.363,3.363,0,0,0-3.358-3.05,3.3,3.3,0,0,0-3.364,3.03c-.073,2.484-.019,4.971-.019,7.456m1.535-.019c0-2.292-.009-4.585,0-6.877a1.824,1.824,0,0,1,1.916-2.012,1.792,1.792,0,0,1,1.72,1.547,4.289,4.289,0,0,1,.036.575q0,6.8,0,13.6a1.881,1.881,0,0,1-1.4,2.069A1.782,1.782,0,0,1,179.97,102c-.067-.8-.038-1.608-.04-2.412,0-1.645,0-3.29,0-4.934" transform="translate(-154.884 -73.099)" fill="#b581fb"/><path d="M178.37,259.224a3.4,3.4,0,1,0,3.424-3.38,3.4,3.4,0,0,0-3.424,3.38m5.229.029a1.827,1.827,0,1,1-3.654-.014,1.827,1.827,0,0,1,3.654.014" transform="translate(-154.889 -222.164)" fill="#b581fb"/></g></g></g></svg>