<svg xmlns="http://www.w3.org/2000/svg" xmlns:xlink="http://www.w3.org/1999/xlink" width="620" height="332.885" viewBox="0 0 620 332.885"><defs><linearGradient id="a" x1="0.5" x2="0.5" y2="1" gradientUnits="objectBoundingBox"><stop offset="0" stop-color="#210557"/><stop offset="1" stop-color="#51186d"/></linearGradient><clipPath id="b"><path d="M0,0v332.02H619.789V208.777c-17.337-4.379-30.827,1.3-43.059,6.976-18.381,8.532-33.918,17.065-55.389-8.535-35.49-42.313-62.577-40.317-86.45-38.321-20.831,1.741-39.216,3.483-58.6-24.21-28.084-40.113-31.9-44.495-98.174-62.992S224.057,0,224.057,0Z" transform="translate(0 0.003)" fill="none"/></clipPath><linearGradient id="c" y1="1" x2="0" y2="1" gradientUnits="objectBoundingBox"><stop offset="0" stop-color="#8cc2f7"/><stop offset="1" stop-color="#e0f3fc"/></linearGradient><clipPath id="d"><path d="M0,0v332.02H619.789v-98.3c-47.268-10.464-46.935,28.653-76.566,28.892-11.047.089-22.275-.653-47.436-17.98-11.822-8.141-35.944-21.8-56.811-19.767-26,2.539-42.986,16.331-64.355-3-30.037-27.164-14.122-11.785-15.06-45.892-.772-28.069-19.307-48.783-51.731-59.218C241.508,95.414,108.662,140.518,111.08,0Z" transform="translate(0 0.003)" fill="none"/></clipPath><linearGradient id="e" x1="0.066" y1="0.806" x2="0.066" y2="0.806" gradientUnits="objectBoundingBox"><stop offset="0" stop-color="#2abcbb"/><stop offset="0.168" stop-color="#29b3be"/><stop offset="0.43" stop-color="#299dc6"/><stop offset="0.752" stop-color="#2779d3"/><stop offset="1" stop-color="#2759e0"/></linearGradient><clipPath id="f"><path d="M0,481.017v9.932H368.132c.341-3.289.838-6.6,1.431-9.932Zm0-39.658H327.115V437.1H0Zm0-32.594v19.864H378.272c.005-.864,0-1.728-.02-2.594a62.332,62.332,0,0,0-2.8-17.27Zm0-55.289v30.031H355.642c-12.1-11.917-23.385-23.033-45.12-30.031ZM0,316.4v9.634H149.566l-7.877-9.634Z" transform="translate(0 -316.399)" fill="none"/></clipPath><linearGradient id="g" x1="0.043" y1="1.135" x2="0.044" y2="1.135" gradientUnits="objectBoundingBox"><stop offset="0" stop-color="#23dbdb"/><stop offset="0.138" stop-color="#23d2db"/><stop offset="0.353" stop-color="#23bcdc"/><stop offset="0.618" stop-color="#2598dd"/><stop offset="0.92" stop-color="#2667df"/><stop offset="1" stop-color="#2759e0"/></linearGradient><clipPath id="h"><rect width="619.789" height="331.885" transform="translate(0 27)" fill="none"/></clipPath><clipPath id="i"><path d="M737.462,963.258l33.824,43.44,47.449-12.272-42.388-36.482Z" transform="translate(-737.462 -957.943)" fill="none"/></clipPath><linearGradient id="j" x1="-2.58" y1="1.774" x2="-2.577" y2="1.774" gradientUnits="objectBoundingBox"><stop offset="0" stop-color="#b0d8ff"/><stop offset="0.061" stop-color="#b6dbfe"/><stop offset="0.471" stop-color="#ddeefe"/><stop offset="0.798" stop-color="#f5f9fe"/><stop offset="1" stop-color="#fefefe"/></linearGradient><clipPath id="k"><rect width="619.789" height="332.885" transform="translate(0 26)" fill="none"/></clipPath><clipPath id="l"><path d="M1097.409,1160.282c-5.23,1.686-8.1,16.11-6.909,19.608s5.643,4.854,6.571,4.6,30.45-7.845,31.8-8.014,5.314-1.686,4.3-4.554-7.339-6.748-7.339-6.748-18.224-5.169-26.007-5.169a8.279,8.279,0,0,0-2.419.277" transform="translate(-1090.233 -1160.005)" fill="none"/></clipPath><linearGradient id="m" x1="-6.888" y1="1.173" x2="-6.881" y2="1.173" gradientUnits="objectBoundingBox"><stop offset="0" stop-color="#1e9ef9"/><stop offset="1" stop-color="#bae5ff"/></linearGradient><clipPath id="o"><path d="M998.479,972.707c-4.168,2.918-37.5,5.974-37.688,9.673-.083,1.686,27.668,18.22,30.283,19.822a14.867,14.867,0,0,0,11.641,1.35c4.133-1.434,30.693-11.5,32.259-13.719s-1.639-7.368-1.639-7.368l-23.112-10.123Z" transform="translate(-960.79 -972.342)" fill="none"/></clipPath><linearGradient id="p" x1="-7.462" y1="1.343" x2="-7.455" y2="1.343" xlink:href="#j"/><clipPath id="q"><path d="M861.243,820.665c-.253,2.108,1.1,2.614,1.1,2.614l115.224,54.07a6.951,6.951,0,0,0,5.9,1.012c3.163-1.054,3.711-5.9,3.711-5.9l4.189-19.42-127-46.957c-1.844,8.41-3.07,14.091-3.13,14.585" transform="translate(-861.212 -806.08)" fill="none"/></clipPath><linearGradient id="r" x1="-2.937" y1="1.169" x2="-2.933" y2="1.169" xlink:href="#j"/><clipPath id="s"><path d="M905.081,495.435l-17.714,76.423,115.057,38.8,26.655-123.491Z" transform="translate(-887.367 -487.168)" fill="none"/></clipPath><linearGradient id="t" x1="-1.844" y1="1.53" x2="-1.842" y2="1.53" gradientUnits="objectBoundingBox"><stop offset="0" stop-color="#243c82"/><stop offset="1" stop-color="#1bc3f2"/></linearGradient></defs><g transform="translate(-180.21 -542.863)"><rect width="620" height="331.673" transform="translate(180.21 544.075)" fill="url(#a)"/><g transform="translate(180.21 516.866)"><g transform="translate(0 -0.003)"><g transform="translate(0 26.864)" clip-path="url(#b)"><rect width="619.789" height="332.02" transform="translate(0 0)" fill="url(#c)"/></g></g><g transform="translate(0 26.861)"><g clip-path="url(#d)"><path d="M0,0,703.857,20.461,720.7,571.63,16.843,551.169Z" transform="translate(-137.504 59.349) rotate(-25.011)" fill="url(#e)"/></g></g><g transform="translate(0 89.968)"><g clip-path="url(#f)"><rect width="414.195" height="286.101" transform="translate(-52.772 17.763) rotate(-18.603)" fill="url(#g)"/></g></g><g transform="translate(0 -0.003)"><g clip-path="url(#h)"><path d="M708.576,808.024C684.741,796.5,651.8,789.38,615.413,789.38s-69.327,7.124-93.162,18.644c-23.762,11.484-38.46,27.324-38.46,44.8s14.7,33.313,38.46,44.8c23.835,11.519,56.773,18.644,93.162,18.644s69.328-7.125,93.163-18.644c23.762-11.484,38.46-27.325,38.46-44.8s-14.7-33.315-38.46-44.8M615.413,788.71c36.494,0,69.539,7.152,93.466,18.715,24,11.6,38.843,27.648,38.843,45.4s-14.844,33.8-38.843,45.4c-23.926,11.563-56.972,18.714-93.466,18.714s-69.539-7.151-93.464-18.714c-24-11.6-38.843-27.647-38.843-45.4s14.843-33.8,38.843-45.4c23.926-11.563,56.972-18.715,93.464-18.715" transform="translate(-345.732 -564.434)" fill="#fff"/><path d="M734.465,873.647c52.525,0,95.105,20.579,95.105,45.963s-42.581,45.963-95.105,45.963S639.36,944.995,639.36,919.61s42.58-45.963,95.105-45.963" transform="translate(-457.554 -625.219)" fill="#1798b5" fill-rule="evenodd"/><path d="M326.443,271.987a47.134,47.134,0,0,1,.169,10.966c-.506,6.073-.845,10.46-.506,12.147s-2.236,5.1-2.91,6.326a4.933,4.933,0,0,0-.338,2.91l4.936,14.636a2.5,2.5,0,0,1-1.646,2.573,16.424,16.424,0,0,1-3.8.8c-.378-.043-2.824.041-2.824.041s.97,6.074.59,6.707-2.151.928-3.5,1.6a2.927,2.927,0,0,0-1.6,1.687c3.179,6.146-.143,15.451-8.707,18.906-2.1.847-15.357-3.025-19.044-3.637,0,0-15.352,13.159-16.278,15.6a6.637,6.637,0,0,0-.254,4.3s4.892,10.628,4.555,13.328-5.736,3.879-5.736,3.879l-26.4-24.8L222.818,335s11.64-2.109,14.93-8.013,5.483-11.81,5.146-25.474,1.855-36.609,17.882-46.394c20.941-12.786,61.188-14.636,65.667,16.869" transform="translate(-159.458 -176.371)" fill="#fba2b4" fill-rule="evenodd"/><path d="M515.461,299.766a26.065,26.065,0,0,1,.354,3.988c-7.475-.715-9.876-5.958-15.267-10.616-7.5-6.479-13.607.556-13.607.556l.092-2.407s10-5.923,11.108-6.016c.784-.065,8.91,2.316,13.91,3.917a30.724,30.724,0,0,1,3.41,10.579" transform="translate(-348.476 -204.15)" fill="#f7839a" fill-rule="evenodd"/><path d="M288.217,430.814l-.955-.55s-15.352,13.159-16.278,15.6a6.634,6.634,0,0,0-.254,4.3s4.892,10.628,4.555,13.328-5.736,3.879-5.736,3.879l-26.4-24.8-20.329-24.968s11.64-2.109,14.93-8.013,5.483-11.81,5.146-25.474c-.052-2.1-.044-4.413.065-6.865l19.685-15.37s-1.7,8.791.574,14.442c.9,2.244,8.325,16.414,12.569,12.062,1.644-1.686,2.024-2.066,1.392-4.09s2.151,1.94,1.6,3.838-1.785,6.4-2.205,6.82,11.863,32.826,11.863,32.826Z" transform="translate(-159.458 -258.982)" fill="#f7839a" fill-rule="evenodd"/><path d="M401.58,583.171l-.955-.551s-15.352,13.159-16.278,15.6a17.378,17.378,0,0,0-2.8,6.08c-1.46-6.132,2.235-13.136,5.82-18.05,2.278-3.121,5.28-10.427,5.28-10.427l5.686-1.046,1.948,1.346c.922,2.447,1.515,4.013,1.515,4.013Z" transform="translate(-272.821 -411.339)" fill="#e8617c" fill-rule="evenodd"/><path d="M523.26,413.44c-.457.884-1.388,2.527-1.845,3.243a4.2,4.2,0,0,0-1.113.171c-1.02.224-1.4,5.406-1.4,5.406l-1.055-2.109c-.4,4.978-3.692,8.911.954,11.981,0,0-.92-.227-2.986.743a3.267,3.267,0,0,0-1.682,3.384c-3.248-3.983.833-8.816.781-13.67-.072-6.684-8.8-10.83-16.019-13.446.435-.177,5.64.42,6.12.3,5.514-1.422,13.714.534,18.245,4" transform="translate(-357.031 -292.676)" fill="#f26d88" fill-rule="evenodd"/><path d="M349.678,269.021c-7.12.934-17.347,1.752-24.2-7.576-10.14-13.794-6.824-33.061,3.252-38,1.236-.606,3.871-.862,3.033-2.784-2.605-5.968-.044-10.1,3.291-10.92,11.087-2.71,16.622,11.412,22.431,9.645,3.013-.916,7.853-3.446,9.917-8.737,1.7-4.352,1.338-11.352-1.91-14.144-2.925-2.516-10.232-4.133-13.99-8-7.793-8.012-14.4-13.969-26.713-15.891-15.452-2.412-31.787,1.093-43.22,10.835-25.876,22.051-14.193,41.8-12.687,74.724.376,8.232,15.05,1.234,17.311-3.7,2.079-4.545,2.8-10.139,3.732-15.725,1.18-7.085,3.033-16.662,8.684-17.167,18.708-1.674,16.618,29.329,3.965,41.5l2.7,2.446-2.53,1.6c-6.178,17.481,25.548,38.438,37.146,33.759,8.564-3.456,8.462-15.722,5.282-21.868a8.89,8.89,0,0,1,2.02-1.316c1.349-.675,2.7-1.341,3.083-1.973s-.59-6.707-.59-6.707" transform="translate(-189.609 -123.004)" fill="#162963" fill-rule="evenodd"/><path d="M380.925,369.861s-2.109,2.151-2.024,3.5,1.6,2.446,1.687,2.7a9.916,9.916,0,0,1-.674,2.066s-1.012-3.5-3.543-3.712c-2.889-.241-5.372-3.049-3.585-5.609,1.56-2.235,4.977-3.247,4.977-3.247a4.793,4.793,0,0,0,1.56-1.772c1.011-2.583-1.16-4.137-3.986-3.854-6.641.664-6.253,7.157-4.322,12.247a24.772,24.772,0,0,0,2.53,4.724s-5.272-4.47-5.1-11.177,3.754-9.026,5.441-9.4,5.4-.38,6.706,2.277,1.6,4.471.464,5.946-6.833,6.031-6.833,6.031-.337,1.138.38,1.222c1.261.149,2.534-2.317,6.326-1.94" transform="translate(-263.67 -254.871)" fill="#f2778f" fill-rule="evenodd"/><path d="M736.935,976.633l-.209,1.1,34.12,44.306,41.415-10.6c.515,1.9,6.258,3.838,5.947-3.637Z" transform="translate(-527.233 -698.92)" fill="#369" fill-rule="evenodd"/></g></g><g transform="translate(209.702 272.395)"><g clip-path="url(#i)"><rect width="81.273" height="48.755" transform="translate(0)" fill="url(#j)"/></g></g><g transform="translate(0 -0.003)"><g clip-path="url(#k)"><path d="M487.848,928.719s35.142,9.556,46.108,8.46,24.378-5.483,24.378-5.483l15.44-1.351c1.126-.1,2.227-.365,3.183.441,3.474,2.927,11.1,10.715,8.875,12.383a3.674,3.674,0,0,1-1.223.633s2.362,4.006,2.616,5.44-.8,2.825-1.393,2.741-.969,1.35-4.133-2.4-6.748-7.845-6.748-7.845c-1.885.112-13.544.319-14.508,1.561-.591.759-4.175,4.682-4.175,4.682l10.08,1.9s6.284.042,7.381.97,3.8,2.869,2.572,4.133-1.392,3.037-4.47,3.29-16.787-1.222-16.787-1.222c-8.5,3.085-12.269,1.088-19.738-3.331-16.845,0-35.024,2.172-51.927,3.341,0,0-3.322-.474-4.84-1.948s-3.164-10.334-.042-17.25a17.93,17.93,0,0,1,9.353-9.137" transform="translate(-341.163 -664.631)" fill="#fba2b4" fill-rule="evenodd"/><path d="M575.353,998.139a4.075,4.075,0,0,1-3.521,2.032c-3.079.253-16.787-1.222-16.787-1.222-8.5,3.084-12.269,1.088-19.738-3.331-16.846,0-35.024,2.172-51.927,3.341,0,0-3.322-.474-4.84-1.949-.984-.957-2.02-5.012-1.779-9.63a22.124,22.124,0,0,1,7.73.677c8.267,1.94,14.255,1.181,20.919,2.194s25.305-.634,27.793-.465a20.973,20.973,0,0,1,5.272,1.265l3.838,1.688-.718-2.194s10.882,3.965,13.118,4.472,9.11.757,11.894,1.306,3.374-1.645,3.374-1.645a5.1,5.1,0,0,0,1.054,2.362c.927,1.181,3.712.97,4.176.886Z" transform="translate(-341.165 -706.535)" fill="#f7839a" fill-rule="evenodd"/><path d="M769.761,974.75c-.3.712-.833,1.2-1.189,1.149-.59-.084-.969,1.35-4.134-2.4s-6.747-7.845-6.747-7.845c-1.885.112-13.544.319-14.508,1.561-.591.759-4.175,4.682-4.175,4.682s-.376-.1-1.409-.327-5.526-1.625-5.526-1.625l3.88-3.2a20.8,20.8,0,0,1,9.87-4.092c5.357-.464,12.1-.507,12.1-.507s8.519,10.27,9.131,11.3c.51.86,2,1.194,2.7,1.307" transform="translate(-523.903 -688.547)" fill="#f7839a" fill-rule="evenodd"/><path d="M417.507,878.848s10.629,9.026,14.593,10.966a38.238,38.238,0,0,0,5.967,2.338c1.349.394,1.287,1.493,1.251,1.484a9.924,9.924,0,0,0-1.5-.355c-5.774,4.557-11.828,18.775-6.138,28,0,0-9.068.084-15.774-1.772s-7.128-3.205-7.128-3.205-8.731-22.943-2.152-31.548,10.883-5.906,10.883-5.906" transform="translate(-289.241 -628.654)" fill="#192f6e" fill-rule="evenodd"/><path d="M65.127,552.779a14.512,14.512,0,0,1,10.628,3.88c2.607,2.346,36.31,52.1,38.718,42.344.642-2.6-2.763-11.276-2.763-11.276a5.571,5.571,0,0,1-.669-2.941,5.75,5.75,0,0,1,1.442-3.7c1.156-1.266,2.914-3.033,2.914-3.033s16.5,20.463,15.821,49.649-7.086,57.7-7.086,57.7L107.6,754.451H0V615.2c0-18.966,35.762-56.76,65.127-62.417" transform="translate(0 -395.567)" fill="#243c82" fill-rule="evenodd"/><path d="M294.348,753.713c-2,14.7-4.349,25.138-4.349,25.138l-3.4,14.21-14.251-2.639L231.773,683.548s8.688-1.94,18.3,5.567S263.068,718.3,263.4,720.832s2.868,5.229,5.062,8.6,5.9,17.8,6.158,22.437,9.7,11.387,13.074,14c3.336,2.584,6.575-11.833,6.649-12.164" transform="translate(-165.867 -489.015)" fill="#192f6e" fill-rule="evenodd"/><path d="M94.063,667.3c-16.364-.844-40.656.17-45.044,29.524S57.455,777.637,75,804.292s25.643,32.016,25.643,32.016H209.625s.844-23.833-.59-24.592-22.269-1.94-22.269-1.94l-5.145,1.35s.422-3.543-1.012-4.976-5.061-2.025-5.061-2.025,1.6-2.869-.421-7.17-4.133-4.892-4.133-4.892a5.329,5.329,0,0,0,.189-6.411c-2.277-3.711-5.166-3.881-5.166-3.881s.337.339-1.1-2.614a8.012,8.012,0,0,0-4.387-3.88s-6.411-12.737-9.954-14.931-4.386-3.88-4.386-3.88-7.76-14.171-9.278-21.593,1.349-9.447-2.868-16.027-4.555-11.64-4.555-11.64c-2.019-19.173-14.532-38.823-35.429-39.9" transform="translate(-34.46 -477.423)" fill="#243c82" fill-rule="evenodd"/><path d="M50.787,744.756a46.735,46.735,0,0,0-1.768,7.627C44.633,781.739,57.454,833.193,75,859.848s25.643,32.016,25.643,32.016H209.625s.071-1.985.135-4.825c-8.724-.412-34.738-1.818-51.52-4.592-20.413-3.374-23.112-11.134-23.112-11.134l4.555-7.761L122.307,867.1l3.036-9.786c-25.074-4.6-37.493-30.945-47.574-51.623l18.894-4.555c-23.891-9.993-43.336-28.434-45.876-56.375" transform="translate(-34.46 -532.979)" fill="#192f6e" fill-rule="evenodd"/></g></g><g transform="translate(310.015 329.853)"><g clip-path="url(#l)"><rect width="44.875" height="24.739" transform="translate(-0.922)" fill="url(#m)"/></g></g><g transform="translate(0 -0.003)"><g clip-path="url(#h)"><path d="M605.269,1117.849s47.743,3.627,82.833-4.472,45.213-16.194,45.213-16.194,1.6-2.447,7.17-2.953,21.257-1.518,21.257-1.518l4.048,2.447,1.181,1.348,12.569,7.677a7.053,7.053,0,0,1,2.193,4.174c.547,2.911,1.476,7.17,1.476,7.17s-.506,2.869-1.9,3.08a5.965,5.965,0,0,1-3.122-.76,7.347,7.347,0,0,1-1.223,4.935c-1.6,2.024-4.47,6.157-4.47,6.157s-4.471-.59-4.892-3.5a6.762,6.762,0,0,1,1.6-5.1L767.1,1117.6l-9.532.422-2.91,3.459,7.76-.169a5,5,0,0,1,2.489,4.176c.21,3.078.169,6.621.169,6.621s-3.164,4.471-3.417,4.64-2.868,1.012-2.868,1.012-2.868-1.814-2.827-2.911a15.191,15.191,0,0,0-.168-2.445,13.135,13.135,0,0,0-5.187,1.012c-14.657,5.545-17.247,5.474-32.982,5.6-2.693.02-7.888,1.866-11.133,1.866H602.654Z" transform="translate(-431.285 -781.992)" fill="#fba2b4" fill-rule="evenodd"/><path d="M928.05,1226.709c-.252.169-2.868,1.012-2.868,1.012s-2.868-1.814-2.827-2.911a15.208,15.208,0,0,0-.168-2.445,13.131,13.131,0,0,0-5.187,1.012c-14.657,5.545-17.247,5.474-32.983,5.6-2.692.02-7.888,1.866-11.133,1.866H835.164s15.858-5.368,21.172-6.634,21.678-3.8,21.678-3.8l-.927-1.6s6.242-.675,9.869.422,9.279,3.966,12.4,3.966,17.292-3.628,22.859-4.388,5.4-.506,6.158,1.771-.323,6.129-.323,6.129" transform="translate(-597.68 -871.956)" fill="#f7839a" fill-rule="evenodd"/><path d="M1152.43,1139.894s-.505,2.868-1.9,3.08a5.742,5.742,0,0,1-3.018-.7c-.292-.407-.463-.6-.463-.6a73.561,73.561,0,0,0-5.989-7.633c-2.74-2.868-4.6-3.543-5.525-3.712s-1.855,0-5.863,1.055-11.092,2.657-11.092,2.657l.844-1.266s8.857-5.019,13.5-5.9c4.791-.915,10.429,4.208,14.424,6.664,2.067,3.739,1.8,8.192,5.083,6.364" transform="translate(-800.507 -806.356)" fill="#f7839a" fill-rule="evenodd"/><path d="M1130.852,1172.869c-1.468,2-3.042,4.268-3.042,4.268s-4.472-.591-4.892-3.5a6.762,6.762,0,0,1,1.6-5.1l-2.108-2.741-9.532.422-2.91,3.459-10.819-.756,2.867-2.446,8.014-4.513,12.273-1.9s8.52,6.2,9.068,7.972-.521,4.839-.521,4.839" transform="translate(-786.599 -830.187)" fill="#f7839a" fill-rule="evenodd"/><path d="M1017.967,446.137c6.709-.62,3.8,7.117,3.291,10.712L987.181,614.842s-.548,4.85-3.711,5.9a6.951,6.951,0,0,1-5.9-1.012l-115.224-54.07s-1.35-.506-1.1-2.614S883.006,464.4,883.006,464.4c1.683-4.646,5.245-4.956,9.638-5.166Z" transform="translate(-616.321 -319.249)" fill="#162963" fill-rule="evenodd"/><path d="M998.244,977.391c-4.06,2.842-36.164,5.119-38,8.686a.99.99,0,0,0-.036.877,5.054,5.054,0,0,0,.9,1.012c4.278,3.837,27.36,17.469,29.725,18.919a14.868,14.868,0,0,0,11.641,1.35c4.133-1.433,30.693-11.5,32.258-13.72s-1.639-7.368-1.639-7.368l-23.112-10.123Z" transform="translate(-687.104 -699.201)" fill="#369" fill-rule="evenodd"/></g></g><g transform="translate(273.207 276.49)"><g clip-path="url(#o)"><rect width="39.065" height="78.366" transform="matrix(0.086, -0.996, 0.996, 0.086, -2.889, 32.401)" fill="url(#p)"/></g></g><g transform="translate(244.891 229.212)"><g clip-path="url(#q)"><rect width="90.164" height="139.038" transform="matrix(0.134, -0.991, 0.991, 0.134, -9.971, 72.017)" fill="url(#r)"/></g></g><g transform="translate(252.329 138.527)"><g clip-path="url(#s)"><rect width="137.86" height="154.04" transform="translate(-13.057 122.095) rotate(-83.896)" fill="url(#t)"/></g></g><g transform="translate(0 -0.003)"><g clip-path="url(#h)"><path d="M913.271,653.527l-7.93,33.573,64.952,22.268,9.447-45.718Z" transform="translate(-647.901 -467.692)" fill="#1bbeee" fill-rule="evenodd"/><path d="M937.21,561.543l13.585.432,108.035,3.443,1.162-5.384-122.005-1.841Z" transform="translate(-670.708 -399.466)" fill="#369" fill-rule="evenodd"/><path d="M1143.215,777.085l-5.791,26.229,42.236,14.244,6.574-29.507Z" transform="translate(-813.99 -556.115)" fill="#1bbeee" fill-rule="evenodd"/><path d="M935.774,635.881l-.759,2.869,47.911,6.874.591-3.879Z" transform="translate(-669.137 -455.063)" fill="#9ff" fill-rule="evenodd"/><path d="M1074.665,543.671l-.527,3.332,24.041.38.569-3.753Z" transform="translate(-768.7 -389.044)" fill="#9ff" fill-rule="evenodd"/><path d="M1212.537,798.141l-.8,3.628,23.7,6.453,1.054-4.092Z" transform="translate(-867.172 -571.183)" fill="#369" fill-rule="evenodd"/><path d="M1208.683,816.686l-.8,3.627,23.66,6.611,1.055-4.091Z" transform="translate(-864.412 -584.455)" fill="#369" fill-rule="evenodd"/><path d="M1204.825,835.226l-.8,3.627,23.577,6.916,1.053-4.091Z" transform="translate(-861.652 -597.723)" fill="#369" fill-rule="evenodd"/><path d="M1200.971,853.765l-.8,3.628,23.492,6.958,1.054-4.09Z" transform="translate(-858.894 -610.99)" fill="#369" fill-rule="evenodd"/><path d="M1283.8,505.27l-.527,3.332,24.04-.97.569-3.754Z" transform="translate(-918.365 -360.596)" fill="#9ff" fill-rule="evenodd"/><path d="M1181.094,642.109l-.8,3.627,44.031,4.681.757-4.119Z" transform="translate(-844.669 -459.521)" fill="#1bbeee" fill-rule="evenodd"/><path d="M1191.478,588.124l-.8,3.627,44.41,2.51.759-4.2Z" transform="translate(-852.101 -420.886)" fill="#1bbeee" fill-rule="evenodd"/><path d="M1044.811,794.243l-.8,3.628,23.57,7.055,1.054-4.091Z" transform="translate(-747.139 -568.394)" fill="#369" fill-rule="evenodd"/><path d="M999.533,544.9l-.419,2.646,19.089.3.452-2.981Z" transform="translate(-715.01 -389.929)" fill="#9ff" fill-rule="evenodd"/><path d="M1165.824,691.263l-4.411,21.492,42.086,10.237,5.525-25.687Z" transform="translate(-831.158 -494.697)" fill="#1bbeee" fill-rule="evenodd"/><path d="M1547.326,1120.791h-4.375a3.14,3.14,0,0,0-3.129,3.129v5a3.139,3.139,0,0,0,3.129,3.129h4.375a3.142,3.142,0,0,0,3.129-3.129v-5a3.14,3.14,0,0,0-3.129-3.129m-4.375-.617h4.375a3.756,3.756,0,0,1,3.746,3.746v5a3.757,3.757,0,0,1-3.746,3.746h-4.375a3.757,3.757,0,0,1-3.746-3.746v-5a3.756,3.756,0,0,1,3.746-3.746m20.7.617h-4.375a3.137,3.137,0,0,0-3.128,3.129v5a3.138,3.138,0,0,0,3.128,3.129h4.375a3.142,3.142,0,0,0,3.129-3.129v-5a3.14,3.14,0,0,0-3.129-3.129m-4.375-.617h4.375a3.756,3.756,0,0,1,3.746,3.746v5a3.759,3.759,0,0,1-3.746,3.746h-4.375a3.759,3.759,0,0,1-3.746-3.746v-5a3.757,3.757,0,0,1,3.746-3.746m-28.437.617h-4.374a3.138,3.138,0,0,0-3.129,3.129v5a3.137,3.137,0,0,0,3.129,3.129h4.374a3.141,3.141,0,0,0,3.128-3.129v-5a3.139,3.139,0,0,0-3.128-3.129m-4.374-.617h4.374a3.755,3.755,0,0,1,3.746,3.746v5a3.758,3.758,0,0,1-3.746,3.746h-4.374a3.755,3.755,0,0,1-3.747-3.746v-5a3.754,3.754,0,0,1,3.747-3.746" transform="translate(-1089.725 -801.644)" fill="#fff"/><path d="M481.307,389.778l-9.153,19.135a.773.773,0,0,1-1.143-.7c-.35-3.718,4.867-13.454,1.448-14.38-1.032-.28-31.178-11.266-31.178-11.266s-4.1-2.61-4.1-3.287,1.7-.606,1.7-.606l36.882,12.685s1.4-.58,2.613-1.181a5.227,5.227,0,0,1,2.423-.668,1.787,1.787,0,0,1,.5.268" transform="translate(-312.866 -270.994)" fill="#162963" fill-rule="evenodd"/></g></g></g></g></svg>