<svg xmlns="http://www.w3.org/2000/svg" xmlns:xlink="http://www.w3.org/1999/xlink" width="188" height="179.828" viewBox="0 0 188 179.828"><defs><clipPath id="a"><rect width="188" height="179.828" fill="none"/></clipPath><clipPath id="c"><rect width="130.494" height="76.558" fill="none"/></clipPath><clipPath id="d"><rect width="50.701" height="29.283" fill="none"/></clipPath><clipPath id="e"><rect width="57.546" height="29.445" fill="none"/></clipPath><clipPath id="f"><rect width="30.366" height="12.261" fill="none"/></clipPath><clipPath id="g"><rect width="30.366" height="15.374" fill="none"/></clipPath><clipPath id="h"><rect width="22.331" height="12.893" fill="none"/></clipPath></defs><g clip-path="url(#a)"><g clip-path="url(#a)"><g transform="translate(43.68 89.057)" opacity="0.5"><g clip-path="url(#c)"><path d="M153.434,256.219l-63.706-36.78a2.148,2.148,0,0,1,0-3.719L150.3,180.751l67.773,39.129a2.147,2.147,0,0,1,0,3.719l-56.506,32.62a8.134,8.134,0,0,1-8.135,0" transform="translate(-88.654 -180.751)" fill="#173d7a"/></g></g><path d="M146.719,136.357c0-4.045-2.845-5.693-6.35-3.674L80.787,167.012a3.857,3.857,0,0,0-1.747,3.02c0,1.112.78,1.563,1.743,1.008l59.582-34.328c1.581-.911,2.866-.168,2.864,1.657l-.006,6.663c1.156-.072,2.317-.073,3.488-.053Z" transform="translate(-40.097 -66.872)" fill="#ff2c9c"/><path d="M80.738,196.557l59.581-21.712a14.065,14.065,0,0,0,6.364-11l0-5.333c-1.172-.02-2.332-.019-3.488.053l-.007,7.291a6.343,6.343,0,0,1-2.87,4.961L80.742,192.529A3.857,3.857,0,0,0,79,195.549c0,1.112.779,1.564,1.743,1.009" transform="translate(-40.074 -80.408)" fill="#d3008d"/><path d="M79.911,229.632l72.478,41.939,61.364-36.6,4.868-7.266-.506,2.574-1.308-6.74L102.9,227.889,82.831,226.6Z" transform="translate(-40.538 -113.403)" fill="#d3008d"/><path d="M84.769,210.213l-.02,8.922,70.05,40.527,1.892-8.5Z" transform="translate(-42.993 -106.64)" fill="#e573b5"/><path d="M217.788,174.617l-72.363-41.865L80.182,170.693l-.135.932,72.47,41.927Z" transform="translate(-40.607 -67.344)" fill="#ff2c9c"/><path d="M269.2,242.664l17.014-10.093a6.391,6.391,0,0,0,2.559-4.745l.013-1.337a1.847,1.847,0,0,0-1.148-1.981l-33.493,18.633-27.274,14.752.025,9.02Z" transform="translate(-115.092 -113.892)" fill="#fff"/><path d="M154.324,249.368l-71.9-41.6-1.524-.882-1.392-.806a3.511,3.511,0,0,0-.464,1.622,1.232,1.232,0,0,0,.5,1.117v0l.011.006.005,0,72.453,41.917Z" transform="translate(-40.097 -104.544)" fill="#d3008d"/><path d="M225.18,319.744l.9.523.167-.288-.563-.443Z" transform="translate(-114.233 -162.099)" fill="#fff"/><path d="M225.227,295.638l.926.536-.232-.506Z" transform="translate(-114.257 -149.976)" fill="#fff"/><path d="M227.849,252.107l59.581-34.328c3.505-2.02,6.354-.372,6.35,3.674l-.012,1.337a14.066,14.066,0,0,1-6.364,11l-59.581,34.328c-.964.555-1.744.1-1.743-1.009a3.857,3.857,0,0,1,1.747-3.019l59.582-34.328a6.342,6.342,0,0,0,2.87-4.961l.013-1.336c0-1.825-1.283-2.568-2.864-1.657l-59.581,34.328c-.964.555-1.745.1-1.744-1.009a3.857,3.857,0,0,1,1.747-3.019" transform="translate(-114.689 -110.04)" fill="#ff2c9c"/><path d="M225.1,271.761a3.857,3.857,0,0,1,1.747-3.019l59.582-34.328a6.341,6.341,0,0,0,2.87-4.961l.013-1.336c0-1.195-.551-1.922-1.375-2.028a2.4,2.4,0,0,1,.42,1.476l-.012,1.336a6.343,6.343,0,0,1-2.87,4.961l-59.582,34.328a3.856,3.856,0,0,0-1.747,3.019c0,.843.448,1.3,1.085,1.237a1.679,1.679,0,0,1-.13-.685" transform="translate(-113.706 -114.693)" fill="#fff"/><path d="M225.141,254.559a3.856,3.856,0,0,1,1.747-3.019l59.581-34.328a4.806,4.806,0,0,1,3.986-.666c-1.165-.994-2.945-1.036-4.941.114l-59.581,34.328a3.855,3.855,0,0,0-1.747,3.019c0,.843.448,1.3,1.084,1.237a1.685,1.685,0,0,1-.13-.685" transform="translate(-113.729 -109.473)" fill="#fff"/><path d="M284.77,54.269,220.486,17.155a2.593,2.593,0,0,0-2.178-.267l0-.007-.117.044-.029.011-2.323.889,2.085,1.021c-.009.038-.021.074-.03.113L207.427,66.622c-.524,2.385.526,5.17,2.344,6.22l62.738,36.222-.224,2.659,2.539-.984a3.568,3.568,0,0,0,1.818-2.586l10.471-47.663c.524-2.385-.525-5.17-2.344-6.22" transform="translate(-105.158 -8.501)" fill="#173d7a"/><path d="M288.585,54.269,224.3,17.155a2.593,2.593,0,0,0-2.178-.267l0-.007-.117.044-.029.011-2.323.889,2.085,1.021c-.009.038-.021.074-.03.113l-6.9,31.413,31.453,24.505,44.35-18.046a4.988,4.988,0,0,0-2.03-2.562" transform="translate(-108.973 -8.501)" fill="#396caa"/><path d="M354.644,100.572l4.894-2.084a6.13,6.13,0,0,0-1.983-4.9l-7.746,3.258Z" transform="translate(-177.456 -47.477)" fill="#274f89"/><path d="M265.931,112.392,201.647,75.278c-1.819-1.05-2.868-3.835-2.344-6.22L209.774,21.4c.524-2.386,2.423-3.468,4.242-2.418L278.3,56.092c1.819,1.049,2.868,3.834,2.344,6.22l-10.47,47.663c-.524,2.385-2.423,3.468-4.242,2.418" transform="translate(-101.037 -9.423)" fill="#d4ecff"/><path d="M292.233,55.638,227.949,18.524a2.543,2.543,0,0,0-2.531-.11,2.642,2.642,0,0,1,1.914.337l64.284,37.114c1.819,1.05,2.868,3.835,2.344,6.22l-10.471,47.662a3.624,3.624,0,0,1-1.711,2.528,3.312,3.312,0,0,0,2.328-2.754l10.471-47.662c.524-2.385-.525-5.17-2.344-6.22" transform="translate(-114.353 -9.196)" fill="#fff"/><path d="M267.259,112.446,206.8,77.558a5.509,5.509,0,0,1-2.145-5.692l9.582-43.615c.479-2.183,2.217-3.174,3.882-2.213l60.458,34.888a5.508,5.508,0,0,1,2.145,5.692l-9.582,43.615c-.48,2.183-2.218,3.174-3.882,2.213" transform="translate(-103.758 -13.023)" fill="#fff"/><path d="M267.259,112.446,206.8,77.558a5.509,5.509,0,0,1-2.145-5.692l9.582-43.615c.479-2.183,2.217-3.174,3.882-2.213l60.458,34.888a5.508,5.508,0,0,1,2.145,5.692l-9.582,43.615c-.48,2.183-2.218,3.174-3.882,2.213" transform="translate(-103.758 -13.023)" fill="#173d7a"/><path d="M267.786,112.3,207.327,77.415a5.509,5.509,0,0,1-2.145-5.692l9.582-43.616a3.347,3.347,0,0,1,1.523-2.3,3.077,3.077,0,0,0-2.05,2.51l-9.582,43.615a5.507,5.507,0,0,0,2.145,5.692l60.458,34.888a2.322,2.322,0,0,0,2.358.083,2.411,2.411,0,0,1-1.831-.3" transform="translate(-103.758 -13.094)" fill="#5793ce"/><path d="M214.862,176.624l-8.787-1.16-56.723-32.749a7.885,7.885,0,0,0-7.095.294l-40.194,23.2-5.313-.7v3.015h.005a2.069,2.069,0,0,0,1.22,1.862L162.259,207.5a7.884,7.884,0,0,0,7.094-.294l43.773-25.264a2.864,2.864,0,0,0,1.736-2.386Z" transform="translate(-49.08 -72.039)" fill="#173d7a"/><path d="M172.242,167.872l-4.03-2.327H123.9l-21.843,12.6-5.313-.7v3.015h.005a2.069,2.069,0,0,0,1.22,1.862l64.284,37.114a6.647,6.647,0,0,0,3.661.686Z" transform="translate(-49.08 -83.98)" fill="#396caa"/><path d="M99.107,190.01l-2.358-.311v3.015h.005a2.068,2.068,0,0,0,1.22,1.862l1.133.654Z" transform="translate(-49.08 -96.233)" fill="#5793ce"/><path d="M231.022,268.229a8.232,8.232,0,0,0,6.028-.374V261.13h-6.028Z" transform="translate(-117.196 -132.47)" fill="#274f89"/><path d="M162.256,199.34,97.972,162.225c-1.819-1.05-1.59-2.884.509-4.1l43.772-25.264a7.887,7.887,0,0,1,7.095-.294l64.284,37.115c1.819,1.049,1.59,2.883-.509,4.1l-43.772,25.264a7.885,7.885,0,0,1-7.095.294" transform="translate(-49.078 -66.893)" fill="#d4ecff"/><path d="M213.127,201.536,169.354,226.8a7.887,7.887,0,0,1-7.095.294L97.975,189.98a2.393,2.393,0,0,1-1.13-1.237,1.944,1.944,0,0,0,1.13,2.338L162.259,228.2a7.887,7.887,0,0,0,7.095-.294l43.773-25.264c1.412-.815,1.973-1.91,1.64-2.86a3.415,3.415,0,0,1-1.64,1.758" transform="translate(-49.081 -95.748)" fill="#fff"/><path d="M151.57,164.1l-2.908-1.679c-.234-.135-.2-.371.065-.526l3.433-1.982a1.015,1.015,0,0,1,.911-.038l2.908,1.68c.234.135.2.37-.066.526l-3.433,1.982a1.012,1.012,0,0,1-.911.038" transform="translate(-75.335 -81.06)" fill="#5793ce"/><path d="M160.687,169.369l-2.908-1.679c-.234-.135-.2-.371.065-.526l3.433-1.982a1.015,1.015,0,0,1,.911-.038l2.908,1.68c.234.135.2.37-.066.526l-3.433,1.982a1.012,1.012,0,0,1-.911.038" transform="translate(-79.96 -83.73)" fill="#5793ce"/><path d="M169.8,174.632l-2.908-1.679c-.234-.135-.2-.371.065-.526l3.433-1.982a1.015,1.015,0,0,1,.911-.038l2.908,1.68c.234.135.2.37-.066.526l-3.433,1.982a1.012,1.012,0,0,1-.911.038" transform="translate(-84.585 -86.4)" fill="#5793ce"/><path d="M182.412,170.613l-2.908-1.679c-.234-.135-.2-.371.065-.526l2.882-1.664a1.013,1.013,0,0,1,.911-.038l2.908,1.68c.234.135.2.37-.065.526l-2.882,1.664a1.012,1.012,0,0,1-.911.038" transform="translate(-90.981 -84.523)" fill="#5793ce"/><path d="M191.529,175.877,188.62,174.2c-.234-.135-.2-.371.065-.526l2.882-1.664a1.014,1.014,0,0,1,.911-.038l2.908,1.68c.234.135.2.37-.066.526l-2.881,1.664a1.012,1.012,0,0,1-.911.038" transform="translate(-95.606 -87.193)" fill="#5793ce"/><path d="M200.645,181.14l-2.908-1.679c-.234-.135-.2-.371.065-.526l2.882-1.664a1.014,1.014,0,0,1,.911-.038l2.908,1.68c.234.135.2.37-.065.526l-2.882,1.664a1.012,1.012,0,0,1-.911.038" transform="translate(-100.231 -89.863)" fill="#5793ce"/><path d="M209.762,186.4l-2.908-1.679c-.234-.135-.2-.371.065-.526l2.882-1.664a1.013,1.013,0,0,1,.911-.038l2.908,1.68c.234.135.2.37-.065.526l-2.882,1.664a1.012,1.012,0,0,1-.911.038" transform="translate(-104.855 -92.533)" fill="#5793ce"/><path d="M218.878,191.667l-2.908-1.679c-.234-.135-.2-.371.065-.526l2.882-1.664a1.014,1.014,0,0,1,.911-.038l2.908,1.68c.234.135.2.37-.066.526l-2.882,1.664a1.012,1.012,0,0,1-.911.038" transform="translate(-109.48 -95.203)" fill="#5793ce"/><path d="M227.995,196.931l-2.908-1.679c-.234-.135-.2-.371.065-.526l2.882-1.664a1.013,1.013,0,0,1,.911-.038l2.908,1.68c.234.134.2.37-.066.526l-2.882,1.664a1.012,1.012,0,0,1-.911.038" transform="translate(-114.105 -97.874)" fill="#5793ce"/><path d="M237.111,202.194l-2.908-1.679c-.234-.135-.2-.371.065-.526l2.882-1.664a1.013,1.013,0,0,1,.911-.038l2.908,1.68c.234.134.2.37-.066.526l-2.882,1.664a1.012,1.012,0,0,1-.911.038" transform="translate(-118.73 -100.544)" fill="#5793ce"/><path d="M246.228,207.457l-2.908-1.679c-.234-.135-.2-.371.065-.526l2.882-1.664a1.013,1.013,0,0,1,.911-.038l2.908,1.68c.234.134.2.37-.066.526l-2.882,1.664a1.012,1.012,0,0,1-.911.038" transform="translate(-123.355 -103.214)" fill="#5793ce"/><path d="M255.344,212.721l-2.908-1.679c-.234-.135-.2-.371.065-.526l2.882-1.664a1.013,1.013,0,0,1,.911-.038l2.908,1.68c.234.135.2.37-.066.526l-2.882,1.664a1.012,1.012,0,0,1-.911.038" transform="translate(-127.979 -105.884)" fill="#5793ce"/><path d="M264.461,217.984l-2.908-1.679c-.234-.135-.2-.371.065-.526l2.882-1.664a1.014,1.014,0,0,1,.911-.038l2.908,1.68c.234.135.2.37-.066.526l-2.882,1.664a1.012,1.012,0,0,1-.911.038" transform="translate(-132.604 -108.554)" fill="#5793ce"/><path d="M195.845,168.121l-2.908-1.679c-.234-.135-.2-.371.065-.526l2.882-1.664a1.015,1.015,0,0,1,.911-.038l2.908,1.68c.234.135.2.37-.066.526l-2.882,1.664a1.01,1.01,0,0,1-.911.038" transform="translate(-97.796 -83.259)" fill="#5793ce"/><path d="M186.592,162.779l-2.908-1.679c-.234-.135-.2-.371.065-.527l2.882-1.664a1.017,1.017,0,0,1,.911-.038l2.908,1.68c.234.135.2.371-.066.526l-2.882,1.664a1.01,1.01,0,0,1-.911.038" transform="translate(-93.102 -80.549)" fill="#5793ce"/><path d="M173.869,155.434l-6.264-3.617c-.234-.135-.2-.37.065-.526l2.882-1.664a1.012,1.012,0,0,1,.911-.038l6.264,3.617c.234.134.2.37-.066.526L174.78,155.4a1.012,1.012,0,0,1-.911.038" transform="translate(-84.945 -75.84)" fill="#5793ce"/><path d="M181.563,149.629l-5.084-2.935c-.234-.135-.2-.371.066-.526l2.882-1.664a1.012,1.012,0,0,1,.911-.037l5.084,2.935c.234.135.2.37-.065.526l-2.882,1.664a1.012,1.012,0,0,1-.911.038" transform="translate(-89.447 -73.241)" fill="#5793ce"/><path d="M204.961,173.385l-2.908-1.679c-.234-.135-.2-.371.065-.526L205,169.515a1.014,1.014,0,0,1,.911-.038l2.908,1.68c.234.135.2.37-.065.526l-2.882,1.664a1.012,1.012,0,0,1-.911.038" transform="translate(-102.42 -85.929)" fill="#5793ce"/><path d="M214.078,178.648l-2.908-1.679c-.234-.135-.2-.371.065-.526l2.882-1.664a1.013,1.013,0,0,1,.911-.038l2.908,1.68c.234.135.2.37-.066.526l-2.882,1.664a1.012,1.012,0,0,1-.911.038" transform="translate(-107.045 -88.599)" fill="#5793ce"/><path d="M223.194,183.912l-2.908-1.679c-.234-.135-.2-.371.065-.526l2.882-1.664a1.013,1.013,0,0,1,.911-.038l2.908,1.68c.234.135.2.37-.066.526l-2.882,1.664a1.012,1.012,0,0,1-.911.038" transform="translate(-111.67 -91.269)" fill="#5793ce"/><path d="M232.311,189.175,229.4,187.5c-.234-.135-.2-.371.066-.526l2.882-1.664a1.013,1.013,0,0,1,.911-.038l2.908,1.68c.234.135.2.37-.065.526l-2.882,1.664a1.012,1.012,0,0,1-.911.038" transform="translate(-116.295 -93.939)" fill="#5793ce"/><path d="M241.427,194.439l-2.908-1.679c-.234-.135-.2-.371.065-.526l2.882-1.664a1.013,1.013,0,0,1,.911-.038l2.908,1.68c.234.135.2.37-.066.526l-2.882,1.664a1.012,1.012,0,0,1-.911.038" transform="translate(-120.919 -96.61)" fill="#5793ce"/><path d="M250.544,199.7l-2.908-1.679c-.234-.135-.2-.371.065-.526l2.882-1.664a1.013,1.013,0,0,1,.911-.038l2.908,1.68c.234.135.2.37-.065.526l-2.882,1.664a1.012,1.012,0,0,1-.911.038" transform="translate(-125.544 -99.279)" fill="#5793ce"/><path d="M259.66,204.965l-2.908-1.679c-.234-.135-.2-.37.065-.526L259.7,201.1a1.014,1.014,0,0,1,.911-.038l2.908,1.68c.234.135.2.37-.066.526l-2.882,1.664a1.012,1.012,0,0,1-.911.038" transform="translate(-130.169 -101.949)" fill="#5793ce"/><path d="M268.777,210.229l-2.908-1.679c-.234-.135-.2-.371.065-.526l2.882-1.664a1.013,1.013,0,0,1,.911-.038l2.908,1.68c.234.134.2.37-.066.526l-2.882,1.664a1.012,1.012,0,0,1-.911.038" transform="translate(-134.794 -104.62)" fill="#5793ce"/><path d="M277.893,215.492l-2.908-1.679c-.234-.135-.2-.371.065-.526l2.882-1.664a1.013,1.013,0,0,1,.911-.038l2.908,1.68c.234.134.2.37-.065.526l-2.882,1.664a1.012,1.012,0,0,1-.911.038" transform="translate(-139.418 -107.29)" fill="#5793ce"/><path d="M290.561,222.806l-6.347-3.664c-.234-.135-.2-.37.066-.526l2.882-1.664a1.013,1.013,0,0,1,.911-.038l6.346,3.664c.234.135.2.37-.066.526l-2.882,1.664a1.012,1.012,0,0,1-.911.038" transform="translate(-144.101 -109.993)" fill="#5793ce"/><path d="M309.328,213.146l-5.357-3.093c-.234-.135-.2-.371.066-.526l2.882-1.664a1.011,1.011,0,0,1,.911-.038l5.356,3.093c.234.135.2.37-.065.526l-2.882,1.664a1.012,1.012,0,0,1-.911.038" transform="translate(-154.123 -105.383)" fill="#5793ce"/><path d="M220.926,172.355l-2.908-1.679c-.234-.135-.2-.371.066-.526l2.882-1.664a1.014,1.014,0,0,1,.911-.038l2.908,1.68c.234.135.2.37-.065.526l-2.882,1.664a1.012,1.012,0,0,1-.911.038" transform="translate(-110.519 -85.406)" fill="#5793ce"/><path d="M211.583,166.961l-2.908-1.679c-.234-.135-.2-.371.065-.526l2.882-1.664a1.013,1.013,0,0,1,.911-.038l2.908,1.68c.234.134.2.37-.065.526l-2.882,1.664a1.012,1.012,0,0,1-.911.038" transform="translate(-105.78 -82.67)" fill="#5793ce"/><path d="M202.239,161.566l-2.908-1.679c-.234-.135-.2-.371.065-.526l2.882-1.664a1.014,1.014,0,0,1,.911-.038l2.908,1.68c.234.135.2.37-.065.526l-2.882,1.664a1.012,1.012,0,0,1-.911.038" transform="translate(-101.039 -79.933)" fill="#5793ce"/><path d="M192.9,156.172l-2.908-1.679c-.234-.135-.2-.371.065-.526l2.882-1.664a1.013,1.013,0,0,1,.911-.038l2.908,1.68c.234.135.2.37-.066.526l-2.882,1.664a1.012,1.012,0,0,1-.911.038" transform="translate(-96.3 -77.197)" fill="#5793ce"/><path d="M230.043,177.618l-2.908-1.679c-.234-.135-.2-.371.065-.526l2.882-1.664a1.013,1.013,0,0,1,.911-.038l2.908,1.68c.234.134.2.37-.066.526l-2.882,1.664a1.012,1.012,0,0,1-.911.038" transform="translate(-115.144 -88.076)" fill="#5793ce"/><path d="M239.159,182.882l-2.908-1.679c-.234-.135-.2-.371.065-.526l2.882-1.664a1.014,1.014,0,0,1,.911-.038l2.908,1.68c.234.135.2.37-.065.526l-2.882,1.664a1.012,1.012,0,0,1-.911.038" transform="translate(-119.769 -90.747)" fill="#5793ce"/><path d="M248.276,188.145l-2.908-1.679c-.234-.135-.2-.371.065-.526l2.882-1.664a1.013,1.013,0,0,1,.911-.038l2.908,1.68c.234.135.2.37-.065.526l-2.882,1.664a1.012,1.012,0,0,1-.911.038" transform="translate(-124.394 -93.417)" fill="#5793ce"/><path d="M257.392,193.409l-2.908-1.679c-.234-.135-.2-.371.065-.526l2.882-1.664a1.013,1.013,0,0,1,.911-.038l2.908,1.68c.234.135.2.37-.066.526l-2.882,1.664a1.012,1.012,0,0,1-.911.038" transform="translate(-129.018 -96.087)" fill="#5793ce"/><path d="M266.509,198.672l-2.908-1.679c-.234-.135-.2-.371.065-.526l2.882-1.664a1.014,1.014,0,0,1,.911-.038l2.908,1.68c.234.135.2.37-.066.526l-2.882,1.664a1.012,1.012,0,0,1-.911.038" transform="translate(-133.643 -98.757)" fill="#5793ce"/><path d="M275.625,203.936l-2.908-1.679c-.234-.135-.2-.371.065-.526l2.882-1.664a1.013,1.013,0,0,1,.911-.038l2.908,1.68c.234.135.2.37-.066.526l-2.882,1.664a1.012,1.012,0,0,1-.911.038" transform="translate(-138.268 -101.427)" fill="#5793ce"/><path d="M284.742,209.2l-2.908-1.679c-.234-.135-.2-.371.065-.526l2.882-1.664a1.013,1.013,0,0,1,.911-.038l2.908,1.68c.234.134.2.37-.066.526l-2.882,1.664a1.012,1.012,0,0,1-.911.038" transform="translate(-142.893 -104.097)" fill="#5793ce"/><path d="M293.858,214.463l-2.908-1.679c-.234-.135-.2-.371.066-.526l2.882-1.664a1.014,1.014,0,0,1,.911-.038l2.908,1.68c.234.135.2.37-.065.526l-2.882,1.664a1.012,1.012,0,0,1-.911.038" transform="translate(-147.517 -106.768)" fill="#5793ce"/><path d="M302.975,219.726l-2.908-1.679c-.234-.135-.2-.371.065-.526l2.882-1.664a1.013,1.013,0,0,1,.911-.038l2.908,1.68c.234.134.2.37-.066.526l-2.882,1.664a1.012,1.012,0,0,1-.911.038" transform="translate(-152.142 -109.438)" fill="#5793ce"/><path d="M216.126,159.336l-2.908-1.679c-.234-.135-.2-.371.065-.526l2.882-1.664a1.013,1.013,0,0,1,.911-.038l2.908,1.68c.234.134.2.37-.065.526l-2.882,1.664a1.012,1.012,0,0,1-.911.038" transform="translate(-108.084 -78.802)" fill="#5793ce"/><path d="M207.055,154.1l-2.908-1.679c-.234-.135-.2-.371.065-.526l2.882-1.664a1.013,1.013,0,0,1,.911-.038l2.908,1.68c.234.134.2.37-.065.526l-2.882,1.664a1.012,1.012,0,0,1-.911.038" transform="translate(-103.482 -76.145)" fill="#5793ce"/><path d="M197.983,148.862l-2.908-1.679c-.234-.135-.2-.371.065-.526l2.882-1.664a1.013,1.013,0,0,1,.911-.038l2.908,1.68c.234.134.2.37-.065.526l-2.882,1.664a1.012,1.012,0,0,1-.911.038" transform="translate(-98.88 -73.489)" fill="#5793ce"/><path d="M188.912,143.625,186,141.945c-.234-.135-.2-.371.065-.526l2.882-1.664a1.013,1.013,0,0,1,.911-.038l2.908,1.68c.234.134.2.37-.066.526l-2.882,1.664a1.012,1.012,0,0,1-.911.038" transform="translate(-94.279 -70.832)" fill="#5793ce"/><path d="M198.24,139.385l-2.908-1.679c-.234-.135-.2-.371.065-.526l.953-.55a1.012,1.012,0,0,1,.911-.038l2.909,1.679c.234.135.2.371-.066.526l-.953.55a1.012,1.012,0,0,1-.911.038" transform="translate(-99.011 -69.246)" fill="#5793ce"/><path d="M210.078,146.22l-2.908-1.679c-.234-.135-.2-.371.065-.526l.953-.55a1.012,1.012,0,0,1,.911-.038l2.909,1.679c.234.135.2.371-.066.526l-.953.55a1.012,1.012,0,0,1-.911.038" transform="translate(-105.016 -72.714)" fill="#5793ce"/><path d="M219.111,151.435l-2.908-1.679c-.234-.135-.2-.371.065-.526l.953-.55a1.012,1.012,0,0,1,.911-.038l2.909,1.679c.234.135.2.371-.066.526l-.953.55a1.012,1.012,0,0,1-.911.038" transform="translate(-109.598 -75.359)" fill="#5793ce"/><path d="M228.145,156.65l-2.908-1.679c-.234-.135-.2-.371.066-.526l.952-.55a1.012,1.012,0,0,1,.911-.038l2.909,1.679c.234.135.2.371-.066.526l-.953.55a1.012,1.012,0,0,1-.911.038" transform="translate(-114.181 -78.005)" fill="#5793ce"/><path d="M237.178,161.866l-2.908-1.679c-.234-.135-.2-.371.066-.526l.952-.55a1.012,1.012,0,0,1,.911-.038l2.909,1.679c.234.135.2.371-.066.526l-.953.55a1.012,1.012,0,0,1-.911.038" transform="translate(-118.764 -80.651)" fill="#5793ce"/><path d="M287.61,190.983,284.7,189.3c-.234-.135-.2-.371.065-.526l.953-.55a1.012,1.012,0,0,1,.911-.038l2.909,1.679c.234.135.2.371-.066.526l-.953.55a1.012,1.012,0,0,1-.911.038" transform="translate(-144.348 -95.422)" fill="#5793ce"/><path d="M296.643,196.2l-2.909-1.679c-.234-.135-.2-.371.065-.526l.953-.55a1.012,1.012,0,0,1,.911-.038l2.908,1.679c.234.135.2.371-.066.526l-.952.55a1.012,1.012,0,0,1-.911.038" transform="translate(-148.93 -98.067)" fill="#5793ce"/><path d="M305.677,201.414l-2.908-1.679c-.234-.135-.2-.371.065-.526l.953-.55a1.012,1.012,0,0,1,.911-.038l2.909,1.679c.234.135.2.371-.066.526l-.953.55a1.012,1.012,0,0,1-.911.038" transform="translate(-153.513 -100.713)" fill="#5793ce"/><path d="M314.71,206.629,311.8,204.95c-.234-.135-.2-.371.065-.526l.953-.55a1.012,1.012,0,0,1,.911-.038l2.909,1.679c.234.135.2.371-.066.526l-.953.55a1.012,1.012,0,0,1-.911.038" transform="translate(-158.095 -103.359)" fill="#5793ce"/><path d="M225.242,164.6l-2.908-1.679c-.234-.135-.2-.371.066-.526l2.882-1.664a1.014,1.014,0,0,1,.911-.038l2.908,1.68c.234.134.2.37-.065.526l-2.882,1.664a1.012,1.012,0,0,1-.911.038" transform="translate(-112.709 -81.472)" fill="#5793ce"/><path d="M234.359,169.863l-2.908-1.679c-.234-.135-.2-.371.065-.526l2.882-1.664a1.013,1.013,0,0,1,.911-.038l2.908,1.68c.234.135.2.37-.066.526l-2.882,1.664a1.012,1.012,0,0,1-.911.038" transform="translate(-117.334 -84.142)" fill="#5793ce"/><path d="M243.475,175.127l-2.908-1.679c-.234-.135-.2-.371.065-.526l2.882-1.664a1.014,1.014,0,0,1,.911-.038l2.908,1.68c.234.135.2.37-.065.526l-2.882,1.664a1.012,1.012,0,0,1-.911.038" transform="translate(-121.958 -86.813)" fill="#5793ce"/><path d="M252.592,180.39l-2.908-1.679c-.234-.135-.2-.371.065-.526l2.882-1.664a1.014,1.014,0,0,1,.911-.038l2.908,1.68c.234.135.2.37-.066.526l-2.882,1.664a1.012,1.012,0,0,1-.911.038" transform="translate(-126.583 -89.483)" fill="#5793ce"/><path d="M261.708,185.653l-2.908-1.679c-.234-.135-.2-.371.065-.526l2.882-1.664a1.014,1.014,0,0,1,.911-.038l2.908,1.68c.234.135.2.37-.066.526l-2.882,1.664a1.012,1.012,0,0,1-.911.038" transform="translate(-131.208 -92.152)" fill="#5793ce"/><path d="M270.825,190.917l-2.908-1.679c-.234-.135-.2-.371.065-.526l2.882-1.664a1.014,1.014,0,0,1,.911-.038l2.908,1.68c.234.135.2.37-.065.526l-2.882,1.664a1.012,1.012,0,0,1-.911.038" transform="translate(-135.833 -94.823)" fill="#5793ce"/><path d="M279.941,196.18l-2.909-1.679c-.234-.135-.2-.371.065-.526l2.882-1.664a1.014,1.014,0,0,1,.911-.038l2.909,1.68c.234.135.2.37-.066.526l-2.882,1.664a1.012,1.012,0,0,1-.911.038" transform="translate(-140.457 -97.493)" fill="#5793ce"/><path d="M289.058,201.444l-2.908-1.679c-.234-.135-.2-.371.065-.526l2.882-1.664a1.013,1.013,0,0,1,.911-.038l2.908,1.68c.234.134.2.37-.066.526l-2.882,1.664a1.012,1.012,0,0,1-.911.038" transform="translate(-145.082 -100.163)" fill="#5793ce"/><path d="M298.174,206.707l-2.909-1.679c-.234-.135-.2-.371.065-.526l2.882-1.664a1.013,1.013,0,0,1,.911-.038l2.909,1.68c.234.134.2.37-.066.526l-2.882,1.664a1.012,1.012,0,0,1-.911.038" transform="translate(-149.707 -102.833)" fill="#5793ce"/><path d="M167.3,161.886l-8.566-4.946c-.234-.135-.2-.371.065-.526l2.882-1.664a1.01,1.01,0,0,1,.911-.038l8.566,4.946c.234.135.2.37-.065.526l-2.882,1.664a1.012,1.012,0,0,1-.911.038" transform="translate(-80.443 -78.439)" fill="#5793ce"/><path d="M279.295,226.549l-8.566-4.946c-.234-.135-.2-.37.066-.526l2.882-1.664a1.012,1.012,0,0,1,.911-.038l8.566,4.946c.234.135.2.37-.066.526l-2.882,1.664a1.012,1.012,0,0,1-.911.038" transform="translate(-137.259 -111.242)" fill="#5793ce"/><path d="M248.662,220.161l-2.908-1.679c-.234-.135-.2-.371.065-.526l3.433-1.982a1.015,1.015,0,0,1,.911-.038l2.908,1.68c.234.135.2.37-.066.526l-3.433,1.982a1.012,1.012,0,0,1-.911.038" transform="translate(-124.589 -109.497)" fill="#5793ce"/><path d="M180.663,180.9l-4.652-2.686c-.234-.135-.2-.37.066-.526l3.433-1.982a1.012,1.012,0,0,1,.911-.038l4.652,2.686c.234.135.2.37-.066.526l-3.433,1.982a1.012,1.012,0,0,1-.911.038" transform="translate(-89.21 -89.07)" fill="#5793ce"/><path d="M238.083,214.054l-4.652-2.686c-.234-.135-.2-.37.066-.526l3.433-1.982a1.012,1.012,0,0,1,.911-.038l4.652,2.686c.234.135.2.37-.066.526l-3.433,1.982a1.012,1.012,0,0,1-.911.038" transform="translate(-118.339 -105.888)" fill="#5793ce"/><path d="M193.816,188.5l-4.652-2.686c-.234-.135-.2-.37.066-.526l3.433-1.982a1.012,1.012,0,0,1,.911-.038l4.652,2.686c.234.135.2.37-.066.526l-3.433,1.982a1.012,1.012,0,0,1-.911.038" transform="translate(-95.882 -92.923)" fill="#5793ce"/><path d="M193.8,183.4l20.224,11.677a.277.277,0,0,1,0,.524l-3.5,2.022a1,1,0,0,1-.909,0l-20.224-11.677Z" transform="translate(-96.077 -93.035)" fill="#5793ce"/><path d="M274.895,234.071l3.24,1.87c.191.111.167.3-.054.432l-1.4.811a.831.831,0,0,1-.747.031l-3.24-1.87c-.191-.111-.168-.3.054-.432l1.4-.811a.831.831,0,0,1,.747-.031" transform="translate(-138.269 -118.705)" fill="#5793ce"/><path d="M265.7,228.764l3.24,1.87c.191.111.167.3-.054.432l-1.4.811a.83.83,0,0,1-.746.031l-3.24-1.87c-.192-.111-.168-.3.054-.432l1.4-.811a.831.831,0,0,1,.747-.031" transform="translate(-133.605 -116.013)" fill="#5793ce"/><path d="M256.587,223.5l3.24,1.87c.191.111.167.3-.054.432l-1.4.811a.83.83,0,0,1-.746.031l-3.24-1.87c-.191-.111-.168-.3.054-.432l1.4-.811a.831.831,0,0,1,.747-.031" transform="translate(-128.981 -113.343)" fill="#5793ce"/><path d="M270.738,225.858l3.24,1.87c.191.111.167.3-.054.432l-1.4.811a.83.83,0,0,1-.746.031l-3.24-1.87c-.191-.111-.168-.3.054-.432l1.4-.811a.831.831,0,0,1,.747-.031" transform="translate(-136.16 -114.539)" fill="#5793ce"/><path d="M284.241,107.229,260.046,93.26l.311-1.573,24.195,13.969Z" transform="translate(-131.92 -46.512)" fill="#d4ecff"/><path d="M274.175,116.959l-16.889-9.751.311-1.573,16.889,9.751Z" transform="translate(-130.52 -53.588)" fill="#d4ecff"/><path d="M273.277,108.67l-14.611-8.436.311-1.573,14.611,8.436Z" transform="translate(-131.22 -50.05)" fill="#fff"/><path d="M300.25,124.243l-7.306-4.218.311-1.573,7.306,4.218Z" transform="translate(-148.609 -60.09)" fill="#ff2c9c"/><path d="M247.295,61.065l-7.305-4.218.311-1.573,7.306,4.218Z" transform="translate(-121.745 -28.04)" fill="#d4ecff"/><path d="M245.686,68.484l-7.305-4.218.311-1.573L246,66.911Z" transform="translate(-120.929 -31.804)" fill="#fff"/><path d="M318.461,171.389l-7.305-4.218.311-1.573,7.306,4.218Z" transform="translate(-157.848 -84.007)" fill="#d4ecff"/><path d="M242.468,83.322,235.162,79.1l.311-1.573,7.306,4.218Z" transform="translate(-119.297 -39.331)" fill="#d4ecff"/><path d="M280.093,89.967a.912.912,0,0,1-1.314.4,1.143,1.143,0,0,1-.471-1.434.912.912,0,0,1,1.314-.4,1.143,1.143,0,0,1,.471,1.435" transform="translate(-141.136 -44.844)" fill="#ff2c9c"/><path d="M286.479,93.654a.912.912,0,0,1-1.314.4,1.144,1.144,0,0,1-.471-1.435.912.912,0,0,1,1.314-.4,1.143,1.143,0,0,1,.471,1.434" transform="translate(-144.376 -46.714)" fill="#fff"/><path d="M292.866,97.341a.912.912,0,0,1-1.314.4,1.143,1.143,0,0,1-.471-1.434.911.911,0,0,1,1.314-.4,1.143,1.143,0,0,1,.471,1.434" transform="translate(-147.616 -48.585)" fill="#d4ecff"/><path d="M299.252,101.029a.912.912,0,0,1-1.314.4,1.144,1.144,0,0,1-.471-1.435.911.911,0,0,1,1.314-.4,1.143,1.143,0,0,1,.471,1.434" transform="translate(-150.856 -50.456)" fill="#ff2c9c"/><g transform="translate(130.196 150.545)" opacity="0.5"><g clip-path="url(#d)"><path d="M314.215,305.972a3.916,3.916,0,0,0-3.543,0l-45.691,26.39a1.079,1.079,0,0,0,0,2.045,3.916,3.916,0,0,0,3.543,0l45.692-26.39a1.08,1.08,0,0,0,0-2.045" transform="translate(-264.248 -305.548)" fill="#173d7a"/></g></g><path d="M378.444,277.292h0a.2.2,0,0,0-.215-.094l-2.764.6,1.088,1.852,1.868-2.124a.2.2,0,0,0,.022-.234" transform="translate(-190.471 -140.619)" fill="#d4ecff"/><path d="M368.656,278.972a1.382,1.382,0,0,0-.634-1.078.454.454,0,0,0-.415-.051,17.657,17.657,0,0,0-9.089,2.433l-.2.117,3.433,5.841,1.014-.672a17.649,17.649,0,0,0,5.3-5.494l.434-.708a.452.452,0,0,0,.158-.388" transform="translate(-181.773 -140.933)" fill="#5793ce"/><path d="M361.733,287.167a5.294,5.294,0,0,0-2.428-4.13c-1.329-.753-2.4-.126-2.384,1.4a5.293,5.293,0,0,0,2.428,4.13c1.328.754,2.4.126,2.384-1.4" transform="translate(-181.064 -143.421)" fill="#d4ecff"/><path d="M319.757,301.586l20.375-12.694-3.433-5.841-21,11.633Z" transform="translate(-160.153 -143.591)" fill="#d4ecff"/><path d="M319.733,311.525a6.256,6.256,0,0,0-2.869-4.88c-1.57-.89-2.832-.149-2.817,1.656a6.255,6.255,0,0,0,2.869,4.88c1.57.89,2.832.149,2.817-1.656" transform="translate(-159.314 -155.368)" fill="#d4ecff"/><path d="M317.374,312.911a6.256,6.256,0,0,0-2.869-4.88c-1.57-.89-2.832-.149-2.817,1.656a6.255,6.255,0,0,0,2.869,4.88c1.57.89,2.832.149,2.817-1.656" transform="translate(-158.118 -156.071)" fill="#d4ecff"/><rect width="31.268" height="8.005" transform="matrix(0.862, -0.507, 0.507, 0.862, 127.429, 167.622)" fill="#d4ecff"/><path d="M262.663,345.07a6.256,6.256,0,0,0-2.869-4.88c-1.57-.89-2.832-.149-2.817,1.656a6.255,6.255,0,0,0,2.869,4.88c1.57.89,2.832.149,2.817-1.656" transform="translate(-130.363 -172.386)" fill="#d4ecff"/><path d="M262.689,345.991a4.135,4.135,0,0,0-1.938-2.964c-1.008-.572-1.775-.171-1.713.894a4.133,4.133,0,0,0,1.938,2.964c1.008.572,1.775.171,1.713-.894" transform="translate(-131.407 -173.884)" fill="#396caa"/><path d="M321.318,310.9a6.256,6.256,0,0,0-2.869-4.88,2.211,2.211,0,0,0-1.682-.315,1.806,1.806,0,0,1,2.3-.056,6.257,6.257,0,0,1,2.869,4.88c.008,1.078-.44,1.772-1.136,1.97a2.236,2.236,0,0,0,.52-1.6" transform="translate(-160.695 -154.864)" fill="#fff"/><path d="M319.415,311.28a6.256,6.256,0,0,0-2.869-4.88,1.989,1.989,0,0,0-2-.183l-1.527.9.728,1.238a6.392,6.392,0,0,0,2.6,4.425l.728,1.238,1.527-.9a1.989,1.989,0,0,0,.815-1.839" transform="translate(-158.791 -155.244)" fill="#5793ce"/><path d="M317.049,313.1a6.256,6.256,0,0,0-2.869-4.88c-1.57-.89-2.832-.149-2.817,1.656a6.255,6.255,0,0,0,2.869,4.88c1.57.89,2.832.149,2.817-1.656" transform="translate(-157.953 -156.169)" fill="#d4ecff"/><path d="M255.315,347.871l-1.75-2.977-5.713,3.358a1.727,1.727,0,1,0,1.75,2.977Z" transform="translate(-125.301 -174.963)" fill="#ff2c9c"/><path d="M262.064,346.992a2.7,2.7,0,0,0-1.238-2.105c-.677-.384-1.221-.065-1.216.714a2.7,2.7,0,0,0,1.238,2.105c.677.384,1.221.064,1.215-.714" transform="translate(-131.699 -174.877)" fill="#ff2c9c"/><path d="M269.539,319.164l-.856-.486a1.823,1.823,0,0,0-1.833.2l-2.936,1.725a2.236,2.236,0,0,0-1,1.757l.012,1.469a1.21,1.21,0,0,1-.3.739l.11.68-.732-.419h0a.375.375,0,0,1-.174-.357l-.011-1.47a4.658,4.658,0,0,1,2.077-3.663l2.936-1.726a2.594,2.594,0,0,1,2.607-.279l.856.486a1.823,1.823,0,0,0,1.833-.2l11.835-6.956a.381.381,0,0,1,.391-.038h0l.731.418-.626.241a1.211,1.211,0,0,1-.486.645l-11.835,6.956a2.593,2.593,0,0,1-2.607.279" transform="translate(-132.823 -157.56)" fill="#5793ce"/><path d="M270.186,319.539a1.823,1.823,0,0,0-1.833.2l-2.936,1.726a2.233,2.233,0,0,0-1,1.757l.011,1.47a1.211,1.211,0,0,1-.541.953c-.3.177-.547.037-.55-.312l-.011-1.47a4.662,4.662,0,0,1,2.077-3.663l2.936-1.726a2.593,2.593,0,0,1,2.607-.278l.856.486a1.823,1.823,0,0,0,1.833-.2l11.835-6.956c.3-.177.547-.037.55.312a1.211,1.211,0,0,1-.54.953l-11.835,6.956a2.592,2.592,0,0,1-2.607.279Z" transform="translate(-133.586 -157.996)" fill="#5793ce"/><path d="M265.47,335.447l.011,1.47c0,.009,0,.02,0,.03a.956.956,0,0,0,.041-.272l-.011-1.469c0-.042.006-.086.009-.128a1.657,1.657,0,0,0-.046.371" transform="translate(-134.672 -169.982)" fill="#fff"/><g transform="translate(17.727 146.519)" opacity="0.5"><g clip-path="url(#e)"><path d="M40.584,297.377a5.758,5.758,0,0,0,.714,1.509c-3.751,3.159-3.2,7.509,1.661,10.316,5.487,3.168,14.384,3.168,19.872,0,4.045-2.335,5.1-5.74,3.185-8.638a8.137,8.137,0,0,0,1.369-1.475c3.5,3.4,3.11,7.755-1.161,10.939l4.553,2.665a6.64,6.64,0,0,1,5.143.186l16.548,9.554c1.566.9,1.37,2.483-.439,3.527a6.789,6.789,0,0,1-6.109.253l-16.548-9.554a1.654,1.654,0,0,1-.584-2.7L64.2,311.275c-6.627,3.477-16.874,3.378-23.273-.316-6.478-3.74-6.587-9.761-.338-13.582" transform="translate(-35.979 -297.377)" fill="#173d7a"/></g></g><g transform="translate(19.81 135.308)" opacity="0.5"><g clip-path="url(#f)"><path d="M44.559,277.214c5.982-3.454,15.68-3.454,21.662,0,2.48,1.432,3.928,3.233,4.352,5.1a7.839,7.839,0,0,1-3.52,4.574,12.475,12.475,0,0,0-1.671-1.149c-5.981-3.453-15.68-3.453-21.662,0-.295.17-.571.347-.836.527a7.29,7.29,0,0,1-2.677-3.952c.423-1.863,1.872-3.665,4.352-5.1" transform="translate(-40.207 -274.624)" fill="#d4ecff"/></g></g><path d="M70.23,282.155l-2.337-3.047-7.1-3.3-6.114-.542-7.16.877-4.967,2.567-3.172,2.025-.571-3.3,1.072-3.8s2.713-1.794,2.88-1.961S49.11,269.3,49.11,269.3l6.177-.417,4.967.626,5.051,1.5,3.339,2.337,2.5,3.173.282,3.965Z" transform="translate(-19.69 -136.402)" fill="#d3008d"/><path d="M35.332,287.878V294.3l1.716-2.782Z" transform="translate(-17.924 -146.039)" fill="#d3008d"/><path d="M65.188,284.539c-5.981-3.453-15.68-3.453-21.662,0a9.507,9.507,0,0,0-3.868,3.763c-.527-.472-1.206-.843-1.487-1.478a12.067,12.067,0,0,1,3.751-3.211c6.868-3.965,18-3.965,24.869,0a12.448,12.448,0,0,1,3.522,2.905,5.26,5.26,0,0,1-1.255,1.788,9.5,9.5,0,0,0-3.87-3.768" transform="translate(-19.364 -142.367)" fill="#d3008d"/><g transform="translate(19.81 135.308)" opacity="0.5"><g clip-path="url(#g)"><path d="M44.559,277.214c5.982-3.453,15.68-3.454,21.662,0,2.48,1.432,3.928,3.233,4.352,5.1-.424,1.864-1.872,3.665-4.352,5.1-5.982,3.453-15.68,3.454-21.662,0-2.48-1.432-3.928-3.233-4.352-5.1.423-1.863,1.872-3.665,4.352-5.1" transform="translate(-40.207 -274.624)" fill="#d4ecff"/></g></g><path d="M36.734,290.415a2.131,2.131,0,0,0,.534.694l.005-.067,1.587.946,1.948,1.809,2.7,1.2,3.729,1.336,3.311.779,4.563.195L58.06,297l5.843-1.53,3.808-3.367c-.031-.067-.056-.135-.09-.2a5.257,5.257,0,0,0,1.255-1.788q.154.192.294.388l1.335-2.78v6.666l0-.006c0,2.6-1.711,5.2-5.148,7.185-6.867,3.965-18,3.965-24.869,0-5.22-3.014-6.468-7.451-3.751-11.147" transform="translate(-17.927 -145.957)" fill="#d3008d"/><path d="M98.256,293.313,99.63,292.1c-.032-.068-.056-.135-.09-.2a5.252,5.252,0,0,0,1.255-1.788q.154.193.294.388l1.335-2.781v6.666l0-.006c0,2.337-1.387,4.674-4.164,6.564Z" transform="translate(-49.845 -145.957)" fill="#ff2c9c"/><path d="M40.482,284.6c6.867,3.965,18,3.965,24.869,0s6.868-10.393,0-14.358-18-3.965-24.869,0-6.867,10.393,0,14.358m1.6-13.432c5.982-3.453,15.68-3.454,21.662,0s5.981,9.052,0,12.506-15.68,3.454-21.662,0-5.981-9.053,0-12.506" transform="translate(-17.923 -135.586)" fill="#ff2c9c"/><path d="M108.235,311.376,98.488,305.7l-1.3,2.1,9.791,5.7Z" transform="translate(-49.305 -155.082)" fill="#d4ecff"/><path d="M116.561,318.72c0,.557.391.783.874.5a1.931,1.931,0,0,0,.874-1.513c0-.557-.391-.783-.874-.5a1.931,1.931,0,0,0-.874,1.513" transform="translate(-59.131 -160.857)" fill="#983be9"/><path d="M116.561,318.72c0,.557.391.783.874.5a1.931,1.931,0,0,0,.874-1.513c0-.557-.391-.783-.874-.5a1.931,1.931,0,0,0-.874,1.513" transform="translate(-59.131 -160.857)" fill="#983be9"/><path d="M96.773,307.2c0,.557.391.783.874.5a1.931,1.931,0,0,0,.874-1.514c0-.557-.391-.782-.874-.5a1.931,1.931,0,0,0-.874,1.513" transform="translate(-49.092 -155.015)" fill="#d4ecff"/><path d="M106.83,314.005a8.309,8.309,0,0,1,3.759-6.511,2.606,2.606,0,0,1,2.7-.232v0L133.9,319.237l-5.384,9.165-20.389-11.87a1.8,1.8,0,0,1-.392-.228l-.017-.01h0a2.8,2.8,0,0,1-.89-2.287" transform="translate(-54.194 -155.731)" fill="#5793ce"/><path d="M135,321.775l-23.063-13.315a6.277,6.277,0,0,1,1.243-.965,2.605,2.605,0,0,1,2.7-.232v0l20.605,11.976Z" transform="translate(-56.786 -155.731)" fill="#d4ecff"/><path d="M148.679,338.327c0,2.4,1.683,3.369,3.759,2.17a8.31,8.31,0,0,0,3.759-6.511c0-2.4-1.683-3.369-3.759-2.17a8.309,8.309,0,0,0-3.759,6.511" transform="translate(-75.424 -168.068)" fill="#d4ecff"/><path d="M154.875,340.765a2.449,2.449,0,1,0,2.449-2.449,2.449,2.449,0,0,0-2.449,2.449" transform="translate(-78.567 -171.626)" fill="#5793ce"/><path d="M160.754,340.72a.724.724,0,1,0,.723-.723.723.723,0,0,0-.723.723" transform="translate(-81.55 -172.479)" fill="#fff"/><path d="M151.875,331.492a2.545,2.545,0,0,1,2.795-.169,2.728,2.728,0,0,0-2.517.33,8.309,8.309,0,0,0-3.759,6.511,2.734,2.734,0,0,0,.965,2.339,2.55,2.55,0,0,1-1.242-2.5,8.31,8.31,0,0,1,3.759-6.511" transform="translate(-75.138 -167.905)" fill="#fff"/><path d="M44.425,272.519c5.982-3.453,15.68-3.454,21.662,0,3.115,1.8,4.6,4.179,4.475,6.535-.119-2.168-1.608-4.317-4.475-5.972-5.981-3.453-15.68-3.453-21.662,0-2.867,1.655-4.356,3.8-4.475,5.972-.13-2.356,1.36-4.737,4.475-6.535" transform="translate(-20.262 -136.934)" fill="#fff"/><path d="M40.487,295.346c6.867,3.965,18,3.965,24.869,0,3.31-1.911,5.02-4.394,5.139-6.9.129,2.692-1.581,5.407-5.139,7.461-6.867,3.965-18,3.965-24.869,0-3.558-2.054-5.268-4.769-5.139-7.461.12,2.5,1.829,4.987,5.139,6.9" transform="translate(-17.928 -146.328)" fill="#fff"/><path d="M158.586,275.025s-1.848-.932-2.982.456a14.2,14.2,0,0,0-2.807,6.875c-.05,2.213,1.751,2.063,2.822,1.54s4.2-5.061,4.388-5.95a3.085,3.085,0,0,0-.524-2.327c-.3-.235-.9-.593-.9-.593" transform="translate(-77.513 -139.363)" fill="#ff2c9c"/><path d="M161.764,273.981l.086,1.914a1.087,1.087,0,0,1-.541,1,2.131,2.131,0,0,1-1.425.221c-1.391-.224-1.516-.621-1.615-2.535s3.5-.6,3.5-.6" transform="translate(-80.287 -138.765)" fill="#d4ecff"/><path d="M144.861,267.556s-1.848-.932-2.982.456a14.2,14.2,0,0,0-2.807,6.875c-.05,2.213,1.752,2.063,2.822,1.54s4.2-5.061,4.388-5.95a3.085,3.085,0,0,0-.524-2.327c-.3-.235-.9-.593-.9-.593" transform="translate(-70.55 -135.574)" fill="#ff2c9c"/><path d="M148.039,266.512l.085,1.914a1.085,1.085,0,0,1-.54,1,2.131,2.131,0,0,1-1.425.221c-1.392-.224-1.516-.621-1.616-2.535s3.5-.6,3.5-.6" transform="translate(-73.325 -134.976)" fill="#d4ecff"/><path d="M161.525,191.9c-.547-8.9-9.635,1.31-9.635,1.31l-6.22,6.1-5.6,6.153a5.519,5.519,0,0,0-1.391,4.435l2.265,17.253a1.7,1.7,0,0,0,1.7,1.474,5.823,5.823,0,0,0,.84-.073,2.108,2.108,0,0,0,1.872-2.237l-.414-16.137,11.763-7.091s5.368-2.286,4.821-11.183" transform="translate(-70.326 -95.502)" fill="#173d7a"/><path d="M175.251,198.778c-.547-8.9-9.635,1.309-9.635,1.309l-6.22,6.1-5.6,6.153a5.52,5.52,0,0,0-1.391,4.435l2.265,17.253a1.7,1.7,0,0,0,1.7,1.474,5.827,5.827,0,0,0,.84-.073,2.108,2.108,0,0,0,1.872-2.237l-.4-15.672,11.751-7.555s5.368-2.286,4.821-11.183" transform="translate(-77.29 -98.992)" fill="#173d7a"/><path d="M174.224,143.544c6.89,2.857,6.752,6.929,6.752,6.929s-1.35,14.931-.889,24.9c.192,4.169-22.149,4.487-18.817-6.635,3.928-13.113,2.456-23.729,4.295-25.33s6.877-.607,8.659.132" transform="translate(-81.64 -72.317)" fill="#ff2c9c"/><path d="M185.259,148.217c-.361,1.4-2.194,2.136-4.094,1.647s-3.149-2.021-2.789-3.419,2.193-2.136,4.094-1.647,3.149,2.021,2.789,3.419" transform="translate(-90.458 -73.378)" fill="#ffc2b0"/><path d="M181.192,154.593l-1.268,1.377a.833.833,0,0,0-.215.661l.872,7.536a.82.82,0,0,1-.163.593l-2.728,3.568a.247.247,0,0,1-.431-.075l-1.485-4.673a.817.817,0,0,1,.015-.541l2.612-6.845a.836.836,0,0,0,.037-.47l-.382-1.815Z" transform="translate(-89.15 -78.077)" fill="#fff"/><path d="M182,150.007a5.06,5.06,0,0,1-1.258-.162,4.58,4.58,0,0,1-2.415-1.48,2.634,2.634,0,0,1-.61-2.341c.405-1.572,2.42-2.417,4.495-1.883s3.43,2.249,3.025,3.821a2.633,2.633,0,0,1-1.665,1.755,4.216,4.216,0,0,1-1.571.29m-1.05-5.37a2.492,2.492,0,0,0-2.6,1.551,2,2,0,0,0,.483,1.761,4.178,4.178,0,0,0,4.489,1.156A1.994,1.994,0,0,0,184.6,147.8c.315-1.22-.83-2.575-2.552-3.018a4.407,4.407,0,0,0-1.1-.141" transform="translate(-90.118 -73.041)" fill="#fff"/><path d="M182.241,142.519a16.963,16.963,0,0,1-.06,2.46c-.037.686,2.366,1.328,2.987.707s.372-1.267.522-3.6-3.449.437-3.449.437" transform="translate(-92.42 -71.603)" fill="#ffc2b0"/><path d="M185.691,143.046a4.84,4.84,0,0,1-3.51,3l.044-1.968Z" transform="translate(-92.419 -72.567)" fill="#ea9c92"/><path d="M182.307,127.782a5.3,5.3,0,1,1-6.462-3.807,5.3,5.3,0,0,1,6.462,3.807" transform="translate(-87.188 -62.806)" fill="#ffc2b0"/><path d="M178.352,133.647a16.418,16.418,0,0,1-4.942,1.265c-2.022.014-1.577-1.679-1.577-1.679l6-.867Z" transform="translate(-87.149 -67.149)" fill="#ea9c92"/><path d="M170.434,127.277a9.471,9.471,0,0,1,4.775-.63,2.342,2.342,0,0,1,1.349.8.8.8,0,0,0,.408.3c.4.09,1.044-1.552,1.813-1.589s1.283.507.652,1.517-.418,2.14-.128,2.3,3.883-2.345,1.168-7.723-10.126-2.332-11.2-1.242c0,0-1.13.984-2.049.108,0,0-1.03,7.716,3.21,6.16" transform="translate(-84.776 -60.449)" fill="#d4ecff"/><path d="M184.684,178.4v4.035a1.643,1.643,0,0,1-.537,1.215l-8.288,7.557.942,1.44,11.418-7.487a2.223,2.223,0,0,0,.907-1.568l.781-7.488Z" transform="translate(-89.212 -89.338)" fill="#ffc2b0"/><path d="M196.428,154.533s2.514,3.782,3.451,13.736c0,0-4.3,1.389-6.733.6s3.282-14.336,3.282-14.336" transform="translate(-97.675 -78.394)" fill="#ff2c9c"/><path d="M191.767,164.238a70.091,70.091,0,0,0-1.04,7.744,1.579,1.579,0,0,0,1.04,1.526Z" transform="translate(-96.754 -83.317)" fill="#d3008d"/><path d="M163.12,209.977l-1.832-.242-11.825-6.827a1.644,1.644,0,0,0-1.479.062l-8.379,4.836-1.108-.146v1.1h0a.432.432,0,0,0,.254.388l13.4,7.737a1.643,1.643,0,0,0,1.479-.061l9.126-5.267a.6.6,0,0,0,.362-.5Z" transform="translate(-70.259 -102.859)" fill="#5793ce"/><path d="M154.235,208.153l-.84-.485h-9.237l-4.554,2.627-1.108-.146v1.1h0a.431.431,0,0,0,.254.388l13.4,7.737a1.386,1.386,0,0,0,.763.143Z" transform="translate(-70.259 -105.349)" fill="#396caa"/><path d="M138.989,212.768l-.492-.065v1.1h0a.431.431,0,0,0,.254.388l.236.136Z" transform="translate(-70.259 -107.903)" fill="#5793ce"/><path d="M166.49,229.549a1.718,1.718,0,0,0,1.257-.078V227.6H166.49Z" transform="translate(-84.46 -115.458)" fill="#5793ce"/><path d="M152.154,214.713l-13.4-7.737c-.379-.219-.332-.6.106-.854l9.125-5.267a1.644,1.644,0,0,1,1.479-.061l13.4,7.737c.379.219.332.6-.106.854l-9.125,5.267a1.644,1.644,0,0,1-1.479.061" transform="translate(-70.259 -101.787)" fill="#fff"/><path d="M154.064,216.451l-11.143-6.434c-.315-.182-.275-.5.089-.71l4.89-2.75a1.365,1.365,0,0,1,1.23-.051l11.143,6.433c.315.182.276.5-.088.71l-4.89,2.75a1.368,1.368,0,0,1-1.23.051" transform="translate(-72.395 -104.698)" fill="#d4ecff"/><path d="M158.583,200.076l-.139.925a6.844,6.844,0,0,0,.061,2.371l.165.815a1.147,1.147,0,0,0,.918.9.632.632,0,0,0,.742-.552l.221-1.977s.506.663.75.663-.273-1.98-.825-3.1-1.892-.045-1.892-.045" transform="translate(-80.34 -101.262)" fill="#ffc2b0"/><path d="M162.45,167.854l-1.438,2.846a5.586,5.586,0,0,0-.588,2.161l-.624,9.735-1.892-.045-.859-10.933a4.015,4.015,0,0,1,.049-1.011l.981-5.544Z" transform="translate(-79.664 -83.736)" fill="#ffc2b0"/><path d="M150.576,209.488l-1.124-1.466-11.817-6.842a1.643,1.643,0,0,1-.685-1.313l.01-9.675-.679-.887.639-.37h0a.43.43,0,0,1,.463.027l13.392,7.754a1.644,1.644,0,0,1,.685,1.313l-.011,10.536a.6.6,0,0,1-.251.562Z" transform="translate(-69.135 -95.818)" fill="#173d7a"/><path d="M142.4,203.941l-.84-.486-4.609-8,0-5.258-.679-.887.639-.37h0a.432.432,0,0,1,.464.027l13.392,7.754a1.386,1.386,0,0,1,.5.59Z" transform="translate(-69.135 -95.819)" fill="#396caa"/><path d="M136.584,189.7l-.3-.394.639-.37h0a.433.433,0,0,1,.464.027l.236.136Z" transform="translate(-69.135 -95.818)" fill="#5793ce"/><path d="M164.53,204.959a1.714,1.714,0,0,1,.559,1.128l-1.309.755-.627-1.089Z" transform="translate(-82.767 -103.975)" fill="#274f89"/><path d="M149.9,197.466l-13.392-7.754c-.379-.219-.687.013-.687.518l-.011,10.536a1.643,1.643,0,0,0,.685,1.313l13.392,7.754c.379.219.686-.013.687-.518l.012-10.536a1.647,1.647,0,0,0-.685-1.313" transform="translate(-68.894 -96.198)" fill="#5793ce"/><path d="M173.223,208.2l-.215.444a2.977,2.977,0,0,1-1.119,1.241l-1.33.82a1.325,1.325,0,0,1-1.358.032l-.045-.028a.8.8,0,0,1-.113-1.229l1.39-1.429s-.781.6-1,.358c-.161-.177.757-1.039,1.462-1.067a2.785,2.785,0,0,0,1.387-.582Z" transform="translate(-85.635 -104.888)" fill="#ffc2b0"/><path d="M163.253,144.254s-5.1,5.545-7.152,10.632a10.4,10.4,0,0,0,6.008,4.371c4.265,1.232,1.144-15,1.144-15" transform="translate(-79.189 -73.179)" fill="#ff2c9c"/><path d="M165.194,165.822l.826-7.979-1.946,7.475a11.11,11.11,0,0,0,1.12.5" transform="translate(-83.234 -80.073)" fill="#d3008d"/><path d="M176.953,141.6l-1.369-.376a3.3,3.3,0,0,0,1.608,1.291c.954.262,1.1-.546,1.1-.546Z" transform="translate(-89.073 -71.64)" fill="#fff"/><path d="M191.637,136.749a.763.763,0,1,1-.763-.763.763.763,0,0,1,.763.763" transform="translate(-96.443 -68.985)" fill="#fff"/><g transform="translate(1.537 108.058)" opacity="0.5"><g clip-path="url(#h)"><path d="M22.181,230.321a17.453,17.453,0,0,1-15.791,0c-4.36-2.518-4.36-6.6,0-9.117a17.449,17.449,0,0,1,15.79,0c4.361,2.517,4.361,6.6,0,9.117" transform="translate(-3.12 -219.316)" fill="#173d7a"/></g></g><path d="M25.407,212.391v-3.566h-.674a8.107,8.107,0,0,0-3.047-2.85c-4.961-2.865-13-2.865-17.964,0a8.107,8.107,0,0,0-3.047,2.85H0v3.547H0c-.008,1.884,1.23,3.768,3.719,5.205,4.961,2.864,13,2.864,17.965,0,2.481-1.432,3.721-3.309,3.72-5.186" transform="translate(-0.001 -103.4)" fill="#ff2c9c"/><path d="M21.686,211.606c-4.961,2.864-13,2.864-17.965,0s-4.961-7.508,0-10.372,13-2.864,17.964,0,4.961,7.508,0,10.372" transform="translate(0 -100.995)" fill="#ff2c9c"/><path d="M21.7,219.4c-4.961,2.864-13,2.864-17.965,0-2.377-1.373-3.6-3.154-3.7-4.953-.107,1.954,1.118,3.928,3.7,5.419,4.961,2.865,13,2.865,17.965,0,2.583-1.491,3.808-3.465,3.7-5.419-.1,1.8-1.324,3.579-3.7,4.952" transform="translate(-0.014 -108.787)" fill="#fff"/><path d="M13.011,212.82a.568.568,0,0,1-.335-.468l.012-4.778c0-.364.514-.659,1.145-.658s1.142.3,1.142.661l-.011,3.962,11.5-1.408c.618-.076,1.225.152,1.356.509s-.264.707-.881.782L14.056,213a1.812,1.812,0,0,1-.958-.133.98.98,0,0,1-.088-.046" transform="translate(-6.43 -104.967)" fill="#fff"/><path d="M169.6,58.331,150.638,47.388a1.151,1.151,0,0,0-1.077-.078l0-.012-2.261,1.062,1.347.472-2.736,13.8a2.881,2.881,0,0,0,1.122,2.914l18.123,10.46-.321,1.62,2.283-1.07-.01,0a1.649,1.649,0,0,0,.815-1.215l2.794-14.095a2.882,2.882,0,0,0-1.122-2.914" transform="translate(-73.995 -23.95)" fill="#d3008d"/><path d="M161.329,78.677,142.368,67.734a2.881,2.881,0,0,1-1.122-2.914l2.794-14.094c.223-1.123,1.086-1.639,1.928-1.153l18.961,10.943a2.883,2.883,0,0,1,1.122,2.914l-2.794,14.094c-.222,1.123-1.086,1.639-1.928,1.153" transform="translate(-71.626 -25.055)" fill="#ff2c9c"/><path d="M169.438,60.175,150.478,49.231a1.134,1.134,0,0,0-1.245.01,1.2,1.2,0,0,1,.813.159l18.961,10.943a2.881,2.881,0,0,1,1.122,2.914l-2.794,14.094a1.74,1.74,0,0,1-.684,1.143,1.5,1.5,0,0,0,1.115-1.312l2.794-14.094a2.882,2.882,0,0,0-1.122-2.914" transform="translate(-75.705 -24.883)" fill="#fff"/><path d="M157.285,74.3a1,1,0,0,1-1.572.739,2.224,2.224,0,0,1-.986-2.215,1,1,0,0,1,1.572-.739,2.224,2.224,0,0,1,.986,2.215" transform="translate(-78.475 -36.481)" fill="#fff"/><path d="M165.151,78.843a1,1,0,0,1-1.572.739,2.224,2.224,0,0,1-.986-2.215,1,1,0,0,1,1.572-.739,2.224,2.224,0,0,1,.986,2.215" transform="translate(-82.466 -38.784)" fill="#fff"/><path d="M173.017,83.383a1,1,0,0,1-1.572.739,2.224,2.224,0,0,1-.986-2.215,1,1,0,0,1,1.572-.739,2.223,2.223,0,0,1,.987,2.215" transform="translate(-86.456 -41.087)" fill="#fff"/><path d="M319.676,11.121,300.715.177A1.149,1.149,0,0,0,299.639.1l0-.012-2.261,1.062,1.347.472-2.736,13.8a2.882,2.882,0,0,0,1.122,2.914L315.238,28.8l-.321,1.62,2.283-1.07-.01,0A1.649,1.649,0,0,0,318,28.129L320.8,14.035a2.881,2.881,0,0,0-1.122-2.914" transform="translate(-150.129 0)" fill="#5793ce"/><path d="M311.406,31.466,292.445,20.523a2.881,2.881,0,0,1-1.122-2.914l2.794-14.094c.223-1.123,1.086-1.639,1.928-1.153l18.961,10.943a2.882,2.882,0,0,1,1.123,2.914l-2.794,14.094c-.222,1.123-1.086,1.639-1.928,1.153" transform="translate(-147.76 -1.105)" fill="#d4ecff"/><path d="M319.516,12.964,300.556,2.02a1.133,1.133,0,0,0-1.245.011,1.2,1.2,0,0,1,.813.159l18.961,10.943a2.881,2.881,0,0,1,1.122,2.914l-2.794,14.094a1.74,1.74,0,0,1-.684,1.143,1.5,1.5,0,0,0,1.115-1.312l2.794-14.094a2.882,2.882,0,0,0-1.122-2.914" transform="translate(-151.839 -0.933)" fill="#fff"/><path d="M307.362,27.092a1,1,0,0,1-1.572.739,2.224,2.224,0,0,1-.986-2.215,1,1,0,0,1,1.572-.739,2.223,2.223,0,0,1,.986,2.215" transform="translate(-154.608 -12.531)" fill="#fff"/><path d="M315.228,31.632a1,1,0,0,1-1.572.739,2.224,2.224,0,0,1-.986-2.215,1,1,0,0,1,1.572-.739,2.223,2.223,0,0,1,.987,2.215" transform="translate(-158.599 -14.835)" fill="#fff"/><path d="M323.094,36.172a1,1,0,0,1-1.572.739,2.225,2.225,0,0,1-.986-2.216,1,1,0,0,1,1.572-.738,2.223,2.223,0,0,1,.986,2.215" transform="translate(-162.589 -17.137)" fill="#fff"/></g></g></svg>