<svg xmlns="http://www.w3.org/2000/svg" xmlns:xlink="http://www.w3.org/1999/xlink" width="126.595" height="126.597" viewBox="0 0 126.595 126.597">
  <defs>
    <clipPath id="clip-path">
      <path id="Trazado_189538" data-name="Trazado 189538" d="M2.207,63.3A61.091,61.091,0,1,1,63.3,124.39,61.161,61.161,0,0,1,2.207,63.3M63.3,0a63.3,63.3,0,1,0,63.3,63.3A63.369,63.369,0,0,0,63.3,0Z" fill="#fff"/>
    </clipPath>
    <clipPath id="clip-path-2">
      <rect id="Rect치ngulo_68523" data-name="Rect치ngulo 68523" width="74.872" height="74.837" fill="#fff"/>
    </clipPath>
  </defs>
  <g id="Grupo_213463" data-name="Grupo 213463" transform="translate(-657.215 -3047)">
    <g id="Grupo_199119" data-name="Grupo 199119" transform="translate(657.215 3047)">
      <g id="Grupo_172087" data-name="Grupo 172087" clip-path="url(#clip-path)">
        <rect id="Rect치ngulo_49153" data-name="Rect치ngulo 49153" width="157.073" height="157.074" transform="translate(-34.146 10) rotate(-16.323)" fill="#fff"/>
      </g>
    </g>
    <g id="Grupo_213454" data-name="Grupo 213454" transform="translate(683.215 3073)">
      <g id="Grupo_213453" data-name="Grupo 213453" clip-path="url(#clip-path-2)">
        <path id="Trazado_225816" data-name="Trazado 225816" d="M3.557.241A4.875,4.875,0,0,0,.04,4.927C0,9.141-.024,13.356.05,17.569a4.675,4.675,0,0,0,3.221,4.513c.371.145.53.305.515.726-.036,1-.029,2,0,3a.653.653,0,0,1-.488.748A4.867,4.867,0,0,0,.029,31.267c-.02,4.092-.035,8.185.006,12.277a4.817,4.817,0,0,0,3.3,4.764.565.565,0,0,1,.444.626c-.021,1.047-.017,2.095,0,3.142a.57.57,0,0,1-.417.644A4.911,4.911,0,0,0,.025,57.68Q.017,63.6.025,69.519a5.015,5.015,0,0,0,5.308,5.316q32.123.006,64.245,0a4.976,4.976,0,0,0,5.079-3.6c.045-.125.027-.3.215-.345V53.5a12.175,12.175,0,0,1-.477-2.22,19.461,19.461,0,0,0-1.106-3.3c-.161-.335-.2-.6.141-.882.76-.61.948-1.585,1.441-2.368V30.4a6.88,6.88,0,0,0-1.19-2.425,4.709,4.709,0,0,0-2.069-1.423.626.626,0,0,1-.5-.733c.031-1.018.013-2.038.008-3.056,0-.274-.005-.493.341-.613a4.863,4.863,0,0,0,3.275-3.589c.014-.057.09-.1.137-.146V4.093A6.237,6.237,0,0,0,72.94,1.061,8.4,8.4,0,0,0,70.633,0H3.971c-.058.214-.27.191-.413.241M45.116,72.347H5.578c-2.146,0-3.064-.918-3.064-3.063q0-5.7,0-11.4c0-2.06.929-3.006,2.974-3.007q15.019,0,30.037-.015c.584,0,.775.146.7.729a3.663,3.663,0,0,0,.056,1.091c.1.6-.157.707-.708.706q-13.74-.024-27.479-.013a3.241,3.241,0,0,0-1.962.424,2.473,2.473,0,0,0-1.119,2.1c-.015,2.46-.027,4.92,0,7.38a2.533,2.533,0,0,0,2.825,2.569q12.534.005,25.068,0c3.045,0,6.09.006,9.135-.007a1.375,1.375,0,0,1,.988.343c.876.772,1.841,1.425,2.8,2.155h-.713M7.484,60.568c-.007-.514.079-.705.66-.7q13.985.031,27.97.012c.322,0,.6-.034.709.4a18.926,18.926,0,0,0,3.452,7.084h-.849q-15.555,0-31.11.015c-.656,0-.854-.147-.837-.826.049-1.995.034-3.991.006-5.987m29.079-8.545a.367.367,0,0,1-.448.355c-.1-.007-.195,0-.292,0q-14.46,0-28.919.012c-.505,0-.673-.115-.645-.636a21.523,21.523,0,0,0,0-2.481c-.032-.534.155-.627.649-.626q11.429.024,22.858.011h7.7a20.922,20.922,0,0,0-.907,3.366m2.113,3.485A16.852,16.852,0,1,1,55.543,72.351,16.863,16.863,0,0,1,38.677,55.508M7.486,34.236c-.007-.443.113-.585.568-.578,1.655.026,3.31.01,4.778.01L7.5,39.015c0-1.468.015-3.124-.01-4.779m2.356,6.359c2.165-2.172,4.341-4.334,6.5-6.514a1.273,1.273,0,0,1,1.022-.421c1.045.026,2.09.009,3.132.009.123.24-.092.313-.2.416q-3.35,3.362-6.707,6.718a1.049,1.049,0,0,1-.821.374c-1.093-.023-2.186-.008-3.341-.008.057-.318.265-.426.412-.574m7.334.155q3.35-3.362,6.707-6.718a1.049,1.049,0,0,1,.822-.371c1.092.022,2.185.008,3.348.008a1.285,1.285,0,0,1-.477.627c-2.13,2.138-4.274,4.263-6.392,6.414a1.417,1.417,0,0,1-1.15.469c-1.019-.03-2.04-.009-3.057-.009-.118-.242.1-.315.2-.419M24.7,40.7q3.327-3.334,6.658-6.665a1.12,1.12,0,0,1,.89-.38c1.084.023,2.168.008,3.233.008.05.229-.078.291-.156.369q-3.406,3.41-6.818,6.814c-.15.15-.282.322-.541.319-1.182-.01-2.364,0-3.546,0-.009-.274.17-.35.282-.462M38.993,33.9a.591.591,0,0,1,.431-.233c1.182,0,2.363,0,3.547,0,.023.305-.188.388-.312.512-2.178,2.188-4.37,4.363-6.539,6.559a1.333,1.333,0,0,1-1.084.438c-1.035-.032-2.072-.01-3.308-.01L38.993,33.9m3.593,3.885c1.241-1.239,2.49-2.47,3.716-3.724a1.193,1.193,0,0,1,.951-.4c1.51.021,3.021.032,4.53,0,.533-.013.668.17.634.664-.047.678.186,1.486-.11,2s-1.188.359-1.811.536a19.3,19.3,0,0,0-7.414,3.92,1.43,1.43,0,0,1-1.046.4c-.87-.029-1.742-.009-2.84-.009l3.389-3.383M72.339,70.142a2.408,2.408,0,0,1-2.492,2.2c-1.534.026-3.068.006-4.818.006a23.936,23.936,0,0,0,4.135-3.164,22.688,22.688,0,0,0,3.2-4.127c0,1.8.067,3.45-.022,5.088m.043-38.5q0,5.773,0,11.547a3.106,3.106,0,0,1-.551,1.946,19.654,19.654,0,0,0-4.453-4.884,19.022,19.022,0,0,0-11.85-4.059c-.546,0-.659-.153-.63-.641a17.61,17.61,0,0,0,0-1.826,2.505,2.505,0,0,0-2.546-2.552c-.194-.011-.39,0-.585,0H8.136C5.912,31.171,5,32.087,5,34.326c0,2.071.015,4.141-.009,6.212a13.037,13.037,0,0,1,.053,1.949,1.041,1.041,0,0,0,1.1,1.116,19.143,19.143,0,0,1,2.1.07q15.532-.016,31.064-.007h.9c-.524.818-1,1.58-1.5,2.332-.183.278-.491.157-.745.158q-6.25.009-12.5,0H5.592c-2.15,0-3.078-.923-3.079-3.057q0-5.737,0-11.474c0-1.983.971-2.951,2.964-2.951q31.978,0,63.956,0c1.987,0,2.947.971,2.948,2.967M6.26,23.085c-.032-.521.138-.639.644-.637,4.993.02,9.985.012,14.978.012H37.445q15.2,0,30.395-.014c.619,0,.858.109.8.779a20.82,20.82,0,0,0-.008,2.482c.014.395-.124.526-.5.475a2.756,2.756,0,0,0-.365,0q-30.322,0-60.643.016c-.679,0-.949-.114-.875-.849a13.964,13.964,0,0,0,0-2.262M5.435,2.49q16,0,32.007,0H69.3c2.154,0,3.078.916,3.078,3.049q0,5.735,0,11.471c0,2-.949,2.949-2.958,2.949q-31.971,0-63.942,0c-2.013,0-2.967-.951-2.968-2.939q0-5.809,0-11.617A2.585,2.585,0,0,1,5.435,2.49" transform="translate(0)" fill="#fff"/>
        <path id="Trazado_225817" data-name="Trazado 225817" d="M269.207,240.936a7.566,7.566,0,0,1-2.059-7.5,1.291,1.291,0,0,0-2.056-1.465,9.7,9.7,0,0,0-4.633,6.515,2.446,2.446,0,0,1-1.257,1.82,8.082,8.082,0,0,0-3.31,9.137,8.223,8.223,0,0,0,16.064-3.108,8.738,8.738,0,0,0-2.748-5.4m-.645,9.274a5.714,5.714,0,0,1-5.815,2.489,5.656,5.656,0,0,1-4.6-4.669,5.729,5.729,0,0,1,1.289-4.683,7.507,7.507,0,0,0,2.3,2.813c.876.6,1.455.671,1.977.206.55-.49.555-1.008.023-1.971a7.447,7.447,0,0,1-.026-7.578c.156-.287.357-.548.613-.938.128.772.189,1.4.339,2a9.987,9.987,0,0,0,2.454,4.491,12.546,12.546,0,0,1,1.391,1.592,5.656,5.656,0,0,1,.05,6.251" transform="translate(-208.74 -189.21)" fill="#fff"/>
        <path id="Trazado_225818" data-name="Trazado 225818" d="M30.461,39.666H52.239q11.035,0,22.07,0c1.964,0,2.9-.946,2.906-2.913.007-2.241.011-4.482,0-6.722a2.547,2.547,0,0,0-2.844-2.839q-22.107,0-44.214,0a2.571,2.571,0,0,0-2.843,2.85c-.006,2.168,0,4.335,0,6.5,0,2.242.888,3.123,3.149,3.123m.047-10q10.888.032,21.776.014c7.234,0,14.468.008,21.7-.015.622,0,.757.177.746.769-.038,2.045-.029,4.091,0,6.137.006.473-.12.607-.6.607q-21.849-.02-43.7,0c-.523,0-.642-.155-.636-.653.028-2.045.033-4.092,0-6.137-.01-.571.137-.724.717-.722" transform="translate(-22.308 -22.208)" fill="#fff"/>
        <path id="Trazado_225819" data-name="Trazado 225819" d="M369.325,29.731a1.262,1.262,0,0,0,1.2-1.22,1.308,1.308,0,0,0-1.256-1.251,1.244,1.244,0,0,0-1.215,1.267,1.229,1.229,0,0,0,1.273,1.2" transform="translate(-300.643 -22.267)" fill="#fff"/>
        <path id="Trazado_225820" data-name="Trazado 225820" d="M369.233,56.994a1.247,1.247,0,0,0,1.271-1.215,1.291,1.291,0,0,0-1.255-1.245,1.23,1.23,0,0,0-.016,2.46" transform="translate(-300.625 -44.546)" fill="#fff"/>
        <path id="Trazado_225821" data-name="Trazado 225821" d="M342.063,29.725A1.255,1.255,0,0,0,343.3,28.47a1.284,1.284,0,0,0-1.283-1.215,1.243,1.243,0,0,0-1.177,1.3,1.191,1.191,0,0,0,1.225,1.166" transform="translate(-278.412 -22.261)" fill="#fff"/>
        <path id="Trazado_225822" data-name="Trazado 225822" d="M342.01,57.062a1.221,1.221,0,1,0,.033-2.442,1.221,1.221,0,1,0-.033,2.442" transform="translate(-278.38 -44.616)" fill="#fff"/>
        <path id="Trazado_225823" data-name="Trazado 225823" d="M314.762,29.728a1.216,1.216,0,0,0,1.276-1.2,1.263,1.263,0,0,0-1.218-1.272,1.229,1.229,0,0,0-1.229,1.176,1.209,1.209,0,0,0,1.171,1.3" transform="translate(-256.155 -22.264)" fill="#fff"/>
        <path id="Trazado_225824" data-name="Trazado 225824" d="M369.268,81.828a1.226,1.226,0,1,0,.025,2.453,1.271,1.271,0,0,0,1.227-1.2,1.246,1.246,0,0,0-1.252-1.248" transform="translate(-300.642 -66.841)" fill="#fff"/>
        <path id="Trazado_225825" data-name="Trazado 225825" d="M314.8,54.493a1.24,1.24,0,0,0-1.2,1.3,1.194,1.194,0,0,0,1.241,1.168,1.246,1.246,0,0,0,1.217-1.287,1.265,1.265,0,0,0-1.258-1.178" transform="translate(-256.164 -44.512)" fill="#fff"/>
        <path id="Trazado_225826" data-name="Trazado 225826" d="M342.09,81.823a1.222,1.222,0,0,0-1.264,1.227,1.181,1.181,0,0,0,1.183,1.219,1.224,1.224,0,1,0,.081-2.446" transform="translate(-278.403 -66.837)" fill="#fff"/>
        <path id="Trazado_225827" data-name="Trazado 225827" d="M314.748,81.932a1.178,1.178,0,0,0-1.152,1.24,1.222,1.222,0,1,0,1.152-1.24" transform="translate(-256.16 -66.925)" fill="#fff"/>
        <path id="Trazado_225828" data-name="Trazado 225828" d="M314.822,170.283a1.244,1.244,0,0,0-1.23,1.259,1.223,1.223,0,0,0,2.446.013,1.242,1.242,0,0,0-1.217-1.272" transform="translate(-256.157 -139.095)" fill="#fff"/>
        <path id="Trazado_225829" data-name="Trazado 225829" d="M368.04,171.655a1.2,1.2,0,0,0,1.216,1.191,1.244,1.244,0,0,0,1.256-1.168,1.262,1.262,0,0,0-1.23-1.273,1.22,1.22,0,0,0-1.242,1.249" transform="translate(-300.633 -139.196)" fill="#fff"/>
        <path id="Trazado_225830" data-name="Trazado 225830" d="M342.087,170.423a1.205,1.205,0,0,0-1.256,1.224,1.185,1.185,0,0,0,1.188,1.21,1.218,1.218,0,1,0,.068-2.435" transform="translate(-278.407 -139.209)" fill="#fff"/>
        <path id="Trazado_225831" data-name="Trazado 225831" d="M369.29,197.627a1.225,1.225,0,1,0-.013,2.451,1.241,1.241,0,0,0,1.246-1.257,1.228,1.228,0,0,0-1.232-1.194" transform="translate(-300.644 -161.431)" fill="#fff"/>
        <path id="Trazado_225832" data-name="Trazado 225832" d="M83.425,343.034q4.127.024,8.254,0c.934,0,1.477-.5,1.47-1.264s-.535-1.215-1.494-1.223c-1.363-.011-2.727,0-4.091,0s-2.727-.008-4.091,0c-.951.008-1.494.456-1.51,1.211s.538,1.27,1.46,1.275" transform="translate(-66.952 -278.171)" fill="#fff"/>
        <path id="Trazado_225833" data-name="Trazado 225833" d="M55.9,343.083a1.24,1.24,0,0,0,1.216-1.268,1.2,1.2,0,0,0-1.267-1.2,1.25,1.25,0,0,0-1.2,1.218,1.275,1.275,0,0,0,1.246,1.251" transform="translate(-44.647 -278.229)" fill="#fff"/>
        <path id="Trazado_225834" data-name="Trazado 225834" d="M83.449,56.889c1.363.012,2.727,0,4.091,0,1.388,0,2.776.01,4.164,0,.9-.009,1.421-.458,1.439-1.2.019-.764-.523-1.277-1.45-1.283q-4.127-.024-8.254,0c-.923,0-1.485.51-1.482,1.257s.547,1.222,1.492,1.23" transform="translate(-66.946 -44.429)" fill="#fff"/>
        <path id="Trazado_225835" data-name="Trazado 225835" d="M55.831,57.078a1.214,1.214,0,0,0,1.253-1.235,1.2,1.2,0,0,0-1.2-1.206A1.255,1.255,0,0,0,54.61,55.79a1.27,1.27,0,0,0,1.221,1.288" transform="translate(-44.608 -44.63)" fill="#fff"/>
      </g>
    </g>
  </g>
</svg>
