<svg xmlns="http://www.w3.org/2000/svg" xmlns:xlink="http://www.w3.org/1999/xlink" width="126.595" height="126.808" viewBox="0 0 126.595 126.808">
  <defs>
    <clipPath id="clip-path">
      <path id="Trazado_189538" data-name="Trazado 189538" d="M2.207,63.3A61.091,61.091,0,1,1,63.3,124.39,61.161,61.161,0,0,1,2.207,63.3M63.3,0a63.3,63.3,0,1,0,63.3,63.3A63.369,63.369,0,0,0,63.3,0Z" fill="#fff"/>
    </clipPath>
    <clipPath id="clip-path-2">
      <rect id="Rect치ngulo_68521" data-name="Rect치ngulo 68521" width="75.765" height="75.631" fill="#fff"/>
    </clipPath>
  </defs>
  <g id="Grupo_216712" data-name="Grupo 216712" transform="translate(7057.078 8735.211)">
    <ellipse id="Elipse_4052" data-name="Elipse 4052" cx="63.218" cy="63.218" rx="63.218" ry="63.218" transform="translate(-7056.919 -8735.211)" fill="#f24dc3"/>
    <g id="Grupo_213474" data-name="Grupo 213474" transform="translate(-7395.293 -11782)">
      <g id="Grupo_172088" data-name="Grupo 172088" transform="translate(338.215 3047)">
        <g id="Grupo_172087" data-name="Grupo 172087" clip-path="url(#clip-path)">
          <rect id="Rect치ngulo_49153" data-name="Rect치ngulo 49153" width="157.073" height="157.074" transform="translate(-34.146 10) rotate(-16.323)" fill="#fff"/>
        </g>
      </g>
      <g id="Grupo_213451" data-name="Grupo 213451" transform="translate(364.074 3072)">
        <g id="Grupo_213451-2" data-name="Grupo 213451" clip-path="url(#clip-path-2)">
          <path id="Trazado_225808" data-name="Trazado 225808" d="M66.026,21.219C62.278,9.561,54.391,2.4,42.338.394A28.983,28.983,0,0,0,9.8,21.068a1.748,1.748,0,0,1-.671,1Q4.553,25.443,0,28.851V75.445H75.765V28.851q-4.688-3.467-9.378-6.93a1.178,1.178,0,0,1-.361-.7M34.894,4.616A24.829,24.829,0,0,1,61.688,36.332a1.372,1.372,0,0,1-.686.885q-11.252,6.4-22.481,12.841a1.088,1.088,0,0,1-1.259.006Q26.035,43.62,14.784,37.22a1.369,1.369,0,0,1-.691-.88,26.4,26.4,0,0,1-1.029-7.065A24.818,24.818,0,0,1,34.894,4.616M8.661,27.94A32.087,32.087,0,0,0,9.007,33.9l-4.73-2.694L8.661,27.94M4.473,36.429,28.484,50.147,4.473,68.786ZM8.742,71.09c3.054-2.369,5.991-4.646,8.926-6.925q7.237-5.617,14.463-11.246a.809.809,0,0,1,1.082-.089c1.393.831,2.816,1.611,4.211,2.439a.8.8,0,0,0,.934,0c1.44-.848,2.9-1.658,4.346-2.5a.577.577,0,0,1,.768.034q11.661,9.073,23.335,18.128c.035.027.051.078.106.166Zm62.539-2.319L47.291,50.15l23.99-13.708ZM67.132,28c1.423,1.06,2.731,2.038,4.043,3.01.365.271.037.352-.125.445-1.379.794-2.764,1.578-4.249,2.424A36.942,36.942,0,0,0,67.132,28" transform="translate(0 0)" fill="#fff"/>
          <path id="Trazado_225809" data-name="Trazado 225809" d="M74.966,382.331q-37.083.005-74.167,0a1.6,1.6,0,0,1-.8-.068c.164.309.449.139.665.139q32.745.014,65.491.009c3.006,0,6.012,0,9.018-.009.192,0,.458.167.591-.139a1.6,1.6,0,0,1-.8.068" transform="translate(0 -306.817)" fill="#fff"/>
          <path id="Trazado_225810" data-name="Trazado 225810" d="M.8,382.331q37.083.005,74.167,0a1.6,1.6,0,0,0,.8-.068H0a1.6,1.6,0,0,0,.8.068" transform="translate(0 -306.817)" fill="#fff"/>
          <path id="Trazado_225811" data-name="Trazado 225811" d="M123.8,74.847c1.133-.021,2.268.005,3.4-.015.375-.007.524.092.518.492a6.918,6.918,0,0,0,.206,1.978c.121.436-.071.482-.437.477-1.183-.017-2.367.008-3.55-.015-.4-.008-.556.089-.551.525.022,2,.017,3.992,0,5.988,0,.347.091.476.454.47q1.775-.028,3.55,0c.363.007.486-.114.447-.462a5.272,5.272,0,0,1,0-.591c0-1.485,0-1.441,1.5-1.5a3.557,3.557,0,0,1,2.358.737,8.922,8.922,0,0,0,10.66-.238,1.931,1.931,0,0,1,1.469-.487c.653.069,1.526-.279,1.9.147.324.365.125,1.216.108,1.851-.011.4.077.559.518.547,1.133-.031,2.268-.028,3.4,0,.42.01.543-.116.539-.538q-.031-2.957,0-5.914c0-.427-.127-.543-.543-.534-1.183.026-2.367-.007-3.55.018-.442.009-.528-.107-.438-.543a9.406,9.406,0,0,0,.193-1.831c0-.457.134-.591.589-.577,1.108.032,2.219,0,3.328.017.367.006.529-.075.52-.486-.025-1.158-.022-2.316,0-3.474.007-.4-.142-.5-.517-.492-1.134.021-2.268-.006-3.4.015-.37.007-.515-.08-.512-.483a8.161,8.161,0,0,0-.133-1.764c-.1-.48.111-.46.437-.458,1.109.008,2.22-.023,3.328.015.521.018.724-.074.71-.667-.045-1.9-.039-3.795,0-5.692.01-.544-.174-.666-.668-.631-.564.041-1.134-.008-1.7.014-.681.027-1.561-.29-1.982.136-.325.329-.113,1.212-.094,1.848.012.4-.087.52-.517.56a3.616,3.616,0,0,1-3.262-1.062c-.232-.252-.288-.369-.12-.655.5-.848.941-1.728,1.457-2.564.232-.377.147-.515-.208-.7-.977-.518-1.947-1.052-2.893-1.625-.406-.246-.594-.239-.829.216-.563,1.091-1.186,2.152-1.793,3.221a.968.968,0,0,1-1.684.009c-.618-1.09-1.239-2.179-1.83-3.284-.2-.366-.363-.414-.725-.2q-1.487.888-3.02,1.7c-.364.192-.328.358-.154.655.5.849.968,1.712,1.442,2.573.077.14.279.315.112.454a5.253,5.253,0,0,1-1.635,1.193,3.407,3.407,0,0,1-2.232-.066c-.393-.189-.07-1.138-.122-1.743a.955.955,0,0,1,0-.221c.053-.356-.094-.461-.449-.454-1.158.021-2.318.027-3.476,0-.436-.011-.529.14-.525.547q.029,2.957,0,5.914c-.005.433.138.533.545.526,1.3-.023,2.609-.009,3.932-.009-.055.787-.135,1.5-.143,2.21,0,.39-.116.5-.5.493-1.133-.024-2.268,0-3.4-.015-.364-.006-.535.073-.527.482q.033,1.737,0,3.474c-.008.4.13.5.511.5m8.448-5.864A4.515,4.515,0,0,1,136.818,65a4.615,4.615,0,0,1,4.636,4.016c.161,1.178.026,2.362.084,3.543-.057,1.18.077,2.365-.083,3.543a4.641,4.641,0,0,1-4.634,4.028,4.538,4.538,0,0,1-4.572-3.992,37.525,37.525,0,0,1,0-7.155" transform="translate(-98.955 -45.36)" fill="#fff"/>
        </g>
      </g>
    </g>
  </g>
</svg>
