<svg xmlns="http://www.w3.org/2000/svg" xmlns:xlink="http://www.w3.org/1999/xlink" width="126.595" height="126.808" viewBox="0 0 126.595 126.808">
  <defs>
    <clipPath id="clip-path">
      <path id="Trazado_189538" data-name="Trazado 189538" d="M2.207,63.3A61.091,61.091,0,1,1,63.3,124.39,61.161,61.161,0,0,1,2.207,63.3M63.3,0a63.3,63.3,0,1,0,63.3,63.3A63.369,63.369,0,0,0,63.3,0Z" fill="#fff"/>
    </clipPath>
    <clipPath id="clip-path-2">
      <rect id="Rect치ngulo_68524" data-name="Rect치ngulo 68524" width="74.836" height="74.837" fill="#fff"/>
    </clipPath>
  </defs>
  <g id="Grupo_216716" data-name="Grupo 216716" transform="translate(6420.078 5855.211)">
    <ellipse id="Elipse_4908" data-name="Elipse 4908" cx="63.218" cy="63.218" rx="63.218" ry="63.218" transform="translate(-6420.078 -5855.211)" fill="#f24dc3"/>
    <g id="Grupo_213506" data-name="Grupo 213506" transform="translate(-7395.293 -8902)">
      <g id="Grupo_199121" data-name="Grupo 199121" transform="translate(975.215 3047)">
        <g id="Grupo_172087" data-name="Grupo 172087" clip-path="url(#clip-path)">
          <rect id="Rect치ngulo_49153" data-name="Rect치ngulo 49153" width="157.073" height="157.074" transform="translate(-34.146 10) rotate(-16.323)" fill="#fff"/>
        </g>
      </g>
      <g id="Grupo_213456" data-name="Grupo 213456" transform="translate(1001.215 3073)">
        <g id="Grupo_213455" data-name="Grupo 213455" clip-path="url(#clip-path-2)">
          <path id="Trazado_225853" data-name="Trazado 225853" d="M.359,40.125a3.148,3.148,0,0,0,3.207,2.063c.1,0,.195,0,.292,0,1.514,0,1.684.146,1.991,1.625A32.311,32.311,0,0,0,30.916,68.953c.214.046.43.085.643.135a1.177,1.177,0,0,1,1.063,1.271c.022.34.007.682.01,1.022a3.077,3.077,0,0,0,3.2,3.242q1.606.029,3.214,0a3.047,3.047,0,0,0,3.13-3.159c-.022-2.272.225-2.185,2.143-2.607a31.524,31.524,0,0,0,14.3-7.245A31.853,31.853,0,0,0,68.966,43.821c.309-1.469.487-1.638,1.987-1.631a3.6,3.6,0,0,0,2.115-.415,3.142,3.142,0,0,0,1.559-2.728c0-1.071.016-2.143,0-3.214a3.078,3.078,0,0,0-3.242-3.2c-2.059-.018-2.046-.021-2.5-2.074A32.233,32.233,0,0,0,43.456,5.769c-1.006-.2-1.245-.507-1.267-1.545,0-.219-.01-.439,0-.657A3.151,3.151,0,0,0,40.125.359C39.963.285,39.718.281,39.747,0H35.071a3.568,3.568,0,0,0-2.557,2.537,7.614,7.614,0,0,0-.081,1.744c-.013.924-.139,1.1-1.029,1.28A32.673,32.673,0,0,0,21.1,9.423,32.276,32.276,0,0,0,8.194,23.41,33.008,33.008,0,0,0,5.562,31.4c-.179.891-.356,1.017-1.28,1.03a7.63,7.63,0,0,0-1.744.081A3.568,3.568,0,0,0,0,35.071v4.676c.281-.029.285.215.359.377M2.49,36.064c.005-.891.243-1.132,1.11-1.142.365,0,.731.006,1.1,0a3.184,3.184,0,0,0,3.2-2.571A37.775,37.775,0,0,1,9.766,26,29.983,29.983,0,0,1,31.84,8.023,3.348,3.348,0,0,0,34.921,4.27c0-.219,0-.438,0-.658.01-.877.246-1.114,1.13-1.123.463,0,.925,0,1.388,0,.414,0,.828,0,1.242,0,.987,0,1.209.222,1.216,1.184,0,.341-.006.682,0,1.023a3.188,3.188,0,0,0,2.572,3.2,37.436,37.436,0,0,1,6.346,1.874A29.979,29.979,0,0,1,66.8,31.841a3.343,3.343,0,0,0,3.753,3.08c.219,0,.438,0,.658,0,.877.01,1.116.246,1.122,1.13q.009,1.352,0,2.7c-.005.892-.243,1.133-1.11,1.142-.365,0-.731-.006-1.1,0a3.184,3.184,0,0,0-3.2,2.571,37.766,37.766,0,0,1-1.874,6.346A29.983,29.983,0,0,1,42.979,66.8,3.349,3.349,0,0,0,39.9,70.549c0,.219,0,.438,0,.658-.01.877-.246,1.116-1.13,1.122q-1.352.009-2.7,0c-.892-.005-1.133-.243-1.142-1.11,0-.365.006-.731,0-1.1a3.188,3.188,0,0,0-2.572-3.2A37.436,37.436,0,0,1,26,65.053,29.98,29.98,0,0,1,8.023,42.978,3.343,3.343,0,0,0,4.27,39.9c-.219,0-.438,0-.658,0-.877-.01-1.116-.246-1.122-1.13q-.009-1.351,0-2.7" fill="#fff"/>
          <path id="Trazado_225854" data-name="Trazado 225854" d="M2.539,42.305a6.545,6.545,0,0,0,1.818.074,1.024,1.024,0,0,1,1.2.967,25.331,25.331,0,0,0,1.195,4.575c4.183,11.147,12,18.244,23.607,21.1,2.119.521,2.1.1,2.069,2.5,0,.024,0,.049,0,.073A3.242,3.242,0,0,0,35.573,74.8c1.24.048,2.484.048,3.724,0a3.22,3.22,0,0,0,3.024-2.61,10.022,10.022,0,0,0,.066-1.674c.013-.911.133-1.076,1.054-1.259A32.486,32.486,0,0,0,68.994,44.579c.544-2.347.124-2.177,2.613-2.205a3.206,3.206,0,0,0,3.2-3.149c.045-1.216.043-2.435,0-3.651a3.233,3.233,0,0,0-2.636-3.081,8.444,8.444,0,0,0-1.748-.055A1.01,1.01,0,0,1,69.26,31.5c-.218-1.045-.442-2.092-.744-3.114A32.487,32.487,0,0,0,43.42,5.562c-.9-.177-1.021-.355-1.033-1.277a7.649,7.649,0,0,0-.081-1.746A3.567,3.567,0,0,0,39.747,0c-.029.281.215.285.377.359a3.151,3.151,0,0,1,2.064,3.207c-.009.219,0,.438,0,.657.022,1.038.261,1.349,1.267,1.546A32.326,32.326,0,0,1,68.88,30.558c.455,2.053.443,2.056,2.5,2.074a3.077,3.077,0,0,1,3.242,3.2c.019,1.071,0,2.142,0,3.214a3.141,3.141,0,0,1-1.559,2.728,3.6,3.6,0,0,1-2.115.415c-1.5-.007-1.678.162-1.987,1.631A31.853,31.853,0,0,1,58.623,61.612a31.524,31.524,0,0,1-14.3,7.245c-1.918.422-2.165.336-2.143,2.607a3.047,3.047,0,0,1-3.13,3.159q-1.606.032-3.214,0a3.077,3.077,0,0,1-3.2-3.242c0-.341.012-.682-.01-1.022a1.177,1.177,0,0,0-1.063-1.271c-.213-.05-.429-.089-.643-.135A32.311,32.311,0,0,1,5.849,43.812c-.306-1.479-.476-1.621-1.991-1.625-.1,0-.195,0-.292,0A3.148,3.148,0,0,1,.359,40.125c-.074-.162-.078-.406-.359-.377a3.564,3.564,0,0,0,2.539,2.558" fill="#fff"/>
          <path id="Trazado_225855" data-name="Trazado 225855" d="M148.112,132.468c-.754-.018-1.509-.008-2.264,0a.791.791,0,0,1-.894-.839q-.041-1.642,0-3.286c.014-.583.36-.866.956-.854.681.014,1.363.008,2.045,0a3.322,3.322,0,0,0,3.3-4.626,21.416,21.416,0,0,0-1.367-3.211A22.253,22.253,0,0,0,137,108.678a3.307,3.307,0,0,0-4.53,3.282c-.009.706-.01,1.412,0,2.118a.814.814,0,0,1-.878.934q-1.606.035-3.213,0a.814.814,0,0,1-.888-.924c.009-.73.012-1.461,0-2.191a3.278,3.278,0,0,0-4.449-3.234,22.055,22.055,0,0,0-14.379,14.4,3.269,3.269,0,0,0,3.194,4.421c.754.018,1.509.008,2.264,0a.791.791,0,0,1,.891.842q.04,1.642,0,3.286c-.014.584-.363.863-.959.851-.706-.014-1.412-.012-2.118,0a3.306,3.306,0,0,0-3.242,4.559,22.178,22.178,0,0,0,14.341,14.267,3.284,3.284,0,0,0,4.454-3.154q.031-1.095,0-2.191a.86.86,0,0,1,.954-1.012q1.534-.018,3.067,0a.86.86,0,0,1,.964,1c-.018.779-.03,1.559.007,2.337a3.286,3.286,0,0,0,3.382,3.2,3.423,3.423,0,0,0,.423-.03,3.593,3.593,0,0,0,.639-.146A22.166,22.166,0,0,0,151.3,136.889a3.264,3.264,0,0,0-3.191-4.421m.782,3.78a19.844,19.844,0,0,1-12.623,12.626c-.83.295-1.283-.011-1.3-.881-.017-.681,0-1.363,0-2.045a3.3,3.3,0,0,0-3.381-3.507c-.535-.023-1.071,0-1.735,0a17.027,17.027,0,0,0-2.058.068,3.23,3.23,0,0,0-2.77,3.1c-.028.8,0,1.607-.016,2.41-.02.82-.491,1.159-1.255.888a19.87,19.87,0,0,1-12.673-12.671c-.278-.787.034-1.245.859-1.27.705-.021,1.412,0,2.118-.006a3.217,3.217,0,0,0,3.438-3.127,20.256,20.256,0,0,0-.037-4.01,3.185,3.185,0,0,0-3.129-2.81c-.778-.024-1.558,0-2.337-.012-.872-.018-1.2-.477-.91-1.288A19.844,19.844,0,0,1,123.7,111.08c.83-.295,1.284.011,1.305.88.017.706,0,1.412.006,2.118a3.208,3.208,0,0,0,3.09,3.4,19.834,19.834,0,0,0,4.082-.037,3.18,3.18,0,0,0,2.773-3.087c.028-.8,0-1.607.016-2.41.02-.82.491-1.16,1.255-.889a19.869,19.869,0,0,1,12.673,12.67c.278.787-.033,1.245-.858,1.27-.705.021-1.412,0-2.118.006a3.217,3.217,0,0,0-3.438,3.126,20.245,20.245,0,0,0,.037,4.01,3.185,3.185,0,0,0,3.128,2.811c.778.025,1.558,0,2.337.012.871.018,1.2.478.911,1.289" transform="translate(-92.575 -92.568)" fill="#fff"/>
          <path id="Trazado_225856" data-name="Trazado 225856" d="M44.1,75.145a11.278,11.278,0,0,0,1.606,0c.625-.055.871.1.9.805a22.746,22.746,0,0,0,1.171,6.216A27.257,27.257,0,0,0,64.1,99.509a26.173,26.173,0,0,0,4.326,1.268,1.274,1.274,0,0,0,1.675-.861c.174-.76-.242-1.342-1.13-1.578-.094-.025-.192-.031-.287-.052A24.958,24.958,0,0,1,49,74.352a24.977,24.977,0,0,1,23.91-25.374,25.051,25.051,0,0,1,13.175,3.193A24.416,24.416,0,0,1,98.716,71.69,23.979,23.979,0,0,1,95.47,86.4a3.119,3.119,0,0,0-.426.921,1.162,1.162,0,0,0,.569,1.309,1.1,1.1,0,0,0,1.412-.128,2.991,2.991,0,0,0,.515-.7,26.718,26.718,0,0,0,3.691-12.075c.024-.428.143-.606.6-.581a17.352,17.352,0,0,0,1.9,0,1.228,1.228,0,0,0,1.322-1.251c-.005-.722-.491-1.188-1.343-1.233a14.849,14.849,0,0,0-1.825,0c-.49.035-.622-.158-.65-.615A26.51,26.51,0,0,0,97.976,60.8,27.167,27.167,0,0,0,86.982,49.818a26.485,26.485,0,0,0-11.245-3.246c-.486-.029-.618-.214-.593-.671a16.315,16.315,0,0,0,0-1.825,1.228,1.228,0,0,0-1.251-1.322c-.722.005-1.188.491-1.233,1.343a14.878,14.878,0,0,0,0,1.825c.035.49-.158.622-.615.65A26.5,26.5,0,0,0,60.677,49.9,27.165,27.165,0,0,0,49.755,60.953a26.63,26.63,0,0,0-3.182,11.114c-.03.486-.214.618-.671.593a16.319,16.319,0,0,0-1.825,0,1.228,1.228,0,0,0-1.322,1.251c.005.722.491,1.185,1.343,1.233" transform="translate(-36.492 -36.492)" fill="#fff"/>
          <path id="Trazado_225857" data-name="Trazado 225857" d="M279.761,375.161c-.244.2-.472.42-.705.633a24.706,24.706,0,0,1-7.161,4.529,27.623,27.623,0,0,1-7.171,1.813,1.253,1.253,0,0,0-1.156,1.345,1.33,1.33,0,0,0,1.454,1.132c.271-.041.606-.1.943-.142a27.266,27.266,0,0,0,15.467-7.453,1.24,1.24,0,0,0,.161-1.87,1.291,1.291,0,0,0-1.832.014" transform="translate(-224.957 -319.88)" fill="#fff"/>
          <path id="Trazado_225858" data-name="Trazado 225858" d="M201.341,204.706a.828.828,0,0,1-1-.273c-.969-.993-1.956-1.968-2.937-2.95-1.721-1.722-3.438-3.448-5.167-5.161a1.251,1.251,0,0,0-1.98-.111q-1.222,1.152-2.376,2.375a1.227,1.227,0,0,0-.064,1.769,1.3,1.3,0,0,0,1.835-.022c.563-.459.975-1.489,1.614-1.347s1.123,1.01,1.672,1.562c.068.068.124.148.24.288-.51.484-1.036.954-1.527,1.457a1.225,1.225,0,0,0-.1,1.869,1.271,1.271,0,0,0,1.876-.135c.4-.387.81-.775,1.184-1.191.241-.268.394-.242.636,0q1.737,1.774,3.51,3.513a.534.534,0,0,1,.145.693,3.308,3.308,0,0,0-.123,2.078,3.73,3.73,0,1,0,7.211-1.907,3.674,3.674,0,0,0-4.653-2.513m1.046,4.772a1.215,1.215,0,0,1-1.2-1.288,1.246,1.246,0,0,1,1.242-1.182,1.3,1.3,0,0,1,1.218,1.228,1.252,1.252,0,0,1-1.264,1.242" transform="translate(-160.013 -167.1)" fill="#fff"/>
        </g>
      </g>
    </g>
  </g>
</svg>
